<svg version="1.1" id="Layer_1" xmlns="http://www.w3.org/2000/svg" xmlns:xlink="http://www.w3.org/1999/xlink" x="0px" y="0px"
	 width="100%" viewBox="0 0 1912 1917" enable-background="new 0 0 1912 1917" xml:space="preserve">
<path fill="#000000" opacity="1.000000" stroke="none" 
	d="
M940.000000,1918.000000 
	C626.666687,1918.000000 313.833344,1918.000000 1.000000,1918.000000 
	C1.000000,1279.000000 1.000000,640.000000 1.000000,1.000000 
	C638.333313,1.000000 1275.666626,1.000000 1913.000000,1.000000 
	C1913.000000,640.000000 1913.000000,1279.000000 1913.000000,1918.000000 
	C1588.833374,1918.000000 1264.666626,1918.000000 940.000000,1918.000000 
M899.077332,1252.786377 
	C899.390686,1253.703979 899.744507,1254.610107 900.011292,1255.541016 
	C903.974426,1269.372803 907.926025,1283.207764 911.988708,1297.869995 
	C914.231201,1308.043945 916.633362,1318.185913 918.679565,1328.399170 
	C921.914612,1344.546265 924.989014,1360.726929 927.983459,1376.920654 
	C930.356934,1389.756714 932.607239,1402.617432 934.729309,1415.497437 
	C936.616028,1426.948730 938.355042,1438.426880 939.967590,1449.920166 
	C941.469543,1460.625977 942.634583,1471.378662 944.100403,1482.090088 
	C945.985107,1495.862305 948.184143,1509.592773 949.948608,1523.379639 
	C951.821838,1538.016357 953.305542,1552.702515 955.045776,1567.356934 
	C955.554504,1571.640869 956.358215,1575.889648 957.026794,1580.154541 
	C958.175354,1577.523804 958.690186,1574.970337 958.982117,1572.391479 
	C960.052917,1562.933350 960.889221,1553.446167 962.111755,1544.008423 
	C963.940002,1529.895020 966.093079,1515.824219 967.973816,1501.717285 
	C970.072998,1485.971680 971.812439,1470.175903 974.094116,1454.457886 
	C976.487244,1437.971802 979.298279,1421.545654 981.999939,1405.105469 
	C984.647766,1388.992920 986.756348,1372.757935 990.226624,1356.821777 
	C996.356018,1328.674683 1002.954712,1300.615356 1010.069214,1272.700928 
	C1017.890076,1242.015015 1028.546265,1212.295044 1042.566650,1183.815918 
	C1050.950073,1166.786987 1060.044434,1150.226929 1071.483032,1134.950439 
	C1077.875610,1137.923828 1084.114136,1140.729126 1090.268555,1143.708008 
	C1103.373169,1150.050903 1116.360596,1156.639771 1129.527466,1162.849243 
	C1163.062988,1178.664551 1196.530151,1194.636719 1230.294556,1209.951050 
	C1256.406494,1221.794434 1282.814331,1233.008301 1309.298828,1244.000366 
	C1333.054810,1253.859863 1356.875122,1263.647705 1381.073486,1272.334717 
	C1403.723267,1280.465820 1426.767700,1287.591431 1449.893555,1294.276733 
	C1473.654175,1301.145264 1497.754761,1306.884521 1522.860474,1303.933228 
	C1528.939331,1303.218628 1535.027710,1302.160278 1539.152344,1296.554565 
	C1544.556641,1289.209595 1541.762085,1282.049561 1538.563354,1275.286255 
	C1530.846558,1258.970825 1518.143433,1246.318604 1505.835938,1233.610962 
	C1495.628906,1223.072021 1484.431885,1213.448242 1473.275391,1203.883423 
	C1457.820068,1190.633057 1442.262573,1177.473267 1426.257812,1164.899658 
	C1404.003784,1147.416504 1381.662109,1130.001953 1358.692749,1113.483154 
	C1326.091553,1090.037231 1292.893188,1067.421631 1259.920898,1044.492920 
	C1257.378174,1042.724731 1254.606567,1041.285278 1251.941406,1039.693115 
	C1251.435791,1040.299561 1250.930298,1040.906006 1250.424805,1041.512451 
	C1251.741943,1042.269287 1253.168945,1042.884521 1254.357788,1043.806519 
	C1260.565918,1048.621948 1266.841187,1053.362915 1272.854736,1058.413696 
	C1284.569458,1068.252686 1296.192993,1078.203003 1307.730469,1088.249390 
	C1321.774780,1100.478638 1336.040161,1112.485962 1349.560791,1125.275391 
	C1361.864624,1136.913940 1373.723511,1149.096436 1384.941528,1161.779419 
	C1390.677124,1168.264038 1395.097778,1176.100464 1399.128296,1183.838623 
	C1401.886230,1189.133545 1399.454346,1192.524780 1393.619507,1191.830811 
	C1385.414673,1190.854980 1377.119873,1189.440796 1369.261108,1186.956177 
	C1331.492310,1175.016113 1296.091431,1157.418213 1260.652222,1140.079712 
	C1231.417847,1125.777222 1202.694946,1110.422607 1173.848877,1095.336426 
	C1160.514893,1088.363037 1147.427490,1080.918335 1133.222656,1073.136353 
	C1141.727417,1067.895996 1149.108887,1062.736938 1157.024536,1058.599854 
	C1172.637329,1050.439941 1188.170410,1041.930664 1204.431396,1035.259766 
	C1223.061890,1027.616699 1242.280396,1021.268616 1261.554199,1015.373596 
	C1278.501099,1010.190308 1295.782959,1005.988831 1313.088257,1002.120361 
	C1332.171997,997.854370 1351.427368,994.336487 1370.652466,990.730286 
	C1385.407959,987.962708 1400.214111,985.450684 1415.032715,983.040710 
	C1424.721313,981.465149 1434.477905,980.311890 1444.194214,978.902405 
	C1455.192627,977.306824 1466.171021,975.571899 1477.175293,974.019653 
	C1485.608765,972.830017 1494.072754,971.860291 1502.515991,970.738159 
	C1514.195435,969.185974 1525.855835,967.484985 1537.547241,966.031616 
	C1546.992188,964.857544 1556.477295,964.010315 1565.931396,962.905701 
	C1569.728638,962.461975 1573.490723,961.718262 1577.268799,961.111084 
	C1570.209106,959.373352 1563.212891,958.802429 1556.257080,957.914246 
	C1544.246338,956.380554 1532.273071,954.552063 1520.261108,953.029541 
	C1508.549316,951.545105 1496.779175,950.501892 1485.088135,948.879395 
	C1470.036011,946.790588 1455.042969,944.280334 1440.014038,942.020569 
	C1424.006348,939.613586 1407.937622,937.573792 1391.985229,934.848450 
	C1374.631348,931.883606 1357.301147,928.679565 1340.104614,924.920471 
	C1316.729370,919.810791 1293.479126,914.124573 1270.201050,908.577698 
	C1263.423584,906.962708 1256.734131,904.979004 1249.330566,902.812622 
	C1248.144775,902.320801 1246.982056,901.761292 1245.769653,901.347717 
	C1234.533691,897.515991 1223.289307,893.709412 1211.682129,889.272705 
	C1200.122192,884.236450 1188.562134,879.200195 1176.367065,873.828552 
	C1164.746826,867.161438 1153.009155,860.688354 1141.552734,853.750793 
	C1135.158569,849.878906 1129.231689,845.235229 1122.797974,840.329041 
	C1115.956055,834.141296 1108.945679,828.127686 1102.319702,821.716736 
	C1095.677734,815.290283 1089.419312,808.467285 1082.695435,801.236267 
	C1071.814575,785.123352 1060.933716,769.010376 1049.742920,752.271790 
	C1046.166748,745.041809 1042.232300,737.963562 1039.090698,730.549377 
	C1033.013184,716.206055 1027.382324,701.673462 1021.172546,686.601135 
	C1016.828247,672.392334 1012.483887,658.183533 1008.023315,643.167908 
	C1005.463196,632.675659 1002.791809,622.208984 1000.371826,611.684570 
	C997.473511,599.079590 994.550171,586.471985 992.074036,573.780457 
	C988.968262,557.861450 986.230957,541.868896 983.476624,525.883606 
	C981.527954,514.573975 979.787292,503.228058 978.004822,491.890289 
	C976.425537,481.844879 974.826538,471.801178 973.401062,461.733368 
	C971.835449,450.676086 970.434631,439.595184 969.006836,428.518799 
	C967.893250,419.879425 966.874390,411.227814 965.766602,402.587677 
	C964.200439,390.372284 962.577820,378.164093 961.005127,365.949524 
	C959.943726,357.705750 958.926758,349.456268 957.889954,341.209320 
	C954.942993,356.863647 952.936768,372.480133 951.015076,388.106995 
	C949.590271,399.692841 948.455017,411.316895 946.867493,422.879517 
	C944.747803,438.317657 942.279358,453.707550 940.026978,469.127899 
	C937.939209,483.421417 936.268372,497.784332 933.822388,512.015015 
	C930.160217,533.322205 925.989685,554.542114 922.018127,575.795959 
	C916.148499,607.207458 908.517517,638.183533 899.120544,668.728638 
	C890.369812,697.173157 879.448792,724.710205 865.512512,751.047058 
	C854.386902,772.072205 841.048828,791.589172 825.134888,809.193176 
	C809.236633,826.779846 791.292419,842.139282 771.266418,854.977173 
	C768.679199,856.635742 766.692322,857.110413 763.732666,855.438110 
	C740.713684,842.431213 717.365173,829.995911 694.531372,816.676208 
	C672.570740,803.865967 650.911499,790.511047 629.469482,776.846741 
	C603.291199,760.164185 577.540710,742.783264 554.104004,722.330627 
	C547.808838,716.836975 542.288879,710.226257 537.390015,703.424622 
	C532.279663,696.329346 534.782227,690.253784 543.315552,689.195496 
	C551.062866,688.234619 559.189453,688.052368 566.872925,689.269104 
	C593.446594,693.476990 619.331360,700.768738 644.846863,709.156616 
	C670.686523,717.651062 696.371338,726.652832 721.912231,736.010254 
	C747.752441,745.477173 773.334412,755.649475 799.027039,765.519226 
	C805.684875,768.076782 812.333374,770.658447 818.986145,773.229065 
	C817.946167,771.622986 816.604797,770.740967 815.168457,770.058716 
	C801.655029,763.640564 788.153931,757.195374 774.593872,750.876953 
	C753.300781,740.955383 732.088867,730.845825 710.616760,721.325195 
	C680.475159,707.960571 650.330139,694.564026 619.809570,682.104492 
	C588.872986,669.475159 557.699036,657.347778 526.222717,646.141846 
	C493.203766,634.386780 459.848816,623.542480 424.856293,618.760620 
	C413.482788,617.206238 402.188965,615.853394 390.901001,618.114685 
	C380.930054,620.112061 373.775360,622.629333 372.649780,635.350098 
	C372.148407,641.016296 374.219696,647.328003 376.528656,652.748047 
	C383.942444,670.151123 396.103821,684.494629 409.344788,697.500916 
	C429.888794,717.680847 451.235931,737.079712 472.843079,756.128601 
	C488.755188,770.156799 505.408508,783.375916 522.131714,796.443298 
	C538.942444,809.579224 556.141418,822.227661 573.362915,834.826355 
	C597.735352,852.656555 622.269836,870.265625 646.768555,887.922791 
	C653.067200,892.462463 659.491455,896.828003 666.378723,901.637146 
	C664.865662,902.338257 664.183167,902.778625 663.436157,902.982422 
	C646.231628,907.673584 629.150940,912.913330 611.777832,916.867798 
	C588.633118,922.135986 565.291504,926.565186 541.974304,931.040955 
	C525.080078,934.283875 508.126556,937.264465 491.128845,939.907837 
	C473.934448,942.581726 456.652344,944.690857 439.410156,947.058228 
	C420.219849,949.693176 401.046570,952.458801 381.836914,954.943665 
	C367.211761,956.835449 352.541351,958.377502 337.891083,960.075134 
	C342.436646,961.823669 347.060211,962.451111 351.693909,962.991516 
	C360.843872,964.058472 370.012817,964.973145 379.149414,966.142029 
	C391.033783,967.662292 402.886780,969.426208 414.767273,970.978271 
	C425.848877,972.426025 436.971680,973.572876 448.034515,975.146057 
	C460.532776,976.923401 472.979645,979.059387 485.457520,980.983093 
	C499.078674,983.083069 512.754822,984.861938 526.325073,987.246765 
	C543.421021,990.251099 560.506836,993.393250 577.464783,997.083618 
	C599.215820,1001.817017 620.907288,1006.870972 642.484497,1012.339111 
	C655.463989,1015.628418 668.177124,1019.968811 681.670654,1024.196899 
	C699.917419,1031.707764 718.164246,1039.218750 737.043762,1046.990967 
	C744.334290,1050.983643 751.689453,1054.863647 758.896545,1059.001587 
	C765.645020,1062.876221 772.236633,1067.024292 779.213318,1071.659180 
	C788.467529,1079.150513 797.721680,1086.641724 807.346924,1094.687866 
	C813.129272,1100.521118 819.327576,1106.004395 824.599792,1112.266968 
	C833.240845,1122.531372 841.280151,1133.302124 849.968994,1144.359253 
	C857.680725,1158.035156 865.630005,1171.584473 873.015015,1185.434570 
	C877.448059,1193.748535 881.000366,1202.532104 885.008240,1211.866699 
	C885.688660,1213.844849 886.354492,1215.828125 887.052002,1217.800293 
	C891.087280,1229.209229 895.130066,1240.615601 899.077332,1252.786377 
M1249.481445,1038.097900 
	C1249.471069,1038.623779 1249.460693,1039.149780 1249.450317,1039.675659 
	C1250.046021,1039.658691 1250.641846,1039.641602 1251.237549,1039.624512 
	C1250.949707,1039.132690 1250.661743,1038.640991 1249.481445,1038.097900 
M1246.971802,1037.278809 
	C1247.251465,1037.044312 1247.531250,1036.809692 1247.810913,1036.575073 
	C1247.363037,1036.635376 1246.915039,1036.695801 1246.971802,1037.278809 
z"/>
<path fill="#3148B9" opacity="1.000000" stroke="none" 
	d="
M681.009949,1023.836914 
	C668.177124,1019.968811 655.463989,1015.628418 642.484497,1012.339111 
	C620.907288,1006.870972 599.215820,1001.817017 577.464783,997.083618 
	C560.506836,993.393250 543.421021,990.251099 526.325073,987.246765 
	C512.754822,984.861938 499.078674,983.083069 485.457520,980.983093 
	C472.979645,979.059387 460.532776,976.923401 448.034515,975.146057 
	C436.971680,973.572876 425.848877,972.426025 414.767273,970.978271 
	C402.886780,969.426208 391.033783,967.662292 379.149414,966.142029 
	C370.012817,964.973145 360.843872,964.058472 351.693909,962.991516 
	C347.060211,962.451111 342.436646,961.823669 337.891083,960.075134 
	C352.541351,958.377502 367.211761,956.835449 381.836914,954.943665 
	C401.046570,952.458801 420.219849,949.693176 439.410156,947.058228 
	C456.652344,944.690857 473.934448,942.581726 491.128845,939.907837 
	C508.126556,937.264465 525.080078,934.283875 541.974304,931.040955 
	C565.291504,926.565186 588.633118,922.135986 611.777832,916.867798 
	C629.150940,912.913330 646.231628,907.673584 663.436157,902.982422 
	C664.183167,902.778625 664.865662,902.338257 666.378723,901.637146 
	C659.491455,896.828003 653.067200,892.462463 646.768555,887.922791 
	C622.269836,870.265625 597.735352,852.656555 573.362915,834.826355 
	C556.141418,822.227661 538.942444,809.579224 522.131714,796.443298 
	C505.408508,783.375916 488.755188,770.156799 472.843079,756.128601 
	C451.235931,737.079712 429.888794,717.680847 409.344788,697.500916 
	C396.103821,684.494629 383.942444,670.151123 376.528656,652.748047 
	C374.219696,647.328003 372.148407,641.016296 372.649780,635.350098 
	C373.775360,622.629333 380.930054,620.112061 390.901001,618.114685 
	C402.188965,615.853394 413.482788,617.206238 424.856293,618.760620 
	C459.848816,623.542480 493.203766,634.386780 526.222717,646.141846 
	C557.699036,657.347778 588.872986,669.475159 619.809570,682.104492 
	C650.330139,694.564026 680.475159,707.960571 710.616760,721.325195 
	C732.088867,730.845825 753.300781,740.955383 774.593872,750.876953 
	C788.153931,757.195374 801.655029,763.640564 815.168457,770.058716 
	C816.604797,770.740967 817.946167,771.622986 818.986145,773.229065 
	C812.333374,770.658447 805.684875,768.076782 799.027039,765.519226 
	C773.334412,755.649475 747.752441,745.477173 721.912231,736.010254 
	C696.371338,726.652832 670.686523,717.651062 644.846863,709.156616 
	C619.331360,700.768738 593.446594,693.476990 566.872925,689.269104 
	C559.189453,688.052368 551.062866,688.234619 543.315552,689.195496 
	C534.782227,690.253784 532.279663,696.329346 537.390015,703.424622 
	C542.288879,710.226257 547.808838,716.836975 554.104004,722.330627 
	C577.540710,742.783264 603.291199,760.164185 629.469482,776.846741 
	C650.911499,790.511047 672.570740,803.865967 694.531372,816.676208 
	C717.365173,829.995911 740.713684,842.431213 763.732666,855.438110 
	C766.692322,857.110413 768.679199,856.635742 771.266418,854.977173 
	C791.292419,842.139282 809.236633,826.779846 825.134888,809.193176 
	C841.048828,791.589172 854.386902,772.072205 865.512512,751.047058 
	C879.448792,724.710205 890.369812,697.173157 899.120544,668.728638 
	C908.517517,638.183533 916.148499,607.207458 922.018127,575.795959 
	C925.989685,554.542114 930.160217,533.322205 933.822388,512.015015 
	C936.268372,497.784332 937.939209,483.421417 940.026978,469.127899 
	C942.279358,453.707550 944.747803,438.317657 946.867493,422.879517 
	C948.455017,411.316895 949.590271,399.692841 951.015076,388.106995 
	C952.936768,372.480133 954.942993,356.863647 957.889954,341.209320 
	C958.926758,349.456268 959.943726,357.705750 961.005127,365.949524 
	C962.577820,378.164093 964.200439,390.372284 965.766602,402.587677 
	C966.874390,411.227814 967.893250,419.879425 969.006836,428.518799 
	C970.434631,439.595184 971.835449,450.676086 973.401062,461.733368 
	C974.826538,471.801178 976.425537,481.844879 978.004822,491.890289 
	C979.787292,503.228058 981.527954,514.573975 983.476624,525.883606 
	C986.230957,541.868896 988.968262,557.861450 992.074036,573.780457 
	C994.550171,586.471985 997.473511,599.079590 1000.371826,611.684570 
	C1002.791809,622.208984 1005.463196,632.675659 1007.744507,643.667725 
	C1005.788574,645.475952 1003.852234,646.557800 1002.478088,648.130920 
	C995.524109,656.092102 988.805054,664.259155 981.818726,672.191162 
	C978.478271,675.983704 974.727844,679.415161 971.104431,682.573242 
	C970.658813,678.038391 970.341675,673.932434 969.871582,669.844055 
	C968.615845,658.922180 967.216614,648.016235 966.025391,637.087524 
	C965.187195,629.397949 964.655151,621.675537 963.881653,613.978333 
	C962.633118,601.554871 961.205505,589.148926 960.029724,576.718872 
	C959.100464,566.894836 958.435974,557.045715 957.653870,547.207764 
	C956.195129,559.580383 955.077271,571.969299 954.007629,584.362305 
	C953.270996,592.896484 952.742126,601.450989 951.866333,609.970215 
	C950.708130,621.236816 949.250916,632.472351 948.017029,643.731567 
	C946.906555,653.864319 946.089783,664.031433 944.841919,674.146179 
	C943.397339,685.855225 941.716797,697.537842 939.949890,709.203369 
	C939.146423,714.508362 937.889099,719.744568 936.491882,725.056458 
	C935.017395,725.743652 933.605408,726.140808 932.802673,727.066345 
	C922.665039,738.754089 912.612122,750.515259 902.543884,762.263123 
	C887.172241,780.199219 871.818787,798.151001 856.432617,816.074646 
	C841.478760,833.494629 826.486633,850.881714 811.523560,868.293762 
	C795.911133,886.461487 780.243958,904.582947 764.745178,922.847168 
	C758.958740,929.666199 753.579956,936.831177 747.663330,944.015686 
	C720.258057,949.822815 693.204529,955.452698 666.245789,961.062866 
	C676.945618,962.997864 688.031311,964.898682 699.071655,967.033813 
	C707.081787,968.582886 715.031982,970.442078 722.905640,972.480835 
	C722.482239,973.378052 722.250916,974.033386 721.829163,974.525574 
	C711.359497,986.742615 700.798340,998.882080 690.424377,1011.179504 
	C687.040222,1015.191162 684.134460,1019.606262 681.009949,1023.836914 
z"/>
<path fill="#F24C03" opacity="1.000000" stroke="none" 
	d="
M1250.004272,903.164307 
	C1256.734131,904.979004 1263.423584,906.962708 1270.201050,908.577698 
	C1293.479126,914.124573 1316.729370,919.810791 1340.104614,924.920471 
	C1357.301147,928.679565 1374.631348,931.883606 1391.985229,934.848450 
	C1407.937622,937.573792 1424.006348,939.613586 1440.014038,942.020569 
	C1455.042969,944.280334 1470.036011,946.790588 1485.088135,948.879395 
	C1496.779175,950.501892 1508.549316,951.545105 1520.261108,953.029541 
	C1532.273071,954.552063 1544.246338,956.380554 1556.257080,957.914246 
	C1563.212891,958.802429 1570.209106,959.373352 1577.268799,961.111084 
	C1573.490723,961.718262 1569.728638,962.461975 1565.931396,962.905701 
	C1556.477295,964.010315 1546.992188,964.857544 1537.547241,966.031616 
	C1525.855835,967.484985 1514.195435,969.185974 1502.515991,970.738159 
	C1494.072754,971.860291 1485.608765,972.830017 1477.175293,974.019653 
	C1466.171021,975.571899 1455.192627,977.306824 1444.194214,978.902405 
	C1434.477905,980.311890 1424.721313,981.465149 1415.032715,983.040710 
	C1400.214111,985.450684 1385.407959,987.962708 1370.652466,990.730286 
	C1351.427368,994.336487 1332.171997,997.854370 1313.088257,1002.120361 
	C1295.782959,1005.988831 1278.501099,1010.190308 1261.554199,1015.373596 
	C1242.280396,1021.268616 1223.061890,1027.616699 1204.431396,1035.259766 
	C1188.170410,1041.930664 1172.637329,1050.439941 1157.024536,1058.599854 
	C1149.108887,1062.736938 1141.727417,1067.895996 1133.222656,1073.136353 
	C1147.427490,1080.918335 1160.514893,1088.363037 1173.848877,1095.336426 
	C1202.694946,1110.422607 1231.417847,1125.777222 1260.652222,1140.079712 
	C1296.091431,1157.418213 1331.492310,1175.016113 1369.261108,1186.956177 
	C1377.119873,1189.440796 1385.414673,1190.854980 1393.619507,1191.830811 
	C1399.454346,1192.524780 1401.886230,1189.133545 1399.128296,1183.838623 
	C1395.097778,1176.100464 1390.677124,1168.264038 1384.941528,1161.779419 
	C1373.723511,1149.096436 1361.864624,1136.913940 1349.560791,1125.275391 
	C1336.040161,1112.485962 1321.774780,1100.478638 1307.730469,1088.249390 
	C1296.192993,1078.203003 1284.569458,1068.252686 1272.854736,1058.413696 
	C1266.841187,1053.362915 1260.565918,1048.621948 1254.357788,1043.806519 
	C1253.168945,1042.884521 1251.741943,1042.269287 1250.424805,1041.512451 
	C1250.930298,1040.906006 1251.435791,1040.299561 1251.941406,1039.693115 
	C1254.606567,1041.285278 1257.378174,1042.724731 1259.920898,1044.492920 
	C1292.893188,1067.421631 1326.091553,1090.037231 1358.692749,1113.483154 
	C1381.662109,1130.001953 1404.003784,1147.416504 1426.257812,1164.899658 
	C1442.262573,1177.473267 1457.820068,1190.633057 1473.275391,1203.883423 
	C1484.431885,1213.448242 1495.628906,1223.072021 1505.835938,1233.610962 
	C1518.143433,1246.318604 1530.846558,1258.970825 1538.563354,1275.286255 
	C1541.762085,1282.049561 1544.556641,1289.209595 1539.152344,1296.554565 
	C1535.027710,1302.160278 1528.939331,1303.218628 1522.860474,1303.933228 
	C1497.754761,1306.884521 1473.654175,1301.145264 1449.893555,1294.276733 
	C1426.767700,1287.591431 1403.723267,1280.465820 1381.073486,1272.334717 
	C1356.875122,1263.647705 1333.054810,1253.859863 1309.298828,1244.000366 
	C1282.814331,1233.008301 1256.406494,1221.794434 1230.294556,1209.951050 
	C1196.530151,1194.636719 1163.062988,1178.664551 1129.527466,1162.849243 
	C1116.360596,1156.639771 1103.373169,1150.050903 1090.268555,1143.708008 
	C1084.114136,1140.729126 1077.875610,1137.923828 1071.483032,1134.950439 
	C1060.044434,1150.226929 1050.950073,1166.786987 1042.566650,1183.815918 
	C1028.546265,1212.295044 1017.890076,1242.015015 1010.069214,1272.700928 
	C1002.954712,1300.615356 996.356018,1328.674683 990.226624,1356.821777 
	C986.756348,1372.757935 984.647766,1388.992920 981.999939,1405.105469 
	C979.298279,1421.545654 976.487244,1437.971802 974.094116,1454.457886 
	C971.812439,1470.175903 970.072998,1485.971680 967.973816,1501.717285 
	C966.093079,1515.824219 963.940002,1529.895020 962.111755,1544.008423 
	C960.889221,1553.446167 960.052917,1562.933350 958.982117,1572.391479 
	C958.690186,1574.970337 958.175354,1577.523804 957.026794,1580.154541 
	C956.358215,1575.889648 955.554504,1571.640869 955.045776,1567.356934 
	C953.305542,1552.702515 951.821838,1538.016357 949.948608,1523.379639 
	C948.184143,1509.592773 945.985107,1495.862305 944.100403,1482.090088 
	C942.634583,1471.378662 941.469543,1460.625977 939.967590,1449.920166 
	C938.355042,1438.426880 936.616028,1426.948730 934.729309,1415.497437 
	C932.607239,1402.617432 930.356934,1389.756714 927.983459,1376.920654 
	C924.989014,1360.726929 921.914612,1344.546265 918.679565,1328.399170 
	C916.633362,1318.185913 914.231201,1308.043945 912.221252,1297.271118 
	C918.303162,1290.111450 924.103088,1283.505615 930.016479,1277.003174 
	C935.223633,1271.277344 940.557739,1265.666992 945.900757,1260.427002 
	C947.310669,1272.216553 948.761841,1283.573730 949.964600,1294.957153 
	C950.827637,1303.125854 951.310425,1311.333984 952.048584,1319.516724 
	C953.331177,1333.735474 954.657715,1347.950317 956.015625,1362.162109 
	C956.384827,1366.026611 956.932739,1369.874268 957.477539,1374.382935 
	C958.696594,1361.228882 959.892456,1348.809692 960.984009,1336.381348 
	C961.746460,1327.700562 962.184570,1318.988159 963.090393,1310.323730 
	C964.588562,1295.994995 966.295837,1281.687378 968.010803,1267.382202 
	C969.665222,1253.582642 971.440857,1239.797363 973.477905,1225.899902 
	C975.745850,1224.023438 977.909241,1222.434204 979.618896,1220.453369 
	C992.878357,1205.090698 1006.033508,1189.638306 1019.253967,1174.242065 
	C1032.366577,1158.971313 1045.534546,1143.748413 1058.647339,1128.477905 
	C1071.867920,1113.081787 1085.043213,1097.646729 1098.251709,1082.240112 
	C1111.568237,1066.707397 1124.887939,1051.177368 1138.230835,1035.667236 
	C1151.574219,1020.156616 1165.043457,1004.752930 1178.256348,989.132080 
	C1182.817749,983.739380 1186.773804,977.834717 1191.405029,972.086426 
	C1205.193359,969.339111 1218.575806,966.632202 1231.976196,964.017090 
	C1237.609131,962.917725 1243.279785,962.012451 1248.933350,961.018982 
	C1244.090210,959.501648 1239.401611,958.879211 1234.768677,957.971436 
	C1226.496704,956.350525 1218.258545,954.557312 1210.093384,952.505188 
	C1210.787964,950.998352 1211.197998,949.654236 1212.034058,948.673462 
	C1218.722290,940.828369 1225.591675,933.136108 1232.205566,925.229797 
	C1238.267944,917.982910 1244.081177,910.527710 1250.004272,903.164307 
z"/>
<path fill="#914A5F" opacity="1.000000" stroke="none" 
	d="
M849.573242,1143.859375 
	C841.280151,1133.302124 833.240845,1122.531372 824.599792,1112.266968 
	C819.327576,1106.004395 813.129272,1100.521118 807.314697,1094.098633 
	C807.792419,1092.655273 808.190674,1091.705322 808.828918,1090.961182 
	C821.562866,1076.113770 834.369751,1061.328613 847.059570,1046.443604 
	C852.518677,1040.040283 857.746582,1033.439697 863.373901,1027.080322 
	C869.606873,1033.150391 875.946533,1038.724243 881.395142,1045.063843 
	C890.710571,1055.902466 898.771545,1067.659302 903.897583,1081.213867 
	C901.848572,1083.145996 899.964417,1084.788818 898.344849,1086.660522 
	C891.177795,1094.943359 884.073914,1103.281006 876.971436,1111.619385 
	C867.826599,1122.355713 858.704956,1133.111816 849.573242,1143.859375 
z"/>
<path fill="#BA4B38" opacity="1.000000" stroke="none" 
	d="
M849.771118,1144.109375 
	C858.704956,1133.111816 867.826599,1122.355713 876.971436,1111.619385 
	C884.073914,1103.281006 891.177795,1094.943359 898.344849,1086.660522 
	C899.964417,1084.788818 901.848572,1083.145996 904.170898,1081.408691 
	C910.667786,1096.972046 917.095093,1112.360474 922.367554,1128.135010 
	C925.816528,1138.453979 927.592041,1149.332153 929.831299,1160.144287 
	C926.376343,1163.706665 923.095337,1166.987061 920.057983,1170.479370 
	C908.312622,1183.984375 896.645081,1197.557129 884.948486,1211.104614 
	C881.000366,1202.532104 877.448059,1193.748535 873.015015,1185.434570 
	C865.630005,1171.584473 857.680725,1158.035156 849.771118,1144.109375 
z"/>
<path fill="#BA4B38" opacity="1.000000" stroke="none" 
	d="
M1123.094360,840.939270 
	C1129.231689,845.235229 1135.158569,849.878906 1141.552734,853.750793 
	C1153.009155,860.688354 1164.746826,867.161438 1176.593750,874.325745 
	C1176.209229,875.996887 1175.796509,877.341125 1174.957031,878.319031 
	C1164.022217,891.057678 1152.969971,903.695862 1142.072632,916.466248 
	C1137.237671,922.132202 1132.684692,928.038940 1127.640869,933.775940 
	C1115.854614,929.308289 1104.198364,925.409912 1093.081665,920.330994 
	C1084.356934,916.344910 1076.299072,910.899048 1068.045410,905.766663 
	C1068.997803,904.216614 1069.761841,902.927673 1070.715454,901.798523 
	C1077.581299,893.667969 1084.438477,885.529358 1091.388306,877.470764 
	C1101.918701,865.260681 1112.522095,853.113342 1123.094360,840.939270 
z"/>
<path fill="#914A5F" opacity="1.000000" stroke="none" 
	d="
M1122.946167,840.634155 
	C1112.522095,853.113342 1101.918701,865.260681 1091.388306,877.470764 
	C1084.438477,885.529358 1077.581299,893.667969 1070.715454,901.798523 
	C1069.761841,902.927673 1068.997803,904.216614 1067.693115,905.716553 
	C1059.672852,900.015808 1051.691895,894.473816 1044.658447,887.915527 
	C1038.065552,881.768005 1032.475708,874.544739 1026.650146,867.458740 
	C1034.222290,858.575073 1041.598633,850.035950 1048.952881,841.477783 
	C1060.307373,828.264709 1071.646973,815.038635 1082.992920,801.817993 
	C1089.419312,808.467285 1095.677734,815.290283 1102.319702,821.716736 
	C1108.945679,828.127686 1115.956055,834.141296 1122.946167,840.634155 
z"/>
<path fill="#764977" opacity="1.000000" stroke="none" 
	d="
M1082.844238,801.527100 
	C1071.646973,815.038635 1060.307373,828.264709 1048.952881,841.477783 
	C1041.598633,850.035950 1034.222290,858.575073 1026.467163,867.158447 
	C1013.855347,850.275269 1005.222473,831.540405 998.481384,811.901978 
	C1002.812622,807.418274 1006.945007,803.140076 1010.825012,798.644165 
	C1023.949219,783.436951 1036.983887,768.152405 1050.052856,752.897461 
	C1060.933716,769.010376 1071.814575,785.123352 1082.844238,801.527100 
z"/>
<path fill="#654988" opacity="1.000000" stroke="none" 
	d="
M1049.897949,752.584595 
	C1036.983887,768.152405 1023.949219,783.436951 1010.825012,798.644165 
	C1006.945007,803.140076 1002.812622,807.418274 998.401001,811.524780 
	C989.324097,786.133057 983.393799,760.340271 979.479187,734.026978 
	C981.753967,732.153015 983.905701,730.559143 985.628662,728.590088 
	C997.657593,714.843323 1009.597778,701.018860 1021.566406,687.219360 
	C1027.382324,701.673462 1033.013184,716.206055 1039.090698,730.549377 
	C1042.232300,737.963562 1046.166748,745.041809 1049.897949,752.584595 
z"/>
<path fill="#4348A8" opacity="1.000000" stroke="none" 
	d="
M681.340332,1024.016846 
	C684.134460,1019.606262 687.040222,1015.191162 690.424377,1011.179504 
	C700.798340,998.882080 711.359497,986.742615 721.829163,974.525574 
	C722.250916,974.033386 722.482239,973.378052 723.317627,972.415222 
	C730.241089,973.354614 736.723083,974.396606 743.042664,976.057190 
	C757.413391,979.833496 771.704224,983.913574 785.929199,988.210571 
	C784.581604,990.489014 783.525208,992.589417 782.051025,994.337585 
	C774.477173,1003.320068 766.856812,1012.265198 759.134827,1021.120544 
	C751.634521,1029.721680 743.991394,1038.198364 736.411011,1046.729614 
	C718.164246,1039.218750 699.917419,1031.707764 681.340332,1024.016846 
z"/>
<path fill="#654988" opacity="1.000000" stroke="none" 
	d="
M736.727417,1046.860352 
	C743.991394,1038.198364 751.634521,1029.721680 759.134827,1021.120544 
	C766.856812,1012.265198 774.477173,1003.320068 782.051025,994.337585 
	C783.525208,992.589417 784.581604,990.489014 786.319885,988.261230 
	C802.219299,994.275330 817.629517,1000.579285 832.941040,1007.219849 
	C832.121765,1008.654785 831.512695,1009.848694 830.664246,1010.837097 
	C813.425110,1030.922852 796.158447,1050.985107 778.897278,1071.052002 
	C772.236633,1067.024292 765.645020,1062.876221 758.896545,1059.001587 
	C751.689453,1054.863647 744.334290,1050.983643 736.727417,1046.860352 
z"/>
<path fill="#764977" opacity="1.000000" stroke="none" 
	d="
M779.055298,1071.355591 
	C796.158447,1050.985107 813.425110,1030.922852 830.664246,1010.837097 
	C831.512695,1009.848694 832.121765,1008.654785 833.255981,1007.378845 
	C843.472900,1013.776978 853.276245,1020.352783 863.079590,1026.928589 
	C857.746582,1033.439697 852.518677,1040.040283 847.059570,1046.443604 
	C834.369751,1061.328613 821.562866,1076.113770 808.828918,1090.961182 
	C808.190674,1091.705322 807.792419,1092.655273 807.129150,1093.821289 
	C797.721680,1086.641724 788.467529,1079.150513 779.055298,1071.355591 
z"/>
<path fill="#CF4B24" opacity="1.000000" stroke="none" 
	d="
M1128.003662,933.836304 
	C1132.684692,928.038940 1137.237671,922.132202 1142.072632,916.466248 
	C1152.969971,903.695862 1164.022217,891.057678 1174.957031,878.319031 
	C1175.796509,877.341125 1176.209229,875.996887 1176.911255,874.493408 
	C1188.562134,879.200195 1200.122192,884.236450 1211.685059,889.875427 
	C1210.629517,891.961365 1209.682251,893.540771 1208.495239,894.913025 
	C1197.125366,908.056580 1185.640991,921.102112 1174.373047,934.332214 
	C1171.864746,937.277344 1170.076904,940.836121 1167.542480,944.073059 
	C1164.411621,943.526978 1161.645874,943.203430 1158.988403,942.480957 
	C1148.641479,939.667969 1138.328979,936.728638 1128.003662,933.836304 
z"/>
<path fill="#E34C11" opacity="1.000000" stroke="none" 
	d="
M1167.957275,944.112427 
	C1170.076904,940.836121 1171.864746,937.277344 1174.373047,934.332214 
	C1185.640991,921.102112 1197.125366,908.056580 1208.495239,894.913025 
	C1209.682251,893.540771 1210.629517,891.961365 1211.867676,890.186890 
	C1223.289307,893.709412 1234.533691,897.515991 1245.769653,901.347717 
	C1246.982056,901.761292 1248.144775,902.320801 1249.667480,902.988464 
	C1244.081177,910.527710 1238.267944,917.982910 1232.205566,925.229797 
	C1225.591675,933.136108 1218.722290,940.828369 1212.034058,948.673462 
	C1211.197998,949.654236 1210.787964,950.998352 1209.670654,952.578003 
	C1195.426392,950.025269 1181.691772,947.068848 1167.957275,944.112427 
z"/>
<path fill="#CF4B24" opacity="1.000000" stroke="none" 
	d="
M884.978394,1211.485596 
	C896.645081,1197.557129 908.312622,1183.984375 920.057983,1170.479370 
	C923.095337,1166.987061 926.376343,1163.706665 930.148132,1160.382202 
	C932.310852,1168.915405 933.978638,1177.377075 935.398804,1185.880371 
	C936.683044,1193.569946 937.697021,1201.304810 938.515381,1209.122314 
	C937.020142,1210.118286 935.638489,1210.837524 934.691650,1211.932861 
	C928.072388,1219.589478 921.641296,1227.410278 914.953247,1235.005371 
	C909.841980,1240.809814 904.441956,1246.359741 899.170349,1252.022827 
	C895.130066,1240.615601 891.087280,1229.209229 887.052002,1217.800293 
	C886.354492,1215.828125 885.688660,1213.844849 884.978394,1211.485596 
z"/>
<path fill="#4348A8" opacity="1.000000" stroke="none" 
	d="
M1021.369507,686.910278 
	C1009.597778,701.018860 997.657593,714.843323 985.628662,728.590088 
	C983.905701,730.559143 981.753967,732.153015 979.419556,733.602905 
	C978.362488,729.929871 977.543213,726.596069 977.035767,723.215454 
	C975.025208,709.821655 973.112244,696.413208 971.163086,683.010254 
	C974.727844,679.415161 978.478271,675.983704 981.818726,672.191162 
	C988.805054,664.259155 995.524109,656.092102 1002.478088,648.130920 
	C1003.852234,646.557800 1005.788574,645.475952 1007.802612,644.071167 
	C1012.483887,658.183533 1016.828247,672.392334 1021.369507,686.910278 
z"/>
<path fill="#E34C11" opacity="1.000000" stroke="none" 
	d="
M899.123840,1252.404541 
	C904.441956,1246.359741 909.841980,1240.809814 914.953247,1235.005371 
	C921.641296,1227.410278 928.072388,1219.589478 934.691650,1211.932861 
	C935.638489,1210.837524 937.020142,1210.118286 938.707336,1209.486816 
	C940.366516,1216.949341 941.693970,1224.127441 942.627808,1231.356445 
	C943.858887,1240.885254 944.780884,1250.454102 945.835754,1260.005737 
	C940.557739,1265.666992 935.223633,1271.277344 930.016479,1277.003174 
	C924.103088,1283.505615 918.303162,1290.111450 912.167114,1296.857178 
	C907.926025,1283.207764 903.974426,1269.372803 900.011292,1255.541016 
	C899.744507,1254.610107 899.390686,1253.703979 899.123840,1252.404541 
z"/>
<path fill="#F24C03" opacity="1.000000" stroke="none" 
	d="
M1249.927734,1038.123535 
	C1250.661743,1038.640991 1250.949707,1039.132690 1251.237549,1039.624512 
	C1250.641846,1039.641602 1250.046021,1039.658691 1249.450439,1039.675659 
	C1249.460693,1039.149780 1249.471069,1038.623779 1249.927734,1038.123535 
z"/>
<path fill="#F24C03" opacity="1.000000" stroke="none" 
	d="
M1246.719482,1037.017456 
	C1246.915039,1036.695801 1247.363037,1036.635376 1247.810913,1036.575073 
	C1247.531250,1036.809692 1247.251465,1037.044312 1246.719482,1037.017456 
z"/>
<path fill="#000000" opacity="1.000000" stroke="none" 
	d="
M945.900757,1260.427002 
	C944.780884,1250.454102 943.858887,1240.885254 942.627808,1231.356445 
	C941.693970,1224.127441 940.366516,1216.949341 939.022217,1209.384033 
	C937.697021,1201.304810 936.683044,1193.569946 935.398804,1185.880371 
	C933.978638,1177.377075 932.310852,1168.915405 930.434082,1160.197754 
	C927.592041,1149.332153 925.816528,1138.453979 922.367554,1128.135010 
	C917.095093,1112.360474 910.667786,1096.972046 904.457520,1081.224854 
	C898.771545,1067.659302 890.710571,1055.902466 881.395142,1045.063843 
	C875.946533,1038.724243 869.606873,1033.150391 863.373840,1027.080322 
	C853.276245,1020.352783 843.472900,1013.776978 833.354675,1007.042236 
	C817.629517,1000.579285 802.219299,994.275330 786.418335,987.920715 
	C771.704224,983.913574 757.413391,979.833496 743.042664,976.057190 
	C736.723083,974.396606 730.241089,973.354614 723.420898,972.097290 
	C715.031982,970.442078 707.081787,968.582886 699.071655,967.033813 
	C688.031311,964.898682 676.945618,962.997864 666.245789,961.062866 
	C693.204529,955.452698 720.258057,949.822815 748.060913,944.078186 
	C771.897156,938.824768 794.476624,932.000610 816.269165,922.805725 
	C835.014160,914.896851 852.384827,904.553040 867.525513,890.869019 
	C890.079651,870.484985 905.250122,845.056152 914.730835,816.554871 
	C921.904602,794.988708 927.205566,772.778870 932.800293,750.718628 
	C934.923462,742.346924 935.536377,733.592163 936.837646,725.012024 
	C937.889099,719.744568 939.146423,714.508362 939.949890,709.203369 
	C941.716797,697.537842 943.397339,685.855225 944.841919,674.146179 
	C946.089783,664.031433 946.906555,653.864319 948.017029,643.731567 
	C949.250916,632.472351 950.708130,621.236816 951.866333,609.970215 
	C952.742126,601.450989 953.270996,592.896484 954.007629,584.362305 
	C955.077271,571.969299 956.195129,559.580383 957.653870,547.207764 
	C958.435974,557.045715 959.100464,566.894836 960.029724,576.718872 
	C961.205505,589.148926 962.633118,601.554871 963.881653,613.978333 
	C964.655151,621.675537 965.187195,629.397949 966.025391,637.087524 
	C967.216614,648.016235 968.615845,658.922180 969.871582,669.844055 
	C970.341675,673.932434 970.658813,678.038391 971.104370,682.573242 
	C973.112244,696.413208 975.025208,709.821655 977.035767,723.215454 
	C977.543213,726.596069 978.362488,729.929871 979.098083,733.709290 
	C983.393799,760.340271 989.324097,786.133057 998.086548,811.630493 
	C1005.222473,831.540405 1013.855347,850.275269 1026.261597,867.494507 
	C1032.475708,874.544739 1038.065552,881.768005 1044.658447,887.915527 
	C1051.691895,894.473816 1059.672852,900.015808 1067.592529,906.051636 
	C1076.299072,910.899048 1084.356934,916.344910 1093.081665,920.330994 
	C1104.198364,925.409912 1115.854614,929.308289 1127.640869,933.775879 
	C1138.328979,936.728638 1148.641479,939.667969 1158.988403,942.480957 
	C1161.645874,943.203430 1164.411621,943.526978 1167.542480,944.073120 
	C1181.691772,947.068848 1195.426392,950.025269 1209.583496,952.908936 
	C1218.258545,954.557312 1226.496704,956.350525 1234.768677,957.971436 
	C1239.401611,958.879211 1244.090210,959.501648 1248.933350,961.018982 
	C1243.279785,962.012451 1237.609131,962.917725 1231.976196,964.017090 
	C1218.575806,966.632202 1205.193359,969.339111 1190.998291,972.015381 
	C1185.600830,973.012573 1180.970215,973.854065 1176.423706,975.022888 
	C1163.909424,978.240173 1151.430176,981.594666 1138.535400,984.928772 
	C1122.204346,990.736145 1105.837524,995.544312 1090.450928,1002.515808 
	C1068.932251,1012.265625 1049.896851,1025.796021 1034.278687,1044.029907 
	C1021.414062,1059.049072 1011.627686,1075.770386 1004.180176,1093.864380 
	C994.607483,1117.121582 987.740112,1141.243408 983.097839,1166.403320 
	C981.027649,1177.189697 978.820801,1187.533569 977.069885,1197.953857 
	C975.506104,1207.260620 974.445740,1216.651855 973.163208,1226.005859 
	C971.440857,1239.797363 969.665222,1253.582642 968.010803,1267.382202 
	C966.295837,1281.687378 964.588562,1295.994995 963.090393,1310.323730 
	C962.184570,1318.988159 961.746460,1327.700562 960.984009,1336.381348 
	C959.892456,1348.809692 958.696594,1361.228882 957.477539,1374.382935 
	C956.932739,1369.874268 956.384827,1366.026611 956.015625,1362.162109 
	C954.657715,1347.950317 953.331177,1333.735474 952.048584,1319.516724 
	C951.310425,1311.333984 950.827637,1303.125854 949.964600,1294.957153 
	C948.761841,1283.573730 947.310669,1272.216553 945.900757,1260.427002 
M955.016113,1051.078125 
	C955.568481,1056.853149 956.120911,1062.628052 956.673279,1068.403076 
	C957.078857,1068.382446 957.484436,1068.361816 957.890076,1068.341187 
	C958.876892,1060.967896 959.863770,1053.594727 960.987122,1045.362671 
	C961.605957,1040.951416 962.224792,1036.540283 963.002319,1031.325317 
	C964.013245,1026.603638 965.024231,1021.881897 966.151550,1017.154236 
	C966.151550,1017.154236 966.176758,1017.040405 966.551697,1016.880554 
	C966.813110,1016.706726 966.908203,1016.466736 966.989258,1015.372559 
	C969.824585,1005.042114 973.751587,995.328369 981.179749,987.244385 
	C989.891602,977.763428 1001.347412,973.575439 1013.878601,969.903076 
	C1014.796997,969.611267 1015.699646,969.248962 1016.636475,969.039001 
	C1022.873474,967.641785 1029.117920,966.277100 1036.161133,964.929932 
	C1045.943848,963.733582 1055.726562,962.537231 1065.509277,961.340881 
	C1065.469849,960.932007 1065.430542,960.523193 1065.391113,960.114380 
	C1057.133911,959.130066 1048.876709,958.145691 1039.741943,957.008911 
	C1035.217407,956.336060 1030.692993,955.663147 1025.682983,954.361023 
	C1017.777771,952.214355 1009.624146,950.705627 1002.033875,947.750122 
	C993.646118,944.483948 985.766296,940.122681 979.819519,932.728394 
	C971.598877,922.506836 967.581055,910.593567 965.110596,898.129333 
	C962.148743,883.185791 959.949341,868.091125 957.273499,852.193420 
	C955.436646,864.305542 954.223694,875.741028 951.858337,886.933044 
	C949.495239,898.114197 947.089417,909.513306 942.731384,919.997620 
	C934.227356,940.456177 916.163513,948.825195 895.835571,952.893005 
	C880.694275,955.922974 865.378723,958.082520 850.140808,960.629761 
	C856.458069,962.164246 862.873657,963.153748 869.311340,963.968750 
	C884.480286,965.889282 899.546265,968.339172 913.811218,974.092407 
	C925.947449,978.987122 936.283936,986.337036 941.308899,998.921814 
	C945.126587,1008.482910 947.913696,1018.455566 951.040955,1029.014648 
	C951.748413,1032.108032 952.455811,1035.201538 953.052856,1039.084839 
	C953.708923,1042.797607 954.364990,1046.510254 955.016113,1051.078125 
z"/>
<path fill="#4348A8" opacity="1.000000" stroke="none" 
	d="
M936.491943,725.056458 
	C935.536377,733.592163 934.923462,742.346924 932.800293,750.718628 
	C927.205566,772.778870 921.904602,794.988708 914.730835,816.554871 
	C905.250122,845.056152 890.079651,870.484985 867.525513,890.869019 
	C852.384827,904.553040 835.014160,914.896851 816.269165,922.805725 
	C794.476624,932.000610 771.897156,938.824768 748.412781,943.900879 
	C753.579956,936.831177 758.958740,929.666199 764.745178,922.847168 
	C780.243958,904.582947 795.911133,886.461487 811.523560,868.293762 
	C826.486633,850.881714 841.478760,833.494629 856.432617,816.074646 
	C871.818787,798.151001 887.172241,780.199219 902.543884,762.263123 
	C912.612122,750.515259 922.665039,738.754089 932.802673,727.066345 
	C933.605408,726.140808 935.017395,725.743652 936.491943,725.056458 
z"/>
<path fill="#E34C11" opacity="1.000000" stroke="none" 
	d="
M973.477905,1225.899902 
	C974.445740,1216.651855 975.506104,1207.260620 977.069885,1197.953857 
	C978.820801,1187.533569 981.027649,1177.189697 983.412048,1166.298340 
	C988.395874,1160.828857 993.155273,1156.005005 997.586060,1150.896240 
	C1019.018311,1126.184814 1040.388184,1101.419189 1061.730103,1076.629639 
	C1083.938110,1050.834106 1106.132080,1025.026367 1128.223511,999.131226 
	C1132.070801,994.621338 1135.379639,989.651978 1138.937134,984.894836 
	C1151.430176,981.594666 1163.909424,978.240173 1176.423706,975.022888 
	C1180.970215,973.854065 1185.600830,973.012573 1190.599731,972.092834 
	C1186.773804,977.834717 1182.817749,983.739380 1178.256348,989.132080 
	C1165.043457,1004.752930 1151.574219,1020.156616 1138.230835,1035.667236 
	C1124.887939,1051.177368 1111.568237,1066.707397 1098.251709,1082.240112 
	C1085.043213,1097.646729 1071.867920,1113.081787 1058.647339,1128.477905 
	C1045.534546,1143.748413 1032.366577,1158.971313 1019.253967,1174.242065 
	C1006.033508,1189.638306 992.878357,1205.090698 979.618896,1220.453369 
	C977.909241,1222.434204 975.745850,1224.023438 973.477905,1225.899902 
z"/>
<path fill="#3D51A2" opacity="1.000000" stroke="none" 
	d="
M1013.114868,969.837646 
	C1001.347412,973.575439 989.891602,977.763428 981.179749,987.244385 
	C973.751587,995.328369 969.824585,1005.042114 966.787476,1015.902039 
	C966.422546,1016.616394 966.286194,1016.819397 966.176758,1017.040405 
	C966.176758,1017.040405 966.151550,1017.154236 965.771423,1017.230896 
	C963.262024,1019.075806 961.185852,1020.913513 958.989563,1022.594238 
	C956.434448,1024.549683 953.774048,1026.367554 951.159363,1028.245117 
	C947.913696,1018.455566 945.126587,1008.482910 941.308899,998.921814 
	C936.283936,986.337036 925.947449,978.987122 913.811218,974.092407 
	C899.546265,968.339172 884.480286,965.889282 869.311340,963.968750 
	C862.873657,963.153748 856.458069,962.164246 850.140808,960.629761 
	C865.378723,958.082520 880.694275,955.922974 895.835571,952.893005 
	C916.163513,948.825195 934.227356,940.456177 942.731384,919.997620 
	C947.089417,909.513306 949.495239,898.114197 951.858337,886.933044 
	C954.223694,875.741028 955.436646,864.305542 957.273499,852.193420 
	C959.949341,868.091125 962.148743,883.185791 965.110596,898.129333 
	C967.581055,910.593567 971.598877,922.506836 979.819519,932.728394 
	C985.766296,940.122681 993.646118,944.483948 1002.033875,947.750122 
	C1009.624146,950.705627 1017.777771,952.214355 1025.726562,954.950867 
	C1021.551758,960.306335 1017.333313,965.071960 1013.114868,969.837646 
z"/>
<path fill="#CF4B24" opacity="1.000000" stroke="none" 
	d="
M1138.535400,984.928772 
	C1135.379639,989.651978 1132.070801,994.621338 1128.223511,999.131226 
	C1106.132080,1025.026367 1083.938110,1050.834106 1061.730103,1076.629639 
	C1040.388184,1101.419189 1019.018311,1126.184814 997.586060,1150.896240 
	C993.155273,1156.005005 988.395874,1160.828857 983.473755,1165.889038 
	C987.740112,1141.243408 994.607483,1117.121582 1004.180176,1093.864380 
	C1011.627686,1075.770386 1021.414062,1059.049072 1034.278687,1044.029907 
	C1049.896851,1025.796021 1068.932251,1012.265625 1090.450928,1002.515808 
	C1105.837524,995.544312 1122.204346,990.736145 1138.535400,984.928772 
z"/>
<path fill="#654988" opacity="1.000000" stroke="none" 
	d="
M1013.496704,969.870361 
	C1017.333313,965.071960 1021.551758,960.306335 1025.969360,955.265503 
	C1030.692993,955.663147 1035.217407,956.336060 1039.997803,957.404724 
	C1038.622314,960.167664 1036.991089,962.534790 1035.359863,964.901917 
	C1029.117920,966.277100 1022.873474,967.641785 1016.636475,969.039001 
	C1015.699646,969.248962 1014.796997,969.611267 1013.496704,969.870361 
z"/>
<path fill="#654988" opacity="1.000000" stroke="none" 
	d="
M951.100159,1028.629883 
	C953.774048,1026.367554 956.434448,1024.549683 958.989563,1022.594238 
	C961.185852,1020.913513 963.262024,1019.075806 965.713257,1017.233887 
	C965.024231,1021.881897 964.013245,1026.603638 962.583008,1031.758911 
	C959.163513,1034.226685 956.163391,1036.260742 953.163208,1038.294922 
	C952.455811,1035.201538 951.748413,1032.108032 951.100159,1028.629883 
z"/>
<path fill="#BA4B38" opacity="1.000000" stroke="none" 
	d="
M1035.760498,964.915955 
	C1036.991089,962.534790 1038.622314,960.167664 1040.436523,957.480957 
	C1048.876709,958.145691 1057.133911,959.130066 1065.391113,960.114380 
	C1065.430542,960.523193 1065.469849,960.932007 1065.509277,961.340881 
	C1055.726562,962.537231 1045.943848,963.733582 1035.760498,964.915955 
z"/>
<path fill="#914A5F" opacity="1.000000" stroke="none" 
	d="
M953.108032,1038.689941 
	C956.163391,1036.260742 959.163513,1034.226685 962.503662,1032.160767 
	C962.224792,1036.540283 961.605957,1040.951416 960.611084,1045.862549 
	C958.497009,1047.649414 956.759033,1048.936157 955.021057,1050.223022 
	C954.364990,1046.510254 953.708923,1042.797607 953.108032,1038.689941 
z"/>
<path fill="#BA4B38" opacity="1.000000" stroke="none" 
	d="
M955.018555,1050.650635 
	C956.759033,1048.936157 958.497009,1047.649414 960.542786,1046.291992 
	C959.863770,1053.594727 958.876892,1060.967896 957.890076,1068.341187 
	C957.484436,1068.361816 957.078857,1068.382446 956.673279,1068.403076 
	C956.120911,1062.628052 955.568481,1056.853149 955.018555,1050.650635 
z"/>
<path fill="#654988" opacity="1.000000" stroke="none" 
	d="
M966.364258,1016.960449 
	C966.286194,1016.819397 966.422546,1016.616394 966.711365,1016.296021 
	C966.908203,1016.466736 966.813110,1016.706726 966.364258,1016.960449 
z"/>
</svg>