<svg width="220" height="647" viewBox="0 0 220 647" fill="none" xmlns="http://www.w3.org/2000/svg">
<rect width="220" height="647" rx="30" fill="#0B1828"/>
<path d="M52 612.025L27.15 612.025L27.15 603.415C27.15 601.432 27.4767 599.693 28.13 598.2C28.7833 596.683 29.67 595.423 30.79 594.42C31.91 593.417 33.2283 592.67 34.745 592.18C36.2383 591.667 37.8367 591.41 39.54 591.41C41.43 591.41 43.145 591.69 44.685 592.25C46.2017 592.81 47.5083 593.615 48.605 594.665C49.6783 595.715 50.5183 596.987 51.125 598.48C51.7083 599.95 52 601.595 52 603.415L52 612.025ZM39.54 594.595C38.14 594.595 36.8567 594.793 35.69 595.19C34.5 595.563 33.485 596.135 32.645 596.905C31.805 597.652 31.1517 598.573 30.685 599.67C30.195 600.767 29.95 602.015 29.95 603.415L29.95 608.875L49.2 608.875L49.2 603.415C49.2 601.992 48.955 600.732 48.465 599.635C47.975 598.515 47.2983 597.593 46.435 596.87C45.5717 596.123 44.5567 595.563 43.39 595.19C42.2 594.793 40.9167 594.595 39.54 594.595ZM52.35 582.942C52.35 583.806 52.21 584.611 51.93 585.357C51.6267 586.104 51.2183 586.757 50.705 587.317C50.1917 587.854 49.5967 588.286 48.92 588.612C48.22 588.916 47.4617 589.067 46.645 589.067C45.805 589.067 45.0467 588.881 44.37 588.507C43.67 588.134 43.075 587.609 42.585 586.932C42.095 586.232 41.71 585.416 41.43 584.482C41.15 583.526 41.01 582.487 41.01 581.367C41.01 580.481 41.0917 579.582 41.255 578.672C41.4183 577.762 41.64 576.957 41.92 576.257L40.45 576.257C38.9567 576.257 37.79 576.677 36.95 577.517C36.0867 578.357 35.655 579.547 35.655 581.087C35.655 582.931 36.3667 584.867 37.79 586.897L35.795 587.912C34.2083 585.556 33.415 583.187 33.415 580.807C33.415 578.404 34.0567 576.537 35.34 575.207C36.6233 573.854 38.4317 573.177 40.765 573.177L48.22 573.177C48.9433 573.177 49.3167 572.851 49.34 572.197L52 572.197C52.0467 572.524 52.0817 572.792 52.105 573.002C52.1283 573.212 52.14 573.434 52.14 573.667C52.14 574.274 51.965 574.764 51.615 575.137C51.2417 575.487 50.7983 575.697 50.285 575.767L48.99 575.837C50.0867 576.654 50.9267 577.692 51.51 578.952C52.07 580.189 52.35 581.519 52.35 582.942ZM50.04 582.137C50.04 581.041 49.8417 580.026 49.445 579.092C49.025 578.136 48.4767 577.412 47.8 576.922C47.3567 576.479 46.9017 576.257 46.435 576.257L43.74 576.257C43.1567 577.751 42.865 579.302 42.865 580.912C42.865 582.452 43.1917 583.712 43.845 584.692C44.4983 585.649 45.35 586.127 46.4 586.127C46.9133 586.127 47.3917 586.034 47.835 585.847C48.2783 585.637 48.6633 585.357 48.99 585.007C49.3167 584.634 49.5733 584.202 49.76 583.712C49.9467 583.222 50.04 582.697 50.04 582.137ZM36.425 558.592C36.4717 560.132 36.8683 561.497 37.615 562.687C38.3617 563.854 39.4 564.682 40.73 565.172L52 565.172L52 568.252L33.73 568.252L33.73 565.382L37.965 565.382C36.705 564.752 35.69 563.924 34.92 562.897C34.1267 561.871 33.6833 560.774 33.59 559.607C33.59 559.374 33.59 559.176 33.59 559.012C33.59 558.849 33.6017 558.709 33.625 558.592L36.425 558.592ZM52 542.657L43.075 548.957L46.365 552.457L52 552.457L52 555.537L26.45 555.537L26.45 552.457L43.25 552.457L33.765 543.077L33.765 539.682L41.325 546.962L52 539.332L52 542.657ZM45.595 508.253C46.5517 508.253 47.4267 508.451 48.22 508.848C49.0133 509.221 49.69 509.746 50.25 510.423C50.81 511.076 51.2417 511.846 51.545 512.733C51.8483 513.596 52 514.529 52 515.533L52 527.328L27.15 527.328L27.15 514.973C27.15 514.109 27.3367 513.328 27.71 512.628C28.0833 511.928 28.5733 511.333 29.18 510.843C29.7633 510.353 30.44 509.979 31.21 509.723C31.9567 509.443 32.715 509.303 33.485 509.303C34.7217 509.303 35.865 509.618 36.915 510.248C37.965 510.854 38.7467 511.729 39.26 512.873C39.68 511.449 40.4617 510.329 41.605 509.513C42.725 508.673 44.055 508.253 45.595 508.253ZM45.035 511.438C44.475 511.438 43.9383 511.543 43.425 511.753C42.8883 511.939 42.4217 512.208 42.025 512.558C41.6283 512.884 41.3133 513.281 41.08 513.748C40.8467 514.214 40.73 514.728 40.73 515.288L40.73 524.178L49.27 524.178L49.27 515.533C49.27 514.949 49.1533 514.413 48.92 513.923C48.6867 513.433 48.3833 513.001 48.01 512.628C47.6133 512.254 47.1583 511.963 46.645 511.753C46.1317 511.543 45.595 511.438 45.035 511.438ZM29.88 524.178L38.175 524.178L38.175 516.268C38.175 515.708 38.07 515.194 37.86 514.728C37.6267 514.261 37.3233 513.864 36.95 513.538C36.5767 513.188 36.145 512.919 35.655 512.733C35.1417 512.523 34.605 512.418 34.045 512.418C33.4617 512.418 32.9133 512.511 32.4 512.698C31.8867 512.884 31.4433 513.141 31.07 513.468C30.6967 513.771 30.405 514.156 30.195 514.623C29.985 515.066 29.88 515.544 29.88 516.058L29.88 524.178ZM26.45 504.266L26.45 501.186L47.275 501.186C47.9517 501.186 48.4883 501.011 48.885 500.661C49.2583 500.288 49.445 499.775 49.445 499.121C49.445 498.865 49.41 498.561 49.34 498.211C49.2467 497.861 49.1417 497.535 49.025 497.231L51.51 496.741C51.72 497.255 51.895 497.861 52.035 498.561C52.175 499.261 52.245 499.88 52.245 500.416C52.245 501.606 51.9067 502.551 51.23 503.251C50.5533 503.928 49.6083 504.266 48.395 504.266L26.45 504.266ZM52.35 488.687C52.35 490.6 51.7083 492.047 50.425 493.027C49.1417 494.007 47.2283 494.497 44.685 494.497L33.73 494.497L33.73 491.417L44.09 491.417C47.8233 491.417 49.69 490.122 49.69 487.532C49.69 486.272 49.2933 485.093 48.5 483.997C47.6833 482.877 46.575 482.048 45.175 481.512L33.73 481.512L33.73 478.432L48.22 478.432C48.9433 478.432 49.3167 478.105 49.34 477.452L52 477.452C52.0467 477.802 52.07 478.082 52.07 478.292C52.0933 478.478 52.105 478.665 52.105 478.852C52.105 479.458 51.93 479.972 51.58 480.392C51.2067 480.788 50.7517 480.998 50.215 481.022L48.08 481.092C49.4567 481.908 50.5183 482.982 51.265 484.312C51.9883 485.642 52.35 487.1 52.35 488.687ZM52.35 465.216C52.35 466.593 52.105 467.853 51.615 468.996C51.1017 470.139 50.4133 471.119 49.55 471.936C48.6867 472.753 47.6833 473.394 46.54 473.861C45.3733 474.304 44.1483 474.526 42.865 474.526C41.5817 474.526 40.3683 474.304 39.225 473.861C38.0817 473.394 37.0783 472.753 36.215 471.936C35.3517 471.096 34.675 470.104 34.185 468.961C33.6717 467.818 33.415 466.558 33.415 465.181C33.415 463.804 33.6717 462.556 34.185 461.436C34.6983 460.293 35.3867 459.324 36.25 458.531C37.09 457.738 38.0817 457.131 39.225 456.711C40.345 456.268 41.5117 456.046 42.725 456.046C42.9817 456.046 43.215 456.058 43.425 456.081C43.635 456.081 43.7983 456.093 43.915 456.116L43.915 471.271C44.825 471.201 45.6533 470.991 46.4 470.641C47.1467 470.291 47.7883 469.836 48.325 469.276C48.8617 468.716 49.2817 468.086 49.585 467.386C49.8883 466.663 50.04 465.904 50.04 465.111C50.04 464.551 49.97 464.003 49.83 463.466C49.6667 462.929 49.4567 462.428 49.2 461.961C48.9433 461.494 48.6283 461.086 48.255 460.736C47.8817 460.363 47.4617 460.083 46.995 459.896L47.73 457.236C48.4067 457.539 49.025 457.959 49.585 458.496C50.145 459.009 50.635 459.616 51.055 460.316C51.4517 460.993 51.7667 461.751 52 462.591C52.2333 463.431 52.35 464.306 52.35 465.216ZM41.64 458.951C40.7767 459.021 39.9833 459.243 39.26 459.616C38.5133 459.966 37.8833 460.421 37.37 460.981C36.8567 461.518 36.46 462.148 36.18 462.871C35.8767 463.594 35.725 464.364 35.725 465.181C35.725 465.998 35.8767 466.768 36.18 467.491C36.46 468.214 36.8683 468.856 37.405 469.416C37.9183 469.953 38.5367 470.396 39.26 470.746C39.9833 471.073 40.7767 471.271 41.64 471.341L41.64 458.951Z" fill="white"/>
<path d="M36.072 39L34.499 36.745C34.433 36.7523 34.334 36.756 34.202 36.756H32.464V39H31.034V31.3H34.202C34.8693 31.3 35.4487 31.41 35.94 31.63C36.4387 31.85 36.82 32.1653 37.084 32.576C37.348 32.9867 37.48 33.4743 37.48 34.039C37.48 34.6183 37.337 35.117 37.051 35.535C36.7723 35.953 36.369 36.2647 35.841 36.47L37.612 39H36.072ZM36.039 34.039C36.039 33.5477 35.8777 33.17 35.555 32.906C35.2323 32.642 34.7593 32.51 34.136 32.51H32.464V35.579H34.136C34.7593 35.579 35.2323 35.447 35.555 35.183C35.8777 34.9117 36.039 34.5303 36.039 34.039ZM44.3379 35.062H45.6909V38.131C45.2949 38.4463 44.8329 38.6883 44.3049 38.857C43.7769 39.0257 43.2342 39.11 42.6769 39.11C41.8922 39.11 41.1846 38.9413 40.5539 38.604C39.9232 38.2593 39.4282 37.7863 39.0689 37.185C38.7096 36.5837 38.5299 35.9053 38.5299 35.15C38.5299 34.3947 38.7096 33.7163 39.0689 33.115C39.4282 32.5137 39.9232 32.0443 40.5539 31.707C41.1919 31.3623 41.9069 31.19 42.6989 31.19C43.3442 31.19 43.9309 31.2963 44.4589 31.509C44.9869 31.7217 45.4306 32.0333 45.7899 32.444L44.8879 33.324C44.3012 32.7373 43.5936 32.444 42.7649 32.444C42.2222 32.444 41.7382 32.5577 41.3129 32.785C40.8949 33.0123 40.5649 33.3313 40.3229 33.742C40.0882 34.1527 39.9709 34.622 39.9709 35.15C39.9709 35.6633 40.0882 36.1253 40.3229 36.536C40.5649 36.9467 40.8949 37.2693 41.3129 37.504C41.7382 37.7387 42.2186 37.856 42.7539 37.856C43.3552 37.856 43.8832 37.724 44.3379 37.46V35.062ZM53.033 34.996C53.4583 35.1353 53.7956 35.37 54.045 35.7C54.2943 36.0227 54.419 36.426 54.419 36.91C54.419 37.5773 54.1623 38.0943 53.649 38.461C53.1356 38.8203 52.3876 39 51.405 39H47.577V31.3H51.185C52.0943 31.3 52.7946 31.4797 53.286 31.839C53.7773 32.191 54.023 32.6787 54.023 33.302C54.023 33.6833 53.935 34.0207 53.759 34.314C53.583 34.6073 53.341 34.8347 53.033 34.996ZM49.007 32.422V34.545H51.031C51.5296 34.545 51.911 34.457 52.175 34.281C52.4463 34.0977 52.582 33.8337 52.582 33.489C52.582 33.137 52.4463 32.873 52.175 32.697C51.911 32.5137 51.5296 32.422 51.031 32.422H49.007ZM51.317 37.878C52.4243 37.878 52.978 37.5077 52.978 36.767C52.978 36.0263 52.4243 35.656 51.317 35.656H49.007V37.878H51.317ZM73.2573 31.3V39H71.8273V32.499H70.1993V31.3H73.2573ZM77.4468 31.3V39H76.0168V32.499H74.3888V31.3H77.4468ZM90.6313 37.79V39H84.9553V38.043L88.0133 35.139C88.358 34.809 88.589 34.523 88.7063 34.281C88.831 34.0317 88.8933 33.786 88.8933 33.544C88.8933 33.1847 88.7723 32.9097 88.5303 32.719C88.2883 32.5283 87.9326 32.433 87.4633 32.433C86.6786 32.433 86.0773 32.7007 85.6593 33.236L84.6583 32.466C84.959 32.0627 85.3623 31.751 85.8683 31.531C86.3816 31.3037 86.9536 31.19 87.5843 31.19C88.4203 31.19 89.0876 31.388 89.5863 31.784C90.085 32.18 90.3343 32.719 90.3343 33.401C90.3343 33.819 90.2463 34.2113 90.0703 34.578C89.8943 34.9447 89.557 35.3627 89.0583 35.832L87.0013 37.79H90.6313ZM98.1595 37.251H96.7955V39H95.4095V37.251H91.1855V36.261L94.9805 31.3H96.5095L92.9345 36.041H95.4535V34.49H96.7955V36.041H98.1595V37.251ZM111.705 37.251H110.341V39H108.955V37.251H104.731V36.261L108.526 31.3H110.055L106.48 36.041H108.999V34.49H110.341V36.041H111.705V37.251ZM115.519 39.11C114.903 39.11 114.353 38.956 113.869 38.648C113.385 38.3327 113.004 37.878 112.725 37.284C112.447 36.6827 112.307 35.9713 112.307 35.15C112.307 34.3287 112.447 33.621 112.725 33.027C113.004 32.4257 113.385 31.971 113.869 31.663C114.353 31.3477 114.903 31.19 115.519 31.19C116.135 31.19 116.685 31.3477 117.169 31.663C117.661 31.971 118.046 32.4257 118.324 33.027C118.603 33.621 118.742 34.3287 118.742 35.15C118.742 35.9713 118.603 36.6827 118.324 37.284C118.046 37.878 117.661 38.3327 117.169 38.648C116.685 38.956 116.135 39.11 115.519 39.11ZM115.519 37.867C116.069 37.867 116.502 37.6397 116.817 37.185C117.14 36.7303 117.301 36.052 117.301 35.15C117.301 34.248 117.14 33.5697 116.817 33.115C116.502 32.6603 116.069 32.433 115.519 32.433C114.977 32.433 114.544 32.6603 114.221 33.115C113.906 33.5697 113.748 34.248 113.748 35.15C113.748 36.052 113.906 36.7303 114.221 37.185C114.544 37.6397 114.977 37.867 115.519 37.867ZM34.598 57.11C33.8207 57.11 33.1167 56.9413 32.486 56.604C31.8627 56.2593 31.3713 55.7863 31.012 55.185C30.66 54.5837 30.484 53.9053 30.484 53.15C30.484 52.3947 30.6637 51.7163 31.023 51.115C31.3823 50.5137 31.8737 50.0443 32.497 49.707C33.1277 49.3623 33.8317 49.19 34.609 49.19C35.2397 49.19 35.8153 49.3 36.336 49.52C36.8567 49.74 37.2967 50.059 37.656 50.477L36.732 51.346C36.1747 50.7447 35.489 50.444 34.675 50.444C34.147 50.444 33.674 50.5613 33.256 50.796C32.838 51.0233 32.5117 51.3423 32.277 51.753C32.0423 52.1637 31.925 52.6293 31.925 53.15C31.925 53.6707 32.0423 54.1363 32.277 54.547C32.5117 54.9577 32.838 55.2803 33.256 55.515C33.674 55.7423 34.147 55.856 34.675 55.856C35.489 55.856 36.1747 55.5517 36.732 54.943L37.656 55.823C37.2967 56.241 36.853 56.56 36.325 56.78C35.8043 57 35.2287 57.11 34.598 57.11ZM46.0992 57L46.0882 51.896L43.5582 56.12H42.9202L40.3902 51.962V57H39.0262V49.3H40.2032L43.2612 54.404L46.2642 49.3H47.4412L47.4522 57H46.0992ZM52.854 54.283V57H51.424V54.305L48.399 49.3H49.928L52.183 53.051L54.46 49.3H55.868L52.854 54.283ZM59.3481 53.777L58.1271 55.031V57H56.6971V49.3H58.1271V53.249L61.9331 49.3H63.5391L60.3051 52.743L63.7371 57H62.0651L59.3481 53.777ZM75.2348 52.952C75.6382 53.1353 75.9462 53.3847 76.1588 53.7C76.3788 54.008 76.4888 54.371 76.4888 54.789C76.4888 55.2583 76.3568 55.669 76.0928 56.021C75.8362 56.373 75.4695 56.6443 74.9928 56.835C74.5162 57.0183 73.9625 57.11 73.3318 57.11C72.7012 57.11 72.1475 57.0183 71.6708 56.835C71.2015 56.6443 70.8385 56.373 70.5818 56.021C70.3252 55.669 70.1968 55.2583 70.1968 54.789C70.1968 54.371 70.3032 54.008 70.5158 53.7C70.7285 53.3847 71.0328 53.1353 71.4288 52.952C71.1208 52.7833 70.8825 52.5633 70.7138 52.292C70.5525 52.0133 70.4718 51.6943 70.4718 51.335C70.4718 50.9023 70.5892 50.5247 70.8238 50.202C71.0658 49.8793 71.4032 49.63 71.8358 49.454C72.2685 49.278 72.7672 49.19 73.3318 49.19C73.9038 49.19 74.4062 49.278 74.8388 49.454C75.2715 49.63 75.6088 49.8793 75.8508 50.202C76.0928 50.5247 76.2138 50.9023 76.2138 51.335C76.2138 51.6943 76.1295 52.0097 75.9608 52.281C75.7922 52.5523 75.5502 52.776 75.2348 52.952ZM73.3318 50.312C72.8845 50.312 72.5288 50.4073 72.2648 50.598C72.0082 50.7887 71.8798 51.0563 71.8798 51.401C71.8798 51.731 72.0082 51.995 72.2648 52.193C72.5288 52.3837 72.8845 52.479 73.3318 52.479C73.7865 52.479 74.1458 52.3837 74.4098 52.193C74.6738 51.995 74.8058 51.731 74.8058 51.401C74.8058 51.0563 74.6702 50.7887 74.3988 50.598C74.1348 50.4073 73.7792 50.312 73.3318 50.312ZM73.3318 55.988C73.8598 55.988 74.2778 55.878 74.5858 55.658C74.8938 55.438 75.0478 55.1337 75.0478 54.745C75.0478 54.3637 74.8938 54.063 74.5858 53.843C74.2778 53.623 73.8598 53.513 73.3318 53.513C72.8038 53.513 72.3895 53.623 72.0888 53.843C71.7882 54.063 71.6378 54.3637 71.6378 54.745C71.6378 55.1337 71.7882 55.438 72.0888 55.658C72.3895 55.878 72.8038 55.988 73.3318 55.988ZM83.2246 49.3V50.257L80.2326 57H78.7036L81.5966 50.51H78.5716V51.819H77.2406V49.3H83.2246ZM95.9971 49.3V50.257L93.0051 57H91.4761L94.3691 50.51H91.3441V51.819H90.0131V49.3H95.9971ZM101.682 52.952C102.085 53.1353 102.393 53.3847 102.606 53.7C102.826 54.008 102.936 54.371 102.936 54.789C102.936 55.2583 102.804 55.669 102.54 56.021C102.283 56.373 101.917 56.6443 101.44 56.835C100.963 57.0183 100.41 57.11 99.7791 57.11C99.1484 57.11 98.5948 57.0183 98.1181 56.835C97.6488 56.6443 97.2858 56.373 97.0291 56.021C96.7724 55.669 96.6441 55.2583 96.6441 54.789C96.6441 54.371 96.7504 54.008 96.9631 53.7C97.1758 53.3847 97.4801 53.1353 97.8761 52.952C97.5681 52.7833 97.3298 52.5633 97.1611 52.292C96.9998 52.0133 96.9191 51.6943 96.9191 51.335C96.9191 50.9023 97.0364 50.5247 97.2711 50.202C97.5131 49.8793 97.8504 49.63 98.2831 49.454C98.7158 49.278 99.2144 49.19 99.7791 49.19C100.351 49.19 100.853 49.278 101.286 49.454C101.719 49.63 102.056 49.8793 102.298 50.202C102.54 50.5247 102.661 50.9023 102.661 51.335C102.661 51.6943 102.577 52.0097 102.408 52.281C102.239 52.5523 101.997 52.776 101.682 52.952ZM99.7791 50.312C99.3318 50.312 98.9761 50.4073 98.7121 50.598C98.4554 50.7887 98.3271 51.0563 98.3271 51.401C98.3271 51.731 98.4554 51.995 98.7121 52.193C98.9761 52.3837 99.3318 52.479 99.7791 52.479C100.234 52.479 100.593 52.3837 100.857 52.193C101.121 51.995 101.253 51.731 101.253 51.401C101.253 51.0563 101.117 50.7887 100.846 50.598C100.582 50.4073 100.226 50.312 99.7791 50.312ZM99.7791 55.988C100.307 55.988 100.725 55.878 101.033 55.658C101.341 55.438 101.495 55.1337 101.495 54.745C101.495 54.3637 101.341 54.063 101.033 53.843C100.725 53.623 100.307 53.513 99.7791 53.513C99.2511 53.513 98.8368 53.623 98.5361 53.843C98.2354 54.063 98.0851 54.3637 98.0851 54.745C98.0851 55.1337 98.2354 55.438 98.5361 55.658C98.8368 55.878 99.2511 55.988 99.7791 55.988ZM113.156 57.11C112.54 57.11 111.99 56.956 111.506 56.648C111.022 56.3327 110.641 55.878 110.362 55.284C110.083 54.6827 109.944 53.9713 109.944 53.15C109.944 52.3287 110.083 51.621 110.362 51.027C110.641 50.4257 111.022 49.971 111.506 49.663C111.99 49.3477 112.54 49.19 113.156 49.19C113.772 49.19 114.322 49.3477 114.806 49.663C115.297 49.971 115.682 50.4257 115.961 51.027C116.24 51.621 116.379 52.3287 116.379 53.15C116.379 53.9713 116.24 54.6827 115.961 55.284C115.682 55.878 115.297 56.3327 114.806 56.648C114.322 56.956 113.772 57.11 113.156 57.11ZM113.156 55.867C113.706 55.867 114.139 55.6397 114.454 55.185C114.777 54.7303 114.938 54.052 114.938 53.15C114.938 52.248 114.777 51.5697 114.454 51.115C114.139 50.6603 113.706 50.433 113.156 50.433C112.613 50.433 112.181 50.6603 111.858 51.115C111.543 51.5697 111.385 52.248 111.385 53.15C111.385 54.052 111.543 54.7303 111.858 55.185C112.181 55.6397 112.613 55.867 113.156 55.867ZM126.637 57.11C126.021 57.11 125.471 56.956 124.987 56.648C124.503 56.3327 124.122 55.878 123.843 55.284C123.565 54.6827 123.425 53.9713 123.425 53.15C123.425 52.3287 123.565 51.621 123.843 51.027C124.122 50.4257 124.503 49.971 124.987 49.663C125.471 49.3477 126.021 49.19 126.637 49.19C127.253 49.19 127.803 49.3477 128.287 49.663C128.779 49.971 129.164 50.4257 129.442 51.027C129.721 51.621 129.86 52.3287 129.86 53.15C129.86 53.9713 129.721 54.6827 129.442 55.284C129.164 55.878 128.779 56.3327 128.287 56.648C127.803 56.956 127.253 57.11 126.637 57.11ZM126.637 55.867C127.187 55.867 127.62 55.6397 127.935 55.185C128.258 54.7303 128.419 54.052 128.419 53.15C128.419 52.248 128.258 51.5697 127.935 51.115C127.62 50.6603 127.187 50.433 126.637 50.433C126.095 50.433 125.662 50.6603 125.339 51.115C125.024 51.5697 124.866 52.248 124.866 53.15C124.866 54.052 125.024 54.7303 125.339 55.185C125.662 55.6397 126.095 55.867 126.637 55.867ZM37.876 67.3V75H36.446V71.7H32.464V75H31.034V67.3H32.464V70.479H36.446V67.3H37.876ZM45.7143 73.801V75H39.9393V67.3H45.5603V68.499H41.3693V70.501H45.0873V71.678H41.3693V73.801H45.7143ZM52.0735 75L49.9835 72.074L47.9155 75H46.2875L49.1475 71.073L46.4415 67.3H48.0585L50.0275 70.039L51.9745 67.3H53.5255L50.8305 71.018L53.7235 75H52.0735ZM72.7116 75.11C72.0956 75.11 71.5456 74.956 71.0616 74.648C70.5776 74.3327 70.1963 73.878 69.9176 73.284C69.639 72.6827 69.4996 71.9713 69.4996 71.15C69.4996 70.3287 69.639 69.621 69.9176 69.027C70.1963 68.4257 70.5776 67.971 71.0616 67.663C71.5456 67.3477 72.0956 67.19 72.7116 67.19C73.3276 67.19 73.8776 67.3477 74.3616 67.663C74.853 67.971 75.238 68.4257 75.5166 69.027C75.7953 69.621 75.9346 70.3287 75.9346 71.15C75.9346 71.9713 75.7953 72.6827 75.5166 73.284C75.238 73.878 74.853 74.3327 74.3616 74.648C73.8776 74.956 73.3276 75.11 72.7116 75.11ZM72.7116 73.867C73.2616 73.867 73.6943 73.6397 74.0096 73.185C74.3323 72.7303 74.4936 72.052 74.4936 71.15C74.4936 70.248 74.3323 69.5697 74.0096 69.115C73.6943 68.6603 73.2616 68.433 72.7116 68.433C72.169 68.433 71.7363 68.6603 71.4136 69.115C71.0983 69.5697 70.9406 70.248 70.9406 71.15C70.9406 72.052 71.0983 72.7303 71.4136 73.185C71.7363 73.6397 72.169 73.867 72.7116 73.867ZM82.907 70.996C83.3323 71.1353 83.6697 71.37 83.919 71.7C84.1683 72.0227 84.293 72.426 84.293 72.91C84.293 73.5773 84.0363 74.0943 83.523 74.461C83.0097 74.8203 82.2617 75 81.279 75H77.451V67.3H81.059C81.9683 67.3 82.6687 67.4797 83.16 67.839C83.6513 68.191 83.897 68.6787 83.897 69.302C83.897 69.6833 83.809 70.0207 83.633 70.314C83.457 70.6073 83.215 70.8347 82.907 70.996ZM78.881 68.422V70.545H80.905C81.4037 70.545 81.785 70.457 82.049 70.281C82.3203 70.0977 82.456 69.8337 82.456 69.489C82.456 69.137 82.3203 68.873 82.049 68.697C81.785 68.5137 81.4037 68.422 80.905 68.422H78.881ZM81.191 73.878C82.2983 73.878 82.852 73.5077 82.852 72.767C82.852 72.0263 82.2983 71.656 81.191 71.656H78.881V73.878H81.191ZM87.9312 67.3V75H86.5012V68.499H84.8732V67.3H87.9312ZM94.4526 70.952C94.8559 71.1353 95.1639 71.3847 95.3766 71.7C95.5966 72.008 95.7066 72.371 95.7066 72.789C95.7066 73.2583 95.5746 73.669 95.3106 74.021C95.0539 74.373 94.6873 74.6443 94.2106 74.835C93.7339 75.0183 93.1803 75.11 92.5496 75.11C91.9189 75.11 91.3653 75.0183 90.8886 74.835C90.4193 74.6443 90.0563 74.373 89.7996 74.021C89.5429 73.669 89.4146 73.2583 89.4146 72.789C89.4146 72.371 89.5209 72.008 89.7336 71.7C89.9463 71.3847 90.2506 71.1353 90.6466 70.952C90.3386 70.7833 90.1003 70.5633 89.9316 70.292C89.7703 70.0133 89.6896 69.6943 89.6896 69.335C89.6896 68.9023 89.8069 68.5247 90.0416 68.202C90.2836 67.8793 90.6209 67.63 91.0536 67.454C91.4863 67.278 91.9849 67.19 92.5496 67.19C93.1216 67.19 93.6239 67.278 94.0566 67.454C94.4893 67.63 94.8266 67.8793 95.0686 68.202C95.3106 68.5247 95.4316 68.9023 95.4316 69.335C95.4316 69.6943 95.3473 70.0097 95.1786 70.281C95.0099 70.5523 94.7679 70.776 94.4526 70.952ZM92.5496 68.312C92.1023 68.312 91.7466 68.4073 91.4826 68.598C91.2259 68.7887 91.0976 69.0563 91.0976 69.401C91.0976 69.731 91.2259 69.995 91.4826 70.193C91.7466 70.3837 92.1023 70.479 92.5496 70.479C93.0043 70.479 93.3636 70.3837 93.6276 70.193C93.8916 69.995 94.0236 69.731 94.0236 69.401C94.0236 69.0563 93.8879 68.7887 93.6166 68.598C93.3526 68.4073 92.9969 68.312 92.5496 68.312ZM92.5496 73.988C93.0776 73.988 93.4956 73.878 93.8036 73.658C94.1116 73.438 94.2656 73.1337 94.2656 72.745C94.2656 72.3637 94.1116 72.063 93.8036 71.843C93.4956 71.623 93.0776 71.513 92.5496 71.513C92.0216 71.513 91.6073 71.623 91.3066 71.843C91.0059 72.063 90.8556 72.3637 90.8556 72.745C90.8556 73.1337 91.0059 73.438 91.3066 73.658C91.6073 73.878 92.0216 73.988 92.5496 73.988ZM102.211 73.79V75H96.5354V74.043L99.5934 71.139C99.9381 70.809 100.169 70.523 100.286 70.281C100.411 70.0317 100.473 69.786 100.473 69.544C100.473 69.1847 100.352 68.9097 100.11 68.719C99.8684 68.5283 99.5127 68.433 99.0434 68.433C98.2587 68.433 97.6574 68.7007 97.2394 69.236L96.2384 68.466C96.5391 68.0627 96.9424 67.751 97.4484 67.531C97.9617 67.3037 98.5337 67.19 99.1644 67.19C100 67.19 100.668 67.388 101.166 67.784C101.665 68.18 101.914 68.719 101.914 69.401C101.914 69.819 101.826 70.2113 101.65 70.578C101.474 70.9447 101.137 71.3627 100.638 71.832L98.5814 73.79H102.211ZM108.031 70.952C108.434 71.1353 108.742 71.3847 108.955 71.7C109.175 72.008 109.285 72.371 109.285 72.789C109.285 73.2583 109.153 73.669 108.889 74.021C108.632 74.373 108.265 74.6443 107.789 74.835C107.312 75.0183 106.758 75.11 106.128 75.11C105.497 75.11 104.943 75.0183 104.467 74.835C103.997 74.6443 103.634 74.373 103.378 74.021C103.121 73.669 102.993 73.2583 102.993 72.789C102.993 72.371 103.099 72.008 103.312 71.7C103.524 71.3847 103.829 71.1353 104.225 70.952C103.917 70.7833 103.678 70.5633 103.51 70.292C103.348 70.0133 103.268 69.6943 103.268 69.335C103.268 68.9023 103.385 68.5247 103.62 68.202C103.862 67.8793 104.199 67.63 104.632 67.454C105.064 67.278 105.563 67.19 106.128 67.19C106.7 67.19 107.202 67.278 107.635 67.454C108.067 67.63 108.405 67.8793 108.647 68.202C108.889 68.5247 109.01 68.9023 109.01 69.335C109.01 69.6943 108.925 70.0097 108.757 70.281C108.588 70.5523 108.346 70.776 108.031 70.952ZM106.128 68.312C105.68 68.312 105.325 68.4073 105.061 68.598C104.804 68.7887 104.676 69.0563 104.676 69.401C104.676 69.731 104.804 69.995 105.061 70.193C105.325 70.3837 105.68 70.479 106.128 70.479C106.582 70.479 106.942 70.3837 107.206 70.193C107.47 69.995 107.602 69.731 107.602 69.401C107.602 69.0563 107.466 68.7887 107.195 68.598C106.931 68.4073 106.575 68.312 106.128 68.312ZM106.128 73.988C106.656 73.988 107.074 73.878 107.382 73.658C107.69 73.438 107.844 73.1337 107.844 72.745C107.844 72.3637 107.69 72.063 107.382 71.843C107.074 71.623 106.656 71.513 106.128 71.513C105.6 71.513 105.185 71.623 104.885 71.843C104.584 72.063 104.434 72.3637 104.434 72.745C104.434 73.1337 104.584 73.438 104.885 73.658C105.185 73.878 105.6 73.988 106.128 73.988Z" fill="white"/>
</svg>
