<svg width="263" height="162" viewBox="0 0 263 162" fill="none" xmlns="http://www.w3.org/2000/svg">
<path d="M0.000351638 61.3198V1.67982H20.6644C27.0484 1.67982 32.3684 3.02382 36.6244 5.71182C40.9364 8.34382 44.1564 11.9278 46.2844 16.4638C48.4124 20.9438 49.4764 25.9278 49.4764 31.4158C49.4764 37.4638 48.3004 42.7278 45.9484 47.2078C43.5964 51.6878 40.2644 55.1598 35.9524 57.6238C31.6404 60.0878 26.5444 61.3198 20.6644 61.3198H0.000351638ZM41.8324 31.4158C41.8324 26.9358 40.9924 22.9598 39.3124 19.4878C37.6884 16.0158 35.3084 13.2998 32.1724 11.3398C29.0364 9.37982 25.2004 8.39982 20.6644 8.39982H7.56035V54.5998H20.6644C25.2564 54.5998 29.1204 53.5918 32.2564 51.5758C35.3924 49.5038 37.7724 46.7318 39.3964 43.2598C41.0204 39.7318 41.8324 35.7838 41.8324 31.4158ZM78.3573 62.1598C75.0533 62.1598 72.0293 61.5718 69.2853 60.3958C66.5973 59.1638 64.2453 57.5118 62.2293 55.4398C60.2693 53.3118 58.7293 50.8758 57.6093 48.1318C56.5453 45.3878 56.0133 42.4758 56.0133 39.3958C56.0133 35.2518 56.9653 31.4718 58.8693 28.0558C60.7733 24.6398 63.4053 21.8958 66.7653 19.8238C70.1813 17.7518 74.0733 16.7158 78.4413 16.7158C82.8653 16.7158 86.7013 17.7798 89.9493 19.9078C93.2533 21.9798 95.8013 24.7238 97.5933 28.1398C99.4413 31.4998 100.365 35.1398 100.365 39.0598C100.365 39.6198 100.337 40.1798 100.281 40.7398C100.281 41.2438 100.253 41.6358 100.197 41.9158H63.8253C64.0493 44.7718 64.8333 47.3198 66.1773 49.5598C67.5773 51.7438 69.3693 53.4798 71.5533 54.7678C73.7373 55.9998 76.0893 56.6158 78.6093 56.6158C81.2973 56.6158 83.8173 55.9438 86.1693 54.5998C88.5773 53.2558 90.2293 51.4918 91.1253 49.3078L97.5093 51.0718C96.5573 53.1998 95.1293 55.1038 93.2253 56.7838C91.3773 58.4638 89.1653 59.7798 86.5893 60.7318C84.0693 61.6838 81.3253 62.1598 78.3573 62.1598ZM63.5733 36.7918H93.4773C93.2533 33.9358 92.4413 31.4158 91.0413 29.2318C89.6413 27.0478 87.8493 25.3398 85.6653 24.1078C83.4813 22.8758 81.0733 22.2598 78.4413 22.2598C75.8653 22.2598 73.4853 22.8758 71.3013 24.1078C69.1173 25.3398 67.3253 27.0478 65.9253 29.2318C64.5813 31.4158 63.7973 33.9358 63.5733 36.7918ZM123.618 62.1598C119.978 62.1598 116.562 61.5718 113.37 60.3958C110.178 59.1638 107.434 57.3438 105.138 54.9358L107.994 49.7278C110.514 52.0798 113.034 53.7598 115.554 54.7678C118.074 55.7758 120.65 56.2798 123.282 56.2798C126.306 56.2798 128.77 55.7198 130.674 54.5998C132.578 53.4238 133.53 51.7158 133.53 49.4758C133.53 47.8518 133.026 46.6478 132.018 45.8638C131.066 45.0798 129.694 44.4358 127.902 43.9318C126.11 43.3718 123.982 42.7558 121.518 42.0838C118.494 41.1878 115.946 40.2358 113.874 39.2278C111.802 38.2198 110.234 36.9598 109.17 35.4478C108.106 33.9358 107.574 32.0318 107.574 29.7358C107.574 26.9358 108.302 24.5838 109.758 22.6798C111.214 20.7198 113.202 19.2358 115.722 18.2278C118.298 17.2198 121.21 16.7158 124.458 16.7158C127.706 16.7158 130.646 17.2198 133.278 18.2278C135.91 19.2358 138.178 20.7198 140.082 22.6798L136.722 27.8038C134.986 26.0118 133.082 24.6958 131.01 23.8558C128.938 22.9598 126.614 22.5118 124.038 22.5118C122.526 22.5118 121.042 22.7078 119.586 23.0998C118.13 23.4358 116.926 24.0798 115.974 25.0318C115.022 25.9278 114.546 27.2158 114.546 28.8958C114.546 30.2958 114.91 31.4158 115.638 32.2558C116.422 33.0398 117.542 33.7118 118.998 34.2718C120.51 34.8318 122.33 35.4478 124.458 36.1198C127.762 37.0718 130.618 38.0238 133.026 38.9758C135.49 39.9278 137.394 41.1598 138.738 42.6718C140.082 44.1838 140.754 46.2838 140.754 48.9718C140.754 53.1158 139.186 56.3638 136.05 58.7158C132.914 61.0118 128.77 62.1598 123.618 62.1598ZM149.598 61.3198V17.4718H156.99V61.3198H149.598ZM149.598 9.23982V-0.000177383H156.99V9.23982H149.598ZM186.429 61.8238C183.461 61.8238 180.717 61.2358 178.197 60.0598C175.733 58.8278 173.605 57.1758 171.813 55.1038C170.021 52.9758 168.621 50.5678 167.613 47.8798C166.661 45.1918 166.185 42.3918 166.185 39.4798C166.185 36.3998 166.661 33.4878 167.613 30.7438C168.621 27.9998 170.021 25.5918 171.813 23.5198C173.661 21.3918 175.817 19.7398 178.281 18.5638C180.745 17.3318 183.489 16.7158 186.513 16.7158C190.153 16.7158 193.317 17.6118 196.005 19.4038C198.749 21.1958 201.045 23.4638 202.893 26.2078V17.4718H209.445V60.8158C209.445 64.9598 208.437 68.4598 206.421 71.3158C204.461 74.1718 201.773 76.3278 198.357 77.7838C194.997 79.2958 191.245 80.0518 187.101 80.0518C182.173 80.0518 178.141 79.1838 175.005 77.4478C171.869 75.7118 169.265 73.3598 167.193 70.3918L171.477 66.6118C173.213 69.1878 175.453 71.1198 178.197 72.4078C180.997 73.6958 183.965 74.3398 187.101 74.3398C189.789 74.3398 192.253 73.8358 194.493 72.8278C196.789 71.8758 198.609 70.3918 199.953 68.3758C201.353 66.3598 202.053 63.8398 202.053 60.8158V53.0878C200.429 55.7758 198.189 57.9038 195.333 59.4718C192.533 61.0398 189.565 61.8238 186.429 61.8238ZM188.697 55.7758C190.265 55.7758 191.777 55.4958 193.233 54.9358C194.689 54.3758 196.033 53.6478 197.265 52.7518C198.497 51.7998 199.533 50.7358 200.373 49.5598C201.213 48.3838 201.773 47.1798 202.053 45.9478V33.3478C201.269 31.3318 200.149 29.5678 198.693 28.0558C197.237 26.4878 195.585 25.2838 193.737 24.4438C191.889 23.5478 189.985 23.0998 188.025 23.0998C185.785 23.0998 183.769 23.5758 181.977 24.5278C180.241 25.4798 178.757 26.7678 177.525 28.3918C176.293 29.9598 175.341 31.7238 174.669 33.6838C173.997 35.6438 173.661 37.6318 173.661 39.6478C173.661 41.8318 174.053 43.9038 174.837 45.8638C175.621 47.7678 176.685 49.4758 178.029 50.9878C179.373 52.4998 180.969 53.6758 182.817 54.5158C184.665 55.3558 186.625 55.7758 188.697 55.7758ZM259.427 61.3198H252.035V36.7918C252.035 32.1438 251.307 28.7558 249.851 26.6278C248.451 24.4438 246.295 23.3518 243.383 23.3518C241.367 23.3518 239.351 23.8558 237.335 24.8638C235.375 25.8718 233.611 27.2438 232.043 28.9798C230.531 30.6598 229.439 32.6198 228.767 34.8598V61.3198H221.375V17.4718H228.095V26.8798C229.271 24.8078 230.783 23.0158 232.631 21.5038C234.479 19.9918 236.579 18.8158 238.931 17.9758C241.283 17.1358 243.747 16.7158 246.323 16.7158C248.843 16.7158 250.943 17.1918 252.623 18.1438C254.359 19.0398 255.703 20.3278 256.655 22.0078C257.663 23.6318 258.363 25.5638 258.755 27.8038C259.203 30.0438 259.427 32.4798 259.427 35.1118V61.3198ZM32.2537 100.68H38.6377L62.9977 160.32H54.9337L47.8777 142.848H22.8457L15.8737 160.32H7.80973L32.2537 100.68ZM46.1977 136.968L35.4457 109.416L24.3577 136.968H46.1977ZM84.1611 161.16C80.5211 161.16 77.1051 160.572 73.9131 159.396C70.7211 158.164 67.9771 156.344 65.6811 153.936L68.5371 148.728C71.0571 151.08 73.5771 152.76 76.0971 153.768C78.6171 154.776 81.1931 155.28 83.8251 155.28C86.8491 155.28 89.3131 154.72 91.2171 153.6C93.1211 152.424 94.0731 150.716 94.0731 148.476C94.0731 146.852 93.5691 145.648 92.5611 144.864C91.6091 144.08 90.2371 143.436 88.4451 142.932C86.6531 142.372 84.5251 141.756 82.0611 141.084C79.0371 140.188 76.4891 139.236 74.4171 138.228C72.3451 137.22 70.7771 135.96 69.7131 134.448C68.6491 132.936 68.1171 131.032 68.1171 128.736C68.1171 125.936 68.8451 123.584 70.3011 121.68C71.7571 119.72 73.7451 118.236 76.2651 117.228C78.8411 116.22 81.7531 115.716 85.0011 115.716C88.2491 115.716 91.1891 116.22 93.8211 117.228C96.4531 118.236 98.7211 119.72 100.625 121.68L97.2651 126.804C95.5291 125.012 93.6251 123.696 91.5531 122.856C89.4811 121.96 87.1571 121.512 84.5811 121.512C83.0691 121.512 81.5851 121.708 80.1291 122.1C78.6731 122.436 77.4691 123.08 76.5171 124.032C75.5651 124.928 75.0891 126.216 75.0891 127.896C75.0891 129.296 75.4531 130.416 76.1811 131.256C76.9651 132.04 78.0851 132.712 79.5411 133.272C81.0531 133.832 82.8731 134.448 85.0011 135.12C88.3051 136.072 91.1611 137.024 93.5691 137.976C96.0331 138.928 97.9371 140.16 99.2811 141.672C100.625 143.184 101.297 145.284 101.297 147.972C101.297 152.116 99.7291 155.364 96.5931 157.716C93.4571 160.012 89.3131 161.16 84.1611 161.16ZM125.177 161.16C121.537 161.16 118.121 160.572 114.929 159.396C111.737 158.164 108.993 156.344 106.697 153.936L109.553 148.728C112.073 151.08 114.593 152.76 117.113 153.768C119.633 154.776 122.209 155.28 124.841 155.28C127.865 155.28 130.329 154.72 132.233 153.6C134.137 152.424 135.089 150.716 135.089 148.476C135.089 146.852 134.585 145.648 133.577 144.864C132.625 144.08 131.253 143.436 129.461 142.932C127.669 142.372 125.541 141.756 123.077 141.084C120.053 140.188 117.505 139.236 115.433 138.228C113.361 137.22 111.793 135.96 110.729 134.448C109.665 132.936 109.133 131.032 109.133 128.736C109.133 125.936 109.861 123.584 111.317 121.68C112.773 119.72 114.761 118.236 117.281 117.228C119.857 116.22 122.769 115.716 126.017 115.716C129.265 115.716 132.205 116.22 134.837 117.228C137.469 118.236 139.737 119.72 141.641 121.68L138.281 126.804C136.545 125.012 134.641 123.696 132.569 122.856C130.497 121.96 128.173 121.512 125.597 121.512C124.085 121.512 122.601 121.708 121.145 122.1C119.689 122.436 118.485 123.08 117.533 124.032C116.581 124.928 116.105 126.216 116.105 127.896C116.105 129.296 116.469 130.416 117.197 131.256C117.981 132.04 119.101 132.712 120.557 133.272C122.069 133.832 123.889 134.448 126.017 135.12C129.321 136.072 132.177 137.024 134.585 137.976C137.049 138.928 138.953 140.16 140.297 141.672C141.641 143.184 142.313 145.284 142.313 147.972C142.313 152.116 140.745 155.364 137.609 157.716C134.473 160.012 130.329 161.16 125.177 161.16ZM170.56 161.16C167.256 161.16 164.232 160.572 161.488 159.396C158.8 158.164 156.448 156.512 154.432 154.44C152.472 152.312 150.932 149.876 149.812 147.132C148.748 144.388 148.216 141.476 148.216 138.396C148.216 134.252 149.168 130.472 151.072 127.056C152.976 123.64 155.608 120.896 158.968 118.824C162.384 116.752 166.276 115.716 170.644 115.716C175.068 115.716 178.904 116.78 182.152 118.908C185.456 120.98 188.004 123.724 189.796 127.14C191.644 130.5 192.568 134.14 192.568 138.06C192.568 138.62 192.54 139.18 192.484 139.74C192.484 140.244 192.456 140.636 192.4 140.916H156.028C156.252 143.772 157.036 146.32 158.38 148.56C159.78 150.744 161.572 152.48 163.756 153.768C165.94 155 168.292 155.616 170.812 155.616C173.5 155.616 176.02 154.944 178.372 153.6C180.78 152.256 182.432 150.492 183.328 148.308L189.712 150.072C188.76 152.2 187.332 154.104 185.428 155.784C183.58 157.464 181.368 158.78 178.792 159.732C176.272 160.684 173.528 161.16 170.56 161.16ZM155.776 135.792H185.68C185.456 132.936 184.644 130.416 183.244 128.232C181.844 126.048 180.052 124.34 177.868 123.108C175.684 121.876 173.276 121.26 170.644 121.26C168.068 121.26 165.688 121.876 163.504 123.108C161.32 124.34 159.528 126.048 158.128 128.232C156.784 130.416 156 132.936 155.776 135.792ZM223.055 158.136C222.439 158.416 221.599 158.78 220.535 159.228C219.471 159.676 218.239 160.068 216.839 160.404C215.439 160.74 213.955 160.908 212.387 160.908C210.595 160.908 208.943 160.6 207.431 159.984C205.919 159.312 204.715 158.304 203.819 156.96C202.923 155.56 202.475 153.824 202.475 151.752V122.268H196.511V116.472H202.475V101.856H209.867V116.472H219.695V122.268H209.867V149.484C209.979 151.052 210.511 152.228 211.463 153.012C212.415 153.74 213.535 154.104 214.823 154.104C216.279 154.104 217.623 153.852 218.855 153.348C220.087 152.844 220.899 152.48 221.291 152.256L223.055 158.136ZM244.942 161.16C241.302 161.16 237.886 160.572 234.694 159.396C231.502 158.164 228.758 156.344 226.462 153.936L229.318 148.728C231.838 151.08 234.358 152.76 236.878 153.768C239.398 154.776 241.974 155.28 244.606 155.28C247.63 155.28 250.094 154.72 251.998 153.6C253.902 152.424 254.854 150.716 254.854 148.476C254.854 146.852 254.35 145.648 253.342 144.864C252.39 144.08 251.018 143.436 249.226 142.932C247.434 142.372 245.306 141.756 242.842 141.084C239.818 140.188 237.27 139.236 235.198 138.228C233.126 137.22 231.558 135.96 230.494 134.448C229.43 132.936 228.898 131.032 228.898 128.736C228.898 125.936 229.626 123.584 231.082 121.68C232.538 119.72 234.526 118.236 237.046 117.228C239.622 116.22 242.534 115.716 245.782 115.716C249.03 115.716 251.97 116.22 254.602 117.228C257.234 118.236 259.502 119.72 261.406 121.68L258.046 126.804C256.31 125.012 254.406 123.696 252.334 122.856C250.262 121.96 247.938 121.512 245.362 121.512C243.85 121.512 242.366 121.708 240.91 122.1C239.454 122.436 238.25 123.08 237.298 124.032C236.346 124.928 235.87 126.216 235.87 127.896C235.87 129.296 236.234 130.416 236.962 131.256C237.746 132.04 238.866 132.712 240.322 133.272C241.834 133.832 243.654 134.448 245.782 135.12C249.086 136.072 251.942 137.024 254.35 137.976C256.814 138.928 258.718 140.16 260.062 141.672C261.406 143.184 262.078 145.284 262.078 147.972C262.078 152.116 260.51 155.364 257.374 157.716C254.238 160.012 250.094 161.16 244.942 161.16Z" fill="white"/>
</svg>
