<svg width="594" height="180" viewBox="0 0 594 180" fill="none" xmlns="http://www.w3.org/2000/svg">
<path d="M394.078 61.3201V1.68007H433.474V8.40006H401.638V28.3081H428.434V34.6081H401.638V61.3201H394.078ZM441.875 61.3201V17.4721H449.267V61.3201H441.875ZM441.875 9.24007V6.67572e-05H449.267V9.24007H441.875ZM499.286 61.3201H491.894V36.7921C491.894 32.1441 491.166 28.7561 489.71 26.6281C488.31 24.4441 486.154 23.3521 483.242 23.3521C481.226 23.3521 479.21 23.8561 477.194 24.8641C475.234 25.8721 473.47 27.2441 471.902 28.9801C470.39 30.6601 469.298 32.6201 468.626 34.8601V61.3201H461.234V17.4721H467.954V26.8801C469.13 24.8081 470.642 23.0161 472.49 21.5041C474.338 19.9921 476.438 18.8161 478.79 17.9761C481.142 17.1361 483.606 16.7161 486.182 16.7161C488.702 16.7161 490.802 17.1921 492.482 18.1441C494.218 19.0401 495.562 20.3281 496.514 22.0081C497.522 23.6321 498.222 25.5641 498.614 27.8041C499.062 30.0441 499.286 32.4801 499.286 35.1121V61.3201ZM507.337 48.6361C507.337 45.8361 508.121 43.4281 509.689 41.4121C511.313 39.3401 513.525 37.7441 516.325 36.6241C519.125 35.5041 522.373 34.9441 526.069 34.9441C528.029 34.9441 530.101 35.1121 532.285 35.4481C534.469 35.7281 536.401 36.1761 538.081 36.7921V33.6001C538.081 30.2401 537.073 27.6081 535.057 25.7041C533.041 23.7441 530.185 22.7641 526.489 22.7641C524.081 22.7641 521.757 23.2121 519.517 24.1081C517.333 24.9481 515.009 26.1801 512.545 27.8041L509.857 22.5961C512.713 20.6361 515.569 19.1801 518.425 18.2281C521.281 17.2201 524.249 16.7161 527.329 16.7161C532.929 16.7161 537.353 18.2841 540.601 21.4201C543.849 24.5001 545.473 28.8121 545.473 34.3561V52.9201C545.473 53.8161 545.641 54.4881 545.977 54.9361C546.369 55.3281 546.985 55.5521 547.825 55.6081V61.3201C547.097 61.4321 546.453 61.5161 545.893 61.5721C545.389 61.6281 544.969 61.6561 544.633 61.6561C542.897 61.6561 541.581 61.1801 540.685 60.2281C539.845 59.2761 539.369 58.2681 539.257 57.2041L539.089 54.4321C537.185 56.8961 534.693 58.8001 531.613 60.1441C528.533 61.4881 525.481 62.1601 522.457 62.1601C519.545 62.1601 516.941 61.5721 514.645 60.3961C512.349 59.1641 510.557 57.5401 509.269 55.5241C507.981 53.4521 507.337 51.1561 507.337 48.6361ZM535.897 51.7441C536.569 50.9601 537.101 50.1761 537.493 49.3921C537.885 48.5521 538.081 47.8521 538.081 47.2921V41.8321C536.345 41.1601 534.525 40.6561 532.621 40.3201C530.717 39.9281 528.841 39.7321 526.993 39.7321C523.241 39.7321 520.189 40.4881 517.837 42.0001C515.541 43.4561 514.393 45.4721 514.393 48.0481C514.393 49.4481 514.757 50.8201 515.485 52.1641C516.269 53.4521 517.389 54.5161 518.845 55.3561C520.357 56.1961 522.205 56.6161 524.389 56.6161C526.685 56.6161 528.869 56.1681 530.941 55.2721C533.013 54.3201 534.665 53.1441 535.897 51.7441ZM557.461 6.67572e-05H564.853V49.9801C564.853 52.3881 565.189 53.8721 565.861 54.4321C566.533 54.9921 567.345 55.2721 568.297 55.2721C569.473 55.2721 570.593 55.1601 571.657 54.9361C572.721 54.6561 573.617 54.3761 574.345 54.0961L575.521 60.1441C574.289 60.6481 572.833 61.0681 571.153 61.4041C569.473 61.7401 567.989 61.9081 566.701 61.9081C563.845 61.9081 561.577 61.0961 559.897 59.4721C558.273 57.8481 557.461 55.5801 557.461 52.6681V6.67572e-05ZM-1.45733e-05 160.32V100.68H20.664C27.048 100.68 32.368 102.024 36.624 104.712C40.936 107.344 44.156 110.928 46.284 115.464C48.412 119.944 49.476 124.928 49.476 130.416C49.476 136.464 48.3 141.728 45.948 146.208C43.596 150.688 40.264 154.16 35.952 156.624C31.64 159.088 26.544 160.32 20.664 160.32H-1.45733e-05ZM41.832 130.416C41.832 125.936 40.992 121.96 39.312 118.488C37.688 115.016 35.308 112.3 32.172 110.34C29.036 108.38 25.2 107.4 20.664 107.4H7.55999V153.6H20.664C25.256 153.6 29.12 152.592 32.256 150.576C35.392 148.504 37.772 145.732 39.396 142.26C41.02 138.732 41.832 134.784 41.832 130.416ZM78.3569 161.16C75.0529 161.16 72.0289 160.572 69.2849 159.396C66.5969 158.164 64.2449 156.512 62.2289 154.44C60.2689 152.312 58.7289 149.876 57.6089 147.132C56.5449 144.388 56.0129 141.476 56.0129 138.396C56.0129 134.252 56.9649 130.472 58.8689 127.056C60.7729 123.64 63.4049 120.896 66.7649 118.824C70.1809 116.752 74.0729 115.716 78.4409 115.716C82.8649 115.716 86.7009 116.78 89.9489 118.908C93.2529 120.98 95.8009 123.724 97.5929 127.14C99.4409 130.5 100.365 134.14 100.365 138.06C100.365 138.62 100.337 139.18 100.281 139.74C100.281 140.244 100.253 140.636 100.197 140.916H63.8249C64.0489 143.772 64.8329 146.32 66.1769 148.56C67.5769 150.744 69.3689 152.48 71.5529 153.768C73.7369 155 76.0889 155.616 78.6089 155.616C81.2969 155.616 83.8169 154.944 86.1689 153.6C88.5769 152.256 90.2289 150.492 91.1249 148.308L97.5089 150.072C96.5569 152.2 95.1289 154.104 93.2249 155.784C91.3769 157.464 89.1649 158.78 86.5889 159.732C84.0689 160.684 81.3249 161.16 78.3569 161.16ZM63.5729 135.792H93.4769C93.2529 132.936 92.4409 130.416 91.0409 128.232C89.6409 126.048 87.8489 124.34 85.6649 123.108C83.4809 121.876 81.0729 121.26 78.4409 121.26C75.8649 121.26 73.4849 121.876 71.3009 123.108C69.1169 124.34 67.3249 126.048 65.9249 128.232C64.5809 130.416 63.7969 132.936 63.5729 135.792ZM123.618 161.16C119.978 161.16 116.562 160.572 113.37 159.396C110.178 158.164 107.434 156.344 105.138 153.936L107.994 148.728C110.514 151.08 113.034 152.76 115.554 153.768C118.074 154.776 120.65 155.28 123.282 155.28C126.306 155.28 128.77 154.72 130.674 153.6C132.578 152.424 133.53 150.716 133.53 148.476C133.53 146.852 133.026 145.648 132.018 144.864C131.066 144.08 129.694 143.436 127.902 142.932C126.11 142.372 123.982 141.756 121.518 141.084C118.494 140.188 115.946 139.236 113.874 138.228C111.802 137.22 110.234 135.96 109.17 134.448C108.106 132.936 107.574 131.032 107.574 128.736C107.574 125.936 108.302 123.584 109.758 121.68C111.214 119.72 113.202 118.236 115.722 117.228C118.298 116.22 121.21 115.716 124.458 115.716C127.706 115.716 130.646 116.22 133.278 117.228C135.91 118.236 138.178 119.72 140.082 121.68L136.722 126.804C134.986 125.012 133.082 123.696 131.01 122.856C128.938 121.96 126.614 121.512 124.038 121.512C122.526 121.512 121.042 121.708 119.586 122.1C118.13 122.436 116.926 123.08 115.974 124.032C115.022 124.928 114.546 126.216 114.546 127.896C114.546 129.296 114.91 130.416 115.638 131.256C116.422 132.04 117.542 132.712 118.998 133.272C120.51 133.832 122.33 134.448 124.458 135.12C127.762 136.072 130.618 137.024 133.026 137.976C135.49 138.928 137.394 140.16 138.738 141.672C140.082 143.184 140.754 145.284 140.754 147.972C140.754 152.116 139.186 155.364 136.05 157.716C132.914 160.012 128.77 161.16 123.618 161.16ZM149.597 160.32V116.472H156.989V160.32H149.597ZM149.597 108.24V99.0001H156.989V108.24H149.597ZM186.429 160.824C183.461 160.824 180.717 160.236 178.197 159.06C175.733 157.828 173.605 156.176 171.813 154.104C170.021 151.976 168.621 149.568 167.613 146.88C166.661 144.192 166.185 141.392 166.185 138.48C166.185 135.4 166.661 132.488 167.613 129.744C168.621 127 170.021 124.592 171.813 122.52C173.661 120.392 175.817 118.74 178.281 117.564C180.745 116.332 183.489 115.716 186.513 115.716C190.153 115.716 193.317 116.612 196.005 118.404C198.749 120.196 201.045 122.464 202.893 125.208V116.472H209.445V159.816C209.445 163.96 208.437 167.46 206.421 170.316C204.461 173.172 201.773 175.328 198.357 176.784C194.997 178.296 191.245 179.052 187.101 179.052C182.173 179.052 178.141 178.184 175.005 176.448C171.869 174.712 169.265 172.36 167.193 169.392L171.477 165.612C173.213 168.188 175.453 170.12 178.197 171.408C180.997 172.696 183.965 173.34 187.101 173.34C189.789 173.34 192.253 172.836 194.493 171.828C196.789 170.876 198.609 169.392 199.953 167.376C201.353 165.36 202.053 162.84 202.053 159.816V152.088C200.429 154.776 198.189 156.904 195.333 158.472C192.533 160.04 189.565 160.824 186.429 160.824ZM188.697 154.776C190.265 154.776 191.777 154.496 193.233 153.936C194.689 153.376 196.033 152.648 197.265 151.752C198.497 150.8 199.533 149.736 200.373 148.56C201.213 147.384 201.773 146.18 202.053 144.948V132.348C201.269 130.332 200.149 128.568 198.693 127.056C197.237 125.488 195.585 124.284 193.737 123.444C191.889 122.548 189.985 122.1 188.025 122.1C185.785 122.1 183.769 122.576 181.977 123.528C180.241 124.48 178.757 125.768 177.525 127.392C176.293 128.96 175.341 130.724 174.669 132.684C173.997 134.644 173.661 136.632 173.661 138.648C173.661 140.832 174.053 142.904 174.837 144.864C175.621 146.768 176.685 148.476 178.029 149.988C179.373 151.5 180.969 152.676 182.817 153.516C184.665 154.356 186.625 154.776 188.697 154.776ZM259.427 160.32H252.035V135.792C252.035 131.144 251.307 127.756 249.851 125.628C248.451 123.444 246.295 122.352 243.383 122.352C241.367 122.352 239.351 122.856 237.335 123.864C235.375 124.872 233.611 126.244 232.043 127.98C230.531 129.66 229.439 131.62 228.767 133.86V160.32H221.375V116.472H228.095V125.88C229.271 123.808 230.783 122.016 232.631 120.504C234.479 118.992 236.579 117.816 238.931 116.976C241.283 116.136 243.747 115.716 246.323 115.716C248.843 115.716 250.943 116.192 252.623 117.144C254.359 118.04 255.703 119.328 256.655 121.008C257.663 122.632 258.363 124.564 258.755 126.804C259.203 129.044 259.427 131.48 259.427 134.112V160.32ZM308.863 100.68H315.247L339.607 160.32H331.543L324.487 142.848H299.455L292.483 160.32H284.419L308.863 100.68ZM322.807 136.968L312.055 109.416L300.967 136.968H322.807ZM369.574 122.94C365.878 122.996 362.602 123.948 359.746 125.796C356.946 127.588 354.958 130.08 353.782 133.272V160.32H346.39V116.472H353.278V126.636C354.79 123.612 356.778 121.176 359.242 119.328C361.762 117.424 364.394 116.36 367.138 116.136C367.698 116.136 368.174 116.136 368.566 116.136C368.958 116.136 369.294 116.164 369.574 116.22V122.94ZM399.586 158.136C398.97 158.416 398.13 158.78 397.066 159.228C396.002 159.676 394.77 160.068 393.37 160.404C391.97 160.74 390.486 160.908 388.918 160.908C387.126 160.908 385.474 160.6 383.962 159.984C382.45 159.312 381.246 158.304 380.35 156.96C379.454 155.56 379.006 153.824 379.006 151.752V122.268H373.042V116.472H379.006V101.856H386.398V116.472H396.226V122.268H386.398V149.484C386.51 151.052 387.042 152.228 387.994 153.012C388.946 153.74 390.066 154.104 391.354 154.104C392.81 154.104 394.154 153.852 395.386 153.348C396.618 152.844 397.43 152.48 397.822 152.256L399.586 158.136ZM461.373 116.472H468.513L449.865 160.32H443.397L434.913 139.656L426.513 160.32H420.045L401.397 116.472H408.453L423.573 153.012L430.629 135.036L423.237 116.556H429.705L434.913 130.5L440.121 116.556H446.589L439.281 135.036L446.337 153.012L461.373 116.472ZM493.101 161.16C489.797 161.16 486.801 160.572 484.113 159.396C481.425 158.164 479.101 156.512 477.141 154.44C475.181 152.312 473.669 149.876 472.605 147.132C471.541 144.388 471.009 141.504 471.009 138.48C471.009 135.4 471.541 132.488 472.605 129.744C473.669 127 475.181 124.592 477.141 122.52C479.101 120.392 481.425 118.74 484.113 117.564C486.857 116.332 489.853 115.716 493.101 115.716C496.405 115.716 499.401 116.332 502.089 117.564C504.777 118.74 507.101 120.392 509.061 122.52C511.077 124.592 512.617 127 513.681 129.744C514.745 132.488 515.277 135.4 515.277 138.48C515.277 141.504 514.745 144.388 513.681 147.132C512.617 149.876 511.105 152.312 509.145 154.44C507.185 156.512 504.833 158.164 502.089 159.396C499.401 160.572 496.405 161.16 493.101 161.16ZM478.569 138.564C478.569 141.588 479.213 144.332 480.501 146.796C481.845 149.26 483.609 151.22 485.793 152.676C487.977 154.076 490.413 154.776 493.101 154.776C495.789 154.776 498.225 154.048 500.409 152.592C502.649 151.136 504.413 149.176 505.701 146.712C507.045 144.192 507.717 141.42 507.717 138.396C507.717 135.372 507.045 132.628 505.701 130.164C504.413 127.7 502.649 125.74 500.409 124.284C498.225 122.828 495.789 122.1 493.101 122.1C490.413 122.1 487.977 122.856 485.793 124.368C483.609 125.824 481.845 127.784 480.501 130.248C479.213 132.712 478.569 135.484 478.569 138.564ZM547.418 122.94C543.722 122.996 540.446 123.948 537.59 125.796C534.79 127.588 532.802 130.08 531.626 133.272V160.32H524.234V116.472H531.122V126.636C532.634 123.612 534.622 121.176 537.086 119.328C539.606 117.424 542.238 116.36 544.982 116.136C545.542 116.136 546.018 116.136 546.41 116.136C546.802 116.136 547.138 116.164 547.418 116.22V122.94ZM585.662 160.32L570.458 138.984L562.142 146.796V160.32H554.75V99.0001H562.142V139.068L584.822 116.556H592.802L575.33 134.7L593.642 160.32H585.662Z" fill="white"/>
</svg>
