<svg width="1440" height="820" viewBox="0 0 1440 820" fill="none" xmlns="http://www.w3.org/2000/svg">
<g clip-path="url(#clip0_56_62)">
<rect width="1440" height="820" fill="#020409"/>
<g clip-path="url(#clip1_56_62)">
<rect width="1440" height="820" fill="url(#paint0_linear_56_62)"/>
<g filter="url(#filter0_f_56_62)" style="mix-blend-mode:color-dodge">
<path d="M-69 497C-69 497 211.359 789.625 703.554 789.625C1195.75 789.625 1509 497 1509 497L1395.06 815H89.5831L-69 497Z" fill="#3148B9"/>
</g>
<path d="M484.806 691.22H487.326L492.024 704H489.468L488.28 700.814H483.816L482.646 704H480.09L484.806 691.22ZM487.83 699.068L486.066 693.794L484.23 699.068H487.83ZM496.486 704V691.22H498.97V704H496.486ZM504.408 700.148V697.97H509.862V700.148H504.408ZM515.28 704V691.22H520.698C521.286 691.22 521.826 691.34 522.318 691.58C522.81 691.82 523.236 692.144 523.596 692.552C523.968 692.96 524.256 693.416 524.46 693.92C524.664 694.424 524.766 694.94 524.766 695.468C524.766 696.188 524.598 696.872 524.262 697.52C523.926 698.168 523.464 698.696 522.876 699.104C522.288 699.512 521.592 699.716 520.788 699.716H517.764V704H515.28ZM517.764 697.538H520.644C520.944 697.538 521.214 697.454 521.454 697.286C521.694 697.118 521.886 696.878 522.03 696.566C522.174 696.242 522.246 695.876 522.246 695.468C522.246 695.024 522.162 694.646 521.994 694.334C521.838 694.022 521.628 693.788 521.364 693.632C521.112 693.476 520.836 693.398 520.536 693.398H517.764V697.538ZM533.483 704.18C532.715 704.18 532.025 704.054 531.413 703.802C530.801 703.538 530.279 703.178 529.847 702.722C529.427 702.266 529.103 701.744 528.875 701.156C528.647 700.568 528.533 699.95 528.533 699.302C528.533 698.642 528.647 698.018 528.875 697.43C529.103 696.842 529.427 696.32 529.847 695.864C530.279 695.408 530.801 695.054 531.413 694.802C532.025 694.538 532.715 694.406 533.483 694.406C534.251 694.406 534.935 694.538 535.535 694.802C536.147 695.054 536.669 695.408 537.101 695.864C537.533 696.32 537.857 696.842 538.073 697.43C538.301 698.018 538.415 698.642 538.415 699.302C538.415 699.95 538.301 700.568 538.073 701.156C537.857 701.744 537.533 702.266 537.101 702.722C536.681 703.178 536.165 703.538 535.553 703.802C534.941 704.054 534.251 704.18 533.483 704.18ZM531.017 699.302C531.017 699.854 531.125 700.346 531.341 700.778C531.557 701.198 531.851 701.528 532.223 701.768C532.595 702.008 533.015 702.128 533.483 702.128C533.939 702.128 534.353 702.008 534.725 701.768C535.097 701.516 535.391 701.18 535.607 700.76C535.835 700.328 535.949 699.836 535.949 699.284C535.949 698.744 535.835 698.258 535.607 697.826C535.391 697.394 535.097 697.058 534.725 696.818C534.353 696.578 533.939 696.458 533.483 696.458C533.015 696.458 532.595 696.584 532.223 696.836C531.851 697.076 531.557 697.412 531.341 697.844C531.125 698.264 531.017 698.75 531.017 699.302ZM554.487 694.568H556.773L552.831 704H550.815L549.231 699.95L547.683 704H545.649L541.725 694.568H543.993L546.801 701.696L547.899 698.618L546.261 694.586H548.259L549.231 697.466L550.221 694.586H552.219L550.581 698.618L551.697 701.696L554.487 694.568ZM565.004 704.18C564.248 704.18 563.564 704.054 562.952 703.802C562.34 703.538 561.818 703.184 561.386 702.74C560.954 702.284 560.618 701.768 560.378 701.192C560.15 700.604 560.036 699.986 560.036 699.338C560.036 698.438 560.234 697.616 560.63 696.872C561.038 696.128 561.614 695.534 562.358 695.09C563.114 694.634 564.002 694.406 565.022 694.406C566.054 694.406 566.936 694.634 567.668 695.09C568.4 695.534 568.958 696.128 569.342 696.872C569.738 697.604 569.936 698.396 569.936 699.248C569.936 699.392 569.93 699.542 569.918 699.698C569.906 699.842 569.894 699.962 569.882 700.058H562.592C562.64 700.538 562.778 700.958 563.006 701.318C563.246 701.678 563.546 701.954 563.906 702.146C564.278 702.326 564.674 702.416 565.094 702.416C565.574 702.416 566.024 702.302 566.444 702.074C566.876 701.834 567.17 701.522 567.326 701.138L569.396 701.714C569.168 702.194 568.838 702.62 568.406 702.992C567.986 703.364 567.488 703.658 566.912 703.874C566.336 704.078 565.7 704.18 565.004 704.18ZM562.538 698.528H567.47C567.422 698.048 567.284 697.634 567.056 697.286C566.84 696.926 566.552 696.65 566.192 696.458C565.832 696.254 565.43 696.152 564.986 696.152C564.554 696.152 564.158 696.254 563.798 696.458C563.45 696.65 563.162 696.926 562.934 697.286C562.718 697.634 562.586 698.048 562.538 698.528ZM580.081 696.656C579.349 696.656 578.695 696.8 578.119 697.088C577.543 697.364 577.129 697.766 576.877 698.294V704H574.465V694.568H576.679V696.584C577.015 695.936 577.441 695.426 577.957 695.054C578.473 694.682 579.019 694.478 579.595 694.442C579.727 694.442 579.829 694.442 579.901 694.442C579.973 694.442 580.033 694.448 580.081 694.46V696.656ZM588.737 704.18C587.981 704.18 587.297 704.054 586.685 703.802C586.073 703.538 585.551 703.184 585.119 702.74C584.687 702.284 584.351 701.768 584.111 701.192C583.883 700.604 583.769 699.986 583.769 699.338C583.769 698.438 583.967 697.616 584.363 696.872C584.771 696.128 585.347 695.534 586.091 695.09C586.847 694.634 587.735 694.406 588.755 694.406C589.787 694.406 590.669 694.634 591.401 695.09C592.133 695.534 592.691 696.128 593.075 696.872C593.471 697.604 593.669 698.396 593.669 699.248C593.669 699.392 593.663 699.542 593.651 699.698C593.639 699.842 593.627 699.962 593.615 700.058H586.325C586.373 700.538 586.511 700.958 586.739 701.318C586.979 701.678 587.279 701.954 587.639 702.146C588.011 702.326 588.407 702.416 588.827 702.416C589.307 702.416 589.757 702.302 590.177 702.074C590.609 701.834 590.903 701.522 591.059 701.138L593.129 701.714C592.901 702.194 592.571 702.62 592.139 702.992C591.719 703.364 591.221 703.658 590.645 703.874C590.069 704.078 589.433 704.18 588.737 704.18ZM586.271 698.528H591.203C591.155 698.048 591.017 697.634 590.789 697.286C590.573 696.926 590.285 696.65 589.925 696.458C589.565 696.254 589.163 696.152 588.719 696.152C588.287 696.152 587.891 696.254 587.531 696.458C587.183 696.65 586.895 696.926 586.667 697.286C586.451 697.634 586.319 698.048 586.271 698.528ZM597.623 699.284C597.623 698.372 597.803 697.55 598.163 696.818C598.523 696.074 599.021 695.486 599.657 695.054C600.293 694.622 601.019 694.406 601.835 694.406C602.531 694.406 603.155 694.58 603.707 694.928C604.271 695.264 604.709 695.696 605.021 696.224V690.86H607.433V701.3C607.433 701.552 607.475 701.732 607.559 701.84C607.643 701.948 607.787 702.014 607.991 702.038V704C607.571 704.084 607.229 704.126 606.965 704.126C606.533 704.126 606.173 704.018 605.885 703.802C605.609 703.586 605.453 703.304 605.417 702.956L605.381 702.362C605.033 702.95 604.559 703.4 603.959 703.712C603.371 704.024 602.753 704.18 602.105 704.18C601.457 704.18 600.857 704.054 600.305 703.802C599.765 703.55 599.291 703.202 598.883 702.758C598.487 702.314 598.175 701.798 597.947 701.21C597.731 700.61 597.623 699.968 597.623 699.284ZM605.021 700.544V698.294C604.901 697.946 604.709 697.634 604.445 697.358C604.181 697.082 603.887 696.866 603.563 696.71C603.239 696.542 602.915 696.458 602.591 696.458C602.219 696.458 601.883 696.536 601.583 696.692C601.283 696.848 601.019 697.058 600.791 697.322C600.575 697.586 600.407 697.892 600.287 698.24C600.179 698.588 600.125 698.954 600.125 699.338C600.125 699.722 600.185 700.088 600.305 700.436C600.437 700.772 600.623 701.066 600.863 701.318C601.103 701.57 601.379 701.768 601.691 701.912C602.015 702.056 602.363 702.128 602.735 702.128C602.963 702.128 603.191 702.092 603.419 702.02C603.659 701.936 603.881 701.828 604.085 701.696C604.301 701.552 604.487 701.384 604.643 701.192C604.811 700.988 604.937 700.772 605.021 700.544ZM620.478 704V691.22H622.962V701.822H629.478V704H620.478ZM638.12 704.18C637.364 704.18 636.68 704.054 636.068 703.802C635.456 703.538 634.934 703.184 634.502 702.74C634.07 702.284 633.734 701.768 633.494 701.192C633.266 700.604 633.152 699.986 633.152 699.338C633.152 698.438 633.35 697.616 633.746 696.872C634.154 696.128 634.73 695.534 635.474 695.09C636.23 694.634 637.118 694.406 638.138 694.406C639.17 694.406 640.052 694.634 640.784 695.09C641.516 695.534 642.074 696.128 642.458 696.872C642.854 697.604 643.052 698.396 643.052 699.248C643.052 699.392 643.046 699.542 643.034 699.698C643.022 699.842 643.01 699.962 642.998 700.058H635.708C635.756 700.538 635.894 700.958 636.122 701.318C636.362 701.678 636.662 701.954 637.022 702.146C637.394 702.326 637.79 702.416 638.21 702.416C638.69 702.416 639.14 702.302 639.56 702.074C639.992 701.834 640.286 701.522 640.442 701.138L642.512 701.714C642.284 702.194 641.954 702.62 641.522 702.992C641.102 703.364 640.604 703.658 640.028 703.874C639.452 704.078 638.816 704.18 638.12 704.18ZM635.654 698.528H640.586C640.538 698.048 640.4 697.634 640.172 697.286C639.956 696.926 639.668 696.65 639.308 696.458C638.948 696.254 638.546 696.152 638.102 696.152C637.67 696.152 637.274 696.254 636.914 696.458C636.566 696.65 636.278 696.926 636.05 697.286C635.834 697.634 635.702 698.048 635.654 698.528ZM646.933 701.21C646.933 700.598 647.101 700.064 647.437 699.608C647.785 699.14 648.265 698.78 648.877 698.528C649.489 698.276 650.191 698.15 650.983 698.15C651.379 698.15 651.781 698.18 652.189 698.24C652.597 698.3 652.951 698.396 653.251 698.528V698.024C653.251 697.424 653.071 696.962 652.711 696.638C652.363 696.314 651.841 696.152 651.145 696.152C650.629 696.152 650.137 696.242 649.669 696.422C649.201 696.602 648.709 696.866 648.193 697.214L647.419 695.63C648.043 695.222 648.679 694.916 649.327 694.712C649.987 694.508 650.677 694.406 651.397 694.406C652.741 694.406 653.785 694.742 654.529 695.414C655.285 696.086 655.663 697.046 655.663 698.294V701.3C655.663 701.552 655.705 701.732 655.789 701.84C655.885 701.948 656.035 702.014 656.239 702.038V704C656.023 704.036 655.825 704.066 655.645 704.09C655.477 704.114 655.333 704.126 655.213 704.126C654.733 704.126 654.367 704.018 654.115 703.802C653.875 703.586 653.725 703.322 653.665 703.01L653.611 702.524C653.203 703.052 652.693 703.46 652.081 703.748C651.469 704.036 650.845 704.18 650.209 704.18C649.585 704.18 649.021 704.054 648.517 703.802C648.025 703.538 647.635 703.184 647.347 702.74C647.071 702.284 646.933 701.774 646.933 701.21ZM652.801 701.696C652.933 701.552 653.041 701.408 653.125 701.264C653.209 701.12 653.251 700.988 653.251 700.868V699.914C652.963 699.794 652.651 699.704 652.315 699.644C651.979 699.572 651.661 699.536 651.361 699.536C650.737 699.536 650.221 699.674 649.813 699.95C649.417 700.214 649.219 700.568 649.219 701.012C649.219 701.252 649.285 701.48 649.417 701.696C649.549 701.912 649.741 702.086 649.993 702.218C650.245 702.35 650.545 702.416 650.893 702.416C651.253 702.416 651.607 702.35 651.955 702.218C652.303 702.074 652.585 701.9 652.801 701.696ZM660.401 699.284C660.401 698.372 660.581 697.55 660.941 696.818C661.301 696.074 661.799 695.486 662.435 695.054C663.071 694.622 663.797 694.406 664.613 694.406C665.309 694.406 665.933 694.58 666.485 694.928C667.049 695.264 667.487 695.696 667.799 696.224V690.86H670.211V701.3C670.211 701.552 670.253 701.732 670.337 701.84C670.421 701.948 670.565 702.014 670.769 702.038V704C670.349 704.084 670.007 704.126 669.743 704.126C669.311 704.126 668.951 704.018 668.663 703.802C668.387 703.586 668.231 703.304 668.195 702.956L668.159 702.362C667.811 702.95 667.337 703.4 666.737 703.712C666.149 704.024 665.531 704.18 664.883 704.18C664.235 704.18 663.635 704.054 663.083 703.802C662.543 703.55 662.069 703.202 661.661 702.758C661.265 702.314 660.953 701.798 660.725 701.21C660.509 700.61 660.401 699.968 660.401 699.284ZM667.799 700.544V698.294C667.679 697.946 667.487 697.634 667.223 697.358C666.959 697.082 666.665 696.866 666.341 696.71C666.017 696.542 665.693 696.458 665.369 696.458C664.997 696.458 664.661 696.536 664.361 696.692C664.061 696.848 663.797 697.058 663.569 697.322C663.353 697.586 663.185 697.892 663.065 698.24C662.957 698.588 662.903 698.954 662.903 699.338C662.903 699.722 662.963 700.088 663.083 700.436C663.215 700.772 663.401 701.066 663.641 701.318C663.881 701.57 664.157 701.768 664.469 701.912C664.793 702.056 665.141 702.128 665.513 702.128C665.741 702.128 665.969 702.092 666.197 702.02C666.437 701.936 666.659 701.828 666.863 701.696C667.079 701.552 667.265 701.384 667.421 701.192C667.589 700.988 667.715 700.772 667.799 700.544ZM693.679 704V695.612L690.403 701.858H689.017L685.741 695.612V704H683.257V691.22H685.921L689.701 698.492L693.517 691.22H696.163V704H693.679ZM700.904 701.21C700.904 700.598 701.072 700.064 701.408 699.608C701.756 699.14 702.236 698.78 702.848 698.528C703.46 698.276 704.162 698.15 704.954 698.15C705.35 698.15 705.752 698.18 706.16 698.24C706.568 698.3 706.922 698.396 707.222 698.528V698.024C707.222 697.424 707.042 696.962 706.682 696.638C706.334 696.314 705.812 696.152 705.116 696.152C704.6 696.152 704.108 696.242 703.64 696.422C703.172 696.602 702.68 696.866 702.164 697.214L701.39 695.63C702.014 695.222 702.65 694.916 703.298 694.712C703.958 694.508 704.648 694.406 705.368 694.406C706.712 694.406 707.756 694.742 708.5 695.414C709.256 696.086 709.634 697.046 709.634 698.294V701.3C709.634 701.552 709.676 701.732 709.76 701.84C709.856 701.948 710.006 702.014 710.21 702.038V704C709.994 704.036 709.796 704.066 709.616 704.09C709.448 704.114 709.304 704.126 709.184 704.126C708.704 704.126 708.338 704.018 708.086 703.802C707.846 703.586 707.696 703.322 707.636 703.01L707.582 702.524C707.174 703.052 706.664 703.46 706.052 703.748C705.44 704.036 704.816 704.18 704.18 704.18C703.556 704.18 702.992 704.054 702.488 703.802C701.996 703.538 701.606 703.184 701.318 702.74C701.042 702.284 700.904 701.774 700.904 701.21ZM706.772 701.696C706.904 701.552 707.012 701.408 707.096 701.264C707.18 701.12 707.222 700.988 707.222 700.868V699.914C706.934 699.794 706.622 699.704 706.286 699.644C705.95 699.572 705.632 699.536 705.332 699.536C704.708 699.536 704.192 699.674 703.784 699.95C703.388 700.214 703.19 700.568 703.19 701.012C703.19 701.252 703.256 701.48 703.388 701.696C703.52 701.912 703.712 702.086 703.964 702.218C704.216 702.35 704.516 702.416 704.864 702.416C705.224 702.416 705.578 702.35 705.926 702.218C706.274 702.074 706.556 701.9 706.772 701.696ZM723.714 704H721.302V698.708C721.302 697.952 721.17 697.4 720.906 697.052C720.642 696.704 720.276 696.53 719.808 696.53C719.484 696.53 719.154 696.614 718.818 696.782C718.494 696.95 718.2 697.184 717.936 697.484C717.672 697.772 717.48 698.108 717.36 698.492V704H714.948V694.568H717.126V696.314C717.366 695.906 717.672 695.564 718.044 695.288C718.416 695 718.842 694.784 719.322 694.64C719.814 694.484 720.33 694.406 720.87 694.406C721.458 694.406 721.938 694.514 722.31 694.73C722.694 694.934 722.982 695.216 723.174 695.576C723.378 695.924 723.516 696.32 723.588 696.764C723.672 697.208 723.714 697.658 723.714 698.114V704ZM728.223 701.21C728.223 700.598 728.391 700.064 728.727 699.608C729.075 699.14 729.555 698.78 730.167 698.528C730.779 698.276 731.481 698.15 732.273 698.15C732.669 698.15 733.071 698.18 733.479 698.24C733.887 698.3 734.241 698.396 734.541 698.528V698.024C734.541 697.424 734.361 696.962 734.001 696.638C733.653 696.314 733.131 696.152 732.435 696.152C731.919 696.152 731.427 696.242 730.959 696.422C730.491 696.602 729.999 696.866 729.483 697.214L728.709 695.63C729.333 695.222 729.969 694.916 730.617 694.712C731.277 694.508 731.967 694.406 732.687 694.406C734.031 694.406 735.075 694.742 735.819 695.414C736.575 696.086 736.953 697.046 736.953 698.294V701.3C736.953 701.552 736.995 701.732 737.079 701.84C737.175 701.948 737.325 702.014 737.529 702.038V704C737.313 704.036 737.115 704.066 736.935 704.09C736.767 704.114 736.623 704.126 736.503 704.126C736.023 704.126 735.657 704.018 735.405 703.802C735.165 703.586 735.015 703.322 734.955 703.01L734.901 702.524C734.493 703.052 733.983 703.46 733.371 703.748C732.759 704.036 732.135 704.18 731.499 704.18C730.875 704.18 730.311 704.054 729.807 703.802C729.315 703.538 728.925 703.184 728.637 702.74C728.361 702.284 728.223 701.774 728.223 701.21ZM734.091 701.696C734.223 701.552 734.331 701.408 734.415 701.264C734.499 701.12 734.541 700.988 734.541 700.868V699.914C734.253 699.794 733.941 699.704 733.605 699.644C733.269 699.572 732.951 699.536 732.651 699.536C732.027 699.536 731.511 699.674 731.103 699.95C730.707 700.214 730.509 700.568 730.509 701.012C730.509 701.252 730.575 701.48 730.707 701.696C730.839 701.912 731.031 702.086 731.283 702.218C731.535 702.35 731.835 702.416 732.183 702.416C732.543 702.416 732.897 702.35 733.245 702.218C733.593 702.074 733.875 701.9 734.091 701.696ZM745.957 704.054C745.333 704.054 744.757 703.934 744.229 703.694C743.713 703.442 743.263 703.094 742.879 702.65C742.507 702.206 742.219 701.696 742.015 701.12C741.811 700.544 741.709 699.932 741.709 699.284C741.709 698.6 741.817 697.964 742.033 697.376C742.249 696.788 742.549 696.272 742.933 695.828C743.329 695.372 743.791 695.024 744.319 694.784C744.859 694.532 745.453 694.406 746.101 694.406C746.833 694.406 747.475 694.574 748.027 694.91C748.579 695.234 749.035 695.672 749.395 696.224V694.568H751.501V703.55C751.501 704.486 751.273 705.284 750.817 705.944C750.373 706.616 749.755 707.126 748.963 707.474C748.171 707.834 747.271 708.014 746.263 708.014C745.243 708.014 744.379 707.84 743.671 707.492C742.963 707.156 742.357 706.676 741.853 706.052L743.167 704.774C743.527 705.218 743.977 705.566 744.517 705.818C745.069 706.07 745.651 706.196 746.263 706.196C746.779 706.196 747.247 706.1 747.667 705.908C748.099 705.728 748.441 705.44 748.693 705.044C748.957 704.66 749.089 704.162 749.089 703.55V702.362C748.777 702.902 748.333 703.322 747.757 703.622C747.193 703.91 746.593 704.054 745.957 704.054ZM746.767 702.128C747.031 702.128 747.283 702.086 747.523 702.002C747.763 701.918 747.985 701.804 748.189 701.66C748.393 701.516 748.573 701.348 748.729 701.156C748.885 700.952 749.005 700.748 749.089 700.544V698.294C748.945 697.922 748.741 697.598 748.477 697.322C748.225 697.046 747.937 696.836 747.613 696.692C747.301 696.536 746.971 696.458 746.623 696.458C746.251 696.458 745.915 696.536 745.615 696.692C745.315 696.848 745.057 697.07 744.841 697.358C744.625 697.634 744.457 697.946 744.337 698.294C744.229 698.63 744.175 698.984 744.175 699.356C744.175 699.74 744.241 700.1 744.373 700.436C744.505 700.772 744.685 701.066 744.913 701.318C745.153 701.57 745.429 701.768 745.741 701.912C746.065 702.056 746.407 702.128 746.767 702.128ZM761.109 704.18C760.353 704.18 759.669 704.054 759.057 703.802C758.445 703.538 757.923 703.184 757.491 702.74C757.059 702.284 756.723 701.768 756.483 701.192C756.255 700.604 756.141 699.986 756.141 699.338C756.141 698.438 756.339 697.616 756.735 696.872C757.143 696.128 757.719 695.534 758.463 695.09C759.219 694.634 760.107 694.406 761.127 694.406C762.159 694.406 763.041 694.634 763.773 695.09C764.505 695.534 765.063 696.128 765.447 696.872C765.843 697.604 766.041 698.396 766.041 699.248C766.041 699.392 766.035 699.542 766.023 699.698C766.011 699.842 765.999 699.962 765.987 700.058H758.697C758.745 700.538 758.883 700.958 759.111 701.318C759.351 701.678 759.651 701.954 760.011 702.146C760.383 702.326 760.779 702.416 761.199 702.416C761.679 702.416 762.129 702.302 762.549 702.074C762.981 701.834 763.275 701.522 763.431 701.138L765.501 701.714C765.273 702.194 764.943 702.62 764.511 702.992C764.091 703.364 763.593 703.658 763.017 703.874C762.441 704.078 761.805 704.18 761.109 704.18ZM758.643 698.528H763.575C763.527 698.048 763.389 697.634 763.161 697.286C762.945 696.926 762.657 696.65 762.297 696.458C761.937 696.254 761.535 696.152 761.091 696.152C760.659 696.152 760.263 696.254 759.903 696.458C759.555 696.65 759.267 696.926 759.039 697.286C758.823 697.634 758.691 698.048 758.643 698.528ZM785.222 704H782.81V698.708C782.81 697.964 782.678 697.418 782.414 697.07C782.162 696.71 781.808 696.53 781.352 696.53C780.884 696.53 780.434 696.716 780.002 697.088C779.582 697.448 779.282 697.922 779.102 698.51V704H776.69V698.708C776.69 697.952 776.558 697.4 776.294 697.052C776.042 696.704 775.688 696.53 775.232 696.53C774.764 696.53 774.314 696.71 773.882 697.07C773.462 697.43 773.162 697.904 772.982 698.492V704H770.57V694.568H772.748V696.314C773.108 695.702 773.588 695.234 774.188 694.91C774.788 694.574 775.478 694.406 776.258 694.406C777.038 694.406 777.644 694.598 778.076 694.982C778.52 695.366 778.802 695.84 778.922 696.404C779.306 695.756 779.792 695.264 780.38 694.928C780.98 694.58 781.652 694.406 782.396 694.406C782.984 694.406 783.458 694.514 783.818 694.73C784.19 694.934 784.478 695.216 784.682 695.576C784.886 695.924 785.024 696.32 785.096 696.764C785.18 697.208 785.222 697.658 785.222 698.114V704ZM794.756 704.18C794 704.18 793.316 704.054 792.704 703.802C792.092 703.538 791.57 703.184 791.138 702.74C790.706 702.284 790.37 701.768 790.13 701.192C789.902 700.604 789.788 699.986 789.788 699.338C789.788 698.438 789.986 697.616 790.382 696.872C790.79 696.128 791.366 695.534 792.11 695.09C792.866 694.634 793.754 694.406 794.774 694.406C795.806 694.406 796.688 694.634 797.42 695.09C798.152 695.534 798.71 696.128 799.094 696.872C799.49 697.604 799.688 698.396 799.688 699.248C799.688 699.392 799.682 699.542 799.67 699.698C799.658 699.842 799.646 699.962 799.634 700.058H792.344C792.392 700.538 792.53 700.958 792.758 701.318C792.998 701.678 793.298 701.954 793.658 702.146C794.03 702.326 794.426 702.416 794.846 702.416C795.326 702.416 795.776 702.302 796.196 702.074C796.628 701.834 796.922 701.522 797.078 701.138L799.148 701.714C798.92 702.194 798.59 702.62 798.158 702.992C797.738 703.364 797.24 703.658 796.664 703.874C796.088 704.078 795.452 704.18 794.756 704.18ZM792.29 698.528H797.222C797.174 698.048 797.036 697.634 796.808 697.286C796.592 696.926 796.304 696.65 795.944 696.458C795.584 696.254 795.182 696.152 794.738 696.152C794.306 696.152 793.91 696.254 793.55 696.458C793.202 696.65 792.914 696.926 792.686 697.286C792.47 697.634 792.338 698.048 792.29 698.528ZM812.984 704H810.572V698.708C810.572 697.952 810.44 697.4 810.176 697.052C809.912 696.704 809.546 696.53 809.078 696.53C808.754 696.53 808.424 696.614 808.088 696.782C807.764 696.95 807.47 697.184 807.206 697.484C806.942 697.772 806.75 698.108 806.63 698.492V704H804.218V694.568H806.396V696.314C806.636 695.906 806.942 695.564 807.314 695.288C807.686 695 808.112 694.784 808.592 694.64C809.084 694.484 809.6 694.406 810.14 694.406C810.728 694.406 811.208 694.514 811.58 694.73C811.964 694.934 812.252 695.216 812.444 695.576C812.648 695.924 812.786 696.32 812.858 696.764C812.942 697.208 812.984 697.658 812.984 698.114V704ZM823.74 703.514C823.536 703.598 823.29 703.694 823.002 703.802C822.714 703.91 822.402 703.994 822.066 704.054C821.742 704.126 821.412 704.162 821.076 704.162C820.632 704.162 820.224 704.084 819.852 703.928C819.48 703.772 819.18 703.526 818.952 703.19C818.736 702.842 818.628 702.392 818.628 701.84V696.422H817.386V694.568H818.628V691.508H821.04V694.568H823.02V696.422H821.04V701.03C821.052 701.354 821.142 701.588 821.31 701.732C821.478 701.876 821.688 701.948 821.94 701.948C822.192 701.948 822.438 701.906 822.678 701.822C822.918 701.738 823.11 701.666 823.254 701.606L823.74 703.514ZM843.991 704L837.979 697.628C837.475 697.088 837.067 696.626 836.755 696.242C836.455 695.846 836.239 695.486 836.107 695.162C835.975 694.838 835.909 694.49 835.909 694.118C835.909 693.506 836.059 692.972 836.359 692.516C836.671 692.048 837.091 691.688 837.619 691.436C838.159 691.184 838.759 691.058 839.419 691.058C840.019 691.058 840.571 691.166 841.075 691.382C841.591 691.586 842.011 691.898 842.335 692.318C842.659 692.738 842.821 693.26 842.821 693.884C842.821 694.448 842.677 694.958 842.389 695.414C842.113 695.87 841.741 696.29 841.273 696.674C840.805 697.058 840.277 697.43 839.689 697.79C839.257 698.066 838.861 698.336 838.501 698.6C838.153 698.864 837.877 699.146 837.673 699.446C837.481 699.734 837.385 700.052 837.385 700.4C837.385 700.736 837.481 701.048 837.673 701.336C837.865 701.624 838.129 701.858 838.465 702.038C838.813 702.206 839.197 702.29 839.617 702.29C840.133 702.29 840.631 702.164 841.111 701.912C841.603 701.66 842.041 701.306 842.425 700.85C842.809 700.382 843.109 699.824 843.325 699.176C843.553 698.528 843.667 697.802 843.667 696.998H845.629C845.629 698.138 845.455 699.152 845.107 700.04C844.759 700.916 844.291 701.666 843.703 702.29C843.115 702.902 842.449 703.37 841.705 703.694C840.961 704.018 840.187 704.18 839.383 704.18C838.507 704.18 837.745 704.006 837.097 703.658C836.449 703.298 835.945 702.83 835.585 702.254C835.237 701.678 835.063 701.054 835.063 700.382C835.063 699.71 835.219 699.122 835.531 698.618C835.843 698.114 836.239 697.67 836.719 697.286C837.199 696.89 837.679 696.542 838.159 696.242C838.687 695.906 839.131 695.624 839.491 695.396C839.851 695.156 840.127 694.922 840.319 694.694C840.511 694.454 840.607 694.196 840.607 693.92C840.607 693.596 840.493 693.338 840.265 693.146C840.049 692.942 839.767 692.84 839.419 692.84C839.155 692.84 838.921 692.894 838.717 693.002C838.525 693.11 838.375 693.254 838.267 693.434C838.159 693.614 838.105 693.818 838.105 694.046C838.105 694.214 838.153 694.382 838.249 694.55C838.357 694.718 838.537 694.94 838.789 695.216C839.053 695.48 839.413 695.858 839.869 696.35L847.159 704H843.991ZM861.845 691.22H864.365L869.063 704H866.507L865.319 700.814H860.855L859.685 704H857.129L861.845 691.22ZM864.869 699.068L863.105 693.794L861.269 699.068H864.869ZM882.057 704H879.645V698.708C879.645 697.952 879.513 697.4 879.249 697.052C878.985 696.704 878.619 696.53 878.151 696.53C877.827 696.53 877.497 696.614 877.161 696.782C876.837 696.95 876.543 697.184 876.279 697.484C876.015 697.772 875.823 698.108 875.703 698.492V704H873.291V694.568H875.469V696.314C875.709 695.906 876.015 695.564 876.387 695.288C876.759 695 877.185 694.784 877.665 694.64C878.157 694.484 878.673 694.406 879.213 694.406C879.801 694.406 880.281 694.514 880.653 694.73C881.037 694.934 881.325 695.216 881.517 695.576C881.721 695.924 881.859 696.32 881.931 696.764C882.015 697.208 882.057 697.658 882.057 698.114V704ZM886.566 701.21C886.566 700.598 886.734 700.064 887.07 699.608C887.418 699.14 887.898 698.78 888.51 698.528C889.122 698.276 889.824 698.15 890.616 698.15C891.012 698.15 891.414 698.18 891.822 698.24C892.23 698.3 892.584 698.396 892.884 698.528V698.024C892.884 697.424 892.704 696.962 892.344 696.638C891.996 696.314 891.474 696.152 890.778 696.152C890.262 696.152 889.77 696.242 889.302 696.422C888.834 696.602 888.342 696.866 887.826 697.214L887.052 695.63C887.676 695.222 888.312 694.916 888.96 694.712C889.62 694.508 890.31 694.406 891.03 694.406C892.374 694.406 893.418 694.742 894.162 695.414C894.918 696.086 895.296 697.046 895.296 698.294V701.3C895.296 701.552 895.338 701.732 895.422 701.84C895.518 701.948 895.668 702.014 895.872 702.038V704C895.656 704.036 895.458 704.066 895.278 704.09C895.11 704.114 894.966 704.126 894.846 704.126C894.366 704.126 894 704.018 893.748 703.802C893.508 703.586 893.358 703.322 893.298 703.01L893.244 702.524C892.836 703.052 892.326 703.46 891.714 703.748C891.102 704.036 890.478 704.18 889.842 704.18C889.218 704.18 888.654 704.054 888.15 703.802C887.658 703.538 887.268 703.184 886.98 702.74C886.704 702.284 886.566 701.774 886.566 701.21ZM892.434 701.696C892.566 701.552 892.674 701.408 892.758 701.264C892.842 701.12 892.884 700.988 892.884 700.868V699.914C892.596 699.794 892.284 699.704 891.948 699.644C891.612 699.572 891.294 699.536 890.994 699.536C890.37 699.536 889.854 699.674 889.446 699.95C889.05 700.214 888.852 700.568 888.852 701.012C888.852 701.252 888.918 701.48 889.05 701.696C889.182 701.912 889.374 702.086 889.626 702.218C889.878 702.35 890.178 702.416 890.526 702.416C890.886 702.416 891.24 702.35 891.588 702.218C891.936 702.074 892.218 701.9 892.434 701.696ZM900.592 690.86H903.004V700.976C903.004 701.408 903.076 701.702 903.22 701.858C903.364 702.002 903.562 702.074 903.814 702.074C904.006 702.074 904.204 702.05 904.408 702.002C904.612 701.954 904.792 701.894 904.948 701.822L905.272 703.658C904.948 703.814 904.57 703.934 904.138 704.018C903.706 704.102 903.316 704.144 902.968 704.144C902.212 704.144 901.624 703.946 901.204 703.55C900.796 703.142 900.592 702.566 900.592 701.822V690.86ZM909.124 705.836C909.34 705.884 909.538 705.926 909.718 705.962C909.91 705.998 910.072 706.016 910.204 706.016C910.432 706.016 910.618 705.956 910.762 705.836C910.918 705.728 911.068 705.524 911.212 705.224C911.356 704.936 911.506 704.528 911.662 704L907.936 694.568H910.438L912.976 701.534L915.208 694.568H917.512L913.552 705.872C913.408 706.292 913.186 706.67 912.886 707.006C912.598 707.354 912.232 707.624 911.788 707.816C911.356 708.02 910.87 708.122 910.33 708.122C910.138 708.122 909.946 708.104 909.754 708.068C909.562 708.044 909.352 707.996 909.124 707.924V705.836ZM927.534 703.514C927.33 703.598 927.084 703.694 926.796 703.802C926.508 703.91 926.196 703.994 925.86 704.054C925.536 704.126 925.206 704.162 924.87 704.162C924.426 704.162 924.018 704.084 923.646 703.928C923.274 703.772 922.974 703.526 922.746 703.19C922.53 702.842 922.422 702.392 922.422 701.84V696.422H921.18V694.568H922.422V691.508H924.834V694.568H926.814V696.422H924.834V701.03C924.846 701.354 924.936 701.588 925.104 701.732C925.272 701.876 925.482 701.948 925.734 701.948C925.986 701.948 926.232 701.906 926.472 701.822C926.712 701.738 926.904 701.666 927.048 701.606L927.534 703.514ZM931.85 704V694.568H934.262V704H931.85ZM931.85 693.254V690.86H934.262V693.254H931.85ZM943.89 704.18C943.122 704.18 942.432 704.054 941.82 703.802C941.208 703.538 940.686 703.178 940.254 702.722C939.822 702.254 939.486 701.726 939.246 701.138C939.018 700.55 938.904 699.932 938.904 699.284C938.904 698.396 939.102 697.586 939.498 696.854C939.906 696.11 940.482 695.516 941.226 695.072C941.97 694.628 942.852 694.406 943.872 694.406C944.892 694.406 945.768 694.628 946.5 695.072C947.232 695.516 947.778 696.098 948.138 696.818L945.78 697.538C945.576 697.19 945.306 696.926 944.97 696.746C944.634 696.554 944.262 696.458 943.854 696.458C943.398 696.458 942.978 696.578 942.594 696.818C942.222 697.046 941.928 697.376 941.712 697.808C941.496 698.228 941.388 698.72 941.388 699.284C941.388 699.836 941.496 700.328 941.712 700.76C941.94 701.18 942.24 701.516 942.612 701.768C942.984 702.008 943.398 702.128 943.854 702.128C944.142 702.128 944.412 702.08 944.664 701.984C944.928 701.888 945.162 701.756 945.366 701.588C945.57 701.42 945.72 701.228 945.816 701.012L948.174 701.732C947.958 702.2 947.64 702.62 947.22 702.992C946.812 703.364 946.326 703.658 945.762 703.874C945.21 704.078 944.586 704.18 943.89 704.18ZM956.192 704.18C955.388 704.18 954.62 704.048 953.888 703.784C953.156 703.52 952.526 703.13 951.998 702.614L952.862 701.048C953.426 701.504 953.978 701.84 954.518 702.056C955.07 702.272 955.598 702.38 956.102 702.38C956.57 702.38 956.942 702.296 957.218 702.128C957.506 701.96 957.65 701.708 957.65 701.372C957.65 701.144 957.572 700.97 957.416 700.85C957.26 700.718 957.032 700.604 956.732 700.508C956.444 700.412 956.09 700.304 955.67 700.184C954.974 699.956 954.392 699.734 953.924 699.518C953.456 699.302 953.102 699.032 952.862 698.708C952.634 698.372 952.52 697.946 952.52 697.43C952.52 696.806 952.676 696.272 952.988 695.828C953.312 695.372 953.756 695.018 954.32 694.766C954.896 694.514 955.568 694.388 956.336 694.388C957.008 694.388 957.644 694.496 958.244 694.712C958.844 694.916 959.39 695.252 959.882 695.72L958.91 697.25C958.43 696.878 957.974 696.608 957.542 696.44C957.11 696.26 956.672 696.17 956.228 696.17C955.976 696.17 955.736 696.2 955.508 696.26C955.292 696.32 955.112 696.422 954.968 696.566C954.836 696.698 954.77 696.89 954.77 697.142C954.77 697.37 954.83 697.55 954.95 697.682C955.082 697.802 955.274 697.91 955.526 698.006C955.79 698.102 956.108 698.21 956.48 698.33C957.236 698.546 957.872 698.768 958.388 698.996C958.916 699.224 959.312 699.506 959.576 699.842C959.84 700.166 959.972 700.616 959.972 701.192C959.972 702.128 959.63 702.86 958.946 703.388C958.262 703.916 957.344 704.18 956.192 704.18Z" fill="#A3B5F2"/>
<path d="M618.576 783.077C617.997 783.077 617.458 782.978 616.959 782.78C616.468 782.582 616.039 782.303 615.672 781.944C615.305 781.585 615.019 781.163 614.814 780.679C614.616 780.195 614.517 779.667 614.517 779.095C614.517 778.53 614.616 778.006 614.814 777.522C615.019 777.038 615.305 776.62 615.672 776.268C616.039 775.909 616.468 775.63 616.959 775.432C617.458 775.234 617.997 775.135 618.576 775.135C619.163 775.135 619.705 775.234 620.204 775.432C620.703 775.63 621.135 775.909 621.502 776.268C621.876 776.62 622.166 777.038 622.371 777.522C622.576 778.006 622.679 778.53 622.679 779.095C622.679 779.667 622.576 780.195 622.371 780.679C622.166 781.163 621.876 781.585 621.502 781.944C621.135 782.303 620.703 782.582 620.204 782.78C619.705 782.978 619.163 783.077 618.576 783.077ZM618.576 782.593C619.082 782.593 619.551 782.509 619.984 782.34C620.417 782.171 620.794 781.933 621.117 781.625C621.447 781.317 621.704 780.95 621.887 780.525C622.07 780.1 622.162 779.63 622.162 779.117C622.162 778.618 622.07 778.156 621.887 777.731C621.711 777.306 621.462 776.935 621.139 776.62C620.816 776.305 620.435 776.059 619.995 775.883C619.562 775.707 619.089 775.619 618.576 775.619C618.07 775.619 617.601 775.707 617.168 775.883C616.735 776.059 616.358 776.305 616.035 776.62C615.72 776.935 615.47 777.306 615.287 777.731C615.111 778.149 615.023 778.607 615.023 779.106C615.023 779.597 615.111 780.056 615.287 780.481C615.463 780.899 615.712 781.269 616.035 781.592C616.358 781.907 616.735 782.153 617.168 782.329C617.601 782.505 618.07 782.593 618.576 782.593ZM618.664 781.669C618.305 781.669 617.967 781.607 617.652 781.482C617.337 781.357 617.058 781.181 616.816 780.954C616.574 780.727 616.383 780.455 616.244 780.14C616.105 779.825 616.035 779.476 616.035 779.095C616.035 778.78 616.086 778.468 616.189 778.16C616.299 777.852 616.46 777.573 616.673 777.324C616.886 777.075 617.153 776.877 617.476 776.73C617.799 776.583 618.176 776.51 618.609 776.51C619.122 776.51 619.573 776.62 619.962 776.84C620.358 777.06 620.644 777.375 620.82 777.786L619.885 778.083C619.797 777.885 619.676 777.735 619.522 777.632C619.375 777.522 619.221 777.449 619.06 777.412C618.899 777.368 618.748 777.346 618.609 777.346C618.345 777.346 618.114 777.397 617.916 777.5C617.718 777.595 617.553 777.727 617.421 777.896C617.289 778.065 617.19 778.252 617.124 778.457C617.058 778.662 617.025 778.875 617.025 779.095C617.025 779.374 617.073 779.623 617.168 779.843C617.263 780.056 617.388 780.235 617.542 780.382C617.703 780.529 617.879 780.642 618.07 780.723C618.261 780.796 618.448 780.833 618.631 780.833C618.8 780.833 618.968 780.804 619.137 780.745C619.313 780.679 619.474 780.591 619.621 780.481C619.768 780.364 619.878 780.224 619.951 780.063L620.886 780.349C620.805 780.547 620.662 780.749 620.457 780.954C620.259 781.152 620.006 781.321 619.698 781.46C619.397 781.599 619.053 781.669 618.664 781.669ZM626.451 783C626.451 782.707 626.473 782.432 626.517 782.175C626.568 781.918 626.656 781.673 626.781 781.438C626.913 781.203 627.096 780.98 627.331 780.767C627.565 780.547 627.87 780.334 628.244 780.129C628.464 780.004 628.684 779.887 628.904 779.777C629.131 779.667 629.34 779.55 629.531 779.425C629.729 779.3 629.886 779.165 630.004 779.018C630.121 778.864 630.18 778.688 630.18 778.49C630.18 778.321 630.128 778.16 630.026 778.006C629.93 777.845 629.784 777.716 629.586 777.621C629.395 777.518 629.157 777.467 628.871 777.467C628.651 777.467 628.449 777.496 628.266 777.555C628.09 777.614 627.928 777.691 627.782 777.786C627.642 777.874 627.518 777.969 627.408 778.072C627.305 778.167 627.217 778.255 627.144 778.336L626.539 777.654C626.597 777.588 626.696 777.5 626.836 777.39C626.975 777.273 627.151 777.155 627.364 777.038C627.576 776.921 627.822 776.822 628.101 776.741C628.387 776.653 628.698 776.609 629.036 776.609C629.49 776.609 629.879 776.69 630.202 776.851C630.532 777.005 630.785 777.218 630.961 777.489C631.137 777.753 631.225 778.05 631.225 778.38C631.225 778.666 631.162 778.915 631.038 779.128C630.92 779.341 630.766 779.528 630.576 779.689C630.392 779.85 630.198 779.99 629.993 780.107C629.795 780.217 629.615 780.312 629.454 780.393C629.124 780.554 628.841 780.701 628.607 780.833C628.372 780.965 628.178 781.097 628.024 781.229C627.877 781.354 627.756 781.486 627.661 781.625C627.573 781.764 627.507 781.929 627.463 782.12H631.346V783H626.451ZM638.024 779.777C638.024 780.422 637.903 780.998 637.661 781.504C637.419 782.003 637.089 782.395 636.671 782.681C636.253 782.967 635.777 783.11 635.241 783.11C634.706 783.11 634.229 782.967 633.811 782.681C633.393 782.395 633.063 782.003 632.821 781.504C632.579 780.998 632.458 780.422 632.458 779.777C632.458 779.132 632.579 778.56 632.821 778.061C633.063 777.555 633.393 777.159 633.811 776.873C634.229 776.58 634.706 776.433 635.241 776.433C635.777 776.433 636.253 776.58 636.671 776.873C637.089 777.159 637.419 777.555 637.661 778.061C637.903 778.56 638.024 779.132 638.024 779.777ZM637.045 779.777C637.045 779.293 636.968 778.868 636.814 778.501C636.66 778.134 636.448 777.848 636.176 777.643C635.905 777.438 635.593 777.335 635.241 777.335C634.882 777.335 634.567 777.438 634.295 777.643C634.024 777.848 633.811 778.134 633.657 778.501C633.503 778.868 633.426 779.293 633.426 779.777C633.426 780.261 633.503 780.686 633.657 781.053C633.811 781.412 634.024 781.695 634.295 781.9C634.567 782.105 634.882 782.208 635.241 782.208C635.593 782.208 635.905 782.105 636.176 781.9C636.448 781.695 636.66 781.412 636.814 781.053C636.968 780.686 637.045 780.261 637.045 779.777ZM639.094 783C639.094 782.707 639.116 782.432 639.16 782.175C639.211 781.918 639.299 781.673 639.424 781.438C639.556 781.203 639.739 780.98 639.974 780.767C640.209 780.547 640.513 780.334 640.887 780.129C641.107 780.004 641.327 779.887 641.547 779.777C641.774 779.667 641.983 779.55 642.174 779.425C642.372 779.3 642.53 779.165 642.647 779.018C642.764 778.864 642.823 778.688 642.823 778.49C642.823 778.321 642.772 778.16 642.669 778.006C642.574 777.845 642.427 777.716 642.229 777.621C642.038 777.518 641.8 777.467 641.514 777.467C641.294 777.467 641.092 777.496 640.909 777.555C640.733 777.614 640.572 777.691 640.425 777.786C640.286 777.874 640.161 777.969 640.051 778.072C639.948 778.167 639.86 778.255 639.787 778.336L639.182 777.654C639.241 777.588 639.34 777.5 639.479 777.39C639.618 777.273 639.794 777.155 640.007 777.038C640.22 776.921 640.465 776.822 640.744 776.741C641.03 776.653 641.342 776.609 641.679 776.609C642.134 776.609 642.522 776.69 642.845 776.851C643.175 777.005 643.428 777.218 643.604 777.489C643.78 777.753 643.868 778.05 643.868 778.38C643.868 778.666 643.806 778.915 643.681 779.128C643.564 779.341 643.41 779.528 643.219 779.689C643.036 779.85 642.841 779.99 642.636 780.107C642.438 780.217 642.258 780.312 642.097 780.393C641.767 780.554 641.485 780.701 641.25 780.833C641.015 780.965 640.821 781.097 640.667 781.229C640.52 781.354 640.399 781.486 640.304 781.625C640.216 781.764 640.15 781.929 640.106 782.12H643.989V783H639.094ZM650.69 780.415C650.69 780.914 650.565 781.368 650.316 781.779C650.074 782.182 649.74 782.505 649.315 782.747C648.897 782.989 648.424 783.11 647.896 783.11C647.338 783.11 646.847 782.978 646.422 782.714C645.996 782.443 645.663 782.054 645.421 781.548C645.186 781.042 645.069 780.441 645.069 779.744C645.069 778.717 645.19 777.863 645.432 777.181C645.674 776.499 646.015 775.989 646.455 775.652C646.895 775.307 647.408 775.135 647.995 775.135C648.501 775.135 648.959 775.26 649.37 775.509C649.788 775.751 650.114 776.088 650.349 776.521L649.755 777.104C649.593 776.759 649.355 776.488 649.04 776.29C648.724 776.085 648.372 775.982 647.984 775.982C647.588 775.982 647.239 776.103 646.939 776.345C646.638 776.587 646.403 776.935 646.235 777.39C646.073 777.845 645.989 778.395 645.982 779.04C646.092 778.783 646.246 778.563 646.444 778.38C646.642 778.189 646.873 778.043 647.137 777.94C647.408 777.837 647.694 777.786 647.995 777.786C648.501 777.786 648.955 777.903 649.359 778.138C649.769 778.373 650.092 778.688 650.327 779.084C650.569 779.48 650.69 779.924 650.69 780.415ZM647.907 782.274C648.244 782.274 648.552 782.19 648.831 782.021C649.117 781.852 649.344 781.629 649.513 781.35C649.681 781.064 649.766 780.752 649.766 780.415C649.766 780.078 649.681 779.77 649.513 779.491C649.344 779.212 649.117 778.989 648.831 778.82C648.552 778.651 648.244 778.567 647.907 778.567C647.569 778.567 647.258 778.651 646.972 778.82C646.693 778.989 646.469 779.212 646.301 779.491C646.132 779.77 646.048 780.078 646.048 780.415C646.048 780.752 646.132 781.064 646.301 781.35C646.469 781.629 646.693 781.852 646.972 782.021C647.258 782.19 647.569 782.274 647.907 782.274ZM660.891 780.987C660.891 781.39 660.788 781.742 660.583 782.043C660.378 782.344 660.099 782.578 659.747 782.747C659.402 782.916 659.021 783 658.603 783H654.896V775.19H658.779C659.146 775.19 659.461 775.289 659.725 775.487C659.996 775.678 660.202 775.927 660.341 776.235C660.488 776.536 660.561 776.851 660.561 777.181C660.561 777.562 660.462 777.922 660.264 778.259C660.073 778.589 659.798 778.835 659.439 778.996C659.886 779.128 660.238 779.374 660.495 779.733C660.759 780.085 660.891 780.503 660.891 780.987ZM659.89 780.811C659.89 780.569 659.835 780.345 659.725 780.14C659.622 779.935 659.479 779.77 659.296 779.645C659.12 779.52 658.915 779.458 658.68 779.458H655.886V782.142H658.603C658.845 782.142 659.061 782.08 659.252 781.955C659.45 781.83 659.604 781.669 659.714 781.471C659.831 781.266 659.89 781.046 659.89 780.811ZM655.886 776.048V778.655H658.372C658.607 778.655 658.812 778.596 658.988 778.479C659.171 778.362 659.314 778.204 659.417 778.006C659.527 777.808 659.582 777.592 659.582 777.357C659.582 777.108 659.531 776.888 659.428 776.697C659.333 776.499 659.197 776.341 659.021 776.224C658.852 776.107 658.658 776.048 658.438 776.048H655.886ZM662.276 783V775.19H663.266V782.12H667.622V783H662.276ZM671.643 783.055C671.02 783.055 670.496 782.949 670.07 782.736C669.645 782.516 669.304 782.223 669.047 781.856C668.791 781.482 668.604 781.06 668.486 780.591C668.369 780.122 668.31 779.638 668.31 779.139V775.19H669.3V779.139C669.3 779.52 669.337 779.894 669.41 780.261C669.491 780.62 669.619 780.943 669.795 781.229C669.971 781.515 670.21 781.742 670.51 781.911C670.811 782.08 671.185 782.164 671.632 782.164C672.087 782.164 672.465 782.08 672.765 781.911C673.066 781.735 673.304 781.504 673.48 781.218C673.656 780.925 673.781 780.598 673.854 780.239C673.935 779.88 673.975 779.513 673.975 779.139V775.19H674.965V779.139C674.965 779.667 674.903 780.169 674.778 780.646C674.661 781.115 674.47 781.53 674.206 781.889C673.942 782.248 673.598 782.534 673.172 782.747C672.754 782.952 672.245 783.055 671.643 783.055ZM682.026 782.12V783H676.724V775.19H681.927V776.07H677.714V778.6H681.377V779.425H677.714V782.12H682.026ZM687.971 776.829C687.883 776.726 687.766 776.627 687.619 776.532C687.473 776.437 687.308 776.352 687.124 776.279C686.941 776.198 686.739 776.136 686.519 776.092C686.307 776.041 686.083 776.015 685.848 776.015C685.247 776.015 684.803 776.129 684.517 776.356C684.231 776.583 684.088 776.895 684.088 777.291C684.088 777.57 684.162 777.79 684.308 777.951C684.455 778.112 684.679 778.244 684.979 778.347C685.287 778.45 685.676 778.556 686.145 778.666C686.688 778.783 687.157 778.926 687.553 779.095C687.949 779.264 688.254 779.491 688.466 779.777C688.679 780.056 688.785 780.43 688.785 780.899C688.785 781.273 688.712 781.599 688.565 781.878C688.426 782.149 688.228 782.377 687.971 782.56C687.715 782.736 687.414 782.868 687.069 782.956C686.725 783.037 686.351 783.077 685.947 783.077C685.551 783.077 685.163 783.037 684.781 782.956C684.407 782.868 684.052 782.743 683.714 782.582C683.377 782.421 683.062 782.219 682.768 781.977L683.241 781.141C683.359 781.266 683.509 781.39 683.692 781.515C683.883 781.632 684.096 781.742 684.33 781.845C684.572 781.948 684.833 782.032 685.111 782.098C685.39 782.157 685.676 782.186 685.969 782.186C686.527 782.186 686.959 782.087 687.267 781.889C687.575 781.684 687.729 781.387 687.729 780.998C687.729 780.705 687.641 780.47 687.465 780.294C687.297 780.118 687.044 779.971 686.706 779.854C686.369 779.737 685.958 779.619 685.474 779.502C684.946 779.37 684.503 779.227 684.143 779.073C683.784 778.912 683.513 778.703 683.329 778.446C683.153 778.189 683.065 777.856 683.065 777.445C683.065 776.946 683.186 776.525 683.428 776.18C683.67 775.835 684.004 775.575 684.429 775.399C684.855 775.223 685.335 775.135 685.87 775.135C686.222 775.135 686.549 775.172 686.849 775.245C687.157 775.318 687.443 775.421 687.707 775.553C687.971 775.685 688.213 775.843 688.433 776.026L687.971 776.829ZM695.719 776.07H693.024V783H692.034V776.07H689.339V775.19H695.719V776.07ZM698.479 775.19H699.315L702.505 783H701.449L700.525 780.712H697.247L696.334 783H695.278L698.479 775.19ZM700.305 779.942L698.897 776.334L697.445 779.942H700.305ZM703.547 783V775.19H706.891C707.236 775.19 707.551 775.263 707.837 775.41C708.123 775.549 708.373 775.74 708.585 775.982C708.798 776.217 708.963 776.484 709.08 776.785C709.198 777.078 709.256 777.379 709.256 777.687C709.256 778.046 709.187 778.387 709.047 778.71C708.915 779.033 708.725 779.308 708.475 779.535C708.233 779.762 707.947 779.92 707.617 780.008L709.509 783H708.387L706.605 780.195H704.537V783H703.547ZM704.537 779.315H706.902C707.174 779.315 707.408 779.242 707.606 779.095C707.812 778.941 707.969 778.739 708.079 778.49C708.197 778.241 708.255 777.973 708.255 777.687C708.255 777.394 708.189 777.126 708.057 776.884C707.925 776.635 707.753 776.437 707.54 776.29C707.328 776.143 707.093 776.07 706.836 776.07H704.537V779.315ZM713.153 775.19H713.989L717.179 783H716.123L715.199 780.712H711.921L711.008 783H709.952L713.153 775.19ZM714.979 779.942L713.571 776.334L712.119 779.942H714.979ZM718.221 783V775.19H719.211V783H718.221ZM720.848 783V781.768H721.662V783H720.848ZM728.117 775.19H728.953L732.143 783H731.087L730.163 780.712H726.885L725.972 783H724.916L728.117 775.19ZM729.943 779.942L728.535 776.334L727.083 779.942H729.943ZM733.053 774.97H734.021V781.515C734.021 781.83 734.065 782.025 734.153 782.098C734.241 782.171 734.347 782.208 734.472 782.208C734.626 782.208 734.773 782.193 734.912 782.164C735.051 782.127 735.169 782.091 735.264 782.054L735.418 782.846C735.257 782.912 735.066 782.967 734.846 783.011C734.626 783.055 734.432 783.077 734.263 783.077C733.889 783.077 733.592 782.971 733.372 782.758C733.159 782.545 733.053 782.248 733.053 781.867V774.97ZM736.2 774.97H737.168V781.515C737.168 781.83 737.212 782.025 737.3 782.098C737.388 782.171 737.495 782.208 737.619 782.208C737.773 782.208 737.92 782.193 738.059 782.164C738.199 782.127 738.316 782.091 738.411 782.054L738.565 782.846C738.404 782.912 738.213 782.967 737.993 783.011C737.773 783.055 737.579 783.077 737.41 783.077C737.036 783.077 736.739 782.971 736.519 782.758C736.307 782.545 736.2 782.248 736.2 781.867V774.97ZM741.929 783V775.19H745.273C745.618 775.19 745.933 775.263 746.219 775.41C746.505 775.549 746.754 775.74 746.967 775.982C747.18 776.217 747.345 776.484 747.462 776.785C747.579 777.078 747.638 777.379 747.638 777.687C747.638 778.046 747.568 778.387 747.429 778.71C747.297 779.033 747.106 779.308 746.857 779.535C746.615 779.762 746.329 779.92 745.999 780.008L747.891 783H746.769L744.987 780.195H742.919V783H741.929ZM742.919 779.315H745.284C745.555 779.315 745.79 779.242 745.988 779.095C746.193 778.941 746.351 778.739 746.461 778.49C746.578 778.241 746.637 777.973 746.637 777.687C746.637 777.394 746.571 777.126 746.439 776.884C746.307 776.635 746.135 776.437 745.922 776.29C745.709 776.143 745.475 776.07 745.218 776.07H742.919V779.315ZM748.951 783V777.258H749.919V783H748.951ZM748.951 776.18V774.97H749.919V776.18H748.951ZM753.774 783.066C753.385 783.066 753.026 782.989 752.696 782.835C752.373 782.674 752.095 782.457 751.86 782.186C751.625 781.907 751.442 781.592 751.31 781.24C751.185 780.888 751.123 780.521 751.123 780.14C751.123 779.737 751.185 779.355 751.31 778.996C751.442 778.637 751.625 778.321 751.86 778.05C752.102 777.771 752.384 777.555 752.707 777.401C753.03 777.24 753.389 777.159 753.785 777.159C754.262 777.159 754.676 777.276 755.028 777.511C755.387 777.746 755.688 778.043 755.93 778.402V777.258H756.788V782.934C756.788 783.477 756.656 783.935 756.392 784.309C756.135 784.683 755.783 784.965 755.336 785.156C754.896 785.354 754.405 785.453 753.862 785.453C753.217 785.453 752.689 785.339 752.278 785.112C751.867 784.885 751.526 784.577 751.255 784.188L751.816 783.693C752.043 784.03 752.337 784.283 752.696 784.452C753.063 784.621 753.451 784.705 753.862 784.705C754.214 784.705 754.537 784.639 754.83 784.507C755.131 784.382 755.369 784.188 755.545 783.924C755.728 783.66 755.82 783.33 755.82 782.934V781.922C755.607 782.274 755.314 782.553 754.94 782.758C754.573 782.963 754.185 783.066 753.774 783.066ZM754.071 782.274C754.276 782.274 754.474 782.237 754.665 782.164C754.856 782.091 755.032 781.995 755.193 781.878C755.354 781.753 755.49 781.614 755.6 781.46C755.71 781.306 755.783 781.148 755.82 780.987V779.337C755.717 779.073 755.571 778.842 755.38 778.644C755.189 778.439 754.973 778.281 754.731 778.171C754.489 778.054 754.24 777.995 753.983 777.995C753.69 777.995 753.426 778.057 753.191 778.182C752.964 778.307 752.769 778.475 752.608 778.688C752.447 778.893 752.322 779.124 752.234 779.381C752.146 779.638 752.102 779.898 752.102 780.162C752.102 780.448 752.153 780.719 752.256 780.976C752.359 781.225 752.498 781.449 752.674 781.647C752.85 781.845 753.059 781.999 753.301 782.109C753.543 782.219 753.8 782.274 754.071 782.274ZM763.333 783H762.365V779.788C762.365 779.201 762.259 778.761 762.046 778.468C761.841 778.175 761.544 778.028 761.155 778.028C760.906 778.028 760.653 778.094 760.396 778.226C760.147 778.358 759.927 778.538 759.736 778.765C759.546 778.985 759.406 779.242 759.318 779.535V783H758.35V774.97H759.318V778.49C759.546 778.079 759.854 777.757 760.242 777.522C760.638 777.28 761.064 777.159 761.518 777.159C761.863 777.159 762.149 777.221 762.376 777.346C762.611 777.463 762.798 777.632 762.937 777.852C763.077 778.072 763.176 778.329 763.234 778.622C763.3 778.908 763.333 779.223 763.333 779.568V783ZM767.755 782.714C767.674 782.751 767.564 782.798 767.425 782.857C767.286 782.916 767.124 782.967 766.941 783.011C766.758 783.055 766.563 783.077 766.358 783.077C766.123 783.077 765.907 783.037 765.709 782.956C765.511 782.868 765.353 782.736 765.236 782.56C765.119 782.377 765.06 782.149 765.06 781.878V778.017H764.279V777.258H765.06V775.344H766.028V777.258H767.315V778.017H766.028V781.581C766.043 781.786 766.112 781.94 766.237 782.043C766.362 782.138 766.508 782.186 766.677 782.186C766.868 782.186 767.044 782.153 767.205 782.087C767.366 782.021 767.473 781.973 767.524 781.944L767.755 782.714ZM770.621 783.11C770.144 783.11 769.697 783.033 769.279 782.879C768.861 782.718 768.502 782.479 768.201 782.164L768.575 781.482C768.905 781.79 769.235 782.01 769.565 782.142C769.895 782.274 770.232 782.34 770.577 782.34C770.973 782.34 771.296 782.267 771.545 782.12C771.794 781.966 771.919 781.742 771.919 781.449C771.919 781.236 771.853 781.079 771.721 780.976C771.596 780.873 771.417 780.789 771.182 780.723C770.947 780.65 770.669 780.569 770.346 780.481C769.95 780.364 769.616 780.239 769.345 780.107C769.074 779.975 768.868 779.81 768.729 779.612C768.59 779.414 768.52 779.165 768.52 778.864C768.52 778.497 768.615 778.189 768.806 777.94C768.997 777.683 769.257 777.489 769.587 777.357C769.924 777.225 770.306 777.159 770.731 777.159C771.156 777.159 771.541 777.225 771.886 777.357C772.231 777.489 772.528 777.683 772.777 777.94L772.337 778.611C772.11 778.376 771.86 778.204 771.589 778.094C771.318 777.977 771.013 777.918 770.676 777.918C770.478 777.918 770.284 777.944 770.093 777.995C769.902 778.039 769.745 778.123 769.62 778.248C769.495 778.365 769.433 778.534 769.433 778.754C769.433 778.937 769.481 779.084 769.576 779.194C769.679 779.297 769.825 779.385 770.016 779.458C770.214 779.531 770.452 779.612 770.731 779.7C771.164 779.825 771.538 779.949 771.853 780.074C772.176 780.199 772.425 780.36 772.601 780.558C772.777 780.756 772.865 781.031 772.865 781.383C772.865 781.926 772.66 782.351 772.249 782.659C771.838 782.96 771.296 783.11 770.621 783.11ZM776.959 783V775.19H780.303C780.648 775.19 780.963 775.263 781.249 775.41C781.535 775.549 781.785 775.74 781.997 775.982C782.21 776.217 782.375 776.484 782.492 776.785C782.61 777.078 782.668 777.379 782.668 777.687C782.668 778.046 782.599 778.387 782.459 778.71C782.327 779.033 782.137 779.308 781.887 779.535C781.645 779.762 781.359 779.92 781.029 780.008L782.921 783H781.799L780.017 780.195H777.949V783H776.959ZM777.949 779.315H780.314C780.586 779.315 780.82 779.242 781.018 779.095C781.224 778.941 781.381 778.739 781.491 778.49C781.609 778.241 781.667 777.973 781.667 777.687C781.667 777.394 781.601 777.126 781.469 776.884C781.337 776.635 781.165 776.437 780.952 776.29C780.74 776.143 780.505 776.07 780.248 776.07H777.949V779.315ZM786.393 783.11C785.961 783.11 785.565 783.033 785.205 782.879C784.853 782.718 784.545 782.501 784.281 782.23C784.025 781.951 783.823 781.632 783.676 781.273C783.537 780.914 783.467 780.532 783.467 780.129C783.467 779.586 783.592 779.091 783.841 778.644C784.091 778.197 784.435 777.837 784.875 777.566C785.323 777.295 785.832 777.159 786.404 777.159C786.984 777.159 787.486 777.298 787.911 777.577C788.344 777.848 788.678 778.208 788.912 778.655C789.154 779.095 789.275 779.572 789.275 780.085C789.275 780.158 789.272 780.232 789.264 780.305C789.264 780.371 789.261 780.422 789.253 780.459H784.49C784.52 780.833 784.622 781.167 784.798 781.46C784.982 781.746 785.216 781.973 785.502 782.142C785.788 782.303 786.096 782.384 786.426 782.384C786.778 782.384 787.108 782.296 787.416 782.12C787.732 781.944 787.948 781.713 788.065 781.427L788.901 781.658C788.777 781.937 788.59 782.186 788.34 782.406C788.098 782.626 787.809 782.798 787.471 782.923C787.141 783.048 786.782 783.11 786.393 783.11ZM784.457 779.788H788.373C788.344 779.414 788.238 779.084 788.054 778.798C787.871 778.512 787.636 778.288 787.35 778.127C787.064 777.966 786.749 777.885 786.404 777.885C786.067 777.885 785.755 777.966 785.469 778.127C785.183 778.288 784.949 778.512 784.765 778.798C784.589 779.084 784.487 779.414 784.457 779.788ZM792.32 783.11C791.844 783.11 791.396 783.033 790.978 782.879C790.56 782.718 790.201 782.479 789.9 782.164L790.274 781.482C790.604 781.79 790.934 782.01 791.264 782.142C791.594 782.274 791.932 782.34 792.276 782.34C792.672 782.34 792.995 782.267 793.244 782.12C793.494 781.966 793.618 781.742 793.618 781.449C793.618 781.236 793.552 781.079 793.42 780.976C793.296 780.873 793.116 780.789 792.881 780.723C792.647 780.65 792.368 780.569 792.045 780.481C791.649 780.364 791.316 780.239 791.044 780.107C790.773 779.975 790.568 779.81 790.428 779.612C790.289 779.414 790.219 779.165 790.219 778.864C790.219 778.497 790.315 778.189 790.505 777.94C790.696 777.683 790.956 777.489 791.286 777.357C791.624 777.225 792.005 777.159 792.43 777.159C792.856 777.159 793.241 777.225 793.585 777.357C793.93 777.489 794.227 777.683 794.476 777.94L794.036 778.611C793.809 778.376 793.56 778.204 793.288 778.094C793.017 777.977 792.713 777.918 792.375 777.918C792.177 777.918 791.983 777.944 791.792 777.995C791.602 778.039 791.444 778.123 791.319 778.248C791.195 778.365 791.132 778.534 791.132 778.754C791.132 778.937 791.18 779.084 791.275 779.194C791.378 779.297 791.525 779.385 791.715 779.458C791.913 779.531 792.152 779.612 792.43 779.7C792.863 779.825 793.237 779.949 793.552 780.074C793.875 780.199 794.124 780.36 794.3 780.558C794.476 780.756 794.564 781.031 794.564 781.383C794.564 781.926 794.359 782.351 793.948 782.659C793.538 782.96 792.995 783.11 792.32 783.11ZM798.263 783.11C797.831 783.11 797.435 783.033 797.075 782.879C796.723 782.718 796.415 782.501 796.151 782.23C795.895 781.951 795.693 781.632 795.546 781.273C795.407 780.914 795.337 780.532 795.337 780.129C795.337 779.586 795.462 779.091 795.711 778.644C795.961 778.197 796.305 777.837 796.745 777.566C797.193 777.295 797.702 777.159 798.274 777.159C798.854 777.159 799.356 777.298 799.781 777.577C800.214 777.848 800.548 778.208 800.782 778.655C801.024 779.095 801.145 779.572 801.145 780.085C801.145 780.158 801.142 780.232 801.134 780.305C801.134 780.371 801.131 780.422 801.123 780.459H796.36C796.39 780.833 796.492 781.167 796.668 781.46C796.852 781.746 797.086 781.973 797.372 782.142C797.658 782.303 797.966 782.384 798.296 782.384C798.648 782.384 798.978 782.296 799.286 782.12C799.602 781.944 799.818 781.713 799.935 781.427L800.771 781.658C800.647 781.937 800.46 782.186 800.21 782.406C799.968 782.626 799.679 782.798 799.341 782.923C799.011 783.048 798.652 783.11 798.263 783.11ZM796.327 779.788H800.243C800.214 779.414 800.108 779.084 799.924 778.798C799.741 778.512 799.506 778.288 799.22 778.127C798.934 777.966 798.619 777.885 798.274 777.885C797.937 777.885 797.625 777.966 797.339 778.127C797.053 778.288 796.819 778.512 796.635 778.798C796.459 779.084 796.357 779.414 796.327 779.788ZM805.257 778.105C804.773 778.112 804.344 778.237 803.97 778.479C803.604 778.714 803.343 779.04 803.189 779.458V783H802.221V777.258H803.123V778.589C803.321 778.193 803.582 777.874 803.904 777.632C804.234 777.383 804.579 777.243 804.938 777.214C805.012 777.214 805.074 777.214 805.125 777.214C805.177 777.214 805.221 777.218 805.257 777.225V778.105ZM807.868 783L805.613 777.258H806.625L808.429 782.076L810.233 777.258H811.179L808.924 783H807.868ZM814.495 783.11C814.062 783.11 813.666 783.033 813.307 782.879C812.955 782.718 812.647 782.501 812.383 782.23C812.126 781.951 811.925 781.632 811.778 781.273C811.639 780.914 811.569 780.532 811.569 780.129C811.569 779.586 811.694 779.091 811.943 778.644C812.192 778.197 812.537 777.837 812.977 777.566C813.424 777.295 813.934 777.159 814.506 777.159C815.085 777.159 815.588 777.298 816.013 777.577C816.446 777.848 816.779 778.208 817.014 778.655C817.256 779.095 817.377 779.572 817.377 780.085C817.377 780.158 817.373 780.232 817.366 780.305C817.366 780.371 817.362 780.422 817.355 780.459H812.592C812.621 780.833 812.724 781.167 812.9 781.46C813.083 781.746 813.318 781.973 813.604 782.142C813.89 782.303 814.198 782.384 814.528 782.384C814.88 782.384 815.21 782.296 815.518 782.12C815.833 781.944 816.05 781.713 816.167 781.427L817.003 781.658C816.878 781.937 816.691 782.186 816.442 782.406C816.2 782.626 815.91 782.798 815.573 782.923C815.243 783.048 814.884 783.11 814.495 783.11ZM812.559 779.788H816.475C816.446 779.414 816.339 779.084 816.156 778.798C815.973 778.512 815.738 778.288 815.452 778.127C815.166 777.966 814.851 777.885 814.506 777.885C814.169 777.885 813.857 777.966 813.571 778.127C813.285 778.288 813.05 778.512 812.867 778.798C812.691 779.084 812.588 779.414 812.559 779.788ZM818.079 780.14C818.079 779.597 818.189 779.102 818.409 778.655C818.636 778.2 818.944 777.837 819.333 777.566C819.729 777.295 820.18 777.159 820.686 777.159C821.148 777.159 821.562 777.28 821.929 777.522C822.296 777.764 822.582 778.057 822.787 778.402V774.97H823.755V781.9C823.755 782.017 823.777 782.105 823.821 782.164C823.872 782.215 823.953 782.245 824.063 782.252V783C823.88 783.029 823.737 783.044 823.634 783.044C823.443 783.044 823.275 782.978 823.128 782.846C822.989 782.714 822.919 782.567 822.919 782.406V781.922C822.692 782.289 822.387 782.578 822.006 782.791C821.625 783.004 821.229 783.11 820.818 783.11C820.422 783.11 820.055 783.033 819.718 782.879C819.388 782.718 819.098 782.498 818.849 782.219C818.607 781.94 818.416 781.625 818.277 781.273C818.145 780.914 818.079 780.536 818.079 780.14ZM822.787 780.987V779.337C822.699 779.088 822.556 778.864 822.358 778.666C822.16 778.461 821.936 778.299 821.687 778.182C821.445 778.057 821.203 777.995 820.961 777.995C820.675 777.995 820.415 778.057 820.18 778.182C819.953 778.299 819.755 778.461 819.586 778.666C819.425 778.864 819.3 779.091 819.212 779.348C819.124 779.605 819.08 779.872 819.08 780.151C819.08 780.437 819.128 780.708 819.223 780.965C819.326 781.222 819.465 781.449 819.641 781.647C819.824 781.845 820.033 781.999 820.268 782.109C820.51 782.219 820.77 782.274 821.049 782.274C821.225 782.274 821.405 782.241 821.588 782.175C821.779 782.109 821.958 782.017 822.127 781.9C822.296 781.783 822.439 781.647 822.556 781.493C822.673 781.332 822.75 781.163 822.787 780.987ZM825.294 783V781.768H826.108V783H825.294Z" fill="#EFEFEF"/>
</g>
<g filter="url(#filter1_d_56_62)">
<path d="M463.943 405.598C472.202 409.414 480.299 413.169 488.45 416.803C490.213 417.589 492.153 418.019 494.051 418.439C494.714 418.585 495.823 418.436 496.125 418.002C496.421 417.576 496.193 416.413 495.78 415.925C493.143 412.807 490.591 409.575 487.633 406.781C482.378 401.816 476.854 397.136 471.482 392.105C472.227 392.454 473.037 392.707 473.706 393.166C488.173 403.073 502.491 413.191 515.319 425.207C518.072 427.786 520.455 430.867 522.538 434.027C524.652 437.235 523.404 439.357 519.572 439.806C514.184 440.439 509.072 438.985 504 437.514C490.299 433.541 477.237 427.891 464.28 422.013C454.242 417.458 444.315 412.658 434.182 407.894C430.489 412.862 427.731 418.546 425.528 424.526C421.06 436.648 418.707 449.276 416.747 461.978C415.232 471.796 414.013 481.66 412.402 491.602C412.092 489.482 411.805 487.359 411.468 485.243C409.145 470.669 407.131 456.036 404.382 441.542C402.181 429.937 398.369 418.785 391.634 408.861C384.708 398.654 374.903 392.308 363.587 388.035C350.539 383.107 336.895 380.666 323.176 378.622C313.916 377.242 304.626 376.066 295.336 374.678C316.036 371.867 336.842 369.686 357.319 363.619C351.665 359.573 346.282 355.815 341.001 351.921C330.018 343.821 319.085 335.635 309.525 325.839C306.837 323.084 304.465 319.902 302.505 316.586C300.09 312.501 301.87 309.76 306.598 309.572C313.104 309.313 319.225 311.232 325.274 313.186C343.797 319.169 361.499 327.179 379.1 335.416C379.426 335.569 379.712 335.808 380.017 336.007C379.944 336.188 379.871 336.37 379.798 336.551C378.195 335.969 376.589 335.394 374.99 334.803C363.407 330.518 351.914 325.946 339.731 323.553C338.215 323.255 336.639 323.075 335.103 323.14C334.147 323.18 333.214 323.784 332.271 324.135C332.156 324.436 332.041 324.738 331.927 325.039C334.032 327.139 335.942 329.491 338.276 331.296C350.192 340.511 363.297 347.841 376.41 355.073C388.279 347.753 395.301 336.878 399.836 324.133C404.327 311.513 406.74 298.413 408.643 285.211C409.918 276.366 410.98 267.491 412.146 258.631C412.184 258.34 412.32 258.063 412.758 257.773C413.237 261.757 413.669 265.748 414.204 269.725C416.248 284.915 418.308 300.108 422.341 314.936C425.052 324.901 428.668 334.482 435.038 342.781C442.045 351.91 451.41 357.689 462.048 361.629C473.646 365.924 485.705 368.321 497.876 370.177C508.445 371.789 519.048 373.177 529.68 374.88C524.892 375.493 520.101 376.092 515.315 376.721C500.036 378.73 484.784 380.903 469.94 385.217C462.219 387.461 454.754 390.331 447.975 394.758C447.52 395.055 447.072 395.365 446.64 395.695C446.539 395.772 446.516 395.952 446.338 396.354C452.146 399.395 457.973 402.445 463.943 405.598ZM408.46 331.634C406.639 338.123 405.324 344.81 402.886 351.058C398.568 362.124 388.971 367.25 378.32 370.374C371.646 372.332 364.686 373.314 357.918 374.721C358.287 374.815 358.783 374.954 359.285 375.067C366.043 376.579 372.88 377.81 379.541 379.669C387.863 381.992 395.347 385.862 400.272 393.446C403.891 399.019 406.142 405.189 407.211 411.652C408.957 422.204 410.223 432.835 411.665 443.436C411.92 445.313 412.048 447.208 412.234 449.094C413.477 442.573 413.872 436.063 414.923 429.66C416.356 420.92 417.856 412.146 420.126 403.599C422.582 394.353 428.077 386.964 437.058 382.988C442.005 380.798 447.265 379.232 452.496 377.794C457.193 376.503 462.044 375.772 466.828 374.793C460.033 373.237 453.268 371.856 446.598 370.111C440.068 368.402 433.961 365.697 428.96 360.956C423.676 355.946 420.943 349.538 419.054 342.7C415.33 329.218 414.323 315.328 412.958 301.494C412.914 301.045 412.757 300.607 412.652 300.164C411.718 305.332 411.273 310.459 410.668 315.566C410.047 320.799 409.27 326.014 408.46 331.634Z" fill="#FCFCFC"/>
<path d="M407.916 369.83C411.47 365.362 411.39 359.912 412.496 354.49C413.24 358.192 413.813 361.478 414.573 364.721C415.671 369.406 418.878 371.985 423.426 372.983C426.275 373.609 429.164 374.049 432.074 374.853C430.343 375.156 428.609 375.444 426.883 375.768C425.585 376.012 424.291 376.279 423.006 376.58C418.193 377.705 415.278 380.713 414.305 385.543C413.694 388.578 413.2 391.637 412.532 395.359C412.016 392.327 411.605 389.925 411.198 387.524C409.99 380.397 407.261 377.547 400.185 376.138C397.636 375.63 395.062 375.248 391.962 374.717C397.732 373.544 403.366 373.675 407.916 369.83Z" fill="#F7F7F7"/>
<path d="M591.862 389.339V328.263H596.25V385.382H632.724V389.339H591.862ZM682.536 385.382V389.339H641.847V328.263H681.762V332.22H646.234V356.22H677.289V360.005H646.234V385.382H682.536ZM713.703 328.263H717.488L743.295 389.339H738.65L730.133 369.21H700.971L692.455 389.339H687.724L713.703 328.263ZM728.929 365.597L715.595 333.596L702.004 365.597H728.929ZM752.569 389.339V328.263H772.87C779.351 328.263 784.713 329.639 788.957 332.392C793.258 335.087 796.469 338.758 798.591 343.403C800.77 347.991 801.86 353.095 801.86 358.715C801.86 364.909 800.684 370.299 798.333 374.887C795.982 379.475 792.627 383.031 788.268 385.554C783.91 388.078 778.777 389.339 772.87 389.339H752.569ZM797.473 358.715C797.473 353.611 796.498 349.052 794.548 345.037C792.656 341.023 789.874 337.897 786.204 335.661C782.591 333.367 778.146 332.22 772.87 332.22H756.956V385.382H772.87C778.204 385.382 782.706 384.207 786.376 381.855C790.046 379.504 792.799 376.321 794.634 372.307C796.527 368.235 797.473 363.704 797.473 358.715ZM837.723 389.769C833.708 389.769 829.952 388.938 826.453 387.275C822.955 385.612 819.887 383.318 817.249 380.393C814.668 377.468 812.632 374.142 811.141 370.414C809.708 366.686 808.991 362.729 808.991 358.543C808.991 354.356 809.708 350.428 811.141 346.758C812.632 343.087 814.668 339.818 817.249 336.951C819.887 334.084 822.955 331.847 826.453 330.241C830.009 328.635 833.88 327.833 838.067 327.833C843.859 327.833 848.734 329.066 852.691 331.532C856.705 333.94 859.716 337.152 861.723 341.166L854.325 346.5C852.719 343.173 850.425 340.679 847.443 339.016C844.518 337.352 841.307 336.521 837.809 336.521C834.941 336.521 832.332 337.123 829.98 338.327C827.629 339.532 825.593 341.195 823.873 343.317C822.21 345.381 820.948 347.761 820.088 350.457C819.227 353.095 818.797 355.876 818.797 358.801C818.797 361.898 819.285 364.794 820.26 367.489C821.235 370.185 822.611 372.565 824.389 374.629C826.167 376.637 828.26 378.214 830.669 379.361C833.077 380.508 835.687 381.081 838.497 381.081C841.823 381.081 844.977 380.25 847.959 378.586C850.999 376.866 853.838 374.314 856.476 370.93V380.737C851.142 386.759 844.891 389.769 837.723 389.769ZM855.529 365.597H842.712V358.457H863.616V389.339H855.529V365.597ZM916.499 380.823V389.339H874.605V328.263H915.724V336.779H884.24V354.156H911.509V362.156H884.24V380.823H916.499ZM936.072 346.156V389.339H926.438V328.263H934.352L968.933 372.393V328.349H978.654V389.339H970.224L936.072 346.156ZM1013.64 389.339V328.263H1039.27C1042.03 328.263 1044.55 328.836 1046.84 329.983C1049.14 331.13 1051.14 332.65 1052.86 334.542C1054.58 336.435 1055.9 338.557 1056.82 340.908C1057.74 343.259 1058.2 345.668 1058.2 348.134C1058.2 351.518 1057.42 354.758 1055.87 357.855C1054.38 360.894 1052.23 363.36 1049.42 365.253C1046.67 367.145 1043.46 368.092 1039.79 368.092H1023.27V389.339H1013.64ZM1023.27 359.575H1039.19C1041.02 359.575 1042.63 359.088 1044 358.113C1045.38 357.081 1046.44 355.704 1047.19 353.984C1047.99 352.263 1048.39 350.313 1048.39 348.134C1048.39 345.897 1047.93 343.919 1047.01 342.198C1046.1 340.478 1044.89 339.159 1043.4 338.241C1041.97 337.266 1040.39 336.779 1038.67 336.779H1023.27V359.575ZM1091.32 352.521C1087.65 352.579 1084.38 353.41 1081.51 355.016C1078.7 356.622 1076.7 358.887 1075.49 361.812V389.339H1066.03V344.349H1074.8V354.414C1076.35 351.317 1078.39 348.851 1080.91 347.016C1083.44 345.123 1086.1 344.091 1088.91 343.919C1089.49 343.919 1089.94 343.919 1090.29 343.919C1090.69 343.919 1091.03 343.948 1091.32 344.005V352.521ZM1117.58 390.2C1114.02 390.2 1110.84 389.597 1108.03 388.393C1105.22 387.131 1102.78 385.411 1100.72 383.232C1098.71 381.052 1097.16 378.586 1096.07 375.834C1094.98 373.024 1094.44 370.041 1094.44 366.887C1094.44 363.733 1094.98 360.751 1096.07 357.941C1097.16 355.131 1098.71 352.665 1100.72 350.543C1102.78 348.363 1105.22 346.672 1108.03 345.467C1110.9 344.206 1114.08 343.575 1117.58 343.575C1121.08 343.575 1124.23 344.206 1127.04 345.467C1129.91 346.672 1132.35 348.363 1134.35 350.543C1136.42 352.665 1138 355.131 1139.09 357.941C1140.18 360.751 1140.72 363.733 1140.72 366.887C1140.72 370.041 1140.18 373.024 1139.09 375.834C1138 378.586 1136.42 381.052 1134.35 383.232C1132.35 385.411 1129.91 387.131 1127.04 388.393C1124.23 389.597 1121.08 390.2 1117.58 390.2ZM1104.16 366.973C1104.16 369.841 1104.76 372.421 1105.97 374.715C1107.17 377.009 1108.78 378.816 1110.78 380.135C1112.79 381.454 1115.06 382.113 1117.58 382.113C1120.05 382.113 1122.28 381.454 1124.29 380.135C1126.35 378.758 1127.99 376.923 1129.19 374.629C1130.4 372.278 1131 369.697 1131 366.887C1131 364.02 1130.4 361.439 1129.19 359.145C1127.99 356.851 1126.35 355.045 1124.29 353.726C1122.28 352.349 1120.05 351.661 1117.58 351.661C1115.06 351.661 1112.79 352.349 1110.78 353.726C1108.78 355.102 1107.17 356.937 1105.97 359.231C1104.76 361.468 1104.16 364.048 1104.16 366.973Z" fill="white"/>
<path d="M590.407 437.094V415.975H599.271C600.223 415.975 601.095 416.174 601.888 416.57C602.682 416.967 603.376 417.492 603.971 418.147C604.566 418.801 605.022 419.535 605.339 420.348C605.656 421.161 605.815 421.994 605.815 422.846C605.815 424.016 605.547 425.137 605.012 426.208C604.496 427.259 603.753 428.111 602.781 428.766C601.829 429.42 600.719 429.747 599.449 429.747H593.738V437.094H590.407ZM593.738 426.802H599.241C599.876 426.802 600.431 426.634 600.907 426.297C601.383 425.94 601.75 425.464 602.007 424.869C602.285 424.274 602.424 423.6 602.424 422.846C602.424 422.073 602.265 421.389 601.948 420.794C601.631 420.199 601.214 419.743 600.699 419.426C600.203 419.089 599.658 418.92 599.063 418.92H593.738V426.802ZM620.279 437.392C619.05 437.392 617.949 437.183 616.978 436.767C616.006 436.331 615.163 435.736 614.449 434.982C613.755 434.229 613.22 433.376 612.843 432.424C612.466 431.453 612.278 430.421 612.278 429.331C612.278 428.24 612.466 427.209 612.843 426.237C613.22 425.266 613.755 424.413 614.449 423.679C615.163 422.926 616.006 422.341 616.978 421.924C617.969 421.488 619.07 421.27 620.279 421.27C621.489 421.27 622.579 421.488 623.551 421.924C624.543 422.341 625.385 422.926 626.079 423.679C626.793 424.413 627.339 425.266 627.715 426.237C628.092 427.209 628.281 428.24 628.281 429.331C628.281 430.421 628.092 431.453 627.715 432.424C627.339 433.376 626.793 434.229 626.079 434.982C625.385 435.736 624.543 436.331 623.551 436.767C622.579 437.183 621.489 437.392 620.279 437.392ZM615.639 429.361C615.639 430.352 615.847 431.244 616.264 432.038C616.68 432.831 617.235 433.455 617.929 433.912C618.623 434.368 619.407 434.596 620.279 434.596C621.132 434.596 621.905 434.368 622.599 433.912C623.313 433.436 623.878 432.801 624.295 432.008C624.711 431.195 624.919 430.302 624.919 429.331C624.919 428.339 624.711 427.447 624.295 426.654C623.878 425.861 623.313 425.236 622.599 424.78C621.905 424.304 621.132 424.066 620.279 424.066C619.407 424.066 618.623 424.304 617.929 424.78C617.235 425.256 616.68 425.89 616.264 426.684C615.847 427.457 615.639 428.349 615.639 429.361ZM655.11 421.538H658.233L651.689 437.094H648.893L646.097 430.074L643.301 437.094H640.505L633.932 421.538H637.055L642.052 433.912L644.253 428.171L641.576 421.567H644.342L646.097 426.416L647.823 421.567H650.589L647.942 428.171L650.143 433.912L655.11 421.538ZM671.99 437.392C670.781 437.392 669.68 437.183 668.689 436.767C667.717 436.331 666.874 435.746 666.16 435.012C665.446 434.259 664.891 433.406 664.495 432.454C664.118 431.482 663.929 430.451 663.929 429.361C663.929 427.893 664.267 426.555 664.941 425.345C665.615 424.116 666.557 423.134 667.767 422.4C668.976 421.647 670.394 421.27 672.02 421.27C673.646 421.27 675.044 421.647 676.214 422.4C677.404 423.134 678.326 424.106 678.98 425.315C679.635 426.525 679.962 427.824 679.962 429.212C679.962 429.45 679.952 429.678 679.932 429.896C679.912 430.094 679.893 430.263 679.873 430.402H667.41C667.469 431.314 667.717 432.117 668.153 432.811C668.609 433.485 669.184 434.021 669.878 434.417C670.572 434.794 671.316 434.982 672.109 434.982C672.982 434.982 673.805 434.764 674.578 434.328C675.371 433.892 675.907 433.317 676.184 432.603L678.98 433.406C678.643 434.159 678.128 434.844 677.434 435.458C676.759 436.053 675.956 436.529 675.024 436.886C674.092 437.223 673.081 437.392 671.99 437.392ZM667.32 428.23H676.72C676.66 427.338 676.402 426.555 675.946 425.88C675.51 425.186 674.945 424.651 674.251 424.274C673.577 423.878 672.823 423.679 671.99 423.679C671.177 423.679 670.424 423.878 669.73 424.274C669.055 424.651 668.5 425.186 668.064 425.88C667.628 426.555 667.38 427.338 667.32 428.23ZM696.433 424.363C695.163 424.383 694.033 424.671 693.042 425.226C692.07 425.781 691.376 426.565 690.959 427.576V437.094H687.688V421.538H690.722V425.018C691.257 423.947 691.961 423.094 692.833 422.46C693.706 421.805 694.628 421.448 695.6 421.389C695.798 421.389 695.957 421.389 696.076 421.389C696.214 421.389 696.333 421.399 696.433 421.419V424.363ZM710.629 437.392C709.419 437.392 708.318 437.183 707.327 436.767C706.355 436.331 705.512 435.746 704.799 435.012C704.085 434.259 703.529 433.406 703.133 432.454C702.756 431.482 702.568 430.451 702.568 429.361C702.568 427.893 702.905 426.555 703.579 425.345C704.253 424.116 705.195 423.134 706.405 422.4C707.614 421.647 709.032 421.27 710.658 421.27C712.284 421.27 713.682 421.647 714.852 422.4C716.042 423.134 716.964 424.106 717.619 425.315C718.273 426.525 718.6 427.824 718.6 429.212C718.6 429.45 718.59 429.678 718.57 429.896C718.551 430.094 718.531 430.263 718.511 430.402H706.048C706.107 431.314 706.355 432.117 706.791 432.811C707.248 433.485 707.823 434.021 708.517 434.417C709.211 434.794 709.954 434.982 710.748 434.982C711.62 434.982 712.443 434.764 713.216 434.328C714.01 433.892 714.545 433.317 714.823 432.603L717.619 433.406C717.281 434.159 716.766 434.844 716.072 435.458C715.398 436.053 714.595 436.529 713.663 436.886C712.731 437.223 711.719 437.392 710.629 437.392ZM705.959 428.23H715.358C715.298 427.338 715.041 426.555 714.585 425.88C714.148 425.186 713.583 424.651 712.889 424.274C712.215 423.878 711.461 423.679 710.629 423.679C709.816 423.679 709.062 423.878 708.368 424.274C707.694 424.651 707.138 425.186 706.702 425.88C706.266 426.555 706.018 427.338 705.959 428.23ZM725.344 429.331C725.344 427.844 725.642 426.495 726.236 425.285C726.851 424.056 727.684 423.084 728.735 422.37C729.786 421.637 730.996 421.27 732.364 421.27C733.554 421.27 734.625 421.577 735.576 422.192C736.548 422.807 737.302 423.57 737.837 424.482V415.38H741.109V433.406C741.109 433.783 741.178 434.05 741.317 434.209C741.456 434.368 741.684 434.457 742.001 434.477V437.094C741.387 437.193 740.911 437.243 740.574 437.243C739.959 437.243 739.433 437.064 738.997 436.708C738.581 436.351 738.363 435.924 738.343 435.429L738.313 434.268C737.718 435.26 736.915 436.033 735.904 436.589C734.892 437.124 733.841 437.392 732.751 437.392C731.68 437.392 730.688 437.183 729.776 436.767C728.884 436.351 728.101 435.766 727.426 435.012C726.772 434.259 726.256 433.396 725.88 432.424C725.523 431.453 725.344 430.421 725.344 429.331ZM737.837 431.502V427.427C737.619 426.793 737.262 426.227 736.766 425.732C736.29 425.216 735.745 424.81 735.13 424.512C734.535 424.215 733.94 424.066 733.346 424.066C732.651 424.066 732.017 424.215 731.442 424.512C730.887 424.81 730.401 425.206 729.984 425.702C729.588 426.198 729.28 426.763 729.062 427.397C728.844 428.032 728.735 428.696 728.735 429.39C728.735 430.104 728.854 430.778 729.092 431.413C729.33 432.028 729.667 432.583 730.103 433.079C730.559 433.555 731.075 433.931 731.65 434.209C732.245 434.467 732.889 434.596 733.583 434.596C734.02 434.596 734.456 434.516 734.892 434.358C735.348 434.199 735.775 433.981 736.171 433.703C736.588 433.426 736.935 433.099 737.212 432.722C737.51 432.345 737.718 431.938 737.837 431.502ZM771.115 437.392C769.926 437.392 768.845 437.114 767.873 436.559C766.921 435.984 766.168 435.22 765.613 434.268V437.094H762.727V415.38H765.999V424.482C766.614 423.491 767.377 422.708 768.29 422.133C769.222 421.557 770.312 421.27 771.562 421.27C772.593 421.27 773.535 421.488 774.387 421.924C775.24 422.361 775.964 422.955 776.559 423.709C777.173 424.463 777.639 425.325 777.957 426.297C778.294 427.268 778.462 428.3 778.462 429.39C778.462 430.481 778.274 431.512 777.897 432.484C777.54 433.455 777.025 434.308 776.35 435.042C775.676 435.776 774.893 436.351 774.001 436.767C773.128 437.183 772.166 437.392 771.115 437.392ZM770.253 434.596C770.967 434.596 771.621 434.457 772.216 434.179C772.811 433.882 773.326 433.495 773.763 433.019C774.199 432.543 774.526 431.988 774.744 431.353C774.982 430.719 775.101 430.065 775.101 429.39C775.101 428.458 774.903 427.586 774.506 426.773C774.129 425.96 773.594 425.305 772.9 424.81C772.206 424.314 771.403 424.066 770.491 424.066C769.836 424.066 769.222 424.225 768.647 424.542C768.071 424.839 767.556 425.246 767.1 425.761C766.664 426.257 766.297 426.812 765.999 427.427V431.532C766.118 431.988 766.326 432.404 766.624 432.781C766.921 433.138 767.268 433.455 767.665 433.733C768.062 433.991 768.488 434.199 768.944 434.358C769.4 434.516 769.836 434.596 770.253 434.596ZM786.474 440.753C786.772 440.793 787.059 440.832 787.337 440.872C787.634 440.931 787.872 440.961 788.051 440.961C788.388 440.961 788.675 440.852 788.913 440.634C789.171 440.436 789.429 440.059 789.687 439.504C789.944 438.948 790.262 438.145 790.638 437.094L784.243 421.538H787.664L792.423 433.763L796.647 421.538H799.8L792.75 440.693C792.532 441.268 792.215 441.794 791.799 442.27C791.382 442.766 790.867 443.152 790.252 443.43C789.637 443.708 788.913 443.846 788.08 443.846C787.842 443.846 787.595 443.827 787.337 443.787C787.079 443.747 786.791 443.688 786.474 443.608V440.753ZM835.898 431.651C835.898 432.781 835.6 433.753 835.005 434.566C834.43 435.379 833.647 436.004 832.656 436.44C831.664 436.876 830.573 437.094 829.384 437.094H819.3V415.975H830.187C831.178 415.975 832.031 416.243 832.745 416.778C833.478 417.294 834.034 417.968 834.41 418.801C834.807 419.614 835.005 420.467 835.005 421.359C835.005 422.39 834.738 423.362 834.202 424.274C833.687 425.167 832.943 425.831 831.971 426.267C833.181 426.624 834.133 427.278 834.827 428.23C835.541 429.162 835.898 430.302 835.898 431.651ZM832.477 431.026C832.477 430.431 832.348 429.896 832.09 429.42C831.852 428.924 831.515 428.528 831.079 428.23C830.663 427.913 830.167 427.754 829.592 427.754H822.631V434.209H829.384C829.978 434.209 830.504 434.07 830.96 433.793C831.436 433.495 831.803 433.108 832.061 432.632C832.338 432.137 832.477 431.601 832.477 431.026ZM822.631 418.861V425.077H828.759C829.314 425.077 829.81 424.948 830.246 424.691C830.682 424.413 831.029 424.046 831.287 423.59C831.545 423.114 831.674 422.579 831.674 421.984C831.674 421.369 831.555 420.834 831.317 420.378C831.079 419.902 830.752 419.535 830.335 419.277C829.939 418.999 829.473 418.861 828.937 418.861H822.631ZM844.429 437.094V415.975H847.76V434.149H859.093V437.094H844.429ZM875.021 437.243C873.336 437.243 871.908 436.955 870.738 436.38C869.588 435.805 868.656 435.022 867.942 434.031C867.248 433.039 866.732 431.909 866.395 430.64C866.078 429.37 865.919 428.052 865.919 426.684V415.975H869.251V426.684C869.251 427.655 869.35 428.597 869.548 429.509C869.747 430.402 870.064 431.205 870.5 431.919C870.936 432.632 871.521 433.198 872.255 433.614C873.009 434.031 873.931 434.239 875.021 434.239C876.132 434.239 877.054 434.031 877.788 433.614C878.541 433.178 879.126 432.603 879.543 431.889C879.979 431.155 880.296 430.342 880.494 429.45C880.693 428.557 880.792 427.635 880.792 426.684V415.975H884.153V426.684C884.153 428.131 883.975 429.499 883.618 430.788C883.281 432.057 882.745 433.178 882.011 434.149C881.298 435.101 880.366 435.855 879.215 436.41C878.065 436.965 876.667 437.243 875.021 437.243ZM908.126 434.149V437.094H893.64V415.975H907.858V418.92H896.972V424.929H906.401V427.695H896.972V434.149H908.126ZM929.112 420.943C928.914 420.725 928.626 420.497 928.25 420.259C927.873 420.001 927.427 419.763 926.911 419.545C926.396 419.327 925.84 419.148 925.245 419.009C924.651 418.871 924.036 418.801 923.401 418.801C922.013 418.801 920.982 419.059 920.308 419.574C919.634 420.09 919.296 420.804 919.296 421.716C919.296 422.39 919.485 422.926 919.862 423.322C920.238 423.699 920.813 424.016 921.587 424.274C922.36 424.532 923.332 424.81 924.502 425.107C925.93 425.444 927.169 425.851 928.22 426.327C929.271 426.783 930.074 427.397 930.629 428.171C931.185 428.944 931.462 429.965 931.462 431.234C931.462 432.305 931.264 433.227 930.867 434.001C930.471 434.774 929.915 435.409 929.202 435.904C928.488 436.38 927.665 436.737 926.733 436.975C925.801 437.193 924.799 437.302 923.728 437.302C922.677 437.302 921.626 437.193 920.576 436.975C919.544 436.757 918.553 436.44 917.601 436.023C916.669 435.587 915.806 435.062 915.013 434.447L916.53 431.591C916.788 431.849 917.155 432.137 917.631 432.454C918.127 432.751 918.692 433.039 919.326 433.317C919.981 433.594 920.685 433.832 921.438 434.031C922.211 434.209 922.995 434.298 923.788 434.298C925.117 434.298 926.128 434.07 926.822 433.614C927.536 433.138 927.893 432.464 927.893 431.591C927.893 430.878 927.665 430.312 927.209 429.896C926.753 429.46 926.088 429.093 925.216 428.795C924.343 428.498 923.302 428.201 922.093 427.903C920.704 427.526 919.544 427.12 918.612 426.684C917.68 426.227 916.976 425.652 916.5 424.958C916.044 424.244 915.816 423.342 915.816 422.252C915.816 420.863 916.153 419.693 916.828 418.742C917.502 417.77 918.414 417.046 919.564 416.57C920.734 416.074 922.043 415.827 923.491 415.827C924.442 415.827 925.345 415.936 926.197 416.154C927.05 416.352 927.843 416.63 928.577 416.987C929.33 417.344 930.015 417.75 930.629 418.206L929.112 420.943ZM955.357 418.92H948.337V437.094H944.976V418.92H937.927V415.975H955.357V418.92ZM967.368 415.975H970.521L978.731 437.094H975.221L972.99 431.353H964.84L962.639 437.094H959.099L967.368 415.975ZM972.336 428.885L968.945 419.634L965.435 428.885H972.336ZM986.399 437.094V415.975H995.59C996.542 415.975 997.415 416.174 998.208 416.57C999.001 416.967 999.685 417.492 1000.26 418.147C1000.86 418.801 1001.31 419.535 1001.63 420.348C1001.97 421.161 1002.13 421.994 1002.13 422.846C1002.13 423.778 1001.97 424.671 1001.63 425.523C1001.29 426.376 1000.81 427.11 1000.17 427.725C999.556 428.339 998.833 428.785 998 429.063L1002.97 437.094H999.219L994.639 429.747H989.731V437.094H986.399ZM989.731 426.802H995.561C996.175 426.802 996.721 426.624 997.197 426.267C997.673 425.91 998.049 425.434 998.327 424.839C998.605 424.225 998.743 423.56 998.743 422.846C998.743 422.113 998.585 421.458 998.267 420.883C997.95 420.288 997.534 419.812 997.018 419.455C996.522 419.099 995.977 418.92 995.382 418.92H989.731V426.802ZM1017.22 415.975H1020.37L1028.58 437.094H1025.07L1022.84 431.353H1014.69L1012.49 437.094H1008.95L1017.22 415.975ZM1022.19 428.885L1018.8 419.634L1015.29 428.885H1022.19ZM1036.25 437.094V415.975H1039.58V437.094H1036.25Z" fill="white"/>
</g>
</g>
<defs>
<filter id="filter0_f_56_62" x="-185.338" y="380.662" width="1810.68" height="550.677" filterUnits="userSpaceOnUse" color-interpolation-filters="sRGB">
<feFlood flood-opacity="0" result="BackgroundImageFix"/>
<feBlend mode="normal" in="SourceGraphic" in2="BackgroundImageFix" result="shape"/>
<feGaussianBlur stdDeviation="58.1692" result="effect1_foregroundBlur_56_62"/>
</filter>
<filter id="filter1_d_56_62" x="218.891" y="182.401" width="998.274" height="386.719" filterUnits="userSpaceOnUse" color-interpolation-filters="sRGB">
<feFlood flood-opacity="0" result="BackgroundImageFix"/>
<feColorMatrix in="SourceAlpha" type="matrix" values="0 0 0 0 0 0 0 0 0 0 0 0 0 0 0 0 0 0 127 0" result="hardAlpha"/>
<feMorphology radius="59.2676" operator="dilate" in="SourceAlpha" result="effect1_dropShadow_56_62"/>
<feOffset dy="1.07261"/>
<feGaussianBlur stdDeviation="8.58867"/>
<feComposite in2="hardAlpha" operator="out"/>
<feColorMatrix type="matrix" values="0 0 0 0 0.192157 0 0 0 0 0.282353 0 0 0 0 0.72549 0 0 0 0.83 0"/>
<feBlend mode="normal" in2="BackgroundImageFix" result="effect1_dropShadow_56_62"/>
<feBlend mode="normal" in="SourceGraphic" in2="effect1_dropShadow_56_62" result="shape"/>
</filter>
<linearGradient id="paint0_linear_56_62" x1="720" y1="-390.916" x2="720" y2="1224.18" gradientUnits="userSpaceOnUse">
<stop offset="0.183763" stop-opacity="0"/>
<stop offset="0.370875" stop-color="#090D20"/>
<stop offset="0.510086" stop-color="#111940"/>
<stop offset="0.560981" stop-color="#182359"/>
<stop offset="0.610378" stop-color="#1F2E76"/>
<stop offset="0.699421" stop-color="#3148B9"/>
<stop offset="0.757363" stop-color="#788BE8"/>
</linearGradient>
<clipPath id="clip0_56_62">
<rect width="1440" height="820" fill="white"/>
</clipPath>
<clipPath id="clip1_56_62">
<rect width="1440" height="820" fill="white"/>
</clipPath>
</defs>
</svg>
