<svg width="220" height="647" viewBox="0 0 220 647" fill="none" xmlns="http://www.w3.org/2000/svg">
<rect x="0.5" y="0.5" width="219" height="646" rx="29.5" fill="white"/>
<rect x="0.5" y="0.5" width="219" height="646" rx="29.5" stroke="#AAAAAA"/>
<path d="M31.29 595.925L31.29 592.95L39.935 589.66L31.29 586.335L31.29 583.36L42.105 587.665L52.36 583.395L31.15 574.995L31.15 571.565L56 581.96L56 584.69L44.275 589.625L56 594.595L56 597.325L31.15 607.685L31.15 604.29L52.36 595.855L42.105 591.62L31.29 595.925ZM56 552.951L56 556.031L45.78 556.031C43.89 556.031 42.49 556.358 41.58 557.011C40.6467 557.664 40.18 558.621 40.18 559.881C40.18 560.488 40.3083 561.094 40.565 561.701C40.7983 562.308 41.125 562.879 41.545 563.416C41.965 563.929 42.4667 564.396 43.05 564.816C43.6333 565.213 44.275 565.516 44.975 565.726L56 565.726L56 568.806L30.45 568.806L30.45 565.726L41.65 565.726C40.32 565.003 39.2817 564.023 38.535 562.786C37.7883 561.549 37.415 560.196 37.415 558.726C37.415 557.653 37.6133 556.743 38.01 555.996C38.4067 555.249 38.9433 554.654 39.62 554.211C40.2967 553.768 41.1133 553.453 42.07 553.266C43.0033 553.056 44.0067 552.951 45.08 552.951L56 552.951ZM56 548.161L37.73 548.161L37.73 545.081L56 545.081L56 548.161ZM34.3 548.161L30.45 548.161L30.45 545.081L34.3 545.081L34.3 548.161ZM55.09 530.645C55.1833 530.832 55.3 531.077 55.44 531.38C55.5567 531.683 55.685 532.033 55.825 532.43C55.9417 532.803 56.035 533.223 56.105 533.69C56.1983 534.133 56.245 534.6 56.245 535.09C56.245 536.21 55.9417 537.178 55.335 537.995C54.705 538.812 53.7367 539.22 52.43 539.22L40.145 539.22L40.145 541.705L37.73 541.705L37.73 539.22L31.64 539.22L31.64 536.14L37.73 536.14L37.73 532.045L40.145 532.045L40.145 536.14L51.485 536.14C52.1617 536.093 52.6517 535.872 52.955 535.475C53.2583 535.078 53.41 534.612 53.41 534.075C53.41 533.468 53.3167 532.92 53.13 532.43C52.92 531.917 52.7567 531.567 52.64 531.38L55.09 530.645ZM56.35 519.945C56.35 521.321 56.105 522.581 55.615 523.725C55.1017 524.868 54.4133 525.848 53.55 526.665C52.6867 527.481 51.6833 528.123 50.54 528.59C49.3733 529.033 48.1483 529.255 46.865 529.255C45.5817 529.255 44.3683 529.033 43.225 528.59C42.0817 528.123 41.0783 527.481 40.215 526.665C39.3517 525.825 38.675 524.833 38.185 523.69C37.6717 522.546 37.415 521.286 37.415 519.91C37.415 518.533 37.6717 517.285 38.185 516.165C38.6983 515.021 39.3867 514.053 40.25 513.26C41.09 512.466 42.0817 511.86 43.225 511.44C44.345 510.996 45.5117 510.775 46.725 510.775C46.9817 510.775 47.215 510.786 47.425 510.81C47.635 510.81 47.7983 510.821 47.915 510.845L47.915 526C48.825 525.93 49.6533 525.72 50.4 525.37C51.1467 525.02 51.7883 524.565 52.325 524.005C52.8617 523.445 53.2817 522.815 53.585 522.115C53.8883 521.391 54.04 520.633 54.04 519.84C54.04 519.28 53.97 518.731 53.83 518.195C53.6667 517.658 53.4567 517.156 53.2 516.69C52.9433 516.223 52.6283 515.815 52.255 515.465C51.8817 515.091 51.4617 514.811 50.995 514.625L51.73 511.965C52.4067 512.268 53.025 512.688 53.585 513.225C54.145 513.738 54.635 514.345 55.055 515.045C55.4517 515.721 55.7667 516.48 56 517.32C56.2333 518.16 56.35 519.035 56.35 519.945ZM45.64 513.68C44.7767 513.75 43.9833 513.971 43.26 514.345C42.5133 514.695 41.8833 515.15 41.37 515.71C40.8567 516.246 40.46 516.876 40.18 517.6C39.8767 518.323 39.725 519.093 39.725 519.91C39.725 520.726 39.8767 521.496 40.18 522.22C40.46 522.943 40.8683 523.585 41.405 524.145C41.9183 524.681 42.5367 525.125 43.26 525.475C43.9833 525.801 44.7767 526 45.64 526.07L45.64 513.68Z" fill="#0B1828"/>
<path d="M29.072 39L27.499 36.745C27.433 36.7523 27.334 36.756 27.202 36.756H25.464V39H24.034V31.3H27.202C27.8693 31.3 28.4487 31.41 28.94 31.63C29.4387 31.85 29.82 32.1653 30.084 32.576C30.348 32.9867 30.48 33.4743 30.48 34.039C30.48 34.6183 30.337 35.117 30.051 35.535C29.7723 35.953 29.369 36.2647 28.841 36.47L30.612 39H29.072ZM29.039 34.039C29.039 33.5477 28.8777 33.17 28.555 32.906C28.2323 32.642 27.7593 32.51 27.136 32.51H25.464V35.579H27.136C27.7593 35.579 28.2323 35.447 28.555 35.183C28.8777 34.9117 29.039 34.5303 29.039 34.039ZM37.3379 35.062H38.6909V38.131C38.2949 38.4463 37.8329 38.6883 37.3049 38.857C36.7769 39.0257 36.2342 39.11 35.6769 39.11C34.8922 39.11 34.1846 38.9413 33.5539 38.604C32.9232 38.2593 32.4282 37.7863 32.0689 37.185C31.7096 36.5837 31.5299 35.9053 31.5299 35.15C31.5299 34.3947 31.7096 33.7163 32.0689 33.115C32.4282 32.5137 32.9232 32.0443 33.5539 31.707C34.1919 31.3623 34.9069 31.19 35.6989 31.19C36.3442 31.19 36.9309 31.2963 37.4589 31.509C37.9869 31.7217 38.4306 32.0333 38.7899 32.444L37.8879 33.324C37.3012 32.7373 36.5936 32.444 35.7649 32.444C35.2222 32.444 34.7382 32.5577 34.3129 32.785C33.8949 33.0123 33.5649 33.3313 33.3229 33.742C33.0882 34.1527 32.9709 34.622 32.9709 35.15C32.9709 35.6633 33.0882 36.1253 33.3229 36.536C33.5649 36.9467 33.8949 37.2693 34.3129 37.504C34.7382 37.7387 35.2186 37.856 35.7539 37.856C36.3552 37.856 36.8832 37.724 37.3379 37.46V35.062ZM46.033 34.996C46.4583 35.1353 46.7956 35.37 47.045 35.7C47.2943 36.0227 47.419 36.426 47.419 36.91C47.419 37.5773 47.1623 38.0943 46.649 38.461C46.1356 38.8203 45.3876 39 44.405 39H40.577V31.3H44.185C45.0943 31.3 45.7946 31.4797 46.286 31.839C46.7773 32.191 47.023 32.6787 47.023 33.302C47.023 33.6833 46.935 34.0207 46.759 34.314C46.583 34.6073 46.341 34.8347 46.033 34.996ZM42.007 32.422V34.545H44.031C44.5296 34.545 44.911 34.457 45.175 34.281C45.4463 34.0977 45.582 33.8337 45.582 33.489C45.582 33.137 45.4463 32.873 45.175 32.697C44.911 32.5137 44.5296 32.422 44.031 32.422H42.007ZM44.317 37.878C45.4243 37.878 45.978 37.5077 45.978 36.767C45.978 36.0263 45.4243 35.656 44.317 35.656H42.007V37.878H44.317ZM69.1723 37.79V39H63.4963V38.043L66.5543 35.139C66.899 34.809 67.13 34.523 67.2473 34.281C67.372 34.0317 67.4343 33.786 67.4343 33.544C67.4343 33.1847 67.3133 32.9097 67.0713 32.719C66.8293 32.5283 66.4737 32.433 66.0043 32.433C65.2197 32.433 64.6183 32.7007 64.2003 33.236L63.1993 32.466C63.5 32.0627 63.9033 31.751 64.4093 31.531C64.9227 31.3037 65.4947 31.19 66.1253 31.19C66.9613 31.19 67.6287 31.388 68.1273 31.784C68.626 32.18 68.8753 32.719 68.8753 33.401C68.8753 33.819 68.7873 34.2113 68.6113 34.578C68.4353 34.9447 68.098 35.3627 67.5993 35.832L65.5423 37.79H69.1723ZM75.5747 37.79V39H69.8987V38.043L72.9567 35.139C73.3013 34.809 73.5323 34.523 73.6497 34.281C73.7743 34.0317 73.8367 33.786 73.8367 33.544C73.8367 33.1847 73.7157 32.9097 73.4737 32.719C73.2317 32.5283 72.876 32.433 72.4067 32.433C71.622 32.433 71.0207 32.7007 70.6027 33.236L69.6017 32.466C69.9023 32.0627 70.3057 31.751 70.8117 31.531C71.325 31.3037 71.897 31.19 72.5277 31.19C73.3637 31.19 74.031 31.388 74.5297 31.784C75.0283 32.18 75.2777 32.719 75.2777 33.401C75.2777 33.819 75.1897 34.2113 75.0137 34.578C74.8377 34.9447 74.5003 35.3627 74.0017 35.832L71.9447 37.79H75.5747ZM78.809 34.281C79.8943 34.281 80.6973 34.4937 81.218 34.919C81.7387 35.337 81.999 35.909 81.999 36.635C81.999 37.097 81.8853 37.515 81.658 37.889C81.4307 38.263 81.0897 38.56 80.635 38.78C80.1803 39 79.6193 39.11 78.952 39.11C78.402 39.11 77.8703 39.033 77.357 38.879C76.8437 38.7177 76.411 38.4977 76.059 38.219L76.664 37.108C76.95 37.3427 77.291 37.5297 77.687 37.669C78.0903 37.801 78.5047 37.867 78.93 37.867C79.436 37.867 79.832 37.7643 80.118 37.559C80.4113 37.3463 80.558 37.0567 80.558 36.69C80.558 36.294 80.4003 35.997 80.085 35.799C79.777 35.5937 79.2453 35.491 78.49 35.491H76.631L77.027 31.3H81.548V32.499H78.237L78.072 34.281H78.809ZM94.4809 37.79V39H88.8049V38.043L91.8629 35.139C92.2076 34.809 92.4386 34.523 92.5559 34.281C92.6806 34.0317 92.7429 33.786 92.7429 33.544C92.7429 33.1847 92.6219 32.9097 92.3799 32.719C92.1379 32.5283 91.7823 32.433 91.3129 32.433C90.5283 32.433 89.9269 32.7007 89.5089 33.236L88.5079 32.466C88.8086 32.0627 89.2119 31.751 89.7179 31.531C90.2313 31.3037 90.8033 31.19 91.4339 31.19C92.2699 31.19 92.9373 31.388 93.4359 31.784C93.9346 32.18 94.1839 32.719 94.1839 33.401C94.1839 33.819 94.0959 34.2113 93.9199 34.578C93.7439 34.9447 93.4066 35.3627 92.9079 35.832L90.8509 37.79H94.4809ZM100.883 37.79V39H95.2073V38.043L98.2653 35.139C98.6099 34.809 98.8409 34.523 98.9583 34.281C99.0829 34.0317 99.1453 33.786 99.1453 33.544C99.1453 33.1847 99.0243 32.9097 98.7823 32.719C98.5403 32.5283 98.1846 32.433 97.7153 32.433C96.9306 32.433 96.3293 32.7007 95.9113 33.236L94.9103 32.466C95.2109 32.0627 95.6143 31.751 96.1203 31.531C96.6336 31.3037 97.2056 31.19 97.8363 31.19C98.6723 31.19 99.3396 31.388 99.8383 31.784C100.337 32.18 100.586 32.719 100.586 33.401C100.586 33.819 100.498 34.2113 100.322 34.578C100.146 34.9447 99.8089 35.3627 99.3103 35.832L97.2533 37.79H100.883ZM104.118 34.281C105.203 34.281 106.006 34.4937 106.527 34.919C107.047 35.337 107.308 35.909 107.308 36.635C107.308 37.097 107.194 37.515 106.967 37.889C106.739 38.263 106.398 38.56 105.944 38.78C105.489 39 104.928 39.11 104.261 39.11C103.711 39.11 103.179 39.033 102.666 38.879C102.152 38.7177 101.72 38.4977 101.368 38.219L101.973 37.108C102.259 37.3427 102.6 37.5297 102.996 37.669C103.399 37.801 103.813 37.867 104.239 37.867C104.745 37.867 105.141 37.7643 105.427 37.559C105.72 37.3463 105.867 37.0567 105.867 36.69C105.867 36.294 105.709 35.997 105.394 35.799C105.086 35.5937 104.554 35.491 103.799 35.491H101.94L102.336 31.3H106.857V32.499H103.546L103.381 34.281H104.118ZM119.79 37.79V39H114.114V38.043L117.172 35.139C117.516 34.809 117.747 34.523 117.865 34.281C117.989 34.0317 118.052 33.786 118.052 33.544C118.052 33.1847 117.931 32.9097 117.689 32.719C117.447 32.5283 117.091 32.433 116.622 32.433C115.837 32.433 115.236 32.7007 114.818 33.236L113.817 32.466C114.117 32.0627 114.521 31.751 115.027 31.531C115.54 31.3037 116.112 31.19 116.743 31.19C117.579 31.19 118.246 31.388 118.745 31.784C119.243 32.18 119.493 32.719 119.493 33.401C119.493 33.819 119.405 34.2113 119.229 34.578C119.053 34.9447 118.715 35.3627 118.217 35.832L116.16 37.79H119.79ZM126.192 37.79V39H120.516V38.043L123.574 35.139C123.919 34.809 124.15 34.523 124.267 34.281C124.392 34.0317 124.454 33.786 124.454 33.544C124.454 33.1847 124.333 32.9097 124.091 32.719C123.849 32.5283 123.493 32.433 123.024 32.433C122.239 32.433 121.638 32.7007 121.22 33.236L120.219 32.466C120.52 32.0627 120.923 31.751 121.429 31.531C121.942 31.3037 122.514 31.19 123.145 31.19C123.981 31.19 124.648 31.388 125.147 31.784C125.646 32.18 125.895 32.719 125.895 33.401C125.895 33.819 125.807 34.2113 125.631 34.578C125.455 34.9447 125.118 35.3627 124.619 35.832L122.562 37.79H126.192ZM129.426 34.281C130.512 34.281 131.315 34.4937 131.835 34.919C132.356 35.337 132.616 35.909 132.616 36.635C132.616 37.097 132.503 37.515 132.275 37.889C132.048 38.263 131.707 38.56 131.252 38.78C130.798 39 130.237 39.11 129.569 39.11C129.019 39.11 128.488 39.033 127.974 38.879C127.461 38.7177 127.028 38.4977 126.676 38.219L127.281 37.108C127.567 37.3427 127.908 37.5297 128.304 37.669C128.708 37.801 129.122 37.867 129.547 37.867C130.053 37.867 130.449 37.7643 130.735 37.559C131.029 37.3463 131.175 37.0567 131.175 36.69C131.175 36.294 131.018 35.997 130.702 35.799C130.394 35.5937 129.863 35.491 129.107 35.491H127.248L127.644 31.3H132.165V32.499H128.854L128.689 34.281H129.426ZM27.598 57.11C26.8207 57.11 26.1167 56.9413 25.486 56.604C24.8627 56.2593 24.3713 55.7863 24.012 55.185C23.66 54.5837 23.484 53.9053 23.484 53.15C23.484 52.3947 23.6637 51.7163 24.023 51.115C24.3823 50.5137 24.8737 50.0443 25.497 49.707C26.1277 49.3623 26.8317 49.19 27.609 49.19C28.2397 49.19 28.8153 49.3 29.336 49.52C29.8567 49.74 30.2967 50.059 30.656 50.477L29.732 51.346C29.1747 50.7447 28.489 50.444 27.675 50.444C27.147 50.444 26.674 50.5613 26.256 50.796C25.838 51.0233 25.5117 51.3423 25.277 51.753C25.0423 52.1637 24.925 52.6293 24.925 53.15C24.925 53.6707 25.0423 54.1363 25.277 54.547C25.5117 54.9577 25.838 55.2803 26.256 55.515C26.674 55.7423 27.147 55.856 27.675 55.856C28.489 55.856 29.1747 55.5517 29.732 54.943L30.656 55.823C30.2967 56.241 29.853 56.56 29.325 56.78C28.8043 57 28.2287 57.11 27.598 57.11ZM39.0992 57L39.0882 51.896L36.5582 56.12H35.9202L33.3902 51.962V57H32.0262V49.3H33.2032L36.2612 54.404L39.2642 49.3H40.4412L40.4522 57H39.0992ZM45.854 54.283V57H44.424V54.305L41.399 49.3H42.928L45.183 53.051L47.46 49.3H48.868L45.854 54.283ZM52.3481 53.777L51.1271 55.031V57H49.6971V49.3H51.1271V53.249L54.9331 49.3H56.5391L53.3051 52.743L56.7371 57H55.0651L52.3481 53.777ZM68.2348 52.952C68.6382 53.1353 68.9462 53.3847 69.1588 53.7C69.3788 54.008 69.4888 54.371 69.4888 54.789C69.4888 55.2583 69.3568 55.669 69.0928 56.021C68.8362 56.373 68.4695 56.6443 67.9928 56.835C67.5162 57.0183 66.9625 57.11 66.3318 57.11C65.7012 57.11 65.1475 57.0183 64.6708 56.835C64.2015 56.6443 63.8385 56.373 63.5818 56.021C63.3252 55.669 63.1968 55.2583 63.1968 54.789C63.1968 54.371 63.3032 54.008 63.5158 53.7C63.7285 53.3847 64.0328 53.1353 64.4288 52.952C64.1208 52.7833 63.8825 52.5633 63.7138 52.292C63.5525 52.0133 63.4718 51.6943 63.4718 51.335C63.4718 50.9023 63.5892 50.5247 63.8238 50.202C64.0658 49.8793 64.4032 49.63 64.8358 49.454C65.2685 49.278 65.7672 49.19 66.3318 49.19C66.9038 49.19 67.4062 49.278 67.8388 49.454C68.2715 49.63 68.6088 49.8793 68.8508 50.202C69.0928 50.5247 69.2138 50.9023 69.2138 51.335C69.2138 51.6943 69.1295 52.0097 68.9608 52.281C68.7922 52.5523 68.5502 52.776 68.2348 52.952ZM66.3318 50.312C65.8845 50.312 65.5288 50.4073 65.2648 50.598C65.0082 50.7887 64.8798 51.0563 64.8798 51.401C64.8798 51.731 65.0082 51.995 65.2648 52.193C65.5288 52.3837 65.8845 52.479 66.3318 52.479C66.7865 52.479 67.1458 52.3837 67.4098 52.193C67.6738 51.995 67.8058 51.731 67.8058 51.401C67.8058 51.0563 67.6702 50.7887 67.3988 50.598C67.1348 50.4073 66.7792 50.312 66.3318 50.312ZM66.3318 55.988C66.8598 55.988 67.2778 55.878 67.5858 55.658C67.8938 55.438 68.0478 55.1337 68.0478 54.745C68.0478 54.3637 67.8938 54.063 67.5858 53.843C67.2778 53.623 66.8598 53.513 66.3318 53.513C65.8038 53.513 65.3895 53.623 65.0888 53.843C64.7882 54.063 64.6378 54.3637 64.6378 54.745C64.6378 55.1337 64.7882 55.438 65.0888 55.658C65.3895 55.878 65.8038 55.988 66.3318 55.988ZM76.2246 49.3V50.257L73.2326 57H71.7036L74.5966 50.51H71.5716V51.819H70.2406V49.3H76.2246ZM88.9971 49.3V50.257L86.0051 57H84.4761L87.3691 50.51H84.3441V51.819H83.0131V49.3H88.9971ZM94.6821 52.952C95.0854 53.1353 95.3934 53.3847 95.6061 53.7C95.8261 54.008 95.9361 54.371 95.9361 54.789C95.9361 55.2583 95.8041 55.669 95.5401 56.021C95.2834 56.373 94.9168 56.6443 94.4401 56.835C93.9634 57.0183 93.4098 57.11 92.7791 57.11C92.1484 57.11 91.5948 57.0183 91.1181 56.835C90.6488 56.6443 90.2858 56.373 90.0291 56.021C89.7724 55.669 89.6441 55.2583 89.6441 54.789C89.6441 54.371 89.7504 54.008 89.9631 53.7C90.1758 53.3847 90.4801 53.1353 90.8761 52.952C90.5681 52.7833 90.3298 52.5633 90.1611 52.292C89.9998 52.0133 89.9191 51.6943 89.9191 51.335C89.9191 50.9023 90.0364 50.5247 90.2711 50.202C90.5131 49.8793 90.8504 49.63 91.2831 49.454C91.7158 49.278 92.2144 49.19 92.7791 49.19C93.3511 49.19 93.8534 49.278 94.2861 49.454C94.7188 49.63 95.0561 49.8793 95.2981 50.202C95.5401 50.5247 95.6611 50.9023 95.6611 51.335C95.6611 51.6943 95.5768 52.0097 95.4081 52.281C95.2394 52.5523 94.9974 52.776 94.6821 52.952ZM92.7791 50.312C92.3318 50.312 91.9761 50.4073 91.7121 50.598C91.4554 50.7887 91.3271 51.0563 91.3271 51.401C91.3271 51.731 91.4554 51.995 91.7121 52.193C91.9761 52.3837 92.3318 52.479 92.7791 52.479C93.2338 52.479 93.5931 52.3837 93.8571 52.193C94.1211 51.995 94.2531 51.731 94.2531 51.401C94.2531 51.0563 94.1174 50.7887 93.8461 50.598C93.5821 50.4073 93.2264 50.312 92.7791 50.312ZM92.7791 55.988C93.3071 55.988 93.7251 55.878 94.0331 55.658C94.3411 55.438 94.4951 55.1337 94.4951 54.745C94.4951 54.3637 94.3411 54.063 94.0331 53.843C93.7251 53.623 93.3071 53.513 92.7791 53.513C92.2511 53.513 91.8368 53.623 91.5361 53.843C91.2354 54.063 91.0851 54.3637 91.0851 54.745C91.0851 55.1337 91.2354 55.438 91.5361 55.658C91.8368 55.878 92.2511 55.988 92.7791 55.988ZM106.156 57.11C105.54 57.11 104.99 56.956 104.506 56.648C104.022 56.3327 103.641 55.878 103.362 55.284C103.083 54.6827 102.944 53.9713 102.944 53.15C102.944 52.3287 103.083 51.621 103.362 51.027C103.641 50.4257 104.022 49.971 104.506 49.663C104.99 49.3477 105.54 49.19 106.156 49.19C106.772 49.19 107.322 49.3477 107.806 49.663C108.297 49.971 108.682 50.4257 108.961 51.027C109.24 51.621 109.379 52.3287 109.379 53.15C109.379 53.9713 109.24 54.6827 108.961 55.284C108.682 55.878 108.297 56.3327 107.806 56.648C107.322 56.956 106.772 57.11 106.156 57.11ZM106.156 55.867C106.706 55.867 107.139 55.6397 107.454 55.185C107.777 54.7303 107.938 54.052 107.938 53.15C107.938 52.248 107.777 51.5697 107.454 51.115C107.139 50.6603 106.706 50.433 106.156 50.433C105.613 50.433 105.181 50.6603 104.858 51.115C104.543 51.5697 104.385 52.248 104.385 53.15C104.385 54.052 104.543 54.7303 104.858 55.185C105.181 55.6397 105.613 55.867 106.156 55.867ZM119.637 57.11C119.021 57.11 118.471 56.956 117.987 56.648C117.503 56.3327 117.122 55.878 116.843 55.284C116.565 54.6827 116.425 53.9713 116.425 53.15C116.425 52.3287 116.565 51.621 116.843 51.027C117.122 50.4257 117.503 49.971 117.987 49.663C118.471 49.3477 119.021 49.19 119.637 49.19C120.253 49.19 120.803 49.3477 121.287 49.663C121.779 49.971 122.164 50.4257 122.442 51.027C122.721 51.621 122.86 52.3287 122.86 53.15C122.86 53.9713 122.721 54.6827 122.442 55.284C122.164 55.878 121.779 56.3327 121.287 56.648C120.803 56.956 120.253 57.11 119.637 57.11ZM119.637 55.867C120.187 55.867 120.62 55.6397 120.935 55.185C121.258 54.7303 121.419 54.052 121.419 53.15C121.419 52.248 121.258 51.5697 120.935 51.115C120.62 50.6603 120.187 50.433 119.637 50.433C119.095 50.433 118.662 50.6603 118.339 51.115C118.024 51.5697 117.866 52.248 117.866 53.15C117.866 54.052 118.024 54.7303 118.339 55.185C118.662 55.6397 119.095 55.867 119.637 55.867ZM30.876 67.3V75H29.446V71.7H25.464V75H24.034V67.3H25.464V70.479H29.446V67.3H30.876ZM38.7143 73.801V75H32.9393V67.3H38.5603V68.499H34.3693V70.501H38.0873V71.678H34.3693V73.801H38.7143ZM45.0735 75L42.9835 72.074L40.9155 75H39.2875L42.1475 71.073L39.4415 67.3H41.0585L43.0275 70.039L44.9745 67.3H46.5255L43.8305 71.018L46.7235 75H45.0735ZM64.4796 68.499V70.842H68.1976V72.052H64.4796V75H63.0496V67.3H68.6706V68.499H64.4796ZM71.4835 68.499V70.842H75.2015V72.052H71.4835V75H70.0535V67.3H75.6745V68.499H71.4835ZM78.4874 68.499V70.842H82.2054V72.052H78.4874V75H77.0574V67.3H82.6784V68.499H78.4874ZM85.4913 68.499V70.842H89.2093V72.052H85.4913V75H84.0613V67.3H89.6823V68.499H85.4913ZM92.4953 68.499V70.842H96.2133V72.052H92.4953V75H91.0653V67.3H96.6863V68.499H92.4953ZM99.4992 68.499V70.842H103.217V72.052H99.4992V75H98.0692V67.3H103.69V68.499H99.4992Z" fill="black"/>
</svg>
