<svg width="1440" height="820" viewBox="0 0 1440 820" fill="none" xmlns="http://www.w3.org/2000/svg">
<g clip-path="url(#clip0_56_46)">
<rect width="1440" height="820" fill="#020409"/>
<g clip-path="url(#clip1_56_46)">
<rect width="1440" height="820" fill="url(#paint0_linear_56_46)"/>
<g filter="url(#filter0_f_56_46)" style="mix-blend-mode:color-dodge">
<path d="M-69 497C-69 497 211.359 789.625 703.554 789.625C1195.75 789.625 1509 497 1509 497L1395.06 815H89.5831L-69 497Z" fill="#3148B9"/>
</g>
<path d="M484.806 691.22H487.326L492.024 704H489.468L488.28 700.814H483.816L482.646 704H480.09L484.806 691.22ZM487.83 699.068L486.066 693.794L484.23 699.068H487.83ZM496.486 704V691.22H498.97V704H496.486ZM504.408 700.148V697.97H509.862V700.148H504.408ZM515.28 704V691.22H520.698C521.286 691.22 521.826 691.34 522.318 691.58C522.81 691.82 523.236 692.144 523.596 692.552C523.968 692.96 524.256 693.416 524.46 693.92C524.664 694.424 524.766 694.94 524.766 695.468C524.766 696.188 524.598 696.872 524.262 697.52C523.926 698.168 523.464 698.696 522.876 699.104C522.288 699.512 521.592 699.716 520.788 699.716H517.764V704H515.28ZM517.764 697.538H520.644C520.944 697.538 521.214 697.454 521.454 697.286C521.694 697.118 521.886 696.878 522.03 696.566C522.174 696.242 522.246 695.876 522.246 695.468C522.246 695.024 522.162 694.646 521.994 694.334C521.838 694.022 521.628 693.788 521.364 693.632C521.112 693.476 520.836 693.398 520.536 693.398H517.764V697.538ZM533.483 704.18C532.715 704.18 532.025 704.054 531.413 703.802C530.801 703.538 530.279 703.178 529.847 702.722C529.427 702.266 529.103 701.744 528.875 701.156C528.647 700.568 528.533 699.95 528.533 699.302C528.533 698.642 528.647 698.018 528.875 697.43C529.103 696.842 529.427 696.32 529.847 695.864C530.279 695.408 530.801 695.054 531.413 694.802C532.025 694.538 532.715 694.406 533.483 694.406C534.251 694.406 534.935 694.538 535.535 694.802C536.147 695.054 536.669 695.408 537.101 695.864C537.533 696.32 537.857 696.842 538.073 697.43C538.301 698.018 538.415 698.642 538.415 699.302C538.415 699.95 538.301 700.568 538.073 701.156C537.857 701.744 537.533 702.266 537.101 702.722C536.681 703.178 536.165 703.538 535.553 703.802C534.941 704.054 534.251 704.18 533.483 704.18ZM531.017 699.302C531.017 699.854 531.125 700.346 531.341 700.778C531.557 701.198 531.851 701.528 532.223 701.768C532.595 702.008 533.015 702.128 533.483 702.128C533.939 702.128 534.353 702.008 534.725 701.768C535.097 701.516 535.391 701.18 535.607 700.76C535.835 700.328 535.949 699.836 535.949 699.284C535.949 698.744 535.835 698.258 535.607 697.826C535.391 697.394 535.097 697.058 534.725 696.818C534.353 696.578 533.939 696.458 533.483 696.458C533.015 696.458 532.595 696.584 532.223 696.836C531.851 697.076 531.557 697.412 531.341 697.844C531.125 698.264 531.017 698.75 531.017 699.302ZM554.487 694.568H556.773L552.831 704H550.815L549.231 699.95L547.683 704H545.649L541.725 694.568H543.993L546.801 701.696L547.899 698.618L546.261 694.586H548.259L549.231 697.466L550.221 694.586H552.219L550.581 698.618L551.697 701.696L554.487 694.568ZM565.004 704.18C564.248 704.18 563.564 704.054 562.952 703.802C562.34 703.538 561.818 703.184 561.386 702.74C560.954 702.284 560.618 701.768 560.378 701.192C560.15 700.604 560.036 699.986 560.036 699.338C560.036 698.438 560.234 697.616 560.63 696.872C561.038 696.128 561.614 695.534 562.358 695.09C563.114 694.634 564.002 694.406 565.022 694.406C566.054 694.406 566.936 694.634 567.668 695.09C568.4 695.534 568.958 696.128 569.342 696.872C569.738 697.604 569.936 698.396 569.936 699.248C569.936 699.392 569.93 699.542 569.918 699.698C569.906 699.842 569.894 699.962 569.882 700.058H562.592C562.64 700.538 562.778 700.958 563.006 701.318C563.246 701.678 563.546 701.954 563.906 702.146C564.278 702.326 564.674 702.416 565.094 702.416C565.574 702.416 566.024 702.302 566.444 702.074C566.876 701.834 567.17 701.522 567.326 701.138L569.396 701.714C569.168 702.194 568.838 702.62 568.406 702.992C567.986 703.364 567.488 703.658 566.912 703.874C566.336 704.078 565.7 704.18 565.004 704.18ZM562.538 698.528H567.47C567.422 698.048 567.284 697.634 567.056 697.286C566.84 696.926 566.552 696.65 566.192 696.458C565.832 696.254 565.43 696.152 564.986 696.152C564.554 696.152 564.158 696.254 563.798 696.458C563.45 696.65 563.162 696.926 562.934 697.286C562.718 697.634 562.586 698.048 562.538 698.528ZM580.081 696.656C579.349 696.656 578.695 696.8 578.119 697.088C577.543 697.364 577.129 697.766 576.877 698.294V704H574.465V694.568H576.679V696.584C577.015 695.936 577.441 695.426 577.957 695.054C578.473 694.682 579.019 694.478 579.595 694.442C579.727 694.442 579.829 694.442 579.901 694.442C579.973 694.442 580.033 694.448 580.081 694.46V696.656ZM588.737 704.18C587.981 704.18 587.297 704.054 586.685 703.802C586.073 703.538 585.551 703.184 585.119 702.74C584.687 702.284 584.351 701.768 584.111 701.192C583.883 700.604 583.769 699.986 583.769 699.338C583.769 698.438 583.967 697.616 584.363 696.872C584.771 696.128 585.347 695.534 586.091 695.09C586.847 694.634 587.735 694.406 588.755 694.406C589.787 694.406 590.669 694.634 591.401 695.09C592.133 695.534 592.691 696.128 593.075 696.872C593.471 697.604 593.669 698.396 593.669 699.248C593.669 699.392 593.663 699.542 593.651 699.698C593.639 699.842 593.627 699.962 593.615 700.058H586.325C586.373 700.538 586.511 700.958 586.739 701.318C586.979 701.678 587.279 701.954 587.639 702.146C588.011 702.326 588.407 702.416 588.827 702.416C589.307 702.416 589.757 702.302 590.177 702.074C590.609 701.834 590.903 701.522 591.059 701.138L593.129 701.714C592.901 702.194 592.571 702.62 592.139 702.992C591.719 703.364 591.221 703.658 590.645 703.874C590.069 704.078 589.433 704.18 588.737 704.18ZM586.271 698.528H591.203C591.155 698.048 591.017 697.634 590.789 697.286C590.573 696.926 590.285 696.65 589.925 696.458C589.565 696.254 589.163 696.152 588.719 696.152C588.287 696.152 587.891 696.254 587.531 696.458C587.183 696.65 586.895 696.926 586.667 697.286C586.451 697.634 586.319 698.048 586.271 698.528ZM597.623 699.284C597.623 698.372 597.803 697.55 598.163 696.818C598.523 696.074 599.021 695.486 599.657 695.054C600.293 694.622 601.019 694.406 601.835 694.406C602.531 694.406 603.155 694.58 603.707 694.928C604.271 695.264 604.709 695.696 605.021 696.224V690.86H607.433V701.3C607.433 701.552 607.475 701.732 607.559 701.84C607.643 701.948 607.787 702.014 607.991 702.038V704C607.571 704.084 607.229 704.126 606.965 704.126C606.533 704.126 606.173 704.018 605.885 703.802C605.609 703.586 605.453 703.304 605.417 702.956L605.381 702.362C605.033 702.95 604.559 703.4 603.959 703.712C603.371 704.024 602.753 704.18 602.105 704.18C601.457 704.18 600.857 704.054 600.305 703.802C599.765 703.55 599.291 703.202 598.883 702.758C598.487 702.314 598.175 701.798 597.947 701.21C597.731 700.61 597.623 699.968 597.623 699.284ZM605.021 700.544V698.294C604.901 697.946 604.709 697.634 604.445 697.358C604.181 697.082 603.887 696.866 603.563 696.71C603.239 696.542 602.915 696.458 602.591 696.458C602.219 696.458 601.883 696.536 601.583 696.692C601.283 696.848 601.019 697.058 600.791 697.322C600.575 697.586 600.407 697.892 600.287 698.24C600.179 698.588 600.125 698.954 600.125 699.338C600.125 699.722 600.185 700.088 600.305 700.436C600.437 700.772 600.623 701.066 600.863 701.318C601.103 701.57 601.379 701.768 601.691 701.912C602.015 702.056 602.363 702.128 602.735 702.128C602.963 702.128 603.191 702.092 603.419 702.02C603.659 701.936 603.881 701.828 604.085 701.696C604.301 701.552 604.487 701.384 604.643 701.192C604.811 700.988 604.937 700.772 605.021 700.544ZM620.478 704V691.22H622.962V701.822H629.478V704H620.478ZM638.12 704.18C637.364 704.18 636.68 704.054 636.068 703.802C635.456 703.538 634.934 703.184 634.502 702.74C634.07 702.284 633.734 701.768 633.494 701.192C633.266 700.604 633.152 699.986 633.152 699.338C633.152 698.438 633.35 697.616 633.746 696.872C634.154 696.128 634.73 695.534 635.474 695.09C636.23 694.634 637.118 694.406 638.138 694.406C639.17 694.406 640.052 694.634 640.784 695.09C641.516 695.534 642.074 696.128 642.458 696.872C642.854 697.604 643.052 698.396 643.052 699.248C643.052 699.392 643.046 699.542 643.034 699.698C643.022 699.842 643.01 699.962 642.998 700.058H635.708C635.756 700.538 635.894 700.958 636.122 701.318C636.362 701.678 636.662 701.954 637.022 702.146C637.394 702.326 637.79 702.416 638.21 702.416C638.69 702.416 639.14 702.302 639.56 702.074C639.992 701.834 640.286 701.522 640.442 701.138L642.512 701.714C642.284 702.194 641.954 702.62 641.522 702.992C641.102 703.364 640.604 703.658 640.028 703.874C639.452 704.078 638.816 704.18 638.12 704.18ZM635.654 698.528H640.586C640.538 698.048 640.4 697.634 640.172 697.286C639.956 696.926 639.668 696.65 639.308 696.458C638.948 696.254 638.546 696.152 638.102 696.152C637.67 696.152 637.274 696.254 636.914 696.458C636.566 696.65 636.278 696.926 636.05 697.286C635.834 697.634 635.702 698.048 635.654 698.528ZM646.933 701.21C646.933 700.598 647.101 700.064 647.437 699.608C647.785 699.14 648.265 698.78 648.877 698.528C649.489 698.276 650.191 698.15 650.983 698.15C651.379 698.15 651.781 698.18 652.189 698.24C652.597 698.3 652.951 698.396 653.251 698.528V698.024C653.251 697.424 653.071 696.962 652.711 696.638C652.363 696.314 651.841 696.152 651.145 696.152C650.629 696.152 650.137 696.242 649.669 696.422C649.201 696.602 648.709 696.866 648.193 697.214L647.419 695.63C648.043 695.222 648.679 694.916 649.327 694.712C649.987 694.508 650.677 694.406 651.397 694.406C652.741 694.406 653.785 694.742 654.529 695.414C655.285 696.086 655.663 697.046 655.663 698.294V701.3C655.663 701.552 655.705 701.732 655.789 701.84C655.885 701.948 656.035 702.014 656.239 702.038V704C656.023 704.036 655.825 704.066 655.645 704.09C655.477 704.114 655.333 704.126 655.213 704.126C654.733 704.126 654.367 704.018 654.115 703.802C653.875 703.586 653.725 703.322 653.665 703.01L653.611 702.524C653.203 703.052 652.693 703.46 652.081 703.748C651.469 704.036 650.845 704.18 650.209 704.18C649.585 704.18 649.021 704.054 648.517 703.802C648.025 703.538 647.635 703.184 647.347 702.74C647.071 702.284 646.933 701.774 646.933 701.21ZM652.801 701.696C652.933 701.552 653.041 701.408 653.125 701.264C653.209 701.12 653.251 700.988 653.251 700.868V699.914C652.963 699.794 652.651 699.704 652.315 699.644C651.979 699.572 651.661 699.536 651.361 699.536C650.737 699.536 650.221 699.674 649.813 699.95C649.417 700.214 649.219 700.568 649.219 701.012C649.219 701.252 649.285 701.48 649.417 701.696C649.549 701.912 649.741 702.086 649.993 702.218C650.245 702.35 650.545 702.416 650.893 702.416C651.253 702.416 651.607 702.35 651.955 702.218C652.303 702.074 652.585 701.9 652.801 701.696ZM660.401 699.284C660.401 698.372 660.581 697.55 660.941 696.818C661.301 696.074 661.799 695.486 662.435 695.054C663.071 694.622 663.797 694.406 664.613 694.406C665.309 694.406 665.933 694.58 666.485 694.928C667.049 695.264 667.487 695.696 667.799 696.224V690.86H670.211V701.3C670.211 701.552 670.253 701.732 670.337 701.84C670.421 701.948 670.565 702.014 670.769 702.038V704C670.349 704.084 670.007 704.126 669.743 704.126C669.311 704.126 668.951 704.018 668.663 703.802C668.387 703.586 668.231 703.304 668.195 702.956L668.159 702.362C667.811 702.95 667.337 703.4 666.737 703.712C666.149 704.024 665.531 704.18 664.883 704.18C664.235 704.18 663.635 704.054 663.083 703.802C662.543 703.55 662.069 703.202 661.661 702.758C661.265 702.314 660.953 701.798 660.725 701.21C660.509 700.61 660.401 699.968 660.401 699.284ZM667.799 700.544V698.294C667.679 697.946 667.487 697.634 667.223 697.358C666.959 697.082 666.665 696.866 666.341 696.71C666.017 696.542 665.693 696.458 665.369 696.458C664.997 696.458 664.661 696.536 664.361 696.692C664.061 696.848 663.797 697.058 663.569 697.322C663.353 697.586 663.185 697.892 663.065 698.24C662.957 698.588 662.903 698.954 662.903 699.338C662.903 699.722 662.963 700.088 663.083 700.436C663.215 700.772 663.401 701.066 663.641 701.318C663.881 701.57 664.157 701.768 664.469 701.912C664.793 702.056 665.141 702.128 665.513 702.128C665.741 702.128 665.969 702.092 666.197 702.02C666.437 701.936 666.659 701.828 666.863 701.696C667.079 701.552 667.265 701.384 667.421 701.192C667.589 700.988 667.715 700.772 667.799 700.544ZM693.679 704V695.612L690.403 701.858H689.017L685.741 695.612V704H683.257V691.22H685.921L689.701 698.492L693.517 691.22H696.163V704H693.679ZM700.904 701.21C700.904 700.598 701.072 700.064 701.408 699.608C701.756 699.14 702.236 698.78 702.848 698.528C703.46 698.276 704.162 698.15 704.954 698.15C705.35 698.15 705.752 698.18 706.16 698.24C706.568 698.3 706.922 698.396 707.222 698.528V698.024C707.222 697.424 707.042 696.962 706.682 696.638C706.334 696.314 705.812 696.152 705.116 696.152C704.6 696.152 704.108 696.242 703.64 696.422C703.172 696.602 702.68 696.866 702.164 697.214L701.39 695.63C702.014 695.222 702.65 694.916 703.298 694.712C703.958 694.508 704.648 694.406 705.368 694.406C706.712 694.406 707.756 694.742 708.5 695.414C709.256 696.086 709.634 697.046 709.634 698.294V701.3C709.634 701.552 709.676 701.732 709.76 701.84C709.856 701.948 710.006 702.014 710.21 702.038V704C709.994 704.036 709.796 704.066 709.616 704.09C709.448 704.114 709.304 704.126 709.184 704.126C708.704 704.126 708.338 704.018 708.086 703.802C707.846 703.586 707.696 703.322 707.636 703.01L707.582 702.524C707.174 703.052 706.664 703.46 706.052 703.748C705.44 704.036 704.816 704.18 704.18 704.18C703.556 704.18 702.992 704.054 702.488 703.802C701.996 703.538 701.606 703.184 701.318 702.74C701.042 702.284 700.904 701.774 700.904 701.21ZM706.772 701.696C706.904 701.552 707.012 701.408 707.096 701.264C707.18 701.12 707.222 700.988 707.222 700.868V699.914C706.934 699.794 706.622 699.704 706.286 699.644C705.95 699.572 705.632 699.536 705.332 699.536C704.708 699.536 704.192 699.674 703.784 699.95C703.388 700.214 703.19 700.568 703.19 701.012C703.19 701.252 703.256 701.48 703.388 701.696C703.52 701.912 703.712 702.086 703.964 702.218C704.216 702.35 704.516 702.416 704.864 702.416C705.224 702.416 705.578 702.35 705.926 702.218C706.274 702.074 706.556 701.9 706.772 701.696ZM723.714 704H721.302V698.708C721.302 697.952 721.17 697.4 720.906 697.052C720.642 696.704 720.276 696.53 719.808 696.53C719.484 696.53 719.154 696.614 718.818 696.782C718.494 696.95 718.2 697.184 717.936 697.484C717.672 697.772 717.48 698.108 717.36 698.492V704H714.948V694.568H717.126V696.314C717.366 695.906 717.672 695.564 718.044 695.288C718.416 695 718.842 694.784 719.322 694.64C719.814 694.484 720.33 694.406 720.87 694.406C721.458 694.406 721.938 694.514 722.31 694.73C722.694 694.934 722.982 695.216 723.174 695.576C723.378 695.924 723.516 696.32 723.588 696.764C723.672 697.208 723.714 697.658 723.714 698.114V704ZM728.223 701.21C728.223 700.598 728.391 700.064 728.727 699.608C729.075 699.14 729.555 698.78 730.167 698.528C730.779 698.276 731.481 698.15 732.273 698.15C732.669 698.15 733.071 698.18 733.479 698.24C733.887 698.3 734.241 698.396 734.541 698.528V698.024C734.541 697.424 734.361 696.962 734.001 696.638C733.653 696.314 733.131 696.152 732.435 696.152C731.919 696.152 731.427 696.242 730.959 696.422C730.491 696.602 729.999 696.866 729.483 697.214L728.709 695.63C729.333 695.222 729.969 694.916 730.617 694.712C731.277 694.508 731.967 694.406 732.687 694.406C734.031 694.406 735.075 694.742 735.819 695.414C736.575 696.086 736.953 697.046 736.953 698.294V701.3C736.953 701.552 736.995 701.732 737.079 701.84C737.175 701.948 737.325 702.014 737.529 702.038V704C737.313 704.036 737.115 704.066 736.935 704.09C736.767 704.114 736.623 704.126 736.503 704.126C736.023 704.126 735.657 704.018 735.405 703.802C735.165 703.586 735.015 703.322 734.955 703.01L734.901 702.524C734.493 703.052 733.983 703.46 733.371 703.748C732.759 704.036 732.135 704.18 731.499 704.18C730.875 704.18 730.311 704.054 729.807 703.802C729.315 703.538 728.925 703.184 728.637 702.74C728.361 702.284 728.223 701.774 728.223 701.21ZM734.091 701.696C734.223 701.552 734.331 701.408 734.415 701.264C734.499 701.12 734.541 700.988 734.541 700.868V699.914C734.253 699.794 733.941 699.704 733.605 699.644C733.269 699.572 732.951 699.536 732.651 699.536C732.027 699.536 731.511 699.674 731.103 699.95C730.707 700.214 730.509 700.568 730.509 701.012C730.509 701.252 730.575 701.48 730.707 701.696C730.839 701.912 731.031 702.086 731.283 702.218C731.535 702.35 731.835 702.416 732.183 702.416C732.543 702.416 732.897 702.35 733.245 702.218C733.593 702.074 733.875 701.9 734.091 701.696ZM745.957 704.054C745.333 704.054 744.757 703.934 744.229 703.694C743.713 703.442 743.263 703.094 742.879 702.65C742.507 702.206 742.219 701.696 742.015 701.12C741.811 700.544 741.709 699.932 741.709 699.284C741.709 698.6 741.817 697.964 742.033 697.376C742.249 696.788 742.549 696.272 742.933 695.828C743.329 695.372 743.791 695.024 744.319 694.784C744.859 694.532 745.453 694.406 746.101 694.406C746.833 694.406 747.475 694.574 748.027 694.91C748.579 695.234 749.035 695.672 749.395 696.224V694.568H751.501V703.55C751.501 704.486 751.273 705.284 750.817 705.944C750.373 706.616 749.755 707.126 748.963 707.474C748.171 707.834 747.271 708.014 746.263 708.014C745.243 708.014 744.379 707.84 743.671 707.492C742.963 707.156 742.357 706.676 741.853 706.052L743.167 704.774C743.527 705.218 743.977 705.566 744.517 705.818C745.069 706.07 745.651 706.196 746.263 706.196C746.779 706.196 747.247 706.1 747.667 705.908C748.099 705.728 748.441 705.44 748.693 705.044C748.957 704.66 749.089 704.162 749.089 703.55V702.362C748.777 702.902 748.333 703.322 747.757 703.622C747.193 703.91 746.593 704.054 745.957 704.054ZM746.767 702.128C747.031 702.128 747.283 702.086 747.523 702.002C747.763 701.918 747.985 701.804 748.189 701.66C748.393 701.516 748.573 701.348 748.729 701.156C748.885 700.952 749.005 700.748 749.089 700.544V698.294C748.945 697.922 748.741 697.598 748.477 697.322C748.225 697.046 747.937 696.836 747.613 696.692C747.301 696.536 746.971 696.458 746.623 696.458C746.251 696.458 745.915 696.536 745.615 696.692C745.315 696.848 745.057 697.07 744.841 697.358C744.625 697.634 744.457 697.946 744.337 698.294C744.229 698.63 744.175 698.984 744.175 699.356C744.175 699.74 744.241 700.1 744.373 700.436C744.505 700.772 744.685 701.066 744.913 701.318C745.153 701.57 745.429 701.768 745.741 701.912C746.065 702.056 746.407 702.128 746.767 702.128ZM761.109 704.18C760.353 704.18 759.669 704.054 759.057 703.802C758.445 703.538 757.923 703.184 757.491 702.74C757.059 702.284 756.723 701.768 756.483 701.192C756.255 700.604 756.141 699.986 756.141 699.338C756.141 698.438 756.339 697.616 756.735 696.872C757.143 696.128 757.719 695.534 758.463 695.09C759.219 694.634 760.107 694.406 761.127 694.406C762.159 694.406 763.041 694.634 763.773 695.09C764.505 695.534 765.063 696.128 765.447 696.872C765.843 697.604 766.041 698.396 766.041 699.248C766.041 699.392 766.035 699.542 766.023 699.698C766.011 699.842 765.999 699.962 765.987 700.058H758.697C758.745 700.538 758.883 700.958 759.111 701.318C759.351 701.678 759.651 701.954 760.011 702.146C760.383 702.326 760.779 702.416 761.199 702.416C761.679 702.416 762.129 702.302 762.549 702.074C762.981 701.834 763.275 701.522 763.431 701.138L765.501 701.714C765.273 702.194 764.943 702.62 764.511 702.992C764.091 703.364 763.593 703.658 763.017 703.874C762.441 704.078 761.805 704.18 761.109 704.18ZM758.643 698.528H763.575C763.527 698.048 763.389 697.634 763.161 697.286C762.945 696.926 762.657 696.65 762.297 696.458C761.937 696.254 761.535 696.152 761.091 696.152C760.659 696.152 760.263 696.254 759.903 696.458C759.555 696.65 759.267 696.926 759.039 697.286C758.823 697.634 758.691 698.048 758.643 698.528ZM785.222 704H782.81V698.708C782.81 697.964 782.678 697.418 782.414 697.07C782.162 696.71 781.808 696.53 781.352 696.53C780.884 696.53 780.434 696.716 780.002 697.088C779.582 697.448 779.282 697.922 779.102 698.51V704H776.69V698.708C776.69 697.952 776.558 697.4 776.294 697.052C776.042 696.704 775.688 696.53 775.232 696.53C774.764 696.53 774.314 696.71 773.882 697.07C773.462 697.43 773.162 697.904 772.982 698.492V704H770.57V694.568H772.748V696.314C773.108 695.702 773.588 695.234 774.188 694.91C774.788 694.574 775.478 694.406 776.258 694.406C777.038 694.406 777.644 694.598 778.076 694.982C778.52 695.366 778.802 695.84 778.922 696.404C779.306 695.756 779.792 695.264 780.38 694.928C780.98 694.58 781.652 694.406 782.396 694.406C782.984 694.406 783.458 694.514 783.818 694.73C784.19 694.934 784.478 695.216 784.682 695.576C784.886 695.924 785.024 696.32 785.096 696.764C785.18 697.208 785.222 697.658 785.222 698.114V704ZM794.756 704.18C794 704.18 793.316 704.054 792.704 703.802C792.092 703.538 791.57 703.184 791.138 702.74C790.706 702.284 790.37 701.768 790.13 701.192C789.902 700.604 789.788 699.986 789.788 699.338C789.788 698.438 789.986 697.616 790.382 696.872C790.79 696.128 791.366 695.534 792.11 695.09C792.866 694.634 793.754 694.406 794.774 694.406C795.806 694.406 796.688 694.634 797.42 695.09C798.152 695.534 798.71 696.128 799.094 696.872C799.49 697.604 799.688 698.396 799.688 699.248C799.688 699.392 799.682 699.542 799.67 699.698C799.658 699.842 799.646 699.962 799.634 700.058H792.344C792.392 700.538 792.53 700.958 792.758 701.318C792.998 701.678 793.298 701.954 793.658 702.146C794.03 702.326 794.426 702.416 794.846 702.416C795.326 702.416 795.776 702.302 796.196 702.074C796.628 701.834 796.922 701.522 797.078 701.138L799.148 701.714C798.92 702.194 798.59 702.62 798.158 702.992C797.738 703.364 797.24 703.658 796.664 703.874C796.088 704.078 795.452 704.18 794.756 704.18ZM792.29 698.528H797.222C797.174 698.048 797.036 697.634 796.808 697.286C796.592 696.926 796.304 696.65 795.944 696.458C795.584 696.254 795.182 696.152 794.738 696.152C794.306 696.152 793.91 696.254 793.55 696.458C793.202 696.65 792.914 696.926 792.686 697.286C792.47 697.634 792.338 698.048 792.29 698.528ZM812.984 704H810.572V698.708C810.572 697.952 810.44 697.4 810.176 697.052C809.912 696.704 809.546 696.53 809.078 696.53C808.754 696.53 808.424 696.614 808.088 696.782C807.764 696.95 807.47 697.184 807.206 697.484C806.942 697.772 806.75 698.108 806.63 698.492V704H804.218V694.568H806.396V696.314C806.636 695.906 806.942 695.564 807.314 695.288C807.686 695 808.112 694.784 808.592 694.64C809.084 694.484 809.6 694.406 810.14 694.406C810.728 694.406 811.208 694.514 811.58 694.73C811.964 694.934 812.252 695.216 812.444 695.576C812.648 695.924 812.786 696.32 812.858 696.764C812.942 697.208 812.984 697.658 812.984 698.114V704ZM823.74 703.514C823.536 703.598 823.29 703.694 823.002 703.802C822.714 703.91 822.402 703.994 822.066 704.054C821.742 704.126 821.412 704.162 821.076 704.162C820.632 704.162 820.224 704.084 819.852 703.928C819.48 703.772 819.18 703.526 818.952 703.19C818.736 702.842 818.628 702.392 818.628 701.84V696.422H817.386V694.568H818.628V691.508H821.04V694.568H823.02V696.422H821.04V701.03C821.052 701.354 821.142 701.588 821.31 701.732C821.478 701.876 821.688 701.948 821.94 701.948C822.192 701.948 822.438 701.906 822.678 701.822C822.918 701.738 823.11 701.666 823.254 701.606L823.74 703.514ZM843.991 704L837.979 697.628C837.475 697.088 837.067 696.626 836.755 696.242C836.455 695.846 836.239 695.486 836.107 695.162C835.975 694.838 835.909 694.49 835.909 694.118C835.909 693.506 836.059 692.972 836.359 692.516C836.671 692.048 837.091 691.688 837.619 691.436C838.159 691.184 838.759 691.058 839.419 691.058C840.019 691.058 840.571 691.166 841.075 691.382C841.591 691.586 842.011 691.898 842.335 692.318C842.659 692.738 842.821 693.26 842.821 693.884C842.821 694.448 842.677 694.958 842.389 695.414C842.113 695.87 841.741 696.29 841.273 696.674C840.805 697.058 840.277 697.43 839.689 697.79C839.257 698.066 838.861 698.336 838.501 698.6C838.153 698.864 837.877 699.146 837.673 699.446C837.481 699.734 837.385 700.052 837.385 700.4C837.385 700.736 837.481 701.048 837.673 701.336C837.865 701.624 838.129 701.858 838.465 702.038C838.813 702.206 839.197 702.29 839.617 702.29C840.133 702.29 840.631 702.164 841.111 701.912C841.603 701.66 842.041 701.306 842.425 700.85C842.809 700.382 843.109 699.824 843.325 699.176C843.553 698.528 843.667 697.802 843.667 696.998H845.629C845.629 698.138 845.455 699.152 845.107 700.04C844.759 700.916 844.291 701.666 843.703 702.29C843.115 702.902 842.449 703.37 841.705 703.694C840.961 704.018 840.187 704.18 839.383 704.18C838.507 704.18 837.745 704.006 837.097 703.658C836.449 703.298 835.945 702.83 835.585 702.254C835.237 701.678 835.063 701.054 835.063 700.382C835.063 699.71 835.219 699.122 835.531 698.618C835.843 698.114 836.239 697.67 836.719 697.286C837.199 696.89 837.679 696.542 838.159 696.242C838.687 695.906 839.131 695.624 839.491 695.396C839.851 695.156 840.127 694.922 840.319 694.694C840.511 694.454 840.607 694.196 840.607 693.92C840.607 693.596 840.493 693.338 840.265 693.146C840.049 692.942 839.767 692.84 839.419 692.84C839.155 692.84 838.921 692.894 838.717 693.002C838.525 693.11 838.375 693.254 838.267 693.434C838.159 693.614 838.105 693.818 838.105 694.046C838.105 694.214 838.153 694.382 838.249 694.55C838.357 694.718 838.537 694.94 838.789 695.216C839.053 695.48 839.413 695.858 839.869 696.35L847.159 704H843.991ZM861.845 691.22H864.365L869.063 704H866.507L865.319 700.814H860.855L859.685 704H857.129L861.845 691.22ZM864.869 699.068L863.105 693.794L861.269 699.068H864.869ZM882.057 704H879.645V698.708C879.645 697.952 879.513 697.4 879.249 697.052C878.985 696.704 878.619 696.53 878.151 696.53C877.827 696.53 877.497 696.614 877.161 696.782C876.837 696.95 876.543 697.184 876.279 697.484C876.015 697.772 875.823 698.108 875.703 698.492V704H873.291V694.568H875.469V696.314C875.709 695.906 876.015 695.564 876.387 695.288C876.759 695 877.185 694.784 877.665 694.64C878.157 694.484 878.673 694.406 879.213 694.406C879.801 694.406 880.281 694.514 880.653 694.73C881.037 694.934 881.325 695.216 881.517 695.576C881.721 695.924 881.859 696.32 881.931 696.764C882.015 697.208 882.057 697.658 882.057 698.114V704ZM886.566 701.21C886.566 700.598 886.734 700.064 887.07 699.608C887.418 699.14 887.898 698.78 888.51 698.528C889.122 698.276 889.824 698.15 890.616 698.15C891.012 698.15 891.414 698.18 891.822 698.24C892.23 698.3 892.584 698.396 892.884 698.528V698.024C892.884 697.424 892.704 696.962 892.344 696.638C891.996 696.314 891.474 696.152 890.778 696.152C890.262 696.152 889.77 696.242 889.302 696.422C888.834 696.602 888.342 696.866 887.826 697.214L887.052 695.63C887.676 695.222 888.312 694.916 888.96 694.712C889.62 694.508 890.31 694.406 891.03 694.406C892.374 694.406 893.418 694.742 894.162 695.414C894.918 696.086 895.296 697.046 895.296 698.294V701.3C895.296 701.552 895.338 701.732 895.422 701.84C895.518 701.948 895.668 702.014 895.872 702.038V704C895.656 704.036 895.458 704.066 895.278 704.09C895.11 704.114 894.966 704.126 894.846 704.126C894.366 704.126 894 704.018 893.748 703.802C893.508 703.586 893.358 703.322 893.298 703.01L893.244 702.524C892.836 703.052 892.326 703.46 891.714 703.748C891.102 704.036 890.478 704.18 889.842 704.18C889.218 704.18 888.654 704.054 888.15 703.802C887.658 703.538 887.268 703.184 886.98 702.74C886.704 702.284 886.566 701.774 886.566 701.21ZM892.434 701.696C892.566 701.552 892.674 701.408 892.758 701.264C892.842 701.12 892.884 700.988 892.884 700.868V699.914C892.596 699.794 892.284 699.704 891.948 699.644C891.612 699.572 891.294 699.536 890.994 699.536C890.37 699.536 889.854 699.674 889.446 699.95C889.05 700.214 888.852 700.568 888.852 701.012C888.852 701.252 888.918 701.48 889.05 701.696C889.182 701.912 889.374 702.086 889.626 702.218C889.878 702.35 890.178 702.416 890.526 702.416C890.886 702.416 891.24 702.35 891.588 702.218C891.936 702.074 892.218 701.9 892.434 701.696ZM900.592 690.86H903.004V700.976C903.004 701.408 903.076 701.702 903.22 701.858C903.364 702.002 903.562 702.074 903.814 702.074C904.006 702.074 904.204 702.05 904.408 702.002C904.612 701.954 904.792 701.894 904.948 701.822L905.272 703.658C904.948 703.814 904.57 703.934 904.138 704.018C903.706 704.102 903.316 704.144 902.968 704.144C902.212 704.144 901.624 703.946 901.204 703.55C900.796 703.142 900.592 702.566 900.592 701.822V690.86ZM909.124 705.836C909.34 705.884 909.538 705.926 909.718 705.962C909.91 705.998 910.072 706.016 910.204 706.016C910.432 706.016 910.618 705.956 910.762 705.836C910.918 705.728 911.068 705.524 911.212 705.224C911.356 704.936 911.506 704.528 911.662 704L907.936 694.568H910.438L912.976 701.534L915.208 694.568H917.512L913.552 705.872C913.408 706.292 913.186 706.67 912.886 707.006C912.598 707.354 912.232 707.624 911.788 707.816C911.356 708.02 910.87 708.122 910.33 708.122C910.138 708.122 909.946 708.104 909.754 708.068C909.562 708.044 909.352 707.996 909.124 707.924V705.836ZM927.534 703.514C927.33 703.598 927.084 703.694 926.796 703.802C926.508 703.91 926.196 703.994 925.86 704.054C925.536 704.126 925.206 704.162 924.87 704.162C924.426 704.162 924.018 704.084 923.646 703.928C923.274 703.772 922.974 703.526 922.746 703.19C922.53 702.842 922.422 702.392 922.422 701.84V696.422H921.18V694.568H922.422V691.508H924.834V694.568H926.814V696.422H924.834V701.03C924.846 701.354 924.936 701.588 925.104 701.732C925.272 701.876 925.482 701.948 925.734 701.948C925.986 701.948 926.232 701.906 926.472 701.822C926.712 701.738 926.904 701.666 927.048 701.606L927.534 703.514ZM931.85 704V694.568H934.262V704H931.85ZM931.85 693.254V690.86H934.262V693.254H931.85ZM943.89 704.18C943.122 704.18 942.432 704.054 941.82 703.802C941.208 703.538 940.686 703.178 940.254 702.722C939.822 702.254 939.486 701.726 939.246 701.138C939.018 700.55 938.904 699.932 938.904 699.284C938.904 698.396 939.102 697.586 939.498 696.854C939.906 696.11 940.482 695.516 941.226 695.072C941.97 694.628 942.852 694.406 943.872 694.406C944.892 694.406 945.768 694.628 946.5 695.072C947.232 695.516 947.778 696.098 948.138 696.818L945.78 697.538C945.576 697.19 945.306 696.926 944.97 696.746C944.634 696.554 944.262 696.458 943.854 696.458C943.398 696.458 942.978 696.578 942.594 696.818C942.222 697.046 941.928 697.376 941.712 697.808C941.496 698.228 941.388 698.72 941.388 699.284C941.388 699.836 941.496 700.328 941.712 700.76C941.94 701.18 942.24 701.516 942.612 701.768C942.984 702.008 943.398 702.128 943.854 702.128C944.142 702.128 944.412 702.08 944.664 701.984C944.928 701.888 945.162 701.756 945.366 701.588C945.57 701.42 945.72 701.228 945.816 701.012L948.174 701.732C947.958 702.2 947.64 702.62 947.22 702.992C946.812 703.364 946.326 703.658 945.762 703.874C945.21 704.078 944.586 704.18 943.89 704.18ZM956.192 704.18C955.388 704.18 954.62 704.048 953.888 703.784C953.156 703.52 952.526 703.13 951.998 702.614L952.862 701.048C953.426 701.504 953.978 701.84 954.518 702.056C955.07 702.272 955.598 702.38 956.102 702.38C956.57 702.38 956.942 702.296 957.218 702.128C957.506 701.96 957.65 701.708 957.65 701.372C957.65 701.144 957.572 700.97 957.416 700.85C957.26 700.718 957.032 700.604 956.732 700.508C956.444 700.412 956.09 700.304 955.67 700.184C954.974 699.956 954.392 699.734 953.924 699.518C953.456 699.302 953.102 699.032 952.862 698.708C952.634 698.372 952.52 697.946 952.52 697.43C952.52 696.806 952.676 696.272 952.988 695.828C953.312 695.372 953.756 695.018 954.32 694.766C954.896 694.514 955.568 694.388 956.336 694.388C957.008 694.388 957.644 694.496 958.244 694.712C958.844 694.916 959.39 695.252 959.882 695.72L958.91 697.25C958.43 696.878 957.974 696.608 957.542 696.44C957.11 696.26 956.672 696.17 956.228 696.17C955.976 696.17 955.736 696.2 955.508 696.26C955.292 696.32 955.112 696.422 954.968 696.566C954.836 696.698 954.77 696.89 954.77 697.142C954.77 697.37 954.83 697.55 954.95 697.682C955.082 697.802 955.274 697.91 955.526 698.006C955.79 698.102 956.108 698.21 956.48 698.33C957.236 698.546 957.872 698.768 958.388 698.996C958.916 699.224 959.312 699.506 959.576 699.842C959.84 700.166 959.972 700.616 959.972 701.192C959.972 702.128 959.63 702.86 958.946 703.388C958.262 703.916 957.344 704.18 956.192 704.18Z" fill="#A3B5F2"/>
</g>
<g filter="url(#filter1_d_56_46)">
<path d="M512.553 399.722C519.242 402.812 525.799 405.854 532.4 408.796C533.828 409.433 535.4 409.781 536.936 410.121C537.473 410.24 538.371 410.119 538.616 409.768C538.856 409.423 538.672 408.48 538.337 408.085C536.201 405.56 534.134 402.943 531.739 400.679C527.482 396.659 523.009 392.868 518.658 388.794C519.262 389.076 519.918 389.282 520.46 389.653C532.176 397.676 543.772 405.871 554.161 415.603C556.391 417.692 558.321 420.186 560.008 422.745C561.72 425.344 560.709 427.062 557.606 427.426C553.242 427.938 549.102 426.761 544.994 425.57C533.898 422.352 523.319 417.776 512.826 413.016C504.696 409.327 496.656 405.439 488.45 401.581C485.458 405.604 483.225 410.208 481.44 415.051C477.822 424.869 475.916 435.096 474.329 445.383C473.102 453.334 472.115 461.323 470.81 469.375C470.559 467.658 470.327 465.938 470.054 464.225C468.173 452.422 466.541 440.57 464.315 428.832C462.533 419.434 459.445 410.401 453.991 402.364C448.381 394.097 440.44 388.958 431.275 385.497C420.708 381.507 409.658 379.53 398.547 377.874C391.048 376.756 383.524 375.804 376 374.68C392.764 372.403 409.615 370.637 426.199 365.723C421.62 362.446 417.261 359.403 412.983 356.249C404.088 349.69 395.234 343.059 387.492 335.126C385.315 332.895 383.393 330.317 381.806 327.632C379.85 324.324 381.292 322.104 385.121 321.951C390.39 321.741 395.348 323.296 400.247 324.878C415.248 329.724 429.585 336.211 443.839 342.882C444.104 343.006 444.335 343.199 444.582 343.36C444.523 343.507 444.464 343.655 444.405 343.802C443.106 343.33 441.806 342.864 440.511 342.385C431.13 338.915 421.822 335.212 411.955 333.274C410.727 333.033 409.451 332.887 408.207 332.94C407.433 332.973 406.677 333.462 405.913 333.746C405.82 333.99 405.727 334.234 405.634 334.478C407.339 336.178 408.886 338.084 410.776 339.545C420.427 347.008 431.041 352.945 441.661 358.802C451.273 352.874 456.961 344.066 460.633 333.745C464.27 323.524 466.224 312.913 467.766 302.221C468.799 295.058 469.659 287.871 470.603 280.695C470.634 280.46 470.744 280.235 471.098 280C471.487 283.227 471.837 286.459 472.27 289.68C473.925 301.982 475.594 314.286 478.86 326.296C481.055 334.366 483.984 342.126 489.143 348.847C494.818 356.24 502.402 360.921 511.018 364.112C520.411 367.59 530.177 369.531 540.035 371.035C548.594 372.34 557.181 373.464 565.792 374.843C561.914 375.34 558.035 375.825 554.158 376.335C541.784 377.962 529.431 379.721 517.409 383.216C511.157 385.033 505.111 387.357 499.62 390.942C499.251 391.183 498.889 391.434 498.539 391.701C498.457 391.763 498.439 391.909 498.294 392.235C502.999 394.698 507.718 397.168 512.553 399.722ZM467.618 339.819C466.143 345.075 465.078 350.49 463.103 355.55C459.606 364.512 451.834 368.664 443.208 371.194C437.803 372.78 432.165 373.576 426.684 374.715C426.984 374.791 427.385 374.904 427.792 374.995C433.265 376.22 438.802 377.217 444.196 378.722C450.937 380.603 456.998 383.738 460.986 389.879C463.917 394.394 465.74 399.391 466.606 404.625C468.02 413.17 469.045 421.78 470.213 430.366C470.42 431.886 470.523 433.421 470.675 434.949C471.681 429.667 472.001 424.395 472.852 419.209C474.013 412.13 475.227 405.025 477.066 398.102C479.055 390.614 483.505 384.63 490.779 381.41C494.785 379.636 499.045 378.368 503.282 377.203C507.086 376.158 511.015 375.566 514.889 374.773C509.386 373.513 503.907 372.395 498.505 370.981C493.217 369.597 488.271 367.407 484.22 363.566C479.941 359.509 477.728 354.32 476.198 348.781C473.182 337.862 472.366 326.613 471.261 315.409C471.225 315.045 471.097 314.691 471.013 314.332C470.257 318.517 469.896 322.669 469.406 326.806C468.903 331.044 468.274 335.267 467.618 339.819Z" fill="#FCFCFC"/>
<path d="M467.177 370.753C470.056 367.135 469.99 362.721 470.887 358.33C471.489 361.328 471.953 363.99 472.569 366.616C473.458 370.41 476.055 372.499 479.739 373.307C482.046 373.814 484.386 374.171 486.742 374.821C485.341 375.067 483.937 375.3 482.538 375.563C481.487 375.76 480.439 375.976 479.398 376.22C475.501 377.131 473.14 379.568 472.352 383.479C471.857 385.938 471.457 388.415 470.916 391.429C470.498 388.973 470.165 387.029 469.835 385.083C468.857 379.312 466.647 377.003 460.916 375.862C458.852 375.451 456.767 375.142 454.256 374.711C458.929 373.762 463.493 373.868 467.177 370.753Z" fill="#F7F7F7"/>
<path d="M616.152 386.953V337.488H619.705V383.748H649.245V386.953H616.152ZM689.587 383.748V386.953H656.634V337.488H688.96V340.693H660.187V360.13H685.338V363.196H660.187V383.748H689.587ZM714.829 337.488H717.894L738.795 386.953H735.033L728.136 370.65H704.518L697.621 386.953H693.789L714.829 337.488ZM727.16 367.724L716.362 341.807L705.354 367.724H727.16ZM746.306 386.953V337.488H762.748C767.996 337.488 772.339 338.603 775.776 340.832C779.259 343.015 781.86 345.988 783.579 349.75C785.344 353.465 786.226 357.599 786.226 362.151C786.226 367.167 785.274 371.533 783.37 375.249C781.466 378.964 778.749 381.844 775.219 383.888C771.689 385.931 767.532 386.953 762.748 386.953H746.306ZM782.673 362.151C782.673 358.017 781.884 354.325 780.304 351.073C778.772 347.822 776.519 345.291 773.547 343.479C770.62 341.622 767.021 340.693 762.748 340.693H749.859V383.748H762.748C767.067 383.748 770.713 382.796 773.686 380.892C776.658 378.988 778.888 376.41 780.374 373.159C781.907 369.861 782.673 366.192 782.673 362.151ZM815.271 387.301C812.02 387.301 808.977 386.628 806.144 385.281C803.311 383.934 800.826 382.076 798.69 379.708C796.599 377.339 794.951 374.645 793.743 371.626C792.582 368.607 792.001 365.402 792.001 362.012C792.001 358.621 792.582 355.439 793.743 352.467C794.951 349.494 796.599 346.847 798.69 344.524C800.826 342.202 803.311 340.391 806.144 339.09C809.024 337.79 812.159 337.14 815.55 337.14C820.241 337.14 824.189 338.138 827.393 340.135C830.645 342.086 833.083 344.687 834.709 347.938L828.717 352.258C827.417 349.564 825.559 347.544 823.143 346.197C820.775 344.85 818.174 344.176 815.341 344.176C813.018 344.176 810.905 344.664 809.001 345.639C807.096 346.615 805.447 347.962 804.054 349.68C802.707 351.352 801.685 353.28 800.989 355.463C800.292 357.599 799.944 359.852 799.944 362.221C799.944 364.729 800.338 367.074 801.128 369.257C801.918 371.44 803.032 373.368 804.472 375.04C805.912 376.665 807.607 377.943 809.558 378.871C811.509 379.8 813.622 380.265 815.898 380.265C818.592 380.265 821.146 379.591 823.562 378.244C826.023 376.851 828.322 374.784 830.459 372.044V379.986C826.139 384.863 821.077 387.301 815.271 387.301ZM829.692 367.724H819.312V361.942H836.241V386.953H829.692V367.724ZM879.071 380.056V386.953H845.142V337.488H878.444V344.385H852.945V358.458H875.03V364.938H852.945V380.056H879.071ZM894.923 351.979V386.953H887.12V337.488H893.53L921.537 373.228V337.558H929.409V386.953H922.582L894.923 351.979ZM957.742 386.953V337.488H978.503C980.733 337.488 982.776 337.952 984.634 338.881C986.492 339.81 988.118 341.041 989.511 342.574C990.905 344.106 991.973 345.825 992.716 347.729C993.459 349.634 993.831 351.584 993.831 353.582C993.831 356.322 993.204 358.946 991.95 361.454C990.742 363.916 989 365.913 986.724 367.446C984.495 368.978 981.894 369.745 978.921 369.745H965.545V386.953H957.742ZM965.545 362.848H978.434C979.92 362.848 981.221 362.453 982.335 361.663C983.45 360.827 984.309 359.712 984.913 358.319C985.563 356.926 985.888 355.346 985.888 353.582C985.888 351.77 985.517 350.168 984.774 348.774C984.031 347.381 983.055 346.313 981.848 345.57C980.686 344.78 979.409 344.385 978.016 344.385H965.545V362.848ZM1020.66 357.135C1017.68 357.181 1015.04 357.855 1012.71 359.155C1010.44 360.456 1008.81 362.29 1007.84 364.659V386.953H1000.17V350.516H1007.28V358.667C1008.53 356.159 1010.18 354.162 1012.23 352.676C1014.27 351.143 1016.43 350.307 1018.71 350.168C1019.17 350.168 1019.54 350.168 1019.82 350.168C1020.15 350.168 1020.42 350.191 1020.66 350.237V357.135ZM1041.92 387.65C1039.04 387.65 1036.47 387.162 1034.19 386.187C1031.91 385.165 1029.94 383.772 1028.27 382.007C1026.64 380.242 1025.39 378.244 1024.51 376.015C1023.62 373.739 1023.18 371.324 1023.18 368.769C1023.18 366.215 1023.62 363.8 1024.51 361.524C1025.39 359.248 1026.64 357.251 1028.27 355.532C1029.94 353.767 1031.91 352.397 1034.19 351.422C1036.51 350.4 1039.09 349.889 1041.92 349.889C1044.76 349.889 1047.31 350.4 1049.59 351.422C1051.91 352.397 1053.88 353.767 1055.51 355.532C1057.18 357.251 1058.46 359.248 1059.34 361.524C1060.22 363.8 1060.66 366.215 1060.66 368.769C1060.66 371.324 1060.22 373.739 1059.34 376.015C1058.46 378.244 1057.18 380.242 1055.51 382.007C1053.88 383.772 1051.91 385.165 1049.59 386.187C1047.31 387.162 1044.76 387.65 1041.92 387.65ZM1031.06 368.839C1031.06 371.161 1031.54 373.251 1032.52 375.109C1033.49 376.967 1034.79 378.43 1036.42 379.499C1038.05 380.567 1039.88 381.101 1041.92 381.101C1043.92 381.101 1045.73 380.567 1047.36 379.499C1049.03 378.384 1050.35 376.898 1051.33 375.04C1052.3 373.135 1052.79 371.045 1052.79 368.769C1052.79 366.447 1052.3 364.357 1051.33 362.499C1050.35 360.641 1049.03 359.178 1047.36 358.11C1045.73 356.995 1043.92 356.438 1041.92 356.438C1039.88 356.438 1038.05 356.995 1036.42 358.11C1034.79 359.225 1033.49 360.711 1032.52 362.569C1031.54 364.38 1031.06 366.47 1031.06 368.839Z" fill="white"/>
<path d="M614.974 425.553V408.449H622.153C622.924 408.449 623.63 408.61 624.273 408.931C624.915 409.252 625.477 409.678 625.959 410.208C626.441 410.738 626.81 411.332 627.067 411.991C627.324 412.649 627.453 413.324 627.453 414.014C627.453 414.962 627.236 415.869 626.802 416.736C626.385 417.587 625.782 418.278 624.996 418.808C624.225 419.338 623.325 419.603 622.297 419.603H617.672V425.553H614.974ZM617.672 417.218H622.129C622.643 417.218 623.092 417.082 623.478 416.809C623.863 416.519 624.16 416.134 624.369 415.652C624.594 415.17 624.706 414.624 624.706 414.014C624.706 413.388 624.578 412.834 624.321 412.352C624.064 411.87 623.727 411.501 623.309 411.244C622.908 410.971 622.466 410.834 621.984 410.834H617.672V417.218ZM639.167 425.794C638.172 425.794 637.28 425.625 636.493 425.288C635.706 424.935 635.024 424.453 634.446 423.843C633.883 423.233 633.45 422.542 633.145 421.771C632.84 420.984 632.687 420.149 632.687 419.266C632.687 418.382 632.84 417.547 633.145 416.76C633.45 415.973 633.883 415.283 634.446 414.689C635.024 414.078 635.706 413.605 636.493 413.267C637.296 412.914 638.188 412.737 639.167 412.737C640.147 412.737 641.03 412.914 641.817 413.267C642.62 413.605 643.303 414.078 643.865 414.689C644.443 415.283 644.885 415.973 645.19 416.76C645.495 417.547 645.647 418.382 645.647 419.266C645.647 420.149 645.495 420.984 645.19 421.771C644.885 422.542 644.443 423.233 643.865 423.843C643.303 424.453 642.62 424.935 641.817 425.288C641.03 425.625 640.147 425.794 639.167 425.794ZM635.409 419.29C635.409 420.093 635.578 420.816 635.915 421.458C636.252 422.1 636.702 422.606 637.264 422.976C637.826 423.345 638.461 423.53 639.167 423.53C639.858 423.53 640.484 423.345 641.046 422.976C641.624 422.59 642.082 422.076 642.419 421.434C642.757 420.775 642.925 420.053 642.925 419.266C642.925 418.463 642.757 417.74 642.419 417.098C642.082 416.455 641.624 415.949 641.046 415.58C640.484 415.195 639.858 415.002 639.167 415.002C638.461 415.002 637.826 415.195 637.264 415.58C636.702 415.965 636.252 416.479 635.915 417.122C635.578 417.748 635.409 418.471 635.409 419.29ZM667.376 412.954H669.906L664.606 425.553H662.341L660.077 419.868L657.813 425.553H655.548L650.224 412.954H652.754L656.801 422.976L658.583 418.326L656.415 412.978H658.656L660.077 416.905L661.474 412.978H663.715L661.571 418.326L663.353 422.976L667.376 412.954ZM681.047 425.794C680.068 425.794 679.176 425.625 678.373 425.288C677.586 424.935 676.904 424.461 676.326 423.867C675.748 423.257 675.298 422.566 674.977 421.795C674.672 421.008 674.519 420.173 674.519 419.29C674.519 418.101 674.792 417.017 675.338 416.038C675.884 415.042 676.647 414.247 677.627 413.653C678.606 413.042 679.755 412.737 681.071 412.737C682.388 412.737 683.521 413.042 684.468 413.653C685.432 414.247 686.179 415.034 686.709 416.014C687.239 416.993 687.504 418.045 687.504 419.169C687.504 419.362 687.495 419.547 687.479 419.723C687.463 419.884 687.447 420.021 687.431 420.133H677.338C677.386 420.872 677.586 421.522 677.94 422.084C678.309 422.63 678.775 423.064 679.337 423.385C679.899 423.69 680.501 423.843 681.144 423.843C681.85 423.843 682.517 423.666 683.143 423.313C683.786 422.96 684.219 422.494 684.444 421.916L686.709 422.566C686.436 423.176 686.018 423.73 685.456 424.228C684.91 424.71 684.259 425.096 683.505 425.385C682.75 425.658 681.931 425.794 681.047 425.794ZM677.265 418.374H684.878C684.83 417.652 684.621 417.017 684.251 416.471C683.898 415.909 683.44 415.476 682.878 415.17C682.332 414.849 681.722 414.689 681.047 414.689C680.389 414.689 679.779 414.849 679.217 415.17C678.67 415.476 678.221 415.909 677.867 416.471C677.514 417.017 677.313 417.652 677.265 418.374ZM700.843 415.243C699.815 415.259 698.9 415.492 698.097 415.941C697.31 416.391 696.747 417.025 696.41 417.844V425.553H693.76V412.954H696.218V415.773C696.651 414.905 697.221 414.215 697.928 413.701C698.635 413.171 699.381 412.882 700.168 412.834C700.329 412.834 700.457 412.834 700.554 412.834C700.666 412.834 700.762 412.842 700.843 412.858V415.243ZM712.34 425.794C711.36 425.794 710.469 425.625 709.666 425.288C708.879 424.935 708.196 424.461 707.618 423.867C707.04 423.257 706.59 422.566 706.269 421.795C705.964 421.008 705.812 420.173 705.812 419.29C705.812 418.101 706.085 417.017 706.631 416.038C707.177 415.042 707.939 414.247 708.919 413.653C709.899 413.042 711.047 412.737 712.364 412.737C713.681 412.737 714.813 413.042 715.761 413.653C716.724 414.247 717.471 415.034 718.001 416.014C718.531 416.993 718.796 418.045 718.796 419.169C718.796 419.362 718.788 419.547 718.772 419.723C718.756 419.884 718.74 420.021 718.724 420.133H708.63C708.678 420.872 708.879 421.522 709.232 422.084C709.602 422.63 710.067 423.064 710.63 423.385C711.192 423.69 711.794 423.843 712.436 423.843C713.143 423.843 713.809 423.666 714.436 423.313C715.078 422.96 715.512 422.494 715.737 421.916L718.001 422.566C717.728 423.176 717.311 423.73 716.748 424.228C716.202 424.71 715.552 425.096 714.797 425.385C714.042 425.658 713.223 425.794 712.34 425.794ZM708.558 418.374H716.17C716.122 417.652 715.913 417.017 715.544 416.471C715.191 415.909 714.733 415.476 714.171 415.17C713.625 414.849 713.014 414.689 712.34 414.689C711.681 414.689 711.071 414.849 710.509 415.17C709.963 415.476 709.513 415.909 709.16 416.471C708.807 417.017 708.606 417.652 708.558 418.374ZM724.258 419.266C724.258 418.061 724.499 416.969 724.981 415.989C725.478 414.994 726.153 414.207 727.004 413.629C727.855 413.034 728.835 412.737 729.943 412.737C730.907 412.737 731.774 412.986 732.545 413.484C733.332 413.982 733.942 414.6 734.376 415.339V407.968H737.026V422.566C737.026 422.871 737.082 423.088 737.194 423.216C737.307 423.345 737.491 423.417 737.748 423.433V425.553C737.25 425.634 736.865 425.674 736.592 425.674C736.094 425.674 735.669 425.529 735.315 425.24C734.978 424.951 734.801 424.606 734.785 424.204L734.761 423.265C734.279 424.068 733.629 424.694 732.81 425.144C731.991 425.577 731.14 425.794 730.256 425.794C729.389 425.794 728.586 425.625 727.847 425.288C727.125 424.951 726.49 424.477 725.944 423.867C725.414 423.257 724.997 422.558 724.692 421.771C724.402 420.984 724.258 420.149 724.258 419.266ZM734.376 421.024V417.724C734.199 417.21 733.91 416.752 733.508 416.351C733.123 415.933 732.681 415.604 732.184 415.363C731.702 415.122 731.22 415.002 730.738 415.002C730.176 415.002 729.662 415.122 729.196 415.363C728.747 415.604 728.353 415.925 728.016 416.327C727.695 416.728 727.446 417.186 727.269 417.7C727.093 418.214 727.004 418.752 727.004 419.314C727.004 419.892 727.101 420.438 727.293 420.952C727.486 421.45 727.759 421.9 728.112 422.301C728.482 422.687 728.899 422.992 729.365 423.216C729.847 423.425 730.369 423.53 730.931 423.53C731.284 423.53 731.638 423.465 731.991 423.337C732.36 423.208 732.705 423.032 733.027 422.807C733.364 422.582 733.645 422.317 733.87 422.012C734.111 421.707 734.279 421.378 734.376 421.024ZM761.327 425.794C760.364 425.794 759.489 425.569 758.702 425.12C757.931 424.654 757.32 424.036 756.871 423.265V425.553H754.534V407.968H757.184V415.339C757.682 414.536 758.3 413.902 759.039 413.436C759.794 412.97 760.677 412.737 761.689 412.737C762.524 412.737 763.287 412.914 763.977 413.267C764.668 413.621 765.254 414.102 765.736 414.713C766.234 415.323 766.611 416.022 766.868 416.809C767.141 417.595 767.278 418.431 767.278 419.314C767.278 420.197 767.125 421.032 766.82 421.819C766.531 422.606 766.113 423.297 765.567 423.891C765.021 424.485 764.387 424.951 763.664 425.288C762.957 425.625 762.179 425.794 761.327 425.794ZM760.629 423.53C761.207 423.53 761.737 423.417 762.219 423.192C762.701 422.951 763.118 422.638 763.471 422.253C763.825 421.867 764.09 421.418 764.266 420.904C764.459 420.39 764.555 419.86 764.555 419.314C764.555 418.559 764.395 417.852 764.074 417.194C763.769 416.536 763.335 416.006 762.773 415.604C762.211 415.203 761.56 415.002 760.822 415.002C760.292 415.002 759.794 415.13 759.328 415.387C758.862 415.628 758.445 415.957 758.075 416.375C757.722 416.776 757.425 417.226 757.184 417.724V421.048C757.28 421.418 757.449 421.755 757.69 422.06C757.931 422.349 758.212 422.606 758.533 422.831C758.854 423.04 759.199 423.208 759.569 423.337C759.938 423.465 760.292 423.53 760.629 423.53ZM773.766 428.516C774.007 428.548 774.24 428.581 774.465 428.613C774.706 428.661 774.899 428.685 775.043 428.685C775.316 428.685 775.549 428.597 775.742 428.42C775.95 428.259 776.159 427.954 776.368 427.505C776.577 427.055 776.834 426.404 777.139 425.553L771.96 412.954H774.73L778.584 422.855L782.005 412.954H784.559L778.849 428.468C778.673 428.934 778.416 429.359 778.078 429.745C777.741 430.146 777.324 430.46 776.826 430.684C776.328 430.909 775.742 431.022 775.067 431.022C774.874 431.022 774.674 431.006 774.465 430.973C774.256 430.941 774.023 430.893 773.766 430.829V428.516ZM813.794 421.145C813.794 422.06 813.553 422.847 813.071 423.506C812.605 424.164 811.971 424.67 811.168 425.023C810.365 425.377 809.482 425.553 808.518 425.553H800.352V408.449H809.168C809.971 408.449 810.662 408.666 811.24 409.1C811.834 409.517 812.284 410.063 812.589 410.738C812.91 411.396 813.071 412.087 813.071 412.81C813.071 413.645 812.854 414.432 812.421 415.17C812.003 415.893 811.401 416.431 810.614 416.784C811.594 417.074 812.364 417.604 812.927 418.374C813.505 419.129 813.794 420.053 813.794 421.145ZM811.023 420.639C811.023 420.157 810.919 419.723 810.71 419.338C810.518 418.936 810.245 418.615 809.891 418.374C809.554 418.117 809.152 417.989 808.687 417.989H803.05V423.216H808.518C809 423.216 809.425 423.104 809.795 422.879C810.18 422.638 810.477 422.325 810.686 421.94C810.911 421.538 811.023 421.105 811.023 420.639ZM803.05 410.786V415.821H808.012C808.462 415.821 808.863 415.716 809.217 415.508C809.57 415.283 809.851 414.986 810.06 414.616C810.269 414.231 810.373 413.797 810.373 413.315C810.373 412.818 810.277 412.384 810.084 412.015C809.891 411.629 809.626 411.332 809.289 411.123C808.968 410.898 808.59 410.786 808.157 410.786H803.05ZM820.703 425.553V408.449H823.401V423.168H832.579V425.553H820.703ZM845.479 425.674C844.114 425.674 842.958 425.441 842.011 424.975C841.079 424.509 840.324 423.875 839.746 423.072C839.184 422.269 838.766 421.354 838.493 420.326C838.236 419.298 838.108 418.23 838.108 417.122V408.449H840.806V417.122C840.806 417.909 840.886 418.672 841.047 419.41C841.208 420.133 841.464 420.783 841.818 421.362C842.171 421.94 842.645 422.397 843.239 422.735C843.849 423.072 844.596 423.241 845.479 423.241C846.379 423.241 847.126 423.072 847.72 422.735C848.33 422.381 848.804 421.916 849.141 421.337C849.495 420.743 849.751 420.085 849.912 419.362C850.073 418.639 850.153 417.893 850.153 417.122V408.449H852.875V417.122C852.875 418.294 852.731 419.402 852.442 420.446C852.168 421.474 851.735 422.381 851.141 423.168C850.562 423.939 849.808 424.549 848.876 424.999C847.945 425.449 846.812 425.674 845.479 425.674ZM872.291 423.168V425.553H860.559V408.449H872.074V410.834H863.257V415.7H870.893V417.941H863.257V423.168H872.291ZM889.287 412.472C889.126 412.296 888.894 412.111 888.588 411.918C888.283 411.709 887.922 411.517 887.504 411.34C887.087 411.163 886.637 411.019 886.155 410.906C885.674 410.794 885.176 410.738 884.662 410.738C883.538 410.738 882.702 410.947 882.156 411.364C881.61 411.782 881.337 412.36 881.337 413.099C881.337 413.645 881.49 414.078 881.795 414.4C882.1 414.705 882.566 414.962 883.192 415.17C883.819 415.379 884.606 415.604 885.553 415.845C886.709 416.118 887.713 416.447 888.564 416.833C889.415 417.202 890.066 417.7 890.516 418.326C890.965 418.953 891.19 419.78 891.19 420.807C891.19 421.675 891.03 422.422 890.708 423.048C890.387 423.674 889.937 424.188 889.359 424.59C888.781 424.975 888.115 425.264 887.36 425.457C886.605 425.634 885.794 425.722 884.927 425.722C884.076 425.722 883.224 425.634 882.373 425.457C881.538 425.28 880.735 425.023 879.964 424.686C879.209 424.333 878.511 423.907 877.868 423.409L879.097 421.097C879.306 421.305 879.603 421.538 879.988 421.795C880.39 422.036 880.847 422.269 881.361 422.494C881.891 422.719 882.462 422.911 883.072 423.072C883.698 423.216 884.333 423.289 884.975 423.289C886.051 423.289 886.87 423.104 887.432 422.735C888.01 422.349 888.299 421.803 888.299 421.097C888.299 420.518 888.115 420.061 887.745 419.723C887.376 419.37 886.838 419.073 886.131 418.832C885.425 418.591 884.581 418.35 883.602 418.109C882.478 417.804 881.538 417.475 880.783 417.122C880.028 416.752 879.458 416.287 879.073 415.724C878.703 415.146 878.519 414.416 878.519 413.532C878.519 412.408 878.792 411.461 879.338 410.69C879.884 409.903 880.623 409.317 881.554 408.931C882.502 408.53 883.562 408.329 884.734 408.329C885.505 408.329 886.236 408.417 886.926 408.594C887.617 408.754 888.259 408.979 888.853 409.268C889.464 409.557 890.018 409.887 890.516 410.256L889.287 412.472ZM910.542 410.834H904.857V425.553H902.135V410.834H896.426V408.449H910.542V410.834ZM920.27 408.449H922.824L929.472 425.553H926.63L924.823 420.904H918.222L916.44 425.553H913.573L920.27 408.449ZM924.293 418.904L921.547 411.412L918.704 418.904H924.293ZM935.683 425.553V408.449H943.127C943.898 408.449 944.604 408.61 945.247 408.931C945.889 409.252 946.443 409.678 946.909 410.208C947.391 410.738 947.76 411.332 948.017 411.991C948.29 412.649 948.427 413.324 948.427 414.014C948.427 414.769 948.29 415.492 948.017 416.182C947.744 416.873 947.351 417.467 946.837 417.965C946.339 418.463 945.753 418.824 945.078 419.049L949.101 425.553H946.066L942.356 419.603H938.381V425.553H935.683ZM938.381 417.218H943.103C943.6 417.218 944.042 417.074 944.428 416.784C944.813 416.495 945.118 416.11 945.343 415.628C945.568 415.13 945.68 414.592 945.68 414.014C945.68 413.42 945.552 412.89 945.295 412.424C945.038 411.942 944.701 411.557 944.283 411.268C943.882 410.979 943.44 410.834 942.958 410.834H938.381V417.218ZM960.643 408.449H963.197L969.846 425.553H967.003L965.196 420.904H958.596L956.813 425.553H953.946L960.643 408.449ZM964.666 418.904L961.92 411.412L959.078 418.904H964.666ZM976.056 425.553V408.449H978.754V425.553H976.056Z" fill="white"/>
</g>
</g>
<defs>
<filter id="filter0_f_56_46" x="-185.338" y="380.662" width="1810.68" height="550.677" filterUnits="userSpaceOnUse" color-interpolation-filters="sRGB">
<feFlood flood-opacity="0" result="BackgroundImageFix"/>
<feBlend mode="normal" in="SourceGraphic" in2="BackgroundImageFix" result="shape"/>
<feGaussianBlur stdDeviation="58.1692" result="effect1_foregroundBlur_56_46"/>
</filter>
<filter id="filter1_d_56_46" x="314.088" y="218.957" width="808.488" height="313.198" filterUnits="userSpaceOnUse" color-interpolation-filters="sRGB">
<feFlood flood-opacity="0" result="BackgroundImageFix"/>
<feColorMatrix in="SourceAlpha" type="matrix" values="0 0 0 0 0 0 0 0 0 0 0 0 0 0 0 0 0 0 127 0" result="hardAlpha"/>
<feMorphology radius="48" operator="dilate" in="SourceAlpha" result="effect1_dropShadow_56_46"/>
<feOffset dy="0.868692"/>
<feGaussianBlur stdDeviation="6.95585"/>
<feComposite in2="hardAlpha" operator="out"/>
<feColorMatrix type="matrix" values="0 0 0 0 0.192157 0 0 0 0 0.282353 0 0 0 0 0.72549 0 0 0 0.83 0"/>
<feBlend mode="normal" in2="BackgroundImageFix" result="effect1_dropShadow_56_46"/>
<feBlend mode="normal" in="SourceGraphic" in2="effect1_dropShadow_56_46" result="shape"/>
</filter>
<linearGradient id="paint0_linear_56_46" x1="720" y1="-390.916" x2="720" y2="1224.18" gradientUnits="userSpaceOnUse">
<stop offset="0.183763" stop-opacity="0"/>
<stop offset="0.370875" stop-color="#090D20"/>
<stop offset="0.510086" stop-color="#111940"/>
<stop offset="0.560981" stop-color="#182359"/>
<stop offset="0.610378" stop-color="#1F2E76"/>
<stop offset="0.699421" stop-color="#3148B9"/>
<stop offset="0.757363" stop-color="#788BE8"/>
</linearGradient>
<clipPath id="clip0_56_46">
<rect width="1440" height="820" fill="white"/>
</clipPath>
<clipPath id="clip1_56_46">
<rect width="1440" height="820" fill="white"/>
</clipPath>
</defs>
</svg>
