<svg width="219" height="647" viewBox="0 0 219 647" fill="none" xmlns="http://www.w3.org/2000/svg">
<path d="M0 40C0 17.9086 17.9086 0 40 0H179C201.091 0 219 17.9086 219 40V607C219 629.091 201.091 647 179 647H40C17.9086 647 0 629.091 0 607V40Z" fill="#3148B9"/>
<path d="M0 40C0 17.9086 17.9086 0 40 0H179C201.091 0 219 17.9086 219 40V607C219 629.091 201.091 647 179 647H40C17.9086 647 0 629.091 0 607V40Z" fill="#3148B9"/>
<path d="M0 40C0 17.9086 17.9086 0 40 0H179C201.091 0 219 17.9086 219 40V607C219 629.091 201.091 647 179 647H40C17.9086 647 0 629.091 0 607V40Z" fill="url(#paint0_linear_3_15)"/>
<path d="M50.64 594.49C52.9967 596.683 54.175 599.203 54.175 602.05C54.175 603.707 53.8133 605.247 53.09 606.67C52.3667 608.07 51.4217 609.283 50.255 610.31C49.065 611.337 47.7117 612.153 46.195 612.76C44.6783 613.343 43.115 613.635 41.505 613.635C39.825 613.635 38.2383 613.343 36.745 612.76C35.2283 612.177 33.8983 611.372 32.755 610.345C31.5883 609.318 30.6667 608.093 29.99 606.67C29.3133 605.247 28.975 603.707 28.975 602.05C28.975 599.647 29.4767 597.675 30.48 596.135C31.4833 594.572 32.79 593.382 34.4 592.565L36.08 594.98C34.6333 595.727 33.56 596.718 32.86 597.955C32.16 599.192 31.81 600.58 31.81 602.12C31.81 603.38 32.09 604.523 32.65 605.55C33.1867 606.577 33.91 607.452 34.82 608.175C35.7067 608.898 36.745 609.458 37.935 609.855C39.1017 610.252 40.315 610.45 41.575 610.45C42.905 610.45 44.165 610.228 45.355 609.785C46.5217 609.342 47.56 608.735 48.47 607.965C49.3567 607.195 50.0567 606.285 50.57 605.235C51.0833 604.185 51.34 603.042 51.34 601.805C51.34 599.098 50.0333 596.66 47.42 594.49L43.99 594.49L43.99 599.845L41.61 599.845L41.61 591.83L54 591.83L54 594.49L50.64 594.49ZM38.425 577.87C38.4717 579.41 38.8683 580.775 39.615 581.965C40.3617 583.131 41.4 583.96 42.73 584.45L54 584.45L54 587.53L35.73 587.53L35.73 584.66L39.965 584.66C38.705 584.03 37.69 583.201 36.92 582.175C36.1267 581.148 35.6833 580.051 35.59 578.885C35.59 578.651 35.59 578.453 35.59 578.29C35.59 578.126 35.6017 577.986 35.625 577.87L38.425 577.87ZM54.35 570.125C54.35 570.988 54.21 571.793 53.93 572.54C53.6267 573.286 53.2183 573.94 52.705 574.5C52.1917 575.036 51.5967 575.468 50.92 575.795C50.22 576.098 49.4617 576.25 48.645 576.25C47.805 576.25 47.0467 576.063 46.37 575.69C45.67 575.316 45.075 574.791 44.585 574.115C44.095 573.415 43.71 572.598 43.43 571.665C43.15 570.708 43.01 569.67 43.01 568.55C43.01 567.663 43.0917 566.765 43.255 565.855C43.4183 564.945 43.64 564.14 43.92 563.44L42.45 563.44C40.9567 563.44 39.79 563.86 38.95 564.7C38.0867 565.54 37.655 566.73 37.655 568.27C37.655 570.113 38.3667 572.05 39.79 574.08L37.795 575.095C36.2083 572.738 35.415 570.37 35.415 567.99C35.415 565.586 36.0567 563.72 37.34 562.39C38.6233 561.036 40.4317 560.36 42.765 560.36L50.22 560.36C50.9433 560.36 51.3167 560.033 51.34 559.38L54 559.38C54.0467 559.706 54.0817 559.975 54.105 560.185C54.1283 560.395 54.14 560.616 54.14 560.85C54.14 561.456 53.965 561.946 53.615 562.32C53.2417 562.67 52.7983 562.88 52.285 562.95L50.99 563.02C52.0867 563.836 52.9267 564.875 53.51 566.135C54.07 567.371 54.35 568.701 54.35 570.125ZM52.04 569.32C52.04 568.223 51.8417 567.208 51.445 566.275C51.025 565.318 50.4767 564.595 49.8 564.105C49.3567 563.661 48.9017 563.44 48.435 563.44L45.74 563.44C45.1567 564.933 44.865 566.485 44.865 568.095C44.865 569.635 45.1917 570.895 45.845 571.875C46.4983 572.831 47.35 573.31 48.4 573.31C48.9133 573.31 49.3917 573.216 49.835 573.03C50.2783 572.82 50.6633 572.54 50.99 572.19C51.3167 571.816 51.5733 571.385 51.76 570.895C51.9467 570.405 52.04 569.88 52.04 569.32ZM54.35 547.91C54.35 549.17 54.0933 550.337 53.58 551.41C53.0667 552.483 52.3783 553.405 51.515 554.175C50.6517 554.945 49.6483 555.552 48.505 555.995C47.3617 556.415 46.16 556.625 44.9 556.625C43.6167 556.625 42.4033 556.427 41.26 556.03C40.0933 555.61 39.0783 555.038 38.215 554.315C37.3517 553.568 36.675 552.693 36.185 551.69C35.6717 550.663 35.415 549.543 35.415 548.33C35.415 546.86 35.8 545.553 36.57 544.41C37.34 543.243 38.2733 542.322 39.37 541.645L28.45 541.645L28.45 538.565L50.22 538.565C50.9433 538.565 51.3167 538.238 51.34 537.585L54 537.585C54.0467 537.912 54.0817 538.18 54.105 538.39C54.1283 538.577 54.14 538.763 54.14 538.95C54.14 539.557 53.9417 540.093 53.545 540.56C53.125 541.003 52.6467 541.225 52.11 541.225L50.57 541.225C51.76 541.948 52.6933 542.917 53.37 544.13C54.0233 545.32 54.35 546.58 54.35 547.91ZM51.69 547.175C51.69 546.615 51.585 546.043 51.375 545.46C51.165 544.853 50.8733 544.293 50.5 543.78C50.1267 543.243 49.695 542.788 49.205 542.415C48.6917 542.018 48.155 541.762 47.595 541.645L42.345 541.645C41.7617 541.855 41.2133 542.17 40.7 542.59C40.1633 543.01 39.7083 543.488 39.335 544.025C38.9383 544.538 38.635 545.098 38.425 545.705C38.1917 546.288 38.075 546.872 38.075 547.455C38.075 548.365 38.2733 549.193 38.67 549.94C39.0433 550.663 39.5567 551.293 40.21 551.83C40.84 552.343 41.575 552.74 42.415 553.02C43.2317 553.3 44.0717 553.44 44.935 553.44C45.845 553.44 46.72 553.277 47.56 552.95C48.3767 552.623 49.0883 552.18 49.695 551.62C50.3017 551.06 50.7917 550.407 51.165 549.66C51.515 548.89 51.69 548.062 51.69 547.175ZM54 533.423L35.73 533.423L35.73 530.343L54 530.343L54 533.423ZM32.3 533.423L28.45 533.423L28.45 530.343L32.3 530.343L32.3 533.423ZM54.35 517.272C54.35 518.648 54.105 519.908 53.615 521.052C53.1017 522.195 52.4133 523.175 51.55 523.992C50.6867 524.808 49.6833 525.45 48.54 525.917C47.3733 526.36 46.1483 526.582 44.865 526.582C43.5817 526.582 42.3683 526.36 41.225 525.917C40.0817 525.45 39.0783 524.808 38.215 523.992C37.3517 523.152 36.675 522.16 36.185 521.017C35.6717 519.873 35.415 518.613 35.415 517.237C35.415 515.86 35.6717 514.612 36.185 513.492C36.6983 512.348 37.3867 511.38 38.25 510.587C39.09 509.793 40.0817 509.187 41.225 508.767C42.345 508.323 43.5117 508.102 44.725 508.102C44.9817 508.102 45.215 508.113 45.425 508.137C45.635 508.137 45.7983 508.148 45.915 508.172L45.915 523.327C46.825 523.257 47.6533 523.047 48.4 522.697C49.1467 522.347 49.7883 521.892 50.325 521.332C50.8617 520.772 51.2817 520.142 51.585 519.442C51.8883 518.718 52.04 517.96 52.04 517.167C52.04 516.607 51.97 516.058 51.83 515.522C51.6667 514.985 51.4567 514.483 51.2 514.017C50.9433 513.55 50.6283 513.142 50.255 512.792C49.8817 512.418 49.4617 512.138 48.995 511.952L49.73 509.292C50.4067 509.595 51.025 510.015 51.585 510.552C52.145 511.065 52.635 511.672 53.055 512.372C53.4517 513.048 53.7667 513.807 54 514.647C54.2333 515.487 54.35 516.362 54.35 517.272ZM43.64 511.007C42.7767 511.077 41.9833 511.298 41.26 511.672C40.5133 512.022 39.8833 512.477 39.37 513.037C38.8567 513.573 38.46 514.203 38.18 514.927C37.8767 515.65 37.725 516.42 37.725 517.237C37.725 518.053 37.8767 518.823 38.18 519.547C38.46 520.27 38.8683 520.912 39.405 521.472C39.9183 522.008 40.5367 522.452 41.26 522.802C41.9833 523.128 42.7767 523.327 43.64 523.397L43.64 511.007ZM54 488.823L54 491.903L43.78 491.903C41.82 491.903 40.3967 492.206 39.51 492.813C38.6233 493.396 38.18 494.295 38.18 495.508C38.18 496.138 38.3083 496.768 38.565 497.398C38.7983 498.028 39.125 498.623 39.545 499.183C39.965 499.743 40.4667 500.233 41.05 500.653C41.6333 501.073 42.275 501.388 42.975 501.598L54 501.598L54 504.678L35.73 504.678L35.73 501.878L39.65 501.878C38.3667 501.155 37.34 500.116 36.57 498.763C35.8 497.386 35.415 495.893 35.415 494.283C35.415 493.233 35.6133 492.358 36.01 491.658C36.3833 490.958 36.92 490.398 37.62 489.978C38.2967 489.558 39.1017 489.266 40.035 489.103C40.9683 488.916 41.9833 488.823 43.08 488.823L54 488.823ZM53.09 474.754C53.1833 474.941 53.3 475.186 53.44 475.489C53.5567 475.793 53.685 476.143 53.825 476.539C53.9417 476.913 54.035 477.333 54.105 477.799C54.1983 478.243 54.245 478.709 54.245 479.199C54.245 480.319 53.9417 481.288 53.335 482.104C52.705 482.921 51.7367 483.329 50.43 483.329L38.145 483.329L38.145 485.814L35.73 485.814L35.73 483.329L29.64 483.329L29.64 480.249L35.73 480.249L35.73 476.154L38.145 476.154L38.145 480.249L49.485 480.249C50.1617 480.203 50.6517 479.981 50.955 479.584C51.2583 479.188 51.41 478.721 51.41 478.184C51.41 477.578 51.3167 477.029 51.13 476.539C50.92 476.026 50.7567 475.676 50.64 475.489L53.09 474.754ZM54 464.027C53.0667 464.027 52.1917 463.957 51.375 463.817C50.5583 463.654 49.7767 463.362 49.03 462.942C48.2833 462.522 47.5717 461.951 46.895 461.227C46.2183 460.481 45.5417 459.512 44.865 458.322C44.4917 457.622 44.13 456.911 43.78 456.187C43.4067 455.464 43.0217 454.811 42.625 454.227C42.205 453.621 41.7617 453.131 41.295 452.757C40.8283 452.361 40.28 452.162 39.65 452.162C39.2533 452.162 38.8567 452.256 38.46 452.442C38.0633 452.629 37.7133 452.897 37.41 453.247C37.1067 453.597 36.8617 454.041 36.675 454.577C36.4883 455.091 36.395 455.686 36.395 456.362C36.395 457.062 36.5 457.704 36.71 458.287C36.8967 458.847 37.1417 459.349 37.445 459.792C37.725 460.236 38.0283 460.621 38.355 460.947C38.6817 461.274 38.9733 461.542 39.23 461.752L36.99 463.747C36.78 463.561 36.5 463.246 36.15 462.802C35.7767 462.359 35.4033 461.799 35.03 461.122C34.6567 460.446 34.3417 459.664 34.085 458.777C33.805 457.891 33.665 456.899 33.665 455.802C33.665 454.729 33.8167 453.761 34.12 452.897C34.4 452.034 34.7967 451.311 35.31 450.727C35.8233 450.121 36.43 449.654 37.13 449.327C37.8067 449.001 38.53 448.837 39.3 448.837C40.21 448.837 41.0033 449.036 41.68 449.432C42.3567 449.829 42.9517 450.319 43.465 450.902C43.9783 451.462 44.4217 452.069 44.795 452.722C45.145 453.376 45.4483 453.959 45.705 454.472C45.9617 454.986 46.2767 455.569 46.65 456.222C47 456.852 47.4083 457.459 47.875 458.042C48.3183 458.626 48.82 459.139 49.38 459.582C49.94 460.002 50.5467 460.271 51.2 460.387L51.2 448.452L54 448.452L54 464.027Z" fill="white"/>
<defs>
<linearGradient id="paint0_linear_3_15" x1="109.5" y1="0" x2="109.5" y2="647" gradientUnits="userSpaceOnUse">
<stop stop-color="#F24C03"/>
<stop offset="0.774038" stop-color="#3148B9"/>
</linearGradient>
</defs>
</svg>
