<svg width="220" height="647" viewBox="0 0 220 647" fill="none" xmlns="http://www.w3.org/2000/svg">
<path d="M40 0.5H180C201.815 0.5 219.5 18.1848 219.5 40V607C219.5 628.815 201.815 646.5 180 646.5H40C18.1848 646.5 0.5 628.815 0.5 607V40C0.5 18.1848 18.1848 0.5 40 0.5Z" fill="url(#paint0_linear_3_13)"/>
<path d="M40 0.5H180C201.815 0.5 219.5 18.1848 219.5 40V607C219.5 628.815 201.815 646.5 180 646.5H40C18.1848 646.5 0.5 628.815 0.5 607V40C0.5 18.1848 18.1848 0.5 40 0.5Z" stroke="#494949"/>
<path d="M57.64 594.49C59.9967 596.683 61.175 599.203 61.175 602.05C61.175 603.707 60.8133 605.247 60.09 606.67C59.3667 608.07 58.4217 609.283 57.255 610.31C56.065 611.337 54.7117 612.153 53.195 612.76C51.6783 613.343 50.115 613.635 48.505 613.635C46.825 613.635 45.2383 613.343 43.745 612.76C42.2283 612.177 40.8983 611.372 39.755 610.345C38.5883 609.318 37.6667 608.093 36.99 606.67C36.3133 605.247 35.975 603.707 35.975 602.05C35.975 599.647 36.4767 597.675 37.48 596.135C38.4833 594.572 39.79 593.382 41.4 592.565L43.08 594.98C41.6333 595.727 40.56 596.718 39.86 597.955C39.16 599.192 38.81 600.58 38.81 602.12C38.81 603.38 39.09 604.523 39.65 605.55C40.1867 606.577 40.91 607.452 41.82 608.175C42.7067 608.898 43.745 609.458 44.935 609.855C46.1017 610.252 47.315 610.45 48.575 610.45C49.905 610.45 51.165 610.228 52.355 609.785C53.5217 609.342 54.56 608.735 55.47 607.965C56.3567 607.195 57.0567 606.285 57.57 605.235C58.0833 604.185 58.34 603.042 58.34 601.805C58.34 599.098 57.0333 596.66 54.42 594.49L50.99 594.49L50.99 599.845L48.61 599.845L48.61 591.83L61 591.83L61 594.49L57.64 594.49ZM45.425 577.87C45.4717 579.41 45.8683 580.775 46.615 581.965C47.3617 583.131 48.4 583.96 49.73 584.45L61 584.45L61 587.53L42.73 587.53L42.73 584.66L46.965 584.66C45.705 584.03 44.69 583.201 43.92 582.175C43.1267 581.148 42.6833 580.051 42.59 578.885C42.59 578.651 42.59 578.453 42.59 578.29C42.59 578.126 42.6017 577.986 42.625 577.87L45.425 577.87ZM61.35 570.125C61.35 570.988 61.21 571.793 60.93 572.54C60.6267 573.286 60.2183 573.94 59.705 574.5C59.1917 575.036 58.5967 575.468 57.92 575.795C57.22 576.098 56.4617 576.25 55.645 576.25C54.805 576.25 54.0467 576.063 53.37 575.69C52.67 575.316 52.075 574.791 51.585 574.115C51.095 573.415 50.71 572.598 50.43 571.665C50.15 570.708 50.01 569.67 50.01 568.55C50.01 567.663 50.0917 566.765 50.255 565.855C50.4183 564.945 50.64 564.14 50.92 563.44L49.45 563.44C47.9567 563.44 46.79 563.86 45.95 564.7C45.0867 565.54 44.655 566.73 44.655 568.27C44.655 570.113 45.3667 572.05 46.79 574.08L44.795 575.095C43.2083 572.738 42.415 570.37 42.415 567.99C42.415 565.586 43.0567 563.72 44.34 562.39C45.6233 561.036 47.4317 560.36 49.765 560.36L57.22 560.36C57.9433 560.36 58.3167 560.033 58.34 559.38L61 559.38C61.0467 559.706 61.0817 559.975 61.105 560.185C61.1283 560.395 61.14 560.616 61.14 560.85C61.14 561.456 60.965 561.946 60.615 562.32C60.2417 562.67 59.7983 562.88 59.285 562.95L57.99 563.02C59.0867 563.836 59.9267 564.875 60.51 566.135C61.07 567.371 61.35 568.701 61.35 570.125ZM59.04 569.32C59.04 568.223 58.8417 567.208 58.445 566.275C58.025 565.318 57.4767 564.595 56.8 564.105C56.3567 563.661 55.9017 563.44 55.435 563.44L52.74 563.44C52.1567 564.933 51.865 566.485 51.865 568.095C51.865 569.635 52.1917 570.895 52.845 571.875C53.4983 572.831 54.35 573.31 55.4 573.31C55.9133 573.31 56.3917 573.216 56.835 573.03C57.2783 572.82 57.6633 572.54 57.99 572.19C58.3167 571.816 58.5733 571.385 58.76 570.895C58.9467 570.405 59.04 569.88 59.04 569.32ZM61.35 547.91C61.35 549.17 61.0933 550.337 60.58 551.41C60.0667 552.483 59.3783 553.405 58.515 554.175C57.6517 554.945 56.6483 555.552 55.505 555.995C54.3617 556.415 53.16 556.625 51.9 556.625C50.6167 556.625 49.4033 556.427 48.26 556.03C47.0933 555.61 46.0783 555.038 45.215 554.315C44.3517 553.568 43.675 552.693 43.185 551.69C42.6717 550.663 42.415 549.543 42.415 548.33C42.415 546.86 42.8 545.553 43.57 544.41C44.34 543.243 45.2733 542.322 46.37 541.645L35.45 541.645L35.45 538.565L57.22 538.565C57.9433 538.565 58.3167 538.238 58.34 537.585L61 537.585C61.0467 537.912 61.0817 538.18 61.105 538.39C61.1283 538.577 61.14 538.763 61.14 538.95C61.14 539.557 60.9417 540.093 60.545 540.56C60.125 541.003 59.6467 541.225 59.11 541.225L57.57 541.225C58.76 541.948 59.6933 542.917 60.37 544.13C61.0233 545.32 61.35 546.58 61.35 547.91ZM58.69 547.175C58.69 546.615 58.585 546.043 58.375 545.46C58.165 544.853 57.8733 544.293 57.5 543.78C57.1267 543.243 56.695 542.788 56.205 542.415C55.6917 542.018 55.155 541.762 54.595 541.645L49.345 541.645C48.7617 541.855 48.2133 542.17 47.7 542.59C47.1633 543.01 46.7083 543.488 46.335 544.025C45.9383 544.538 45.635 545.098 45.425 545.705C45.1917 546.288 45.075 546.872 45.075 547.455C45.075 548.365 45.2733 549.193 45.67 549.94C46.0433 550.663 46.5567 551.293 47.21 551.83C47.84 552.343 48.575 552.74 49.415 553.02C50.2317 553.3 51.0717 553.44 51.935 553.44C52.845 553.44 53.72 553.277 54.56 552.95C55.3767 552.623 56.0883 552.18 56.695 551.62C57.3017 551.06 57.7917 550.407 58.165 549.66C58.515 548.89 58.69 548.062 58.69 547.175ZM61 533.423L42.73 533.423L42.73 530.343L61 530.343L61 533.423ZM39.3 533.423L35.45 533.423L35.45 530.343L39.3 530.343L39.3 533.423ZM61.35 517.272C61.35 518.648 61.105 519.908 60.615 521.052C60.1017 522.195 59.4133 523.175 58.55 523.992C57.6867 524.808 56.6833 525.45 55.54 525.917C54.3733 526.36 53.1483 526.582 51.865 526.582C50.5817 526.582 49.3683 526.36 48.225 525.917C47.0817 525.45 46.0783 524.808 45.215 523.992C44.3517 523.152 43.675 522.16 43.185 521.017C42.6717 519.873 42.415 518.613 42.415 517.237C42.415 515.86 42.6717 514.612 43.185 513.492C43.6983 512.348 44.3867 511.38 45.25 510.587C46.09 509.793 47.0817 509.187 48.225 508.767C49.345 508.323 50.5117 508.102 51.725 508.102C51.9817 508.102 52.215 508.113 52.425 508.137C52.635 508.137 52.7983 508.148 52.915 508.172L52.915 523.327C53.825 523.257 54.6533 523.047 55.4 522.697C56.1467 522.347 56.7883 521.892 57.325 521.332C57.8617 520.772 58.2817 520.142 58.585 519.442C58.8883 518.718 59.04 517.96 59.04 517.167C59.04 516.607 58.97 516.058 58.83 515.522C58.6667 514.985 58.4567 514.483 58.2 514.017C57.9433 513.55 57.6283 513.142 57.255 512.792C56.8817 512.418 56.4617 512.138 55.995 511.952L56.73 509.292C57.4067 509.595 58.025 510.015 58.585 510.552C59.145 511.065 59.635 511.672 60.055 512.372C60.4517 513.048 60.7667 513.807 61 514.647C61.2333 515.487 61.35 516.362 61.35 517.272ZM50.64 511.007C49.7767 511.077 48.9833 511.298 48.26 511.672C47.5133 512.022 46.8833 512.477 46.37 513.037C45.8567 513.573 45.46 514.203 45.18 514.927C44.8767 515.65 44.725 516.42 44.725 517.237C44.725 518.053 44.8767 518.823 45.18 519.547C45.46 520.27 45.8683 520.912 46.405 521.472C46.9183 522.008 47.5367 522.452 48.26 522.802C48.9833 523.128 49.7767 523.327 50.64 523.397L50.64 511.007ZM61 488.823L61 491.903L50.78 491.903C48.82 491.903 47.3967 492.206 46.51 492.813C45.6233 493.396 45.18 494.295 45.18 495.508C45.18 496.138 45.3083 496.768 45.565 497.398C45.7983 498.028 46.125 498.623 46.545 499.183C46.965 499.743 47.4667 500.233 48.05 500.653C48.6333 501.073 49.275 501.388 49.975 501.598L61 501.598L61 504.678L42.73 504.678L42.73 501.878L46.65 501.878C45.3667 501.155 44.34 500.116 43.57 498.763C42.8 497.386 42.415 495.893 42.415 494.283C42.415 493.233 42.6133 492.358 43.01 491.658C43.3833 490.958 43.92 490.398 44.62 489.978C45.2967 489.558 46.1017 489.266 47.035 489.103C47.9683 488.916 48.9833 488.823 50.08 488.823L61 488.823ZM60.09 474.754C60.1833 474.941 60.3 475.186 60.44 475.489C60.5567 475.793 60.685 476.143 60.825 476.539C60.9417 476.913 61.035 477.333 61.105 477.799C61.1983 478.243 61.245 478.709 61.245 479.199C61.245 480.319 60.9417 481.288 60.335 482.104C59.705 482.921 58.7367 483.329 57.43 483.329L45.145 483.329L45.145 485.814L42.73 485.814L42.73 483.329L36.64 483.329L36.64 480.249L42.73 480.249L42.73 476.154L45.145 476.154L45.145 480.249L56.485 480.249C57.1617 480.203 57.6517 479.981 57.955 479.584C58.2583 479.188 58.41 478.721 58.41 478.184C58.41 477.578 58.3167 477.029 58.13 476.539C57.92 476.026 57.7567 475.676 57.64 475.489L60.09 474.754ZM58.2 450.622L61 450.622L61 463.187L58.2 463.187L58.2 458.217L44.55 458.217C44.83 458.427 45.1333 458.754 45.46 459.197C45.7633 459.641 46.055 460.142 46.335 460.702C46.5917 461.239 46.8133 461.799 47 462.382C47.1867 462.966 47.28 463.479 47.28 463.922L44.34 463.922C44.34 463.409 44.2 462.837 43.92 462.207C43.6167 461.577 43.2783 460.982 42.905 460.422C42.5083 459.839 42.135 459.349 41.785 458.952C41.4117 458.532 41.155 458.287 41.015 458.217L41.015 455.067L58.2 455.067L58.2 450.622Z" fill="white"/>
<defs>
<linearGradient id="paint0_linear_3_13" x1="110.403" y1="-193.217" x2="110.403" y2="716.006" gradientUnits="userSpaceOnUse">
<stop offset="0.355769" stop-color="#020409"/>
<stop offset="0.917018" stop-color="#3148B9"/>
</linearGradient>
</defs>
</svg>
