<svg width="220" height="647" viewBox="0 0 220 647" fill="none" xmlns="http://www.w3.org/2000/svg">
<rect width="220" height="647" rx="30" fill="#232323"/>
<path d="M48.64 594.49C50.9967 596.683 52.175 599.203 52.175 602.05C52.175 603.707 51.8133 605.247 51.09 606.67C50.3667 608.07 49.4217 609.283 48.255 610.31C47.065 611.337 45.7117 612.153 44.195 612.76C42.6783 613.343 41.115 613.635 39.505 613.635C37.825 613.635 36.2383 613.343 34.745 612.76C33.2283 612.177 31.8983 611.372 30.755 610.345C29.5883 609.318 28.6667 608.093 27.99 606.67C27.3133 605.247 26.975 603.707 26.975 602.05C26.975 599.647 27.4767 597.675 28.48 596.135C29.4833 594.572 30.79 593.382 32.4 592.565L34.08 594.98C32.6333 595.727 31.56 596.718 30.86 597.955C30.16 599.192 29.81 600.58 29.81 602.12C29.81 603.38 30.09 604.523 30.65 605.55C31.1867 606.577 31.91 607.452 32.82 608.175C33.7067 608.898 34.745 609.458 35.935 609.855C37.1017 610.252 38.315 610.45 39.575 610.45C40.905 610.45 42.165 610.228 43.355 609.785C44.5217 609.342 45.56 608.735 46.47 607.965C47.3567 607.195 48.0567 606.285 48.57 605.235C49.0833 604.185 49.34 603.042 49.34 601.805C49.34 599.098 48.0333 596.66 45.42 594.49L41.99 594.49L41.99 599.845L39.61 599.845L39.61 591.83L52 591.83L52 594.49L48.64 594.49ZM36.425 577.87C36.4717 579.41 36.8683 580.775 37.615 581.965C38.3617 583.131 39.4 583.96 40.73 584.45L52 584.45L52 587.53L33.73 587.53L33.73 584.66L37.965 584.66C36.705 584.03 35.69 583.201 34.92 582.175C34.1267 581.148 33.6833 580.051 33.59 578.885C33.59 578.651 33.59 578.453 33.59 578.29C33.59 578.126 33.6017 577.986 33.625 577.87L36.425 577.87ZM52.35 567.14C52.35 568.517 52.105 569.777 51.615 570.92C51.1017 572.063 50.4133 573.043 49.55 573.86C48.6867 574.677 47.6833 575.318 46.54 575.785C45.3733 576.228 44.1483 576.45 42.865 576.45C41.5817 576.45 40.3683 576.228 39.225 575.785C38.0817 575.318 37.0783 574.677 36.215 573.86C35.3517 573.02 34.675 572.028 34.185 570.885C33.6717 569.742 33.415 568.482 33.415 567.105C33.415 565.728 33.6717 564.48 34.185 563.36C34.6983 562.217 35.3867 561.248 36.25 560.455C37.09 559.662 38.0817 559.055 39.225 558.635C40.345 558.192 41.5117 557.97 42.725 557.97C42.9817 557.97 43.215 557.982 43.425 558.005C43.635 558.005 43.7983 558.017 43.915 558.04L43.915 573.195C44.825 573.125 45.6533 572.915 46.4 572.565C47.1467 572.215 47.7883 571.76 48.325 571.2C48.8617 570.64 49.2817 570.01 49.585 569.31C49.8883 568.587 50.04 567.828 50.04 567.035C50.04 566.475 49.97 565.927 49.83 565.39C49.6667 564.853 49.4567 564.352 49.2 563.885C48.9433 563.418 48.6283 563.01 48.255 562.66C47.8817 562.287 47.4617 562.007 46.995 561.82L47.73 559.16C48.4067 559.463 49.025 559.883 49.585 560.42C50.145 560.933 50.635 561.54 51.055 562.24C51.4517 562.917 51.7667 563.675 52 564.515C52.2333 565.355 52.35 566.23 52.35 567.14ZM41.64 560.875C40.7767 560.945 39.9833 561.167 39.26 561.54C38.5133 561.89 37.8833 562.345 37.37 562.905C36.8567 563.442 36.46 564.072 36.18 564.795C35.8767 565.518 35.725 566.288 35.725 567.105C35.725 567.922 35.8767 568.692 36.18 569.415C36.46 570.138 36.8683 570.78 37.405 571.34C37.9183 571.877 38.5367 572.32 39.26 572.67C39.9833 572.997 40.7767 573.195 41.64 573.265L41.64 560.875ZM56.97 554.219C57.0167 553.916 57.0517 553.612 57.075 553.309C57.0983 553.006 57.11 552.772 57.11 552.609C57.11 552.329 57.04 552.084 56.9 551.874C56.7833 551.641 56.5383 551.419 56.165 551.209C55.7917 550.976 55.2667 550.719 54.59 550.439C53.9367 550.159 53.0733 549.809 52 549.389L33.73 557.124L33.73 553.939L49.235 547.709L33.73 542.039L33.73 539.099L56.795 547.989C57.6117 548.316 58.3233 548.864 58.93 549.634C59.56 550.381 59.875 551.419 59.875 552.749C59.875 552.959 59.8633 553.181 59.84 553.414C59.8167 553.624 59.77 553.892 59.7 554.219L56.97 554.219Z" fill="white"/>
<path d="M29.072 39L27.499 36.745C27.433 36.7523 27.334 36.756 27.202 36.756H25.464V39H24.034V31.3H27.202C27.8693 31.3 28.4487 31.41 28.94 31.63C29.4387 31.85 29.82 32.1653 30.084 32.576C30.348 32.9867 30.48 33.4743 30.48 34.039C30.48 34.6183 30.337 35.117 30.051 35.535C29.7723 35.953 29.369 36.2647 28.841 36.47L30.612 39H29.072ZM29.039 34.039C29.039 33.5477 28.8777 33.17 28.555 32.906C28.2323 32.642 27.7593 32.51 27.136 32.51H25.464V35.579H27.136C27.7593 35.579 28.2323 35.447 28.555 35.183C28.8777 34.9117 29.039 34.5303 29.039 34.039ZM37.3379 35.062H38.6909V38.131C38.2949 38.4463 37.8329 38.6883 37.3049 38.857C36.7769 39.0257 36.2342 39.11 35.6769 39.11C34.8922 39.11 34.1846 38.9413 33.5539 38.604C32.9232 38.2593 32.4282 37.7863 32.0689 37.185C31.7096 36.5837 31.5299 35.9053 31.5299 35.15C31.5299 34.3947 31.7096 33.7163 32.0689 33.115C32.4282 32.5137 32.9232 32.0443 33.5539 31.707C34.1919 31.3623 34.9069 31.19 35.6989 31.19C36.3442 31.19 36.9309 31.2963 37.4589 31.509C37.9869 31.7217 38.4306 32.0333 38.7899 32.444L37.8879 33.324C37.3012 32.7373 36.5936 32.444 35.7649 32.444C35.2222 32.444 34.7382 32.5577 34.3129 32.785C33.8949 33.0123 33.5649 33.3313 33.3229 33.742C33.0882 34.1527 32.9709 34.622 32.9709 35.15C32.9709 35.6633 33.0882 36.1253 33.3229 36.536C33.5649 36.9467 33.8949 37.2693 34.3129 37.504C34.7382 37.7387 35.2186 37.856 35.7539 37.856C36.3552 37.856 36.8832 37.724 37.3379 37.46V35.062ZM46.033 34.996C46.4583 35.1353 46.7956 35.37 47.045 35.7C47.2943 36.0227 47.419 36.426 47.419 36.91C47.419 37.5773 47.1623 38.0943 46.649 38.461C46.1356 38.8203 45.3876 39 44.405 39H40.577V31.3H44.185C45.0943 31.3 45.7946 31.4797 46.286 31.839C46.7773 32.191 47.023 32.6787 47.023 33.302C47.023 33.6833 46.935 34.0207 46.759 34.314C46.583 34.6073 46.341 34.8347 46.033 34.996ZM42.007 32.422V34.545H44.031C44.5296 34.545 44.911 34.457 45.175 34.281C45.4463 34.0977 45.582 33.8337 45.582 33.489C45.582 33.137 45.4463 32.873 45.175 32.697C44.911 32.5137 44.5296 32.422 44.031 32.422H42.007ZM44.317 37.878C45.4243 37.878 45.978 37.5077 45.978 36.767C45.978 36.0263 45.4243 35.656 44.317 35.656H42.007V37.878H44.317ZM66.8733 34.479C67.5847 34.567 68.1273 34.809 68.5013 35.205C68.8753 35.601 69.0623 36.096 69.0623 36.69C69.0623 37.1373 68.9487 37.5443 68.7213 37.911C68.494 38.2777 68.1493 38.571 67.6873 38.791C67.2327 39.0037 66.6753 39.11 66.0153 39.11C65.4653 39.11 64.9337 39.033 64.4203 38.879C63.9143 38.7177 63.4817 38.4977 63.1223 38.219L63.7383 37.108C64.017 37.3427 64.3543 37.5297 64.7503 37.669C65.1537 37.801 65.568 37.867 65.9933 37.867C66.4993 37.867 66.8953 37.7643 67.1813 37.559C67.4747 37.3463 67.6213 37.0603 67.6213 36.701C67.6213 36.3417 67.482 36.063 67.2033 35.865C66.932 35.6597 66.514 35.557 65.9493 35.557H65.2453V34.578L66.9943 32.499H63.4963V31.3H68.7433V32.257L66.8733 34.479ZM72.2993 34.281C73.3846 34.281 74.1876 34.4937 74.7083 34.919C75.2289 35.337 75.4893 35.909 75.4893 36.635C75.4893 37.097 75.3756 37.515 75.1483 37.889C74.9209 38.263 74.5799 38.56 74.1253 38.78C73.6706 39 73.1096 39.11 72.4423 39.11C71.8923 39.11 71.3606 39.033 70.8473 38.879C70.3339 38.7177 69.9013 38.4977 69.5493 38.219L70.1543 37.108C70.4403 37.3427 70.7813 37.5297 71.1773 37.669C71.5806 37.801 71.9949 37.867 72.4203 37.867C72.9263 37.867 73.3223 37.7643 73.6083 37.559C73.9016 37.3463 74.0483 37.0567 74.0483 36.69C74.0483 36.294 73.8906 35.997 73.5753 35.799C73.2673 35.5937 72.7356 35.491 71.9803 35.491H70.1213L70.5173 31.3H75.0383V32.499H71.7273L71.5623 34.281H72.2993ZM85.6722 34.479C86.3835 34.567 86.9262 34.809 87.3002 35.205C87.6742 35.601 87.8612 36.096 87.8612 36.69C87.8612 37.1373 87.7475 37.5443 87.5202 37.911C87.2928 38.2777 86.9482 38.571 86.4862 38.791C86.0315 39.0037 85.4742 39.11 84.8142 39.11C84.2642 39.11 83.7325 39.033 83.2192 38.879C82.7132 38.7177 82.2805 38.4977 81.9212 38.219L82.5372 37.108C82.8158 37.3427 83.1532 37.5297 83.5492 37.669C83.9525 37.801 84.3668 37.867 84.7922 37.867C85.2982 37.867 85.6942 37.7643 85.9802 37.559C86.2735 37.3463 86.4202 37.0603 86.4202 36.701C86.4202 36.3417 86.2808 36.063 86.0022 35.865C85.7308 35.6597 85.3128 35.557 84.7482 35.557H84.0442V34.578L85.7932 32.499H82.2952V31.3H87.5422V32.257L85.6722 34.479ZM91.0981 34.281C92.1834 34.281 92.9864 34.4937 93.5071 34.919C94.0277 35.337 94.2881 35.909 94.2881 36.635C94.2881 37.097 94.1744 37.515 93.9471 37.889C93.7197 38.263 93.3787 38.56 92.9241 38.78C92.4694 39 91.9084 39.11 91.2411 39.11C90.6911 39.11 90.1594 39.033 89.6461 38.879C89.1327 38.7177 88.7001 38.4977 88.3481 38.219L88.9531 37.108C89.2391 37.3427 89.5801 37.5297 89.9761 37.669C90.3794 37.801 90.7937 37.867 91.2191 37.867C91.7251 37.867 92.1211 37.7643 92.4071 37.559C92.7004 37.3463 92.8471 37.0567 92.8471 36.69C92.8471 36.294 92.6894 35.997 92.3741 35.799C92.0661 35.5937 91.5344 35.491 90.7791 35.491H88.9201L89.3161 31.3H93.8371V32.499H90.5261L90.3611 34.281H91.0981ZM104.471 34.479C105.182 34.567 105.725 34.809 106.099 35.205C106.473 35.601 106.66 36.096 106.66 36.69C106.66 37.1373 106.546 37.5443 106.319 37.911C106.092 38.2777 105.747 38.571 105.285 38.791C104.83 39.0037 104.273 39.11 103.613 39.11C103.063 39.11 102.531 39.033 102.018 38.879C101.512 38.7177 101.079 38.4977 100.72 38.219L101.336 37.108C101.615 37.3427 101.952 37.5297 102.348 37.669C102.751 37.801 103.166 37.867 103.591 37.867C104.097 37.867 104.493 37.7643 104.779 37.559C105.072 37.3463 105.219 37.0603 105.219 36.701C105.219 36.3417 105.08 36.063 104.801 35.865C104.53 35.6597 104.112 35.557 103.547 35.557H102.843V34.578L104.592 32.499H101.094V31.3H106.341V32.257L104.471 34.479ZM109.897 34.281C110.982 34.281 111.785 34.4937 112.306 34.919C112.827 35.337 113.087 35.909 113.087 36.635C113.087 37.097 112.973 37.515 112.746 37.889C112.519 38.263 112.178 38.56 111.723 38.78C111.268 39 110.707 39.11 110.04 39.11C109.49 39.11 108.958 39.033 108.445 38.879C107.932 38.7177 107.499 38.4977 107.147 38.219L107.752 37.108C108.038 37.3427 108.379 37.5297 108.775 37.669C109.178 37.801 109.593 37.867 110.018 37.867C110.524 37.867 110.92 37.7643 111.206 37.559C111.499 37.3463 111.646 37.0567 111.646 36.69C111.646 36.294 111.488 35.997 111.173 35.799C110.865 35.5937 110.333 35.491 109.578 35.491H107.719L108.115 31.3H112.636V32.499H109.325L109.16 34.281H109.897ZM27.598 57.11C26.8207 57.11 26.1167 56.9413 25.486 56.604C24.8627 56.2593 24.3713 55.7863 24.012 55.185C23.66 54.5837 23.484 53.9053 23.484 53.15C23.484 52.3947 23.6637 51.7163 24.023 51.115C24.3823 50.5137 24.8737 50.0443 25.497 49.707C26.1277 49.3623 26.8317 49.19 27.609 49.19C28.2397 49.19 28.8153 49.3 29.336 49.52C29.8567 49.74 30.2967 50.059 30.656 50.477L29.732 51.346C29.1747 50.7447 28.489 50.444 27.675 50.444C27.147 50.444 26.674 50.5613 26.256 50.796C25.838 51.0233 25.5117 51.3423 25.277 51.753C25.0423 52.1637 24.925 52.6293 24.925 53.15C24.925 53.6707 25.0423 54.1363 25.277 54.547C25.5117 54.9577 25.838 55.2803 26.256 55.515C26.674 55.7423 27.147 55.856 27.675 55.856C28.489 55.856 29.1747 55.5517 29.732 54.943L30.656 55.823C30.2967 56.241 29.853 56.56 29.325 56.78C28.8043 57 28.2287 57.11 27.598 57.11ZM39.0992 57L39.0882 51.896L36.5582 56.12H35.9202L33.3902 51.962V57H32.0262V49.3H33.2032L36.2612 54.404L39.2642 49.3H40.4412L40.4522 57H39.0992ZM45.854 54.283V57H44.424V54.305L41.399 49.3H42.928L45.183 53.051L47.46 49.3H48.868L45.854 54.283ZM52.3481 53.777L51.1271 55.031V57H49.6971V49.3H51.1271V53.249L54.9331 49.3H56.5391L53.3051 52.743L56.7371 57H55.0651L52.3481 53.777ZM68.2348 52.952C68.6382 53.1353 68.9462 53.3847 69.1588 53.7C69.3788 54.008 69.4888 54.371 69.4888 54.789C69.4888 55.2583 69.3568 55.669 69.0928 56.021C68.8362 56.373 68.4695 56.6443 67.9928 56.835C67.5162 57.0183 66.9625 57.11 66.3318 57.11C65.7012 57.11 65.1475 57.0183 64.6708 56.835C64.2015 56.6443 63.8385 56.373 63.5818 56.021C63.3252 55.669 63.1968 55.2583 63.1968 54.789C63.1968 54.371 63.3032 54.008 63.5158 53.7C63.7285 53.3847 64.0328 53.1353 64.4288 52.952C64.1208 52.7833 63.8825 52.5633 63.7138 52.292C63.5525 52.0133 63.4718 51.6943 63.4718 51.335C63.4718 50.9023 63.5892 50.5247 63.8238 50.202C64.0658 49.8793 64.4032 49.63 64.8358 49.454C65.2685 49.278 65.7672 49.19 66.3318 49.19C66.9038 49.19 67.4062 49.278 67.8388 49.454C68.2715 49.63 68.6088 49.8793 68.8508 50.202C69.0928 50.5247 69.2138 50.9023 69.2138 51.335C69.2138 51.6943 69.1295 52.0097 68.9608 52.281C68.7922 52.5523 68.5502 52.776 68.2348 52.952ZM66.3318 50.312C65.8845 50.312 65.5288 50.4073 65.2648 50.598C65.0082 50.7887 64.8798 51.0563 64.8798 51.401C64.8798 51.731 65.0082 51.995 65.2648 52.193C65.5288 52.3837 65.8845 52.479 66.3318 52.479C66.7865 52.479 67.1458 52.3837 67.4098 52.193C67.6738 51.995 67.8058 51.731 67.8058 51.401C67.8058 51.0563 67.6702 50.7887 67.3988 50.598C67.1348 50.4073 66.7792 50.312 66.3318 50.312ZM66.3318 55.988C66.8598 55.988 67.2778 55.878 67.5858 55.658C67.8938 55.438 68.0478 55.1337 68.0478 54.745C68.0478 54.3637 67.8938 54.063 67.5858 53.843C67.2778 53.623 66.8598 53.513 66.3318 53.513C65.8038 53.513 65.3895 53.623 65.0888 53.843C64.7882 54.063 64.6378 54.3637 64.6378 54.745C64.6378 55.1337 64.7882 55.438 65.0888 55.658C65.3895 55.878 65.8038 55.988 66.3318 55.988ZM76.2246 49.3V50.257L73.2326 57H71.7036L74.5966 50.51H71.5716V51.819H70.2406V49.3H76.2246ZM88.9971 49.3V50.257L86.0051 57H84.4761L87.3691 50.51H84.3441V51.819H83.0131V49.3H88.9971ZM94.6821 52.952C95.0854 53.1353 95.3934 53.3847 95.6061 53.7C95.8261 54.008 95.9361 54.371 95.9361 54.789C95.9361 55.2583 95.8041 55.669 95.5401 56.021C95.2834 56.373 94.9168 56.6443 94.4401 56.835C93.9634 57.0183 93.4098 57.11 92.7791 57.11C92.1484 57.11 91.5948 57.0183 91.1181 56.835C90.6488 56.6443 90.2858 56.373 90.0291 56.021C89.7724 55.669 89.6441 55.2583 89.6441 54.789C89.6441 54.371 89.7504 54.008 89.9631 53.7C90.1758 53.3847 90.4801 53.1353 90.8761 52.952C90.5681 52.7833 90.3298 52.5633 90.1611 52.292C89.9998 52.0133 89.9191 51.6943 89.9191 51.335C89.9191 50.9023 90.0364 50.5247 90.2711 50.202C90.5131 49.8793 90.8504 49.63 91.2831 49.454C91.7158 49.278 92.2144 49.19 92.7791 49.19C93.3511 49.19 93.8534 49.278 94.2861 49.454C94.7188 49.63 95.0561 49.8793 95.2981 50.202C95.5401 50.5247 95.6611 50.9023 95.6611 51.335C95.6611 51.6943 95.5768 52.0097 95.4081 52.281C95.2394 52.5523 94.9974 52.776 94.6821 52.952ZM92.7791 50.312C92.3318 50.312 91.9761 50.4073 91.7121 50.598C91.4554 50.7887 91.3271 51.0563 91.3271 51.401C91.3271 51.731 91.4554 51.995 91.7121 52.193C91.9761 52.3837 92.3318 52.479 92.7791 52.479C93.2338 52.479 93.5931 52.3837 93.8571 52.193C94.1211 51.995 94.2531 51.731 94.2531 51.401C94.2531 51.0563 94.1174 50.7887 93.8461 50.598C93.5821 50.4073 93.2264 50.312 92.7791 50.312ZM92.7791 55.988C93.3071 55.988 93.7251 55.878 94.0331 55.658C94.3411 55.438 94.4951 55.1337 94.4951 54.745C94.4951 54.3637 94.3411 54.063 94.0331 53.843C93.7251 53.623 93.3071 53.513 92.7791 53.513C92.2511 53.513 91.8368 53.623 91.5361 53.843C91.2354 54.063 91.0851 54.3637 91.0851 54.745C91.0851 55.1337 91.2354 55.438 91.5361 55.658C91.8368 55.878 92.2511 55.988 92.7791 55.988ZM106.156 57.11C105.54 57.11 104.99 56.956 104.506 56.648C104.022 56.3327 103.641 55.878 103.362 55.284C103.083 54.6827 102.944 53.9713 102.944 53.15C102.944 52.3287 103.083 51.621 103.362 51.027C103.641 50.4257 104.022 49.971 104.506 49.663C104.99 49.3477 105.54 49.19 106.156 49.19C106.772 49.19 107.322 49.3477 107.806 49.663C108.297 49.971 108.682 50.4257 108.961 51.027C109.24 51.621 109.379 52.3287 109.379 53.15C109.379 53.9713 109.24 54.6827 108.961 55.284C108.682 55.878 108.297 56.3327 107.806 56.648C107.322 56.956 106.772 57.11 106.156 57.11ZM106.156 55.867C106.706 55.867 107.139 55.6397 107.454 55.185C107.777 54.7303 107.938 54.052 107.938 53.15C107.938 52.248 107.777 51.5697 107.454 51.115C107.139 50.6603 106.706 50.433 106.156 50.433C105.613 50.433 105.181 50.6603 104.858 51.115C104.543 51.5697 104.385 52.248 104.385 53.15C104.385 54.052 104.543 54.7303 104.858 55.185C105.181 55.6397 105.613 55.867 106.156 55.867ZM119.637 57.11C119.021 57.11 118.471 56.956 117.987 56.648C117.503 56.3327 117.122 55.878 116.843 55.284C116.565 54.6827 116.425 53.9713 116.425 53.15C116.425 52.3287 116.565 51.621 116.843 51.027C117.122 50.4257 117.503 49.971 117.987 49.663C118.471 49.3477 119.021 49.19 119.637 49.19C120.253 49.19 120.803 49.3477 121.287 49.663C121.779 49.971 122.164 50.4257 122.442 51.027C122.721 51.621 122.86 52.3287 122.86 53.15C122.86 53.9713 122.721 54.6827 122.442 55.284C122.164 55.878 121.779 56.3327 121.287 56.648C120.803 56.956 120.253 57.11 119.637 57.11ZM119.637 55.867C120.187 55.867 120.62 55.6397 120.935 55.185C121.258 54.7303 121.419 54.052 121.419 53.15C121.419 52.248 121.258 51.5697 120.935 51.115C120.62 50.6603 120.187 50.433 119.637 50.433C119.095 50.433 118.662 50.6603 118.339 51.115C118.024 51.5697 117.866 52.248 117.866 53.15C117.866 54.052 118.024 54.7303 118.339 55.185C118.662 55.6397 119.095 55.867 119.637 55.867ZM30.876 67.3V75H29.446V71.7H25.464V75H24.034V67.3H25.464V70.479H29.446V67.3H30.876ZM38.7143 73.801V75H32.9393V67.3H38.5603V68.499H34.3693V70.501H38.0873V71.678H34.3693V73.801H38.7143ZM45.0735 75L42.9835 72.074L40.9155 75H39.2875L42.1475 71.073L39.4415 67.3H41.0585L43.0275 70.039L44.9745 67.3H46.5255L43.8305 71.018L46.7235 75H45.0735ZM68.0766 73.79V75H62.4006V74.043L65.4586 71.139C65.8033 70.809 66.0343 70.523 66.1516 70.281C66.2763 70.0317 66.3386 69.786 66.3386 69.544C66.3386 69.1847 66.2176 68.9097 65.9756 68.719C65.7336 68.5283 65.378 68.433 64.9086 68.433C64.124 68.433 63.5226 68.7007 63.1046 69.236L62.1036 68.466C62.4043 68.0627 62.8076 67.751 63.3136 67.531C63.827 67.3037 64.399 67.19 65.0296 67.19C65.8656 67.19 66.533 67.388 67.0316 67.784C67.5303 68.18 67.7796 68.719 67.7796 69.401C67.7796 69.819 67.6916 70.2113 67.5156 70.578C67.3396 70.9447 67.0023 71.3627 66.5036 71.832L64.4466 73.79H68.0766ZM72.18 70.479C72.8913 70.567 73.434 70.809 73.808 71.205C74.182 71.601 74.369 72.096 74.369 72.69C74.369 73.1373 74.2553 73.5443 74.028 73.911C73.8006 74.2777 73.456 74.571 72.994 74.791C72.5393 75.0037 71.982 75.11 71.322 75.11C70.772 75.11 70.2403 75.033 69.727 74.879C69.221 74.7177 68.7883 74.4977 68.429 74.219L69.045 73.108C69.3236 73.3427 69.661 73.5297 70.057 73.669C70.4603 73.801 70.8746 73.867 71.3 73.867C71.806 73.867 72.202 73.7643 72.488 73.559C72.7813 73.3463 72.928 73.0603 72.928 72.701C72.928 72.3417 72.7886 72.063 72.51 71.865C72.2386 71.6597 71.8206 71.557 71.256 71.557H70.552V70.578L72.301 68.499H68.803V67.3H74.05V68.257L72.18 70.479ZM80.8276 73.79V75H75.1516V74.043L78.2096 71.139C78.5543 70.809 78.7853 70.523 78.9026 70.281C79.0273 70.0317 79.0896 69.786 79.0896 69.544C79.0896 69.1847 78.9686 68.9097 78.7266 68.719C78.4846 68.5283 78.1289 68.433 77.6596 68.433C76.8749 68.433 76.2736 68.7007 75.8556 69.236L74.8546 68.466C75.1553 68.0627 75.5586 67.751 76.0646 67.531C76.5779 67.3037 77.1499 67.19 77.7806 67.19C78.6166 67.19 79.2839 67.388 79.7826 67.784C80.2813 68.18 80.5306 68.719 80.5306 69.401C80.5306 69.819 80.4426 70.2113 80.2666 70.578C80.0906 70.9447 79.7533 71.3627 79.2546 71.832L77.1976 73.79H80.8276ZM84.9309 70.479C85.6423 70.567 86.1849 70.809 86.5589 71.205C86.9329 71.601 87.1199 72.096 87.1199 72.69C87.1199 73.1373 87.0063 73.5443 86.7789 73.911C86.5516 74.2777 86.2069 74.571 85.7449 74.791C85.2903 75.0037 84.7329 75.11 84.0729 75.11C83.5229 75.11 82.9913 75.033 82.4779 74.879C81.9719 74.7177 81.5393 74.4977 81.1799 74.219L81.7959 73.108C82.0746 73.3427 82.4119 73.5297 82.8079 73.669C83.2113 73.801 83.6256 73.867 84.0509 73.867C84.5569 73.867 84.9529 73.7643 85.2389 73.559C85.5323 73.3463 85.6789 73.0603 85.6789 72.701C85.6789 72.3417 85.5396 72.063 85.2609 71.865C84.9896 71.6597 84.5716 71.557 84.0069 71.557H83.3029V70.578L85.0519 68.499H81.5539V67.3H86.8009V68.257L84.9309 70.479ZM93.5786 73.79V75H87.9026V74.043L90.9606 71.139C91.3052 70.809 91.5362 70.523 91.6536 70.281C91.7782 70.0317 91.8406 69.786 91.8406 69.544C91.8406 69.1847 91.7196 68.9097 91.4776 68.719C91.2356 68.5283 90.8799 68.433 90.4106 68.433C89.6259 68.433 89.0246 68.7007 88.6066 69.236L87.6056 68.466C87.9062 68.0627 88.3096 67.751 88.8156 67.531C89.3289 67.3037 89.9009 67.19 90.5316 67.19C91.3676 67.19 92.0349 67.388 92.5336 67.784C93.0322 68.18 93.2816 68.719 93.2816 69.401C93.2816 69.819 93.1936 70.2113 93.0176 70.578C92.8416 70.9447 92.5042 71.3627 92.0056 71.832L89.9486 73.79H93.5786ZM97.6819 70.479C98.3933 70.567 98.9359 70.809 99.3099 71.205C99.6839 71.601 99.8709 72.096 99.8709 72.69C99.8709 73.1373 99.7573 73.5443 99.5299 73.911C99.3026 74.2777 98.9579 74.571 98.4959 74.791C98.0413 75.0037 97.4839 75.11 96.8239 75.11C96.2739 75.11 95.7423 75.033 95.2289 74.879C94.7229 74.7177 94.2903 74.4977 93.9309 74.219L94.5469 73.108C94.8256 73.3427 95.1629 73.5297 95.5589 73.669C95.9623 73.801 96.3766 73.867 96.8019 73.867C97.3079 73.867 97.7039 73.7643 97.9899 73.559C98.2833 73.3463 98.4299 73.0603 98.4299 72.701C98.4299 72.3417 98.2906 72.063 98.0119 71.865C97.7406 71.6597 97.3226 71.557 96.7579 71.557H96.0539V70.578L97.8029 68.499H94.3049V67.3H99.5519V68.257L97.6819 70.479Z" fill="white"/>
</svg>
