<svg width="219" height="647" viewBox="0 0 219 647" fill="none" xmlns="http://www.w3.org/2000/svg">
<rect width="219" height="647" rx="30" fill="#3148B9"/>
<rect width="219" height="647" rx="30" fill="#3148B9"/>
<rect width="219" height="647" rx="30" fill="#F24C03"/>
<path d="M54.175 601.945C54.175 603.695 53.825 605.293 53.125 606.74C52.4017 608.163 51.4567 609.388 50.29 610.415C49.1 611.442 47.7467 612.235 46.23 612.795C44.7133 613.355 43.1617 613.635 41.575 613.635C39.9183 613.635 38.3317 613.343 36.815 612.76C35.2983 612.153 33.9567 611.325 32.79 610.275C31.6233 609.225 30.7017 607.988 30.025 606.565C29.325 605.118 28.975 603.555 28.975 601.875C28.975 600.125 29.3483 598.538 30.095 597.115C30.8183 595.692 31.775 594.467 32.965 593.44C34.155 592.413 35.5083 591.62 37.025 591.06C38.5183 590.5 40.0467 590.22 41.61 590.22C43.2667 590.22 44.8533 590.523 46.37 591.13C47.8867 591.713 49.2283 592.53 50.395 593.58C51.5383 594.607 52.46 595.843 53.16 597.29C53.8367 598.713 54.175 600.265 54.175 601.945ZM41.575 610.45C42.835 610.45 44.06 610.252 45.25 609.855C46.4167 609.435 47.455 608.852 48.365 608.105C49.275 607.358 49.9983 606.46 50.535 605.41C51.0717 604.36 51.34 603.193 51.34 601.91C51.34 600.58 51.06 599.39 50.5 598.34C49.9167 597.29 49.17 596.403 48.26 595.68C47.3267 594.933 46.2767 594.373 45.11 594C43.9433 593.603 42.765 593.405 41.575 593.405C40.315 593.405 39.1017 593.615 37.935 594.035C36.745 594.432 35.7067 595.015 34.82 595.785C33.91 596.532 33.1867 597.43 32.65 598.48C32.1133 599.507 31.845 600.65 31.845 601.91C31.845 603.24 32.125 604.43 32.685 605.48C33.245 606.53 33.98 607.428 34.89 608.175C35.8 608.898 36.8383 609.458 38.005 609.855C39.1717 610.252 40.3617 610.45 41.575 610.45ZM38.425 576.844C38.4717 578.384 38.8683 579.749 39.615 580.939C40.3617 582.106 41.4 582.934 42.73 583.424L54 583.424L54 586.504L35.73 586.504L35.73 583.634L39.965 583.634C38.705 583.004 37.69 582.176 36.92 581.149C36.1267 580.123 35.6833 579.026 35.59 577.859C35.59 577.626 35.59 577.428 35.59 577.264C35.59 577.101 35.6017 576.961 35.625 576.844L38.425 576.844ZM54.35 569.099C54.35 569.963 54.21 570.768 53.93 571.514C53.6267 572.261 53.2183 572.914 52.705 573.474C52.1917 574.011 51.5967 574.443 50.92 574.769C50.22 575.073 49.4617 575.224 48.645 575.224C47.805 575.224 47.0467 575.038 46.37 574.664C45.67 574.291 45.075 573.766 44.585 573.089C44.095 572.389 43.71 571.573 43.43 570.639C43.15 569.683 43.01 568.644 43.01 567.524C43.01 566.638 43.0917 565.739 43.255 564.829C43.4183 563.919 43.64 563.114 43.92 562.414L42.45 562.414C40.9567 562.414 39.79 562.834 38.95 563.674C38.0867 564.514 37.655 565.704 37.655 567.244C37.655 569.088 38.3667 571.024 39.79 573.054L37.795 574.069C36.2083 571.713 35.415 569.344 35.415 566.964C35.415 564.561 36.0567 562.694 37.34 561.364C38.6233 560.011 40.4317 559.334 42.765 559.334L50.22 559.334C50.9433 559.334 51.3167 559.008 51.34 558.354L54 558.354C54.0467 558.681 54.0817 558.949 54.105 559.159C54.1283 559.369 54.14 559.591 54.14 559.824C54.14 560.431 53.965 560.921 53.615 561.294C53.2417 561.644 52.7983 561.854 52.285 561.924L50.99 561.994C52.0867 562.811 52.9267 563.849 53.51 565.109C54.07 566.346 54.35 567.676 54.35 569.099ZM52.04 568.294C52.04 567.198 51.8417 566.183 51.445 565.249C51.025 564.293 50.4767 563.569 49.8 563.079C49.3567 562.636 48.9017 562.414 48.435 562.414L45.74 562.414C45.1567 563.908 44.865 565.459 44.865 567.069C44.865 568.609 45.1917 569.869 45.845 570.849C46.4983 571.806 47.35 572.284 48.4 572.284C48.9133 572.284 49.3917 572.191 49.835 572.004C50.2783 571.794 50.6633 571.514 50.99 571.164C51.3167 570.791 51.5733 570.359 51.76 569.869C51.9467 569.379 52.04 568.854 52.04 568.294ZM54 538.555L54 541.635L43.78 541.635C41.82 541.635 40.3967 541.938 39.51 542.545C38.6233 543.128 38.18 544.026 38.18 545.24C38.18 545.87 38.3083 546.5 38.565 547.13C38.7983 547.76 39.125 548.355 39.545 548.915C39.965 549.475 40.4667 549.965 41.05 550.385C41.6333 550.805 42.275 551.12 42.975 551.33L54 551.33L54 554.41L35.73 554.41L35.73 551.61L39.65 551.61C38.3667 550.886 37.34 549.848 36.57 548.495C35.8 547.118 35.415 545.625 35.415 544.015C35.415 542.965 35.6133 542.09 36.01 541.39C36.3833 540.69 36.92 540.13 37.62 539.71C38.2967 539.29 39.1017 538.998 40.035 538.835C40.9683 538.648 41.9833 538.555 43.08 538.555L54 538.555ZM54.21 526.485C54.21 527.722 53.9533 528.865 53.44 529.915C52.9267 530.942 52.2383 531.828 51.375 532.575C50.5117 533.322 49.52 533.905 48.4 534.325C47.28 534.722 46.1133 534.92 44.9 534.92C43.6167 534.92 42.4033 534.722 41.26 534.325C40.0933 533.905 39.0783 533.322 38.215 532.575C37.3517 531.828 36.675 530.942 36.185 529.915C35.6717 528.865 35.415 527.71 35.415 526.45C35.415 524.91 35.7883 523.58 36.535 522.46C37.2817 521.34 38.2267 520.395 39.37 519.625L35.73 519.625L35.73 516.895L53.79 516.895C55.0967 516.895 56.24 517.14 57.22 517.63C58.2233 518.12 59.0633 518.785 59.74 519.625C60.4167 520.465 60.93 521.457 61.28 522.6C61.63 523.72 61.805 524.922 61.805 526.205C61.805 528.282 61.4433 529.973 60.72 531.28C60.02 532.563 59.04 533.637 57.78 534.5L56.205 532.715C57.2783 531.992 58.0833 531.058 58.62 529.915C59.1567 528.772 59.425 527.535 59.425 526.205C59.425 525.365 59.3083 524.572 59.075 523.825C58.8417 523.055 58.4917 522.39 58.025 521.83C57.5583 521.27 56.975 520.827 56.275 520.5C55.575 520.15 54.7467 519.975 53.79 519.975L50.57 519.975C51.13 520.325 51.6433 520.745 52.11 521.235C52.5533 521.702 52.9383 522.215 53.265 522.775C53.5683 523.335 53.8017 523.93 53.965 524.56C54.1283 525.19 54.21 525.832 54.21 526.485ZM51.69 525.54C51.69 524.887 51.5733 524.257 51.34 523.65C51.1067 523.043 50.8033 522.483 50.43 521.97C50.0333 521.457 49.59 521.025 49.1 520.675C48.61 520.325 48.1083 520.092 47.595 519.975L42.345 519.975C41.715 520.232 41.1433 520.57 40.63 520.99C40.1167 521.387 39.6733 521.842 39.3 522.355C38.9033 522.868 38.6 523.428 38.39 524.035C38.18 524.618 38.075 525.213 38.075 525.82C38.075 526.753 38.2733 527.593 38.67 528.34C39.0667 529.063 39.5917 529.682 40.245 530.195C40.8983 530.708 41.645 531.105 42.485 531.385C43.3017 531.665 44.13 531.805 44.97 531.805C45.88 531.805 46.7433 531.642 47.56 531.315C48.3767 530.988 49.0883 530.545 49.695 529.985C50.3017 529.425 50.7917 528.772 51.165 528.025C51.515 527.255 51.69 526.427 51.69 525.54ZM54.35 503.839C54.35 505.216 54.105 506.476 53.615 507.619C53.1017 508.763 52.4133 509.743 51.55 510.559C50.6867 511.376 49.6833 512.018 48.54 512.484C47.3733 512.928 46.1483 513.149 44.865 513.149C43.5817 513.149 42.3683 512.928 41.225 512.484C40.0817 512.018 39.0783 511.376 38.215 510.559C37.3517 509.719 36.675 508.728 36.185 507.584C35.6717 506.441 35.415 505.181 35.415 503.804C35.415 502.428 35.6717 501.179 36.185 500.059C36.6983 498.916 37.3867 497.948 38.25 497.154C39.09 496.361 40.0817 495.754 41.225 495.334C42.345 494.891 43.5117 494.669 44.725 494.669C44.9817 494.669 45.215 494.681 45.425 494.704C45.635 494.704 45.7983 494.716 45.915 494.739L45.915 509.894C46.825 509.824 47.6533 509.614 48.4 509.264C49.1467 508.914 49.7883 508.459 50.325 507.899C50.8617 507.339 51.2817 506.709 51.585 506.009C51.8883 505.286 52.04 504.528 52.04 503.734C52.04 503.174 51.97 502.626 51.83 502.089C51.6667 501.553 51.4567 501.051 51.2 500.584C50.9433 500.118 50.6283 499.709 50.255 499.359C49.8817 498.986 49.4617 498.706 48.995 498.519L49.73 495.859C50.4067 496.163 51.025 496.583 51.585 497.119C52.145 497.633 52.635 498.239 53.055 498.939C53.4517 499.616 53.7667 500.374 54 501.214C54.2333 502.054 54.35 502.929 54.35 503.839ZM43.64 497.574C42.7767 497.644 41.9833 497.866 41.26 498.239C40.5133 498.589 39.8833 499.044 39.37 499.604C38.8567 500.141 38.46 500.771 38.18 501.494C37.8767 502.218 37.725 502.988 37.725 503.804C37.725 504.621 37.8767 505.391 38.18 506.114C38.46 506.838 38.8683 507.479 39.405 508.039C39.9183 508.576 40.5367 509.019 41.26 509.369C41.9833 509.696 42.7767 509.894 43.64 509.964L43.64 497.574Z" fill="white"/>
<path d="M35.072 39L33.499 36.745C33.433 36.7523 33.334 36.756 33.202 36.756H31.464V39H30.034V31.3H33.202C33.8693 31.3 34.4487 31.41 34.94 31.63C35.4387 31.85 35.82 32.1653 36.084 32.576C36.348 32.9867 36.48 33.4743 36.48 34.039C36.48 34.6183 36.337 35.117 36.051 35.535C35.7723 35.953 35.369 36.2647 34.841 36.47L36.612 39H35.072ZM35.039 34.039C35.039 33.5477 34.8777 33.17 34.555 32.906C34.2323 32.642 33.7593 32.51 33.136 32.51H31.464V35.579H33.136C33.7593 35.579 34.2323 35.447 34.555 35.183C34.8777 34.9117 35.039 34.5303 35.039 34.039ZM43.3379 35.062H44.6909V38.131C44.2949 38.4463 43.8329 38.6883 43.3049 38.857C42.7769 39.0257 42.2342 39.11 41.6769 39.11C40.8922 39.11 40.1846 38.9413 39.5539 38.604C38.9232 38.2593 38.4282 37.7863 38.0689 37.185C37.7096 36.5837 37.5299 35.9053 37.5299 35.15C37.5299 34.3947 37.7096 33.7163 38.0689 33.115C38.4282 32.5137 38.9232 32.0443 39.5539 31.707C40.1919 31.3623 40.9069 31.19 41.6989 31.19C42.3442 31.19 42.9309 31.2963 43.4589 31.509C43.9869 31.7217 44.4306 32.0333 44.7899 32.444L43.8879 33.324C43.3012 32.7373 42.5936 32.444 41.7649 32.444C41.2222 32.444 40.7382 32.5577 40.3129 32.785C39.8949 33.0123 39.5649 33.3313 39.3229 33.742C39.0882 34.1527 38.9709 34.622 38.9709 35.15C38.9709 35.6633 39.0882 36.1253 39.3229 36.536C39.5649 36.9467 39.8949 37.2693 40.3129 37.504C40.7382 37.7387 41.2186 37.856 41.7539 37.856C42.3552 37.856 42.8832 37.724 43.3379 37.46V35.062ZM52.033 34.996C52.4583 35.1353 52.7956 35.37 53.045 35.7C53.2943 36.0227 53.419 36.426 53.419 36.91C53.419 37.5773 53.1623 38.0943 52.649 38.461C52.1356 38.8203 51.3876 39 50.405 39H46.577V31.3H50.185C51.0943 31.3 51.7946 31.4797 52.286 31.839C52.7773 32.191 53.023 32.6787 53.023 33.302C53.023 33.6833 52.935 34.0207 52.759 34.314C52.583 34.6073 52.341 34.8347 52.033 34.996ZM48.007 32.422V34.545H50.031C50.5296 34.545 50.911 34.457 51.175 34.281C51.4463 34.0977 51.582 33.8337 51.582 33.489C51.582 33.137 51.4463 32.873 51.175 32.697C50.911 32.5137 50.5296 32.422 50.031 32.422H48.007ZM50.317 37.878C51.4243 37.878 51.978 37.5077 51.978 36.767C51.978 36.0263 51.4243 35.656 50.317 35.656H48.007V37.878H50.317ZM75.1723 37.79V39H69.4963V38.043L72.5543 35.139C72.899 34.809 73.13 34.523 73.2473 34.281C73.372 34.0317 73.4343 33.786 73.4343 33.544C73.4343 33.1847 73.3133 32.9097 73.0713 32.719C72.8293 32.5283 72.4737 32.433 72.0043 32.433C71.2197 32.433 70.6183 32.7007 70.2003 33.236L69.1993 32.466C69.5 32.0627 69.9033 31.751 70.4093 31.531C70.9227 31.3037 71.4947 31.19 72.1253 31.19C72.9613 31.19 73.6287 31.388 74.1273 31.784C74.626 32.18 74.8753 32.719 74.8753 33.401C74.8753 33.819 74.7873 34.2113 74.6113 34.578C74.4353 34.9447 74.098 35.3627 73.5993 35.832L71.5423 37.79H75.1723ZM82.7005 37.251H81.3365V39H79.9505V37.251H75.7265V36.261L79.5215 31.3H81.0505L77.4755 36.041H79.9945V34.49H81.3365V36.041H82.7005V37.251ZM88.8471 37.79V39H83.1711V38.043L86.2291 35.139C86.5738 34.809 86.8048 34.523 86.9221 34.281C87.0468 34.0317 87.1091 33.786 87.1091 33.544C87.1091 33.1847 86.9881 32.9097 86.7461 32.719C86.5041 32.5283 86.1485 32.433 85.6791 32.433C84.8945 32.433 84.2931 32.7007 83.8751 33.236L82.8741 32.466C83.1748 32.0627 83.5781 31.751 84.0841 31.531C84.5975 31.3037 85.1695 31.19 85.8001 31.19C86.6361 31.19 87.3035 31.388 87.8021 31.784C88.3008 32.18 88.5501 32.719 88.5501 33.401C88.5501 33.819 88.4621 34.2113 88.2861 34.578C88.1101 34.9447 87.7728 35.3627 87.2741 35.832L85.2171 37.79H88.8471ZM101.561 31.3V32.257L98.5686 39H97.0396L99.9326 32.51H96.9076V33.819H95.5766V31.3H101.561ZM105.728 34.248C106.234 34.248 106.689 34.347 107.092 34.545C107.495 34.7357 107.811 35.0107 108.038 35.37C108.265 35.7293 108.379 36.1437 108.379 36.613C108.379 37.1117 108.254 37.5517 108.005 37.933C107.756 38.307 107.418 38.5967 106.993 38.802C106.568 39.0073 106.091 39.11 105.563 39.11C104.507 39.11 103.686 38.78 103.099 38.12C102.52 37.46 102.23 36.514 102.23 35.282C102.23 34.4167 102.388 33.6797 102.703 33.071C103.018 32.455 103.458 31.9893 104.023 31.674C104.595 31.3513 105.255 31.19 106.003 31.19C106.399 31.19 106.769 31.234 107.114 31.322C107.466 31.4027 107.77 31.5237 108.027 31.685L107.499 32.763C107.118 32.5137 106.63 32.389 106.036 32.389C105.295 32.389 104.716 32.6163 104.298 33.071C103.88 33.5257 103.671 34.182 103.671 35.04V35.051C103.898 34.787 104.188 34.589 104.54 34.457C104.892 34.3177 105.288 34.248 105.728 34.248ZM105.486 37.988C105.933 37.988 106.296 37.8707 106.575 37.636C106.854 37.394 106.993 37.075 106.993 36.679C106.993 36.2757 106.854 35.9567 106.575 35.722C106.296 35.4873 105.922 35.37 105.453 35.37C104.991 35.37 104.613 35.4947 104.32 35.744C104.034 35.9933 103.891 36.3087 103.891 36.69C103.891 37.064 104.03 37.3757 104.309 37.625C104.595 37.867 104.987 37.988 105.486 37.988ZM118.485 34.479C119.196 34.567 119.739 34.809 120.113 35.205C120.487 35.601 120.674 36.096 120.674 36.69C120.674 37.1373 120.56 37.5443 120.333 37.911C120.105 38.2777 119.761 38.571 119.299 38.791C118.844 39.0037 118.287 39.11 117.627 39.11C117.077 39.11 116.545 39.033 116.032 38.879C115.526 38.7177 115.093 38.4977 114.734 38.219L115.35 37.108C115.628 37.3427 115.966 37.5297 116.362 37.669C116.765 37.801 117.179 37.867 117.605 37.867C118.111 37.867 118.507 37.7643 118.793 37.559C119.086 37.3463 119.233 37.0603 119.233 36.701C119.233 36.3417 119.093 36.063 118.815 35.865C118.543 35.6597 118.125 35.557 117.561 35.557H116.857V34.578L118.606 32.499H115.108V31.3H120.355V32.257L118.485 34.479ZM33.598 57.11C32.8207 57.11 32.1167 56.9413 31.486 56.604C30.8627 56.2593 30.3713 55.7863 30.012 55.185C29.66 54.5837 29.484 53.9053 29.484 53.15C29.484 52.3947 29.6637 51.7163 30.023 51.115C30.3823 50.5137 30.8737 50.0443 31.497 49.707C32.1277 49.3623 32.8317 49.19 33.609 49.19C34.2397 49.19 34.8153 49.3 35.336 49.52C35.8567 49.74 36.2967 50.059 36.656 50.477L35.732 51.346C35.1747 50.7447 34.489 50.444 33.675 50.444C33.147 50.444 32.674 50.5613 32.256 50.796C31.838 51.0233 31.5117 51.3423 31.277 51.753C31.0423 52.1637 30.925 52.6293 30.925 53.15C30.925 53.6707 31.0423 54.1363 31.277 54.547C31.5117 54.9577 31.838 55.2803 32.256 55.515C32.674 55.7423 33.147 55.856 33.675 55.856C34.489 55.856 35.1747 55.5517 35.732 54.943L36.656 55.823C36.2967 56.241 35.853 56.56 35.325 56.78C34.8043 57 34.2287 57.11 33.598 57.11ZM45.0992 57L45.0882 51.896L42.5582 56.12H41.9202L39.3902 51.962V57H38.0262V49.3H39.2032L42.2612 54.404L45.2642 49.3H46.4412L46.4522 57H45.0992ZM51.854 54.283V57H50.424V54.305L47.399 49.3H48.928L51.183 53.051L53.46 49.3H54.868L51.854 54.283ZM58.3481 53.777L57.1271 55.031V57H55.6971V49.3H57.1271V53.249L60.9331 49.3H62.5391L59.3051 52.743L62.7371 57H61.0651L58.3481 53.777ZM72.4528 57.11C71.8368 57.11 71.2868 56.956 70.8028 56.648C70.3188 56.3327 69.9375 55.878 69.6588 55.284C69.3802 54.6827 69.2408 53.9713 69.2408 53.15C69.2408 52.3287 69.3802 51.621 69.6588 51.027C69.9375 50.4257 70.3188 49.971 70.8028 49.663C71.2868 49.3477 71.8368 49.19 72.4528 49.19C73.0688 49.19 73.6188 49.3477 74.1028 49.663C74.5942 49.971 74.9792 50.4257 75.2578 51.027C75.5365 51.621 75.6758 52.3287 75.6758 53.15C75.6758 53.9713 75.5365 54.6827 75.2578 55.284C74.9792 55.878 74.5942 56.3327 74.1028 56.648C73.6188 56.956 73.0688 57.11 72.4528 57.11ZM72.4528 55.867C73.0028 55.867 73.4355 55.6397 73.7508 55.185C74.0735 54.7303 74.2348 54.052 74.2348 53.15C74.2348 52.248 74.0735 51.5697 73.7508 51.115C73.4355 50.6603 73.0028 50.433 72.4528 50.433C71.9102 50.433 71.4775 50.6603 71.1548 51.115C70.8395 51.5697 70.6818 52.248 70.6818 53.15C70.6818 54.052 70.8395 54.7303 71.1548 55.185C71.4775 55.6397 71.9102 55.867 72.4528 55.867ZM87.7163 52.952C88.1196 53.1353 88.4276 53.3847 88.6403 53.7C88.8603 54.008 88.9703 54.371 88.9703 54.789C88.9703 55.2583 88.8383 55.669 88.5743 56.021C88.3176 56.373 87.9509 56.6443 87.4743 56.835C86.9976 57.0183 86.4439 57.11 85.8133 57.11C85.1826 57.11 84.6289 57.0183 84.1523 56.835C83.6829 56.6443 83.3199 56.373 83.0633 56.021C82.8066 55.669 82.6783 55.2583 82.6783 54.789C82.6783 54.371 82.7846 54.008 82.9973 53.7C83.2099 53.3847 83.5143 53.1353 83.9103 52.952C83.6023 52.7833 83.3639 52.5633 83.1953 52.292C83.0339 52.0133 82.9533 51.6943 82.9533 51.335C82.9533 50.9023 83.0706 50.5247 83.3053 50.202C83.5473 49.8793 83.8846 49.63 84.3173 49.454C84.7499 49.278 85.2486 49.19 85.8133 49.19C86.3853 49.19 86.8876 49.278 87.3203 49.454C87.7529 49.63 88.0903 49.8793 88.3323 50.202C88.5743 50.5247 88.6953 50.9023 88.6953 51.335C88.6953 51.6943 88.6109 52.0097 88.4423 52.281C88.2736 52.5523 88.0316 52.776 87.7163 52.952ZM85.8133 50.312C85.3659 50.312 85.0103 50.4073 84.7463 50.598C84.4896 50.7887 84.3613 51.0563 84.3613 51.401C84.3613 51.731 84.4896 51.995 84.7463 52.193C85.0103 52.3837 85.3659 52.479 85.8133 52.479C86.2679 52.479 86.6273 52.3837 86.8913 52.193C87.1553 51.995 87.2873 51.731 87.2873 51.401C87.2873 51.0563 87.1516 50.7887 86.8803 50.598C86.6163 50.4073 86.2606 50.312 85.8133 50.312ZM85.8133 55.988C86.3413 55.988 86.7593 55.878 87.0673 55.658C87.3753 55.438 87.5293 55.1337 87.5293 54.745C87.5293 54.3637 87.3753 54.063 87.0673 53.843C86.7593 53.623 86.3413 53.513 85.8133 53.513C85.2853 53.513 84.8709 53.623 84.5703 53.843C84.2696 54.063 84.1193 54.3637 84.1193 54.745C84.1193 55.1337 84.2696 55.438 84.5703 55.658C84.8709 55.878 85.2853 55.988 85.8133 55.988ZM92.3071 52.281C93.3924 52.281 94.1954 52.4937 94.7161 52.919C95.2367 53.337 95.4971 53.909 95.4971 54.635C95.4971 55.097 95.3834 55.515 95.1561 55.889C94.9287 56.263 94.5877 56.56 94.1331 56.78C93.6784 57 93.1174 57.11 92.4501 57.11C91.9001 57.11 91.3684 57.033 90.8551 56.879C90.3417 56.7177 89.9091 56.4977 89.5571 56.219L90.1621 55.108C90.4481 55.3427 90.7891 55.5297 91.1851 55.669C91.5884 55.801 92.0027 55.867 92.4281 55.867C92.9341 55.867 93.3301 55.7643 93.6161 55.559C93.9094 55.3463 94.0561 55.0567 94.0561 54.69C94.0561 54.294 93.8984 53.997 93.5831 53.799C93.2751 53.5937 92.7434 53.491 91.9881 53.491H90.1291L90.5251 49.3H95.0461V50.499H91.7351L91.5701 52.281H92.3071ZM102.024 49.3V57H100.594V50.499H98.9659V49.3H102.024ZM106.763 57.11C106.147 57.11 105.597 56.956 105.113 56.648C104.629 56.3327 104.248 55.878 103.969 55.284C103.691 54.6827 103.551 53.9713 103.551 53.15C103.551 52.3287 103.691 51.621 103.969 51.027C104.248 50.4257 104.629 49.971 105.113 49.663C105.597 49.3477 106.147 49.19 106.763 49.19C107.379 49.19 107.929 49.3477 108.413 49.663C108.905 49.971 109.29 50.4257 109.568 51.027C109.847 51.621 109.986 52.3287 109.986 53.15C109.986 53.9713 109.847 54.6827 109.568 55.284C109.29 55.878 108.905 56.3327 108.413 56.648C107.929 56.956 107.379 57.11 106.763 57.11ZM106.763 55.867C107.313 55.867 107.746 55.6397 108.061 55.185C108.384 54.7303 108.545 54.052 108.545 53.15C108.545 52.248 108.384 51.5697 108.061 51.115C107.746 50.6603 107.313 50.433 106.763 50.433C106.221 50.433 105.788 50.6603 105.465 51.115C105.15 51.5697 104.992 52.248 104.992 53.15C104.992 54.052 105.15 54.7303 105.465 55.185C105.788 55.6397 106.221 55.867 106.763 55.867ZM114.165 57.11C113.549 57.11 112.999 56.956 112.515 56.648C112.031 56.3327 111.649 55.878 111.371 55.284C111.092 54.6827 110.953 53.9713 110.953 53.15C110.953 52.3287 111.092 51.621 111.371 51.027C111.649 50.4257 112.031 49.971 112.515 49.663C112.999 49.3477 113.549 49.19 114.165 49.19C114.781 49.19 115.331 49.3477 115.815 49.663C116.306 49.971 116.691 50.4257 116.97 51.027C117.248 51.621 117.388 52.3287 117.388 53.15C117.388 53.9713 117.248 54.6827 116.97 55.284C116.691 55.878 116.306 56.3327 115.815 56.648C115.331 56.956 114.781 57.11 114.165 57.11ZM114.165 55.867C114.715 55.867 115.147 55.6397 115.463 55.185C115.785 54.7303 115.947 54.052 115.947 53.15C115.947 52.248 115.785 51.5697 115.463 51.115C115.147 50.6603 114.715 50.433 114.165 50.433C113.622 50.433 113.189 50.6603 112.867 51.115C112.551 51.5697 112.394 52.248 112.394 53.15C112.394 54.052 112.551 54.7303 112.867 55.185C113.189 55.6397 113.622 55.867 114.165 55.867ZM127.646 57.11C127.03 57.11 126.48 56.956 125.996 56.648C125.512 56.3327 125.131 55.878 124.852 55.284C124.574 54.6827 124.434 53.9713 124.434 53.15C124.434 52.3287 124.574 51.621 124.852 51.027C125.131 50.4257 125.512 49.971 125.996 49.663C126.48 49.3477 127.03 49.19 127.646 49.19C128.262 49.19 128.812 49.3477 129.296 49.663C129.788 49.971 130.173 50.4257 130.451 51.027C130.73 51.621 130.869 52.3287 130.869 53.15C130.869 53.9713 130.73 54.6827 130.451 55.284C130.173 55.878 129.788 56.3327 129.296 56.648C128.812 56.956 128.262 57.11 127.646 57.11ZM127.646 55.867C128.196 55.867 128.629 55.6397 128.944 55.185C129.267 54.7303 129.428 54.052 129.428 53.15C129.428 52.248 129.267 51.5697 128.944 51.115C128.629 50.6603 128.196 50.433 127.646 50.433C127.104 50.433 126.671 50.6603 126.348 51.115C126.033 51.5697 125.875 52.248 125.875 53.15C125.875 54.052 126.033 54.7303 126.348 55.185C126.671 55.6397 127.104 55.867 127.646 55.867ZM36.876 67.3V75H35.446V71.7H31.464V75H30.034V67.3H31.464V70.479H35.446V67.3H36.876ZM44.7143 73.801V75H38.9393V67.3H44.5603V68.499H40.3693V70.501H44.0873V71.678H40.3693V73.801H44.7143ZM51.0735 75L48.9835 72.074L46.9155 75H45.2875L48.1475 71.073L45.4415 67.3H47.0585L49.0275 70.039L50.9745 67.3H52.5255L49.8305 71.018L52.7235 75H51.0735ZM70.4796 68.499V70.842H74.1976V72.052H70.4796V75H69.0496V67.3H74.6706V68.499H70.4796ZM81.1128 73.79V75H75.4368V74.043L78.4948 71.139C78.8394 70.809 79.0704 70.523 79.1878 70.281C79.3124 70.0317 79.3748 69.786 79.3748 69.544C79.3748 69.1847 79.2538 68.9097 79.0118 68.719C78.7698 68.5283 78.4141 68.433 77.9448 68.433C77.1601 68.433 76.5588 68.7007 76.1408 69.236L75.1398 68.466C75.4404 68.0627 75.8438 67.751 76.3498 67.531C76.8631 67.3037 77.4351 67.19 78.0658 67.19C78.9018 67.19 79.5691 67.388 80.0678 67.784C80.5664 68.18 80.8158 68.719 80.8158 69.401C80.8158 69.819 80.7278 70.2113 80.5518 70.578C80.3758 70.9447 80.0384 71.3627 79.5398 71.832L77.4828 73.79H81.1128ZM88.641 73.251H87.277V75H85.891V73.251H81.667V72.261L85.462 67.3H86.991L83.416 72.041H85.935V70.49H87.277V72.041H88.641V73.251ZM93.4642 75.11C92.6869 75.11 91.9829 74.9413 91.3522 74.604C90.7289 74.2593 90.2375 73.7863 89.8782 73.185C89.5262 72.5837 89.3502 71.9053 89.3502 71.15C89.3502 70.3947 89.5299 69.7163 89.8892 69.115C90.2485 68.5137 90.7399 68.0443 91.3632 67.707C91.9939 67.3623 92.6979 67.19 93.4752 67.19C94.1059 67.19 94.6815 67.3 95.2022 67.52C95.7229 67.74 96.1629 68.059 96.5222 68.477L95.5982 69.346C95.0409 68.7447 94.3552 68.444 93.5412 68.444C93.0132 68.444 92.5402 68.5613 92.1222 68.796C91.7042 69.0233 91.3779 69.3423 91.1432 69.753C90.9085 70.1637 90.7912 70.6293 90.7912 71.15C90.7912 71.6707 90.9085 72.1363 91.1432 72.547C91.3779 72.9577 91.7042 73.2803 92.1222 73.515C92.5402 73.7423 93.0132 73.856 93.5412 73.856C94.3552 73.856 95.0409 73.5517 95.5982 72.943L96.5222 73.823C96.1629 74.241 95.7192 74.56 95.1912 74.78C94.6705 75 94.0949 75.11 93.4642 75.11ZM100.34 75.11C99.7236 75.11 99.1736 74.956 98.6896 74.648C98.2056 74.3327 97.8242 73.878 97.5456 73.284C97.2669 72.6827 97.1276 71.9713 97.1276 71.15C97.1276 70.3287 97.2669 69.621 97.5456 69.027C97.8242 68.4257 98.2056 67.971 98.6896 67.663C99.1736 67.3477 99.7236 67.19 100.34 67.19C100.956 67.19 101.506 67.3477 101.99 67.663C102.481 67.971 102.866 68.4257 103.145 69.027C103.423 69.621 103.563 70.3287 103.563 71.15C103.563 71.9713 103.423 72.6827 103.145 73.284C102.866 73.878 102.481 74.3327 101.99 74.648C101.506 74.956 100.956 75.11 100.34 75.11ZM100.34 73.867C100.89 73.867 101.322 73.6397 101.638 73.185C101.96 72.7303 102.122 72.052 102.122 71.15C102.122 70.248 101.96 69.5697 101.638 69.115C101.322 68.6603 100.89 68.433 100.34 68.433C99.7969 68.433 99.3642 68.6603 99.0416 69.115C98.7262 69.5697 98.5686 70.248 98.5686 71.15C98.5686 72.052 98.7262 72.7303 99.0416 73.185C99.3642 73.6397 99.7969 73.867 100.34 73.867ZM107.7 70.479C108.411 70.567 108.954 70.809 109.328 71.205C109.702 71.601 109.889 72.096 109.889 72.69C109.889 73.1373 109.775 73.5443 109.548 73.911C109.32 74.2777 108.976 74.571 108.514 74.791C108.059 75.0037 107.502 75.11 106.841 75.11C106.292 75.11 105.76 75.033 105.247 74.879C104.741 74.7177 104.308 74.4977 103.949 74.219L104.565 73.108C104.843 73.3427 105.181 73.5297 105.577 73.669C105.98 73.801 106.394 73.867 106.82 73.867C107.326 73.867 107.722 73.7643 108.008 73.559C108.301 73.3463 108.448 73.0603 108.448 72.701C108.448 72.3417 108.308 72.063 108.03 71.865C107.758 71.6597 107.34 71.557 106.776 71.557H106.072V70.578L107.821 68.499H104.323V67.3H109.57V68.257L107.7 70.479Z" fill="white"/>
</svg>
