<svg width="1440" height="820" viewBox="0 0 1440 820" fill="none" xmlns="http://www.w3.org/2000/svg">
<g clip-path="url(#clip0_56_30)">
<rect width="1440" height="820" fill="#020409"/>
<g clip-path="url(#clip1_56_30)">
<rect width="1440" height="820" fill="url(#paint0_linear_56_30)"/>
<g filter="url(#filter0_f_56_30)" style="mix-blend-mode:color-dodge">
<path d="M-69 497C-69 497 211.359 789.625 703.554 789.625C1195.75 789.625 1509 497 1509 497L1395.06 815H89.5831L-69 497Z" fill="#3148B9"/>
</g>
</g>
<g filter="url(#filter1_d_56_30)">
<path d="M512.553 399.722C519.242 402.812 525.799 405.854 532.4 408.796C533.828 409.433 535.4 409.781 536.936 410.121C537.473 410.24 538.371 410.119 538.616 409.768C538.856 409.423 538.672 408.48 538.337 408.085C536.201 405.56 534.134 402.943 531.739 400.679C527.482 396.659 523.009 392.868 518.658 388.794C519.262 389.076 519.918 389.282 520.46 389.653C532.176 397.676 543.772 405.871 554.161 415.603C556.391 417.692 558.321 420.186 560.008 422.745C561.72 425.344 560.709 427.062 557.606 427.426C553.242 427.938 549.102 426.761 544.994 425.57C533.898 422.352 523.319 417.776 512.826 413.016C504.696 409.327 496.656 405.439 488.45 401.581C485.458 405.604 483.225 410.208 481.44 415.051C477.822 424.869 475.916 435.096 474.329 445.383C473.102 453.334 472.115 461.323 470.81 469.375C470.559 467.658 470.327 465.938 470.054 464.225C468.173 452.422 466.541 440.57 464.315 428.832C462.533 419.434 459.445 410.401 453.991 402.364C448.381 394.097 440.44 388.958 431.275 385.497C420.708 381.507 409.658 379.53 398.547 377.874C391.048 376.756 383.524 375.804 376 374.68C392.764 372.403 409.615 370.637 426.199 365.723C421.62 362.446 417.261 359.403 412.983 356.249C404.088 349.69 395.234 343.059 387.492 335.126C385.315 332.895 383.393 330.317 381.806 327.632C379.85 324.324 381.292 322.104 385.121 321.951C390.39 321.741 395.348 323.296 400.247 324.878C415.248 329.724 429.585 336.211 443.839 342.882C444.104 343.006 444.335 343.199 444.582 343.36C444.523 343.507 444.464 343.655 444.405 343.802C443.106 343.33 441.806 342.864 440.511 342.385C431.13 338.915 421.822 335.212 411.955 333.274C410.727 333.033 409.451 332.887 408.207 332.94C407.433 332.973 406.677 333.462 405.913 333.746C405.82 333.99 405.727 334.234 405.634 334.478C407.339 336.178 408.886 338.084 410.776 339.545C420.427 347.008 431.041 352.945 441.661 358.802C451.273 352.874 456.961 344.066 460.633 333.745C464.27 323.524 466.224 312.913 467.766 302.221C468.799 295.058 469.659 287.871 470.603 280.695C470.634 280.46 470.744 280.235 471.098 280C471.487 283.227 471.837 286.459 472.27 289.68C473.925 301.982 475.594 314.286 478.86 326.296C481.055 334.366 483.984 342.126 489.143 348.847C494.818 356.24 502.402 360.921 511.018 364.112C520.411 367.59 530.177 369.531 540.035 371.035C548.594 372.34 557.181 373.464 565.792 374.843C561.914 375.34 558.035 375.825 554.158 376.335C541.784 377.962 529.431 379.721 517.409 383.216C511.157 385.033 505.111 387.357 499.62 390.942C499.251 391.183 498.889 391.434 498.539 391.701C498.457 391.763 498.439 391.909 498.294 392.235C502.999 394.698 507.718 397.168 512.553 399.722ZM467.618 339.819C466.143 345.075 465.078 350.49 463.103 355.55C459.606 364.512 451.834 368.664 443.208 371.194C437.803 372.78 432.165 373.576 426.684 374.715C426.984 374.791 427.385 374.904 427.792 374.995C433.265 376.22 438.802 377.217 444.196 378.722C450.937 380.603 456.998 383.738 460.986 389.879C463.917 394.394 465.74 399.391 466.606 404.625C468.02 413.17 469.045 421.78 470.213 430.366C470.42 431.886 470.523 433.421 470.675 434.949C471.681 429.667 472.001 424.395 472.852 419.209C474.013 412.13 475.227 405.025 477.066 398.102C479.055 390.614 483.505 384.63 490.779 381.41C494.785 379.636 499.045 378.368 503.282 377.203C507.086 376.158 511.015 375.566 514.889 374.773C509.386 373.513 503.907 372.395 498.505 370.981C493.217 369.597 488.271 367.407 484.22 363.566C479.941 359.509 477.728 354.32 476.198 348.781C473.182 337.862 472.366 326.613 471.261 315.409C471.225 315.045 471.097 314.691 471.013 314.332C470.257 318.517 469.896 322.669 469.406 326.806C468.903 331.044 468.274 335.267 467.618 339.819Z" fill="#FCFCFC"/>
<path d="M467.177 370.753C470.056 367.135 469.99 362.721 470.887 358.33C471.489 361.328 471.953 363.99 472.569 366.616C473.458 370.41 476.055 372.499 479.739 373.307C482.046 373.814 484.386 374.171 486.742 374.821C485.341 375.067 483.937 375.3 482.538 375.563C481.487 375.76 480.439 375.976 479.398 376.22C475.501 377.131 473.14 379.568 472.352 383.479C471.857 385.938 471.457 388.415 470.916 391.429C470.498 388.973 470.165 387.029 469.835 385.083C468.857 379.312 466.647 377.003 460.916 375.862C458.852 375.451 456.767 375.142 454.256 374.711C458.929 373.762 463.493 373.868 467.177 370.753Z" fill="#F7F7F7"/>
<path d="M616.152 386.953V337.488H619.705V383.748H649.245V386.953H616.152ZM689.587 383.748V386.953H656.634V337.488H688.96V340.693H660.187V360.13H685.338V363.196H660.187V383.748H689.587ZM714.829 337.488H717.894L738.795 386.953H735.033L728.136 370.65H704.518L697.621 386.953H693.789L714.829 337.488ZM727.16 367.724L716.362 341.807L705.354 367.724H727.16ZM746.306 386.953V337.488H762.748C767.996 337.488 772.339 338.603 775.776 340.832C779.259 343.015 781.86 345.988 783.579 349.75C785.344 353.465 786.226 357.599 786.226 362.151C786.226 367.167 785.274 371.533 783.37 375.249C781.466 378.964 778.749 381.844 775.219 383.888C771.689 385.931 767.532 386.953 762.748 386.953H746.306ZM782.673 362.151C782.673 358.017 781.884 354.325 780.304 351.073C778.772 347.822 776.519 345.291 773.547 343.479C770.62 341.622 767.021 340.693 762.748 340.693H749.859V383.748H762.748C767.067 383.748 770.713 382.796 773.686 380.892C776.658 378.988 778.888 376.41 780.374 373.159C781.907 369.861 782.673 366.192 782.673 362.151ZM815.271 387.301C812.02 387.301 808.977 386.628 806.144 385.281C803.311 383.934 800.826 382.076 798.69 379.708C796.599 377.339 794.951 374.645 793.743 371.626C792.582 368.607 792.001 365.402 792.001 362.012C792.001 358.621 792.582 355.439 793.743 352.467C794.951 349.494 796.599 346.847 798.69 344.524C800.826 342.202 803.311 340.391 806.144 339.09C809.024 337.79 812.159 337.14 815.55 337.14C820.241 337.14 824.189 338.138 827.393 340.135C830.645 342.086 833.083 344.687 834.709 347.938L828.717 352.258C827.417 349.564 825.559 347.544 823.143 346.197C820.775 344.85 818.174 344.176 815.341 344.176C813.018 344.176 810.905 344.664 809.001 345.639C807.096 346.615 805.447 347.962 804.054 349.68C802.707 351.352 801.685 353.28 800.989 355.463C800.292 357.599 799.944 359.852 799.944 362.221C799.944 364.729 800.338 367.074 801.128 369.257C801.918 371.44 803.032 373.368 804.472 375.04C805.912 376.665 807.607 377.943 809.558 378.871C811.509 379.8 813.622 380.265 815.898 380.265C818.592 380.265 821.146 379.591 823.562 378.244C826.023 376.851 828.322 374.784 830.459 372.044V379.986C826.139 384.863 821.077 387.301 815.271 387.301ZM829.692 367.724H819.312V361.942H836.241V386.953H829.692V367.724ZM879.071 380.056V386.953H845.142V337.488H878.444V344.385H852.945V358.458H875.03V364.938H852.945V380.056H879.071ZM894.923 351.979V386.953H887.12V337.488H893.53L921.537 373.228V337.558H929.409V386.953H922.582L894.923 351.979ZM957.742 386.953V337.488H978.503C980.733 337.488 982.776 337.952 984.634 338.881C986.492 339.81 988.118 341.041 989.511 342.574C990.905 344.106 991.973 345.825 992.716 347.729C993.459 349.634 993.831 351.584 993.831 353.582C993.831 356.322 993.204 358.946 991.95 361.454C990.742 363.916 989 365.913 986.724 367.446C984.495 368.978 981.894 369.745 978.921 369.745H965.545V386.953H957.742ZM965.545 362.848H978.434C979.92 362.848 981.221 362.453 982.335 361.663C983.45 360.827 984.309 359.712 984.913 358.319C985.563 356.926 985.888 355.346 985.888 353.582C985.888 351.77 985.517 350.168 984.774 348.774C984.031 347.381 983.055 346.313 981.848 345.57C980.686 344.78 979.409 344.385 978.016 344.385H965.545V362.848ZM1020.66 357.135C1017.68 357.181 1015.04 357.855 1012.71 359.155C1010.44 360.456 1008.81 362.29 1007.84 364.659V386.953H1000.17V350.516H1007.28V358.667C1008.53 356.159 1010.18 354.162 1012.23 352.676C1014.27 351.143 1016.43 350.307 1018.71 350.168C1019.17 350.168 1019.54 350.168 1019.82 350.168C1020.15 350.168 1020.42 350.191 1020.66 350.237V357.135ZM1041.92 387.65C1039.04 387.65 1036.47 387.162 1034.19 386.187C1031.91 385.165 1029.94 383.772 1028.27 382.007C1026.64 380.242 1025.39 378.244 1024.51 376.015C1023.62 373.739 1023.18 371.324 1023.18 368.769C1023.18 366.215 1023.62 363.8 1024.51 361.524C1025.39 359.248 1026.64 357.251 1028.27 355.532C1029.94 353.767 1031.91 352.397 1034.19 351.422C1036.51 350.4 1039.09 349.889 1041.92 349.889C1044.76 349.889 1047.31 350.4 1049.59 351.422C1051.91 352.397 1053.88 353.767 1055.51 355.532C1057.18 357.251 1058.46 359.248 1059.34 361.524C1060.22 363.8 1060.66 366.215 1060.66 368.769C1060.66 371.324 1060.22 373.739 1059.34 376.015C1058.46 378.244 1057.18 380.242 1055.51 382.007C1053.88 383.772 1051.91 385.165 1049.59 386.187C1047.31 387.162 1044.76 387.65 1041.92 387.65ZM1031.06 368.839C1031.06 371.161 1031.54 373.251 1032.52 375.109C1033.49 376.967 1034.79 378.43 1036.42 379.499C1038.05 380.567 1039.88 381.101 1041.92 381.101C1043.92 381.101 1045.73 380.567 1047.36 379.499C1049.03 378.384 1050.35 376.898 1051.33 375.04C1052.3 373.135 1052.79 371.045 1052.79 368.769C1052.79 366.447 1052.3 364.357 1051.33 362.499C1050.35 360.641 1049.03 359.178 1047.36 358.11C1045.73 356.995 1043.92 356.438 1041.92 356.438C1039.88 356.438 1038.05 356.995 1036.42 358.11C1034.79 359.225 1033.49 360.711 1032.52 362.569C1031.54 364.38 1031.06 366.47 1031.06 368.839Z" fill="white"/>
<path d="M614.974 425.553V408.449H622.153C622.924 408.449 623.63 408.61 624.273 408.931C624.915 409.252 625.477 409.678 625.959 410.208C626.441 410.738 626.81 411.332 627.067 411.991C627.324 412.649 627.453 413.324 627.453 414.014C627.453 414.962 627.236 415.869 626.802 416.736C626.385 417.587 625.782 418.278 624.996 418.808C624.225 419.338 623.325 419.603 622.297 419.603H617.672V425.553H614.974ZM617.672 417.218H622.129C622.643 417.218 623.092 417.082 623.478 416.809C623.863 416.519 624.16 416.134 624.369 415.652C624.594 415.17 624.706 414.624 624.706 414.014C624.706 413.388 624.578 412.834 624.321 412.352C624.064 411.87 623.727 411.501 623.309 411.244C622.908 410.971 622.466 410.834 621.984 410.834H617.672V417.218ZM639.167 425.794C638.172 425.794 637.28 425.625 636.493 425.288C635.706 424.935 635.024 424.453 634.446 423.843C633.883 423.233 633.45 422.542 633.145 421.771C632.84 420.984 632.687 420.149 632.687 419.266C632.687 418.382 632.84 417.547 633.145 416.76C633.45 415.973 633.883 415.283 634.446 414.689C635.024 414.078 635.706 413.605 636.493 413.267C637.296 412.914 638.188 412.737 639.167 412.737C640.147 412.737 641.03 412.914 641.817 413.267C642.62 413.605 643.303 414.078 643.865 414.689C644.443 415.283 644.885 415.973 645.19 416.76C645.495 417.547 645.647 418.382 645.647 419.266C645.647 420.149 645.495 420.984 645.19 421.771C644.885 422.542 644.443 423.233 643.865 423.843C643.303 424.453 642.62 424.935 641.817 425.288C641.03 425.625 640.147 425.794 639.167 425.794ZM635.409 419.29C635.409 420.093 635.578 420.816 635.915 421.458C636.252 422.1 636.702 422.606 637.264 422.976C637.826 423.345 638.461 423.53 639.167 423.53C639.858 423.53 640.484 423.345 641.046 422.976C641.624 422.59 642.082 422.076 642.419 421.434C642.757 420.775 642.925 420.053 642.925 419.266C642.925 418.463 642.757 417.74 642.419 417.098C642.082 416.455 641.624 415.949 641.046 415.58C640.484 415.195 639.858 415.002 639.167 415.002C638.461 415.002 637.826 415.195 637.264 415.58C636.702 415.965 636.252 416.479 635.915 417.122C635.578 417.748 635.409 418.471 635.409 419.29ZM667.376 412.954H669.906L664.606 425.553H662.341L660.077 419.868L657.813 425.553H655.548L650.224 412.954H652.754L656.801 422.976L658.583 418.326L656.415 412.978H658.656L660.077 416.905L661.474 412.978H663.715L661.571 418.326L663.353 422.976L667.376 412.954ZM681.047 425.794C680.068 425.794 679.176 425.625 678.373 425.288C677.586 424.935 676.904 424.461 676.326 423.867C675.748 423.257 675.298 422.566 674.977 421.795C674.672 421.008 674.519 420.173 674.519 419.29C674.519 418.101 674.792 417.017 675.338 416.038C675.884 415.042 676.647 414.247 677.627 413.653C678.606 413.042 679.755 412.737 681.071 412.737C682.388 412.737 683.521 413.042 684.468 413.653C685.432 414.247 686.179 415.034 686.709 416.014C687.239 416.993 687.504 418.045 687.504 419.169C687.504 419.362 687.495 419.547 687.479 419.723C687.463 419.884 687.447 420.021 687.431 420.133H677.338C677.386 420.872 677.586 421.522 677.94 422.084C678.309 422.63 678.775 423.064 679.337 423.385C679.899 423.69 680.501 423.843 681.144 423.843C681.85 423.843 682.517 423.666 683.143 423.313C683.786 422.96 684.219 422.494 684.444 421.916L686.709 422.566C686.436 423.176 686.018 423.73 685.456 424.228C684.91 424.71 684.259 425.096 683.505 425.385C682.75 425.658 681.931 425.794 681.047 425.794ZM677.265 418.374H684.878C684.83 417.652 684.621 417.017 684.251 416.471C683.898 415.909 683.44 415.476 682.878 415.17C682.332 414.849 681.722 414.689 681.047 414.689C680.389 414.689 679.779 414.849 679.217 415.17C678.67 415.476 678.221 415.909 677.867 416.471C677.514 417.017 677.313 417.652 677.265 418.374ZM700.843 415.243C699.815 415.259 698.9 415.492 698.097 415.941C697.31 416.391 696.747 417.025 696.41 417.844V425.553H693.76V412.954H696.218V415.773C696.651 414.905 697.221 414.215 697.928 413.701C698.635 413.171 699.381 412.882 700.168 412.834C700.329 412.834 700.457 412.834 700.554 412.834C700.666 412.834 700.762 412.842 700.843 412.858V415.243ZM712.34 425.794C711.36 425.794 710.469 425.625 709.666 425.288C708.879 424.935 708.196 424.461 707.618 423.867C707.04 423.257 706.59 422.566 706.269 421.795C705.964 421.008 705.812 420.173 705.812 419.29C705.812 418.101 706.085 417.017 706.631 416.038C707.177 415.042 707.939 414.247 708.919 413.653C709.899 413.042 711.047 412.737 712.364 412.737C713.681 412.737 714.813 413.042 715.761 413.653C716.724 414.247 717.471 415.034 718.001 416.014C718.531 416.993 718.796 418.045 718.796 419.169C718.796 419.362 718.788 419.547 718.772 419.723C718.756 419.884 718.74 420.021 718.724 420.133H708.63C708.678 420.872 708.879 421.522 709.232 422.084C709.602 422.63 710.067 423.064 710.63 423.385C711.192 423.69 711.794 423.843 712.436 423.843C713.143 423.843 713.809 423.666 714.436 423.313C715.078 422.96 715.512 422.494 715.737 421.916L718.001 422.566C717.728 423.176 717.311 423.73 716.748 424.228C716.202 424.71 715.552 425.096 714.797 425.385C714.042 425.658 713.223 425.794 712.34 425.794ZM708.558 418.374H716.17C716.122 417.652 715.913 417.017 715.544 416.471C715.191 415.909 714.733 415.476 714.171 415.17C713.625 414.849 713.014 414.689 712.34 414.689C711.681 414.689 711.071 414.849 710.509 415.17C709.963 415.476 709.513 415.909 709.16 416.471C708.807 417.017 708.606 417.652 708.558 418.374ZM724.258 419.266C724.258 418.061 724.499 416.969 724.981 415.989C725.478 414.994 726.153 414.207 727.004 413.629C727.855 413.034 728.835 412.737 729.943 412.737C730.907 412.737 731.774 412.986 732.545 413.484C733.332 413.982 733.942 414.6 734.376 415.339V407.968H737.026V422.566C737.026 422.871 737.082 423.088 737.194 423.216C737.307 423.345 737.491 423.417 737.748 423.433V425.553C737.25 425.634 736.865 425.674 736.592 425.674C736.094 425.674 735.669 425.529 735.315 425.24C734.978 424.951 734.801 424.606 734.785 424.204L734.761 423.265C734.279 424.068 733.629 424.694 732.81 425.144C731.991 425.577 731.14 425.794 730.256 425.794C729.389 425.794 728.586 425.625 727.847 425.288C727.125 424.951 726.49 424.477 725.944 423.867C725.414 423.257 724.997 422.558 724.692 421.771C724.402 420.984 724.258 420.149 724.258 419.266ZM734.376 421.024V417.724C734.199 417.21 733.91 416.752 733.508 416.351C733.123 415.933 732.681 415.604 732.184 415.363C731.702 415.122 731.22 415.002 730.738 415.002C730.176 415.002 729.662 415.122 729.196 415.363C728.747 415.604 728.353 415.925 728.016 416.327C727.695 416.728 727.446 417.186 727.269 417.7C727.093 418.214 727.004 418.752 727.004 419.314C727.004 419.892 727.101 420.438 727.293 420.952C727.486 421.45 727.759 421.9 728.112 422.301C728.482 422.687 728.899 422.992 729.365 423.216C729.847 423.425 730.369 423.53 730.931 423.53C731.284 423.53 731.638 423.465 731.991 423.337C732.36 423.208 732.705 423.032 733.027 422.807C733.364 422.582 733.645 422.317 733.87 422.012C734.111 421.707 734.279 421.378 734.376 421.024ZM761.327 425.794C760.364 425.794 759.489 425.569 758.702 425.12C757.931 424.654 757.32 424.036 756.871 423.265V425.553H754.534V407.968H757.184V415.339C757.682 414.536 758.3 413.902 759.039 413.436C759.794 412.97 760.677 412.737 761.689 412.737C762.524 412.737 763.287 412.914 763.977 413.267C764.668 413.621 765.254 414.102 765.736 414.713C766.234 415.323 766.611 416.022 766.868 416.809C767.141 417.595 767.278 418.431 767.278 419.314C767.278 420.197 767.125 421.032 766.82 421.819C766.531 422.606 766.113 423.297 765.567 423.891C765.021 424.485 764.387 424.951 763.664 425.288C762.957 425.625 762.179 425.794 761.327 425.794ZM760.629 423.53C761.207 423.53 761.737 423.417 762.219 423.192C762.701 422.951 763.118 422.638 763.471 422.253C763.825 421.867 764.09 421.418 764.266 420.904C764.459 420.39 764.555 419.86 764.555 419.314C764.555 418.559 764.395 417.852 764.074 417.194C763.769 416.536 763.335 416.006 762.773 415.604C762.211 415.203 761.56 415.002 760.822 415.002C760.292 415.002 759.794 415.13 759.328 415.387C758.862 415.628 758.445 415.957 758.075 416.375C757.722 416.776 757.425 417.226 757.184 417.724V421.048C757.28 421.418 757.449 421.755 757.69 422.06C757.931 422.349 758.212 422.606 758.533 422.831C758.854 423.04 759.199 423.208 759.569 423.337C759.938 423.465 760.292 423.53 760.629 423.53ZM773.766 428.516C774.007 428.548 774.24 428.581 774.465 428.613C774.706 428.661 774.899 428.685 775.043 428.685C775.316 428.685 775.549 428.597 775.742 428.42C775.95 428.259 776.159 427.954 776.368 427.505C776.577 427.055 776.834 426.404 777.139 425.553L771.96 412.954H774.73L778.584 422.855L782.005 412.954H784.559L778.849 428.468C778.673 428.934 778.416 429.359 778.078 429.745C777.741 430.146 777.324 430.46 776.826 430.684C776.328 430.909 775.742 431.022 775.067 431.022C774.874 431.022 774.674 431.006 774.465 430.973C774.256 430.941 774.023 430.893 773.766 430.829V428.516ZM813.794 421.145C813.794 422.06 813.553 422.847 813.071 423.506C812.605 424.164 811.971 424.67 811.168 425.023C810.365 425.377 809.482 425.553 808.518 425.553H800.352V408.449H809.168C809.971 408.449 810.662 408.666 811.24 409.1C811.834 409.517 812.284 410.063 812.589 410.738C812.91 411.396 813.071 412.087 813.071 412.81C813.071 413.645 812.854 414.432 812.421 415.17C812.003 415.893 811.401 416.431 810.614 416.784C811.594 417.074 812.364 417.604 812.927 418.374C813.505 419.129 813.794 420.053 813.794 421.145ZM811.023 420.639C811.023 420.157 810.919 419.723 810.71 419.338C810.518 418.936 810.245 418.615 809.891 418.374C809.554 418.117 809.152 417.989 808.687 417.989H803.05V423.216H808.518C809 423.216 809.425 423.104 809.795 422.879C810.18 422.638 810.477 422.325 810.686 421.94C810.911 421.538 811.023 421.105 811.023 420.639ZM803.05 410.786V415.821H808.012C808.462 415.821 808.863 415.716 809.217 415.508C809.57 415.283 809.851 414.986 810.06 414.616C810.269 414.231 810.373 413.797 810.373 413.315C810.373 412.818 810.277 412.384 810.084 412.015C809.891 411.629 809.626 411.332 809.289 411.123C808.968 410.898 808.59 410.786 808.157 410.786H803.05ZM820.703 425.553V408.449H823.401V423.168H832.579V425.553H820.703ZM845.479 425.674C844.114 425.674 842.958 425.441 842.011 424.975C841.079 424.509 840.324 423.875 839.746 423.072C839.184 422.269 838.766 421.354 838.493 420.326C838.236 419.298 838.108 418.23 838.108 417.122V408.449H840.806V417.122C840.806 417.909 840.886 418.672 841.047 419.41C841.208 420.133 841.464 420.783 841.818 421.362C842.171 421.94 842.645 422.397 843.239 422.735C843.849 423.072 844.596 423.241 845.479 423.241C846.379 423.241 847.126 423.072 847.72 422.735C848.33 422.381 848.804 421.916 849.141 421.337C849.495 420.743 849.751 420.085 849.912 419.362C850.073 418.639 850.153 417.893 850.153 417.122V408.449H852.875V417.122C852.875 418.294 852.731 419.402 852.442 420.446C852.168 421.474 851.735 422.381 851.141 423.168C850.562 423.939 849.808 424.549 848.876 424.999C847.945 425.449 846.812 425.674 845.479 425.674ZM872.291 423.168V425.553H860.559V408.449H872.074V410.834H863.257V415.7H870.893V417.941H863.257V423.168H872.291ZM889.287 412.472C889.126 412.296 888.894 412.111 888.588 411.918C888.283 411.709 887.922 411.517 887.504 411.34C887.087 411.163 886.637 411.019 886.155 410.906C885.674 410.794 885.176 410.738 884.662 410.738C883.538 410.738 882.702 410.947 882.156 411.364C881.61 411.782 881.337 412.36 881.337 413.099C881.337 413.645 881.49 414.078 881.795 414.4C882.1 414.705 882.566 414.962 883.192 415.17C883.819 415.379 884.606 415.604 885.553 415.845C886.709 416.118 887.713 416.447 888.564 416.833C889.415 417.202 890.066 417.7 890.516 418.326C890.965 418.953 891.19 419.78 891.19 420.807C891.19 421.675 891.03 422.422 890.708 423.048C890.387 423.674 889.937 424.188 889.359 424.59C888.781 424.975 888.115 425.264 887.36 425.457C886.605 425.634 885.794 425.722 884.927 425.722C884.076 425.722 883.224 425.634 882.373 425.457C881.538 425.28 880.735 425.023 879.964 424.686C879.209 424.333 878.511 423.907 877.868 423.409L879.097 421.097C879.306 421.305 879.603 421.538 879.988 421.795C880.39 422.036 880.847 422.269 881.361 422.494C881.891 422.719 882.462 422.911 883.072 423.072C883.698 423.216 884.333 423.289 884.975 423.289C886.051 423.289 886.87 423.104 887.432 422.735C888.01 422.349 888.299 421.803 888.299 421.097C888.299 420.518 888.115 420.061 887.745 419.723C887.376 419.37 886.838 419.073 886.131 418.832C885.425 418.591 884.581 418.35 883.602 418.109C882.478 417.804 881.538 417.475 880.783 417.122C880.028 416.752 879.458 416.287 879.073 415.724C878.703 415.146 878.519 414.416 878.519 413.532C878.519 412.408 878.792 411.461 879.338 410.69C879.884 409.903 880.623 409.317 881.554 408.931C882.502 408.53 883.562 408.329 884.734 408.329C885.505 408.329 886.236 408.417 886.926 408.594C887.617 408.754 888.259 408.979 888.853 409.268C889.464 409.557 890.018 409.887 890.516 410.256L889.287 412.472ZM910.542 410.834H904.857V425.553H902.135V410.834H896.426V408.449H910.542V410.834ZM920.27 408.449H922.824L929.472 425.553H926.63L924.823 420.904H918.222L916.44 425.553H913.573L920.27 408.449ZM924.293 418.904L921.547 411.412L918.704 418.904H924.293ZM935.683 425.553V408.449H943.127C943.898 408.449 944.604 408.61 945.247 408.931C945.889 409.252 946.443 409.678 946.909 410.208C947.391 410.738 947.76 411.332 948.017 411.991C948.29 412.649 948.427 413.324 948.427 414.014C948.427 414.769 948.29 415.492 948.017 416.182C947.744 416.873 947.351 417.467 946.837 417.965C946.339 418.463 945.753 418.824 945.078 419.049L949.101 425.553H946.066L942.356 419.603H938.381V425.553H935.683ZM938.381 417.218H943.103C943.6 417.218 944.042 417.074 944.428 416.784C944.813 416.495 945.118 416.11 945.343 415.628C945.568 415.13 945.68 414.592 945.68 414.014C945.68 413.42 945.552 412.89 945.295 412.424C945.038 411.942 944.701 411.557 944.283 411.268C943.882 410.979 943.44 410.834 942.958 410.834H938.381V417.218ZM960.643 408.449H963.197L969.846 425.553H967.003L965.196 420.904H958.596L956.813 425.553H953.946L960.643 408.449ZM964.666 418.904L961.92 411.412L959.078 418.904H964.666ZM976.056 425.553V408.449H978.754V425.553H976.056Z" fill="white"/>
</g>
</g>
<defs>
<filter id="filter0_f_56_30" x="-185.338" y="380.662" width="1810.68" height="550.677" filterUnits="userSpaceOnUse" color-interpolation-filters="sRGB">
<feFlood flood-opacity="0" result="BackgroundImageFix"/>
<feBlend mode="normal" in="SourceGraphic" in2="BackgroundImageFix" result="shape"/>
<feGaussianBlur stdDeviation="58.1692" result="effect1_foregroundBlur_56_30"/>
</filter>
<filter id="filter1_d_56_30" x="314.088" y="218.957" width="808.488" height="313.198" filterUnits="userSpaceOnUse" color-interpolation-filters="sRGB">
<feFlood flood-opacity="0" result="BackgroundImageFix"/>
<feColorMatrix in="SourceAlpha" type="matrix" values="0 0 0 0 0 0 0 0 0 0 0 0 0 0 0 0 0 0 127 0" result="hardAlpha"/>
<feMorphology radius="48" operator="dilate" in="SourceAlpha" result="effect1_dropShadow_56_30"/>
<feOffset dy="0.868692"/>
<feGaussianBlur stdDeviation="6.95585"/>
<feComposite in2="hardAlpha" operator="out"/>
<feColorMatrix type="matrix" values="0 0 0 0 0.192157 0 0 0 0 0.282353 0 0 0 0 0.72549 0 0 0 0.83 0"/>
<feBlend mode="normal" in2="BackgroundImageFix" result="effect1_dropShadow_56_30"/>
<feBlend mode="normal" in="SourceGraphic" in2="effect1_dropShadow_56_30" result="shape"/>
</filter>
<linearGradient id="paint0_linear_56_30" x1="720" y1="-390.916" x2="720" y2="1224.18" gradientUnits="userSpaceOnUse">
<stop offset="0.183763" stop-opacity="0"/>
<stop offset="0.370875" stop-color="#090D20"/>
<stop offset="0.510086" stop-color="#111940"/>
<stop offset="0.560981" stop-color="#182359"/>
<stop offset="0.610378" stop-color="#1F2E76"/>
<stop offset="0.699421" stop-color="#3148B9"/>
<stop offset="0.757363" stop-color="#788BE8"/>
</linearGradient>
<clipPath id="clip0_56_30">
<rect width="1440" height="820" fill="white"/>
</clipPath>
<clipPath id="clip1_56_30">
<rect width="1440" height="820" fill="white"/>
</clipPath>
</defs>
</svg>
