<svg width="220" height="647" viewBox="0 0 220 647" fill="none" xmlns="http://www.w3.org/2000/svg">
<rect width="220" height="647" rx="30" fill="#3148B9"/>
<rect width="220" height="647" rx="30" fill="#3148B9"/>
<rect width="220" height="647" rx="30" fill="#3148B9"/>
<path d="M41.365 597.43C41.0383 597.71 40.7233 598.083 40.42 598.55C40.1167 599.017 39.8483 599.542 39.615 600.125C39.3583 600.708 39.16 601.35 39.02 602.05C38.8567 602.727 38.775 603.438 38.775 604.185C38.775 606.122 39.1367 607.545 39.86 608.455C40.5833 609.342 41.575 609.785 42.835 609.785C43.5117 609.785 44.0717 609.657 44.515 609.4C44.9583 609.143 45.3433 608.747 45.67 608.21C45.9733 607.65 46.2417 606.962 46.475 606.145C46.7083 605.328 46.9533 604.36 47.21 603.24C47.49 601.957 47.8167 600.802 48.19 599.775C48.54 598.725 48.9833 597.838 49.52 597.115C50.0567 596.368 50.71 595.808 51.48 595.435C52.25 595.038 53.195 594.84 54.315 594.84C55.505 594.84 56.5433 595.073 57.43 595.54C58.2933 596.007 59.0167 596.648 59.6 597.465C60.16 598.258 60.58 599.203 60.86 600.3C61.1167 601.397 61.245 602.587 61.245 603.87C61.245 605.783 60.9533 607.603 60.37 609.33C59.7633 611.033 58.8883 612.585 57.745 613.985L55.085 612.48C55.4817 612.107 55.8783 611.628 56.275 611.045C56.6717 610.438 57.0333 609.762 57.36 609.015C57.6633 608.245 57.92 607.428 58.13 606.565C58.3167 605.678 58.41 604.757 58.41 603.8C58.41 602.027 58.095 600.65 57.465 599.67C56.835 598.69 55.89 598.2 54.63 598.2C53.93 598.2 53.3467 598.363 52.88 598.69C52.39 598.993 51.97 599.448 51.62 600.055C51.27 600.662 50.9667 601.42 50.71 602.33C50.43 603.217 50.15 604.232 49.87 605.375C49.5667 606.635 49.24 607.743 48.89 608.7C48.54 609.657 48.12 610.462 47.63 611.115C47.14 611.745 46.545 612.223 45.845 612.55C45.145 612.877 44.305 613.04 43.325 613.04C42.135 613.04 41.085 612.818 40.175 612.375C39.265 611.932 38.495 611.313 37.865 610.52C37.235 609.727 36.7683 608.782 36.465 607.685C36.1383 606.588 35.975 605.398 35.975 604.115C35.975 602.435 36.2317 600.918 36.745 599.565C37.2583 598.212 37.9467 597.01 38.81 595.96L41.365 597.43ZM61.35 581.352C61.35 582.869 60.9767 584.21 60.23 585.377C59.4833 586.52 58.5383 587.43 57.395 588.107L68.455 588.107L68.455 591.187L42.73 591.187L42.73 588.457L46.16 588.457C45.04 587.734 44.1417 586.8 43.465 585.657C42.765 584.49 42.415 583.207 42.415 581.807C42.415 580.547 42.6717 579.392 43.185 578.342C43.6983 577.292 44.3983 576.382 45.285 575.612C46.1483 574.842 47.1517 574.247 48.295 573.827C49.4383 573.384 50.6283 573.162 51.865 573.162C53.1717 573.162 54.4083 573.36 55.575 573.757C56.7183 574.154 57.7217 574.714 58.585 575.437C59.425 576.16 60.1017 577.024 60.615 578.027C61.105 579.03 61.35 580.139 61.35 581.352ZM58.69 582.297C58.69 581.387 58.5033 580.57 58.13 579.847C57.7333 579.1 57.22 578.47 56.59 577.957C55.9367 577.42 55.2017 577.012 54.385 576.732C53.5683 576.452 52.7283 576.312 51.865 576.312C50.955 576.312 50.0917 576.475 49.275 576.802C48.435 577.129 47.7117 577.572 47.105 578.132C46.475 578.692 45.985 579.357 45.635 580.127C45.2617 580.874 45.075 581.69 45.075 582.577C45.075 583.137 45.1917 583.72 45.425 584.327C45.635 584.91 45.9267 585.47 46.3 586.007C46.65 586.52 47.0817 586.975 47.595 587.372C48.085 587.745 48.61 587.99 49.17 588.107L54.385 588.107C54.9917 587.85 55.5633 587.524 56.1 587.127C56.6133 586.73 57.0683 586.275 57.465 585.762C57.8383 585.249 58.1417 584.7 58.375 584.117C58.585 583.534 58.69 582.927 58.69 582.297ZM61.35 564.69C61.35 565.554 61.21 566.359 60.93 567.105C60.6267 567.852 60.2183 568.505 59.705 569.065C59.1917 569.602 58.5967 570.034 57.92 570.36C57.22 570.664 56.4617 570.815 55.645 570.815C54.805 570.815 54.0467 570.629 53.37 570.255C52.67 569.882 52.075 569.357 51.585 568.68C51.095 567.98 50.71 567.164 50.43 566.23C50.15 565.274 50.01 564.235 50.01 563.115C50.01 562.229 50.0917 561.33 50.255 560.42C50.4183 559.51 50.64 558.705 50.92 558.005L49.45 558.005C47.9567 558.005 46.79 558.425 45.95 559.265C45.0867 560.105 44.655 561.295 44.655 562.835C44.655 564.679 45.3667 566.615 46.79 568.645L44.795 569.66C43.2083 567.304 42.415 564.935 42.415 562.555C42.415 560.152 43.0567 558.285 44.34 556.955C45.6233 555.602 47.4317 554.925 49.765 554.925L57.22 554.925C57.9433 554.925 58.3167 554.599 58.34 553.945L61 553.945C61.0467 554.272 61.0817 554.54 61.105 554.75C61.1283 554.96 61.14 555.182 61.14 555.415C61.14 556.022 60.965 556.512 60.615 556.885C60.2417 557.235 59.7983 557.445 59.285 557.515L57.99 557.585C59.0867 558.402 59.9267 559.44 60.51 560.7C61.07 561.937 61.35 563.267 61.35 564.69ZM59.04 563.885C59.04 562.789 58.8417 561.774 58.445 560.84C58.025 559.884 57.4767 559.16 56.8 558.67C56.3567 558.227 55.9017 558.005 55.435 558.005L52.74 558.005C52.1567 559.499 51.865 561.05 51.865 562.66C51.865 564.2 52.1917 565.46 52.845 566.44C53.4983 567.397 54.35 567.875 55.4 567.875C55.9133 567.875 56.3917 567.782 56.835 567.595C57.2783 567.385 57.6633 567.105 57.99 566.755C58.3167 566.382 58.5733 565.95 58.76 565.46C58.9467 564.97 59.04 564.445 59.04 563.885ZM51.83 551.225C50.5467 551.225 49.3333 551.004 48.19 550.56C47.0467 550.117 46.055 549.487 45.215 548.67C44.3517 547.854 43.675 546.885 43.185 545.765C42.6717 544.622 42.415 543.35 42.415 541.95C42.415 540.13 42.8233 538.567 43.64 537.26C44.4333 535.93 45.5067 534.927 46.86 534.25L47.805 537.26C46.9417 537.727 46.2767 538.38 45.81 539.22C45.32 540.06 45.075 540.994 45.075 542.02C45.075 542.86 45.25 543.654 45.6 544.4C45.9267 545.147 46.3933 545.789 47 546.325C47.6067 546.862 48.3183 547.294 49.135 547.62C49.9517 547.924 50.85 548.075 51.83 548.075C52.7867 548.075 53.685 547.912 54.525 547.585C55.365 547.259 56.1 546.827 56.73 546.29C57.3367 545.73 57.815 545.089 58.165 544.365C58.515 543.619 58.69 542.825 58.69 541.985C58.69 541.449 58.62 540.924 58.48 540.41C58.3167 539.874 58.1067 539.395 57.85 538.975C57.5933 538.532 57.3017 538.147 56.975 537.82C56.625 537.494 56.2517 537.26 55.855 537.12L56.765 534.11C57.4417 534.39 58.06 534.787 58.62 535.3C59.18 535.79 59.6583 536.374 60.055 537.05C60.4517 537.727 60.7667 538.485 61 539.325C61.2333 540.142 61.35 541.005 61.35 541.915C61.35 543.292 61.0933 544.552 60.58 545.695C60.0667 546.839 59.3783 547.819 58.515 548.635C57.6517 549.452 56.6483 550.094 55.505 550.56C54.3383 551.004 53.1133 551.225 51.83 551.225ZM61.35 522.706C61.35 524.083 61.105 525.343 60.615 526.486C60.1017 527.63 59.4133 528.61 58.55 529.426C57.6867 530.243 56.6833 530.885 55.54 531.351C54.3733 531.795 53.1483 532.016 51.865 532.016C50.5817 532.016 49.3683 531.795 48.225 531.351C47.0817 530.885 46.0783 530.243 45.215 529.426C44.3517 528.586 43.675 527.595 43.185 526.451C42.6717 525.308 42.415 524.048 42.415 522.671C42.415 521.295 42.6717 520.046 43.185 518.926C43.6983 517.783 44.3867 516.815 45.25 516.021C46.09 515.228 47.0817 514.621 48.225 514.201C49.345 513.758 50.5117 513.536 51.725 513.536C51.9817 513.536 52.215 513.548 52.425 513.571C52.635 513.571 52.7983 513.583 52.915 513.606L52.915 528.761C53.825 528.691 54.6533 528.481 55.4 528.131C56.1467 527.781 56.7883 527.326 57.325 526.766C57.8617 526.206 58.2817 525.576 58.585 524.876C58.8883 524.153 59.04 523.395 59.04 522.601C59.04 522.041 58.97 521.493 58.83 520.956C58.6667 520.42 58.4567 519.918 58.2 519.451C57.9433 518.985 57.6283 518.576 57.255 518.226C56.8817 517.853 56.4617 517.573 55.995 517.386L56.73 514.726C57.4067 515.03 58.025 515.45 58.585 515.986C59.145 516.5 59.635 517.106 60.055 517.806C60.4517 518.483 60.7667 519.241 61 520.081C61.2333 520.921 61.35 521.796 61.35 522.706ZM50.64 516.441C49.7767 516.511 48.9833 516.733 48.26 517.106C47.5133 517.456 46.8833 517.911 46.37 518.471C45.8567 519.008 45.46 519.638 45.18 520.361C44.8767 521.085 44.725 521.855 44.725 522.671C44.725 523.488 44.8767 524.258 45.18 524.981C45.46 525.705 45.8683 526.346 46.405 526.906C46.9183 527.443 47.5367 527.886 48.26 528.236C48.9833 528.563 49.7767 528.761 50.64 528.831L50.64 516.441ZM54.595 481.695C55.5517 481.695 56.4267 481.893 57.22 482.29C58.0133 482.663 58.69 483.188 59.25 483.865C59.81 484.518 60.2417 485.288 60.545 486.175C60.8483 487.038 61 487.972 61 488.975L61 500.77L36.15 500.77L36.15 488.415C36.15 487.552 36.3367 486.77 36.71 486.07C37.0833 485.37 37.5733 484.775 38.18 484.285C38.7633 483.795 39.44 483.422 40.21 483.165C40.9567 482.885 41.715 482.745 42.485 482.745C43.7217 482.745 44.865 483.06 45.915 483.69C46.965 484.297 47.7467 485.172 48.26 486.315C48.68 484.892 49.4617 483.772 50.605 482.955C51.725 482.115 53.055 481.695 54.595 481.695ZM54.035 484.88C53.475 484.88 52.9383 484.985 52.425 485.195C51.8883 485.382 51.4217 485.65 51.025 486C50.6283 486.327 50.3133 486.723 50.08 487.19C49.8467 487.657 49.73 488.17 49.73 488.73L49.73 497.62L58.27 497.62L58.27 488.975C58.27 488.392 58.1533 487.855 57.92 487.365C57.6867 486.875 57.3833 486.443 57.01 486.07C56.6133 485.697 56.1583 485.405 55.645 485.195C55.1317 484.985 54.595 484.88 54.035 484.88ZM38.88 497.62L47.175 497.62L47.175 489.71C47.175 489.15 47.07 488.637 46.86 488.17C46.6267 487.703 46.3233 487.307 45.95 486.98C45.5767 486.63 45.145 486.362 44.655 486.175C44.1417 485.965 43.605 485.86 43.045 485.86C42.4617 485.86 41.9133 485.953 41.4 486.14C40.8867 486.327 40.4433 486.583 40.07 486.91C39.6967 487.213 39.405 487.598 39.195 488.065C38.985 488.508 38.88 488.987 38.88 489.5L38.88 497.62ZM35.45 477.709L35.45 474.629L56.275 474.629C56.9517 474.629 57.4883 474.454 57.885 474.104C58.2583 473.73 58.445 473.217 58.445 472.564C58.445 472.307 58.41 472.004 58.34 471.654C58.2467 471.304 58.1417 470.977 58.025 470.674L60.51 470.184C60.72 470.697 60.895 471.304 61.035 472.004C61.175 472.704 61.245 473.322 61.245 473.859C61.245 475.049 60.9067 475.994 60.23 476.694C59.5533 477.37 58.6083 477.709 57.395 477.709L35.45 477.709ZM61.35 462.129C61.35 464.042 60.7083 465.489 59.425 466.469C58.1417 467.449 56.2283 467.939 53.685 467.939L42.73 467.939L42.73 464.859L53.09 464.859C56.8233 464.859 58.69 463.564 58.69 460.974C58.69 459.714 58.2933 458.536 57.5 457.439C56.6833 456.319 55.575 455.491 54.175 454.954L42.73 454.954L42.73 451.874L57.22 451.874C57.9433 451.874 58.3167 451.547 58.34 450.894L61 450.894C61.0467 451.244 61.07 451.524 61.07 451.734C61.0933 451.921 61.105 452.107 61.105 452.294C61.105 452.901 60.93 453.414 60.58 453.834C60.2067 454.231 59.7517 454.441 59.215 454.464L57.08 454.534C58.4567 455.351 59.5183 456.424 60.265 457.754C60.9883 459.084 61.35 460.542 61.35 462.129ZM61.35 438.659C61.35 440.035 61.105 441.295 60.615 442.439C60.1017 443.582 59.4133 444.562 58.55 445.379C57.6867 446.195 56.6833 446.837 55.54 447.304C54.3733 447.747 53.1483 447.969 51.865 447.969C50.5817 447.969 49.3683 447.747 48.225 447.304C47.0817 446.837 46.0783 446.195 45.215 445.379C44.3517 444.539 43.675 443.547 43.185 442.404C42.6717 441.26 42.415 440 42.415 438.624C42.415 437.247 42.6717 435.999 43.185 434.879C43.6983 433.735 44.3867 432.767 45.25 431.974C46.09 431.18 47.0817 430.574 48.225 430.154C49.345 429.71 50.5117 429.489 51.725 429.489C51.9817 429.489 52.215 429.5 52.425 429.524C52.635 429.524 52.7983 429.535 52.915 429.559L52.915 444.714C53.825 444.644 54.6533 444.434 55.4 444.084C56.1467 443.734 56.7883 443.279 57.325 442.719C57.8617 442.159 58.2817 441.529 58.585 440.829C58.8883 440.105 59.04 439.347 59.04 438.554C59.04 437.994 58.97 437.445 58.83 436.909C58.6667 436.372 58.4567 435.87 58.2 435.404C57.9433 434.937 57.6283 434.529 57.255 434.179C56.8817 433.805 56.4617 433.525 55.995 433.339L56.73 430.679C57.4067 430.982 58.025 431.402 58.585 431.939C59.145 432.452 59.635 433.059 60.055 433.759C60.4517 434.435 60.7667 435.194 61 436.034C61.2333 436.874 61.35 437.749 61.35 438.659ZM50.64 432.394C49.7767 432.464 48.9833 432.685 48.26 433.059C47.5133 433.409 46.8833 433.864 46.37 434.424C45.8567 434.96 45.46 435.59 45.18 436.314C44.8767 437.037 44.725 437.807 44.725 438.624C44.725 439.44 44.8767 440.21 45.18 440.934C45.46 441.657 45.8683 442.299 46.405 442.859C46.9183 443.395 47.5367 443.839 48.26 444.189C48.9833 444.515 49.7767 444.714 50.64 444.784L50.64 432.394Z" fill="white"/>
</svg>
