<svg width="158" height="158" viewBox="0 0 158 158" fill="none" xmlns="http://www.w3.org/2000/svg">
<path d="M113.369 99.3954C118.922 101.961 124.366 104.486 129.846 106.929C131.032 107.458 132.337 107.747 133.613 108.029C134.058 108.128 134.804 108.027 135.007 107.736C135.207 107.449 135.053 106.667 134.775 106.339C133.002 104.242 131.286 102.069 129.297 100.19C125.764 96.8523 122.049 93.7055 118.438 90.3228C118.938 90.5574 119.483 90.7277 119.933 91.036C129.661 97.6972 139.288 104.501 147.913 112.58C149.764 114.314 151.367 116.385 152.767 118.51C154.188 120.667 153.349 122.094 150.772 122.396C147.15 122.821 143.713 121.844 140.302 120.855C131.09 118.184 122.307 114.385 113.595 110.432C106.846 107.37 100.171 104.142 93.3579 100.939C90.8744 104.279 89.0204 108.101 87.5387 112.122C84.5347 120.273 82.9525 128.764 81.6346 137.304C80.6159 143.906 79.7967 150.538 78.7132 157.223C78.5046 155.797 78.3117 154.37 78.0851 152.947C76.5235 143.148 75.1691 133.309 73.3209 123.563C71.8411 115.76 69.2779 108.262 64.7494 101.589C60.092 94.7258 53.4993 90.4594 45.8907 87.586C37.1175 84.2729 27.9436 82.6315 18.7189 81.2567C12.4928 80.3289 6.24628 79.5382 0 78.6052C13.9181 76.7151 27.9078 75.2484 41.6761 71.169C37.8748 68.4484 34.2555 65.9221 30.7043 63.3034C23.3193 57.8576 15.9683 52.3529 9.54067 45.7664C7.73314 43.9142 6.13797 41.7744 4.82016 39.5451C3.19652 36.7983 4.39316 34.9554 7.57237 34.8287C11.9469 34.6545 16.0627 35.9451 20.13 37.2589C32.5847 41.2819 44.487 46.6677 56.3215 52.206C56.5409 52.3087 56.7332 52.4694 56.9381 52.603C56.889 52.7251 56.8399 52.8472 56.7908 52.9693C55.7131 52.5776 54.6334 52.1912 53.558 51.7935C45.7697 48.9127 38.0422 45.8385 29.8505 44.2294C28.8314 44.0293 27.7715 43.908 26.739 43.9517C26.0959 43.9789 25.4689 44.3848 24.8346 44.6207C24.7574 44.8233 24.6802 45.026 24.6029 45.2286C26.0185 46.6404 27.3028 48.2222 28.8719 49.4355C36.8844 55.6314 45.6961 60.5602 54.5127 65.423C62.4931 60.5012 67.2152 53.1886 70.2642 44.6197C73.2836 36.1341 74.906 27.3254 76.1859 18.4486C77.0433 12.5018 77.7571 6.53436 78.5412 0.576968C78.5669 0.381599 78.6579 0.194829 78.9525 0C79.2749 2.67909 79.5655 5.36244 79.9252 8.0365C81.2993 18.2502 82.6845 28.4653 85.3963 38.4358C87.2186 45.1356 89.6504 51.578 93.9333 57.1579C98.6447 63.2959 104.941 67.1822 112.095 69.8311C119.893 72.7188 128.001 74.3307 136.185 75.5786C143.291 76.6623 150.42 77.5958 157.569 78.7408C154.35 79.1529 151.129 79.5556 147.91 79.9788C137.637 81.3298 127.382 82.7904 117.401 85.6915C112.21 87.2004 107.19 89.1297 102.632 92.1064C102.326 92.3062 102.025 92.5148 101.734 92.7362C101.666 92.7881 101.651 92.9093 101.531 93.1799C105.437 95.2242 109.355 97.2749 113.369 99.3954ZM76.0628 49.6631C74.8385 54.0261 73.9544 58.522 72.3149 62.723C69.4113 70.1637 62.9589 73.6103 55.7972 75.7114C51.3097 77.0279 46.6295 77.6882 42.0789 78.634C42.3275 78.6972 42.661 78.7907 42.9984 78.8663C47.5423 79.8835 52.139 80.7111 56.6179 81.961C62.2137 83.5227 67.2458 86.1251 70.5569 91.2241C72.9906 94.9718 74.5039 99.1204 75.2229 103.466C76.3968 110.56 77.2479 117.709 78.2176 124.837C78.3893 126.099 78.4751 127.373 78.6006 128.641C79.4363 124.257 79.7017 119.879 80.408 115.574C81.3722 109.697 82.3806 103.798 83.9071 98.0509C85.5583 91.8343 89.253 86.8657 95.2918 84.1923C98.6179 82.7198 102.155 81.6667 105.672 80.6999C108.83 79.8319 112.092 79.3403 115.308 78.6826C110.739 77.6359 106.191 76.7077 101.706 75.5342C97.3155 74.3852 93.2092 72.5666 89.8464 69.3785C86.2935 66.0101 84.4562 61.7016 83.186 57.1034C80.682 48.0385 80.0051 38.6993 79.0872 29.3973C79.0574 29.0954 78.9517 28.8011 78.8814 28.5032C78.2536 31.9779 77.9543 35.425 77.5472 38.8594C77.1301 42.3779 76.6075 45.884 76.0628 49.6631Z" fill="#FCFCFC"/>
<path d="M75.6976 75.3452C78.0871 72.3414 78.033 68.6765 78.7771 65.031C79.2773 67.5199 79.6627 69.7298 80.1737 71.9102C80.912 75.0602 83.0679 76.7942 86.1261 77.4655C88.0416 77.886 89.9843 78.1823 91.9406 78.7226C90.777 78.9266 89.6113 79.1198 88.4504 79.3382C87.578 79.5022 86.7077 79.6816 85.8434 79.8837C82.6077 80.6405 80.6476 82.6631 79.9935 85.9107C79.5825 87.9515 79.2503 90.0082 78.8015 92.5108C78.4541 90.4718 78.178 88.8572 77.9042 87.2423C77.0918 82.4504 75.2572 80.5342 70.4995 79.5867C68.7853 79.2453 67.0544 78.9885 64.9702 78.6312C68.8498 77.8427 72.6383 77.9308 75.6976 75.3452Z" fill="#F7F7F7"/>
</svg>
