<svg width="370" height="42" viewBox="0 0 370 42" fill="none" xmlns="http://www.w3.org/2000/svg">
<path d="M-0.000199179 41.3562V0.289225H2.94968V38.6955H27.4742V41.3562H-0.000199179ZM60.9672 38.6955V41.3562H33.6085V0.289225H60.4466V2.9499H36.5584V19.0875H57.4389V21.6325H36.5584V38.6955H60.9672ZM81.9232 0.289225H84.4682L101.82 41.3562H98.697L92.9708 27.8215H73.3627L67.6365 41.3562H64.4552L81.9232 0.289225ZM92.161 25.3921L83.1957 3.87536L74.0568 25.3921H92.161ZM108.056 41.3562V0.289225H121.706C126.064 0.289225 129.669 1.21468 132.523 3.06558C135.415 4.87793 137.574 7.3458 139.001 10.4692C140.466 13.5541 141.199 16.9859 141.199 20.7649C141.199 24.9294 140.408 28.5541 138.827 31.6389C137.246 34.7238 134.99 37.1145 132.06 38.8112C129.129 40.5079 125.678 41.3562 121.706 41.3562H108.056ZM138.249 20.7649C138.249 17.333 137.593 14.2674 136.282 11.5682C135.01 8.86894 133.14 6.7674 130.672 5.26354C128.242 3.72111 125.254 2.9499 121.706 2.9499H111.006V38.6955H121.706C125.292 38.6955 128.319 37.905 130.787 36.3241C133.255 34.7431 135.106 32.603 136.34 29.9037C137.613 27.1659 138.249 24.1196 138.249 20.7649ZM165.312 41.6454C162.613 41.6454 160.087 41.0863 157.735 39.968C155.383 38.8498 153.32 37.3073 151.546 35.3408C149.811 33.3742 148.442 31.1377 147.439 28.6312C146.475 26.1248 145.993 23.4641 145.993 20.6492C145.993 17.8343 146.475 15.1929 147.439 12.725C148.442 10.2571 149.811 8.05917 151.546 6.13115C153.32 4.20312 155.383 2.69926 157.735 1.61956C160.126 0.539868 162.728 2.09003e-05 165.543 2.09003e-05C169.438 2.09003e-05 172.716 0.829072 175.376 2.48717C178.076 4.10672 180.1 6.26611 181.45 8.96535L176.475 12.5515C175.396 10.315 173.853 8.63758 171.848 7.51933C169.881 6.40107 167.722 5.84194 165.37 5.84194C163.442 5.84194 161.687 6.24683 160.106 7.0566C158.525 7.86637 157.156 8.98463 156 10.4114C154.881 11.7995 154.033 13.3998 153.455 15.2122C152.876 16.9859 152.587 18.8561 152.587 20.8227C152.587 22.905 152.915 24.8523 153.57 26.6646C154.226 28.477 155.151 30.0772 156.347 31.4654C157.542 32.815 158.949 33.8755 160.569 34.6467C162.189 35.4179 163.943 35.8035 165.833 35.8035C168.069 35.8035 170.19 35.2444 172.195 34.1261C174.239 32.9693 176.148 31.2533 177.921 28.9783V35.5721C174.335 39.621 170.132 41.6454 165.312 41.6454ZM177.285 25.3921H168.667V20.5913H182.722V41.3562H177.285V25.3921ZM218.28 35.63V41.3562H190.111V0.289225H217.759V6.01547H196.589V17.6993H214.925V23.0785H196.589V35.63H218.28ZM231.441 12.3201V41.3562H224.963V0.289225H230.284L253.536 29.9616V0.347065H260.072V41.3562H254.404L231.441 12.3201ZM283.594 41.3562V0.289225H300.831C302.682 0.289225 304.378 0.67483 305.921 1.44604C307.463 2.21725 308.813 3.23911 309.97 4.5116C311.126 5.7841 312.013 7.21084 312.63 8.79182C313.247 10.3728 313.556 11.9923 313.556 13.6505C313.556 15.9255 313.035 18.1042 311.994 20.1865C310.991 22.2302 309.545 23.8883 307.656 25.1608C305.805 26.4333 303.646 27.0695 301.178 27.0695H290.072V41.3562H283.594ZM290.072 21.3433H300.773C302.007 21.3433 303.087 21.0155 304.012 20.36C304.937 19.6659 305.651 18.7404 306.152 17.5836C306.692 16.4268 306.962 15.1158 306.962 13.6505C306.962 12.1466 306.653 10.8163 306.036 9.65944C305.419 8.50262 304.61 7.61573 303.607 6.99876C302.643 6.34323 301.583 6.01547 300.426 6.01547H290.072V21.3433ZM335.827 16.6003C333.359 16.6389 331.161 17.198 329.233 18.2777C327.344 19.3574 325.994 20.8806 325.184 22.8471V41.3562H318.822V11.1055H324.722V17.8728C325.763 15.7906 327.132 14.1325 328.828 12.8985C330.525 11.626 332.318 10.9319 334.208 10.8163C334.593 10.8163 334.902 10.8163 335.133 10.8163C335.403 10.8163 335.634 10.8355 335.827 10.8741V16.6003ZM353.484 41.9346C351.093 41.9346 348.953 41.5297 347.063 40.72C345.174 39.8716 343.535 38.7148 342.147 37.2495C340.797 35.7842 339.756 34.1261 339.023 32.2752C338.291 30.3857 337.924 28.3806 337.924 26.2597C337.924 24.1389 338.291 22.1338 339.023 20.2443C339.756 18.3548 340.797 16.6967 342.147 15.27C343.535 13.8047 345.174 12.6672 347.063 11.8574C348.991 11.0091 351.131 10.5849 353.484 10.5849C355.836 10.5849 357.957 11.0091 359.846 11.8574C361.774 12.6672 363.413 13.8047 364.762 15.27C366.151 16.6967 367.211 18.3548 367.944 20.2443C368.676 22.1338 369.043 24.1389 369.043 26.2597C369.043 28.3806 368.676 30.3857 367.944 32.2752C367.211 34.1261 366.151 35.7842 364.762 37.2495C363.413 38.7148 361.774 39.8716 359.846 40.72C357.957 41.5297 355.836 41.9346 353.484 41.9346ZM344.46 26.3176C344.46 28.2456 344.865 29.9808 345.675 31.5233C346.485 33.0657 347.564 34.2803 348.914 35.1672C350.264 36.0541 351.787 36.4976 353.484 36.4976C355.142 36.4976 356.645 36.0541 357.995 35.1672C359.383 34.2418 360.482 33.0078 361.292 31.4654C362.102 29.8844 362.507 28.1492 362.507 26.2597C362.507 24.3317 362.102 22.5965 361.292 21.0541C360.482 19.5117 359.383 18.297 357.995 17.4101C356.645 16.4847 355.142 16.0219 353.484 16.0219C351.787 16.0219 350.264 16.4847 348.914 17.4101C347.564 18.3356 346.485 19.5695 345.675 21.1119C344.865 22.6158 344.46 24.351 344.46 26.3176Z" fill="white"/>
</svg>
