<svg width="427" height="212" viewBox="0 0 427 212" fill="none" xmlns="http://www.w3.org/2000/svg">
<rect x="0.5" y="0.5" width="426" height="211" rx="4.5" stroke="#9747FF" stroke-dasharray="10 5"/>
<rect x="20" y="20" width="387.56" height="44" rx="6" fill="white" fill-opacity="0.08"/>
<rect x="20.5" y="20.5" width="386.56" height="43" rx="5.5" stroke="white" stroke-opacity="0.06"/>
<path d="M47.0003 44.2917V46.125M42.417 40.1931C42.8491 40.1667 43.3819 40.1667 44.067 40.1667H49.9337C50.6188 40.1667 51.1515 40.1667 51.5837 40.1931M42.417 40.1931C41.8777 40.226 41.4951 40.3 41.1685 40.4664C40.6511 40.73 40.2304 41.1507 39.9667 41.6682C39.667 42.2565 39.667 43.0265 39.667 44.5667V45.85C39.667 47.3902 39.667 48.1602 39.9667 48.7485C40.2304 49.266 40.6511 49.6866 41.1685 49.9503C41.7568 50.25 42.5268 50.25 44.067 50.25H49.9337C51.4738 50.25 52.2438 50.25 52.8322 49.9503C53.3496 49.6866 53.7703 49.266 54.0339 48.7485C54.3337 48.1602 54.3337 47.3902 54.3337 45.85V44.5667C54.3337 43.0265 54.3337 42.2565 54.0339 41.6682C53.7703 41.1507 53.3496 40.73 52.8322 40.4664C52.5055 40.3 52.1229 40.226 51.5837 40.1931M42.417 40.1931V38.3333C42.417 35.802 44.469 33.75 47.0003 33.75C49.5316 33.75 51.5837 35.802 51.5837 38.3333V40.1931" stroke="white" stroke-opacity="0.32" stroke-width="1.83333" stroke-linecap="round" stroke-linejoin="round"/>
<path d="M72.926 41.96L73.094 39.818L71.358 41.036L70.868 40.182L72.814 39.328L70.882 38.488L71.344 37.662L73.108 38.88L72.912 36.738H73.864L73.654 38.88L75.404 37.662L75.852 38.474L73.92 39.342L75.866 40.196L75.404 41.022L73.654 39.818L73.85 41.96H72.926ZM79.6526 41.96L79.8206 39.818L78.0846 41.036L77.5946 40.182L79.5406 39.328L77.6086 38.488L78.0706 37.662L79.8346 38.88L79.6386 36.738H80.5906L80.3806 38.88L82.1306 37.662L82.5786 38.474L80.6466 39.342L82.5926 40.196L82.1306 41.022L80.3806 39.818L80.5766 41.96H79.6526ZM86.3791 41.96L86.5471 39.818L84.8111 41.036L84.3211 40.182L86.2671 39.328L84.3351 38.488L84.7971 37.662L86.5611 38.88L86.3651 36.738H87.3171L87.1071 38.88L88.8571 37.662L89.3051 38.474L87.3731 39.342L89.3191 40.196L88.8571 41.022L87.1071 39.818L87.3031 41.96H86.3791ZM93.1057 41.96L93.2737 39.818L91.5377 41.036L91.0477 40.182L92.9937 39.328L91.0617 38.488L91.5237 37.662L93.2877 38.88L93.0917 36.738H94.0437L93.8337 38.88L95.5837 37.662L96.0317 38.474L94.0997 39.342L96.0457 40.196L95.5837 41.022L93.8337 39.818L94.0297 41.96H93.1057ZM99.8323 41.96L100 39.818L98.2643 41.036L97.7743 40.182L99.7203 39.328L97.7883 38.488L98.2503 37.662L100.014 38.88L99.8183 36.738H100.77L100.56 38.88L102.31 37.662L102.758 38.474L100.826 39.342L102.772 40.196L102.31 41.022L100.56 39.818L100.756 41.96H99.8323ZM106.559 41.96L106.727 39.818L104.991 41.036L104.501 40.182L106.447 39.328L104.515 38.488L104.977 37.662L106.741 38.88L106.545 36.738H107.497L107.287 38.88L109.037 37.662L109.485 38.474L107.553 39.342L109.499 40.196L109.037 41.022L107.287 39.818L107.483 41.96H106.559ZM113.285 41.96L113.453 39.818L111.717 41.036L111.227 40.182L113.173 39.328L111.241 38.488L111.703 37.662L113.467 38.88L113.271 36.738H114.223L114.013 38.88L115.763 37.662L116.211 38.474L114.279 39.342L116.225 40.196L115.763 41.022L114.013 39.818L114.209 41.96H113.285ZM120.012 41.96L120.18 39.818L118.444 41.036L117.954 40.182L119.9 39.328L117.968 38.488L118.43 37.662L120.194 38.88L119.998 36.738H120.95L120.74 38.88L122.49 37.662L122.938 38.474L121.006 39.342L122.952 40.196L122.49 41.022L120.74 39.818L120.936 41.96H120.012ZM126.739 41.96L126.907 39.818L125.171 41.036L124.681 40.182L126.627 39.328L124.695 38.488L125.157 37.662L126.921 38.88L126.725 36.738H127.677L127.467 38.88L129.217 37.662L129.665 38.474L127.733 39.342L129.679 40.196L129.217 41.022L127.467 39.818L127.663 41.96H126.739ZM133.465 41.96L133.633 39.818L131.897 41.036L131.407 40.182L133.353 39.328L131.421 38.488L131.883 37.662L133.647 38.88L133.451 36.738H134.403L134.193 38.88L135.943 37.662L136.391 38.474L134.459 39.342L136.405 40.196L135.943 41.022L134.193 39.818L134.389 41.96H133.465ZM140.192 41.96L140.36 39.818L138.624 41.036L138.134 40.182L140.08 39.328L138.148 38.488L138.61 37.662L140.374 38.88L140.178 36.738H141.13L140.92 38.88L142.67 37.662L143.118 38.474L141.186 39.342L143.132 40.196L142.67 41.022L140.92 39.818L141.116 41.96H140.192ZM146.918 41.96L147.086 39.818L145.35 41.036L144.86 40.182L146.806 39.328L144.874 38.488L145.336 37.662L147.1 38.88L146.904 36.738H147.856L147.646 38.88L149.396 37.662L149.844 38.474L147.912 39.342L149.858 40.196L149.396 41.022L147.646 39.818L147.842 41.96H146.918Z" fill="white" fill-opacity="0.32"/>
<g filter="url(#filter0_d_65_209)">
<rect x="20" y="84" width="387.56" height="44" rx="6" fill="white" fill-opacity="0.2" shape-rendering="crispEdges"/>
<rect x="20.5" y="84.5" width="386.56" height="43" rx="5.5" stroke="#3148B9" shape-rendering="crispEdges"/>
<path d="M47.0003 108.292V110.125M42.417 104.193C42.8491 104.167 43.3819 104.167 44.067 104.167H49.9337C50.6188 104.167 51.1515 104.167 51.5837 104.193M42.417 104.193C41.8777 104.226 41.4951 104.3 41.1685 104.466C40.6511 104.73 40.2304 105.151 39.9667 105.668C39.667 106.256 39.667 107.026 39.667 108.567V109.85C39.667 111.39 39.667 112.16 39.9667 112.748C40.2304 113.266 40.6511 113.687 41.1685 113.95C41.7568 114.25 42.5268 114.25 44.067 114.25H49.9337C51.4738 114.25 52.2438 114.25 52.8322 113.95C53.3496 113.687 53.7703 113.266 54.0339 112.748C54.3337 112.16 54.3337 111.39 54.3337 109.85V108.567C54.3337 107.026 54.3337 106.256 54.0339 105.668C53.7703 105.151 53.3496 104.73 52.8322 104.466C52.5055 104.3 52.1229 104.226 51.5837 104.193M42.417 104.193V102.333C42.417 99.802 44.469 97.75 47.0003 97.75C49.5316 97.75 51.5837 99.802 51.5837 102.333V104.193" stroke="white" stroke-opacity="0.88" stroke-width="1.83333" stroke-linecap="round" stroke-linejoin="round"/>
<path d="M72.926 105.96L73.094 103.818L71.358 105.036L70.868 104.182L72.814 103.328L70.882 102.488L71.344 101.662L73.108 102.88L72.912 100.738H73.864L73.654 102.88L75.404 101.662L75.852 102.474L73.92 103.342L75.866 104.196L75.404 105.022L73.654 103.818L73.85 105.96H72.926ZM79.6526 105.96L79.8206 103.818L78.0846 105.036L77.5946 104.182L79.5406 103.328L77.6086 102.488L78.0706 101.662L79.8346 102.88L79.6386 100.738H80.5906L80.3806 102.88L82.1306 101.662L82.5786 102.474L80.6466 103.342L82.5926 104.196L82.1306 105.022L80.3806 103.818L80.5766 105.96H79.6526ZM86.3791 105.96L86.5471 103.818L84.8111 105.036L84.3211 104.182L86.2671 103.328L84.3351 102.488L84.7971 101.662L86.5611 102.88L86.3651 100.738H87.3171L87.1071 102.88L88.8571 101.662L89.3051 102.474L87.3731 103.342L89.3191 104.196L88.8571 105.022L87.1071 103.818L87.3031 105.96H86.3791ZM93.1057 105.96L93.2737 103.818L91.5377 105.036L91.0477 104.182L92.9937 103.328L91.0617 102.488L91.5237 101.662L93.2877 102.88L93.0917 100.738H94.0437L93.8337 102.88L95.5837 101.662L96.0317 102.474L94.0997 103.342L96.0457 104.196L95.5837 105.022L93.8337 103.818L94.0297 105.96H93.1057ZM99.8323 105.96L100 103.818L98.2643 105.036L97.7743 104.182L99.7203 103.328L97.7883 102.488L98.2503 101.662L100.014 102.88L99.8183 100.738H100.77L100.56 102.88L102.31 101.662L102.758 102.474L100.826 103.342L102.772 104.196L102.31 105.022L100.56 103.818L100.756 105.96H99.8323ZM106.559 105.96L106.727 103.818L104.991 105.036L104.501 104.182L106.447 103.328L104.515 102.488L104.977 101.662L106.741 102.88L106.545 100.738H107.497L107.287 102.88L109.037 101.662L109.485 102.474L107.553 103.342L109.499 104.196L109.037 105.022L107.287 103.818L107.483 105.96H106.559ZM113.285 105.96L113.453 103.818L111.717 105.036L111.227 104.182L113.173 103.328L111.241 102.488L111.703 101.662L113.467 102.88L113.271 100.738H114.223L114.013 102.88L115.763 101.662L116.211 102.474L114.279 103.342L116.225 104.196L115.763 105.022L114.013 103.818L114.209 105.96H113.285ZM120.012 105.96L120.18 103.818L118.444 105.036L117.954 104.182L119.9 103.328L117.968 102.488L118.43 101.662L120.194 102.88L119.998 100.738H120.95L120.74 102.88L122.49 101.662L122.938 102.474L121.006 103.342L122.952 104.196L122.49 105.022L120.74 103.818L120.936 105.96H120.012ZM126.739 105.96L126.907 103.818L125.171 105.036L124.681 104.182L126.627 103.328L124.695 102.488L125.157 101.662L126.921 102.88L126.725 100.738H127.677L127.467 102.88L129.217 101.662L129.665 102.474L127.733 103.342L129.679 104.196L129.217 105.022L127.467 103.818L127.663 105.96H126.739ZM133.465 105.96L133.633 103.818L131.897 105.036L131.407 104.182L133.353 103.328L131.421 102.488L131.883 101.662L133.647 102.88L133.451 100.738H134.403L134.193 102.88L135.943 101.662L136.391 102.474L134.459 103.342L136.405 104.196L135.943 105.022L134.193 103.818L134.389 105.96H133.465ZM140.192 105.96L140.36 103.818L138.624 105.036L138.134 104.182L140.08 103.328L138.148 102.488L138.61 101.662L140.374 102.88L140.178 100.738H141.13L140.92 102.88L142.67 101.662L143.118 102.474L141.186 103.342L143.132 104.196L142.67 105.022L140.92 103.818L141.116 105.96H140.192ZM146.918 105.96L147.086 103.818L145.35 105.036L144.86 104.182L146.806 103.328L144.874 102.488L145.336 101.662L147.1 102.88L146.904 100.738H147.856L147.646 102.88L149.396 101.662L149.844 102.474L147.912 103.342L149.858 104.196L149.396 105.022L147.646 103.818L147.842 105.96H146.918Z" fill="white" fill-opacity="0.47"/>
</g>
<g filter="url(#filter1_d_65_209)">
<rect x="20" y="148" width="387.56" height="44" rx="6" fill="white" fill-opacity="0.08" shape-rendering="crispEdges"/>
<rect x="20.5" y="148.5" width="386.56" height="43" rx="5.5" stroke="#3148B9" shape-rendering="crispEdges"/>
<path d="M47.0003 172.292V174.125M42.417 168.193C42.8491 168.167 43.3819 168.167 44.067 168.167H49.9337C50.6188 168.167 51.1515 168.167 51.5837 168.193M42.417 168.193C41.8777 168.226 41.4951 168.3 41.1685 168.466C40.6511 168.73 40.2304 169.151 39.9667 169.668C39.667 170.256 39.667 171.026 39.667 172.567V173.85C39.667 175.39 39.667 176.16 39.9667 176.748C40.2304 177.266 40.6511 177.687 41.1685 177.95C41.7568 178.25 42.5268 178.25 44.067 178.25H49.9337C51.4738 178.25 52.2438 178.25 52.8322 177.95C53.3496 177.687 53.7703 177.266 54.0339 176.748C54.3337 176.16 54.3337 175.39 54.3337 173.85V172.567C54.3337 171.026 54.3337 170.256 54.0339 169.668C53.7703 169.151 53.3496 168.73 52.8322 168.466C52.5055 168.3 52.1229 168.226 51.5837 168.193M42.417 168.193V166.333C42.417 163.802 44.469 161.75 47.0003 161.75C49.5316 161.75 51.5837 163.802 51.5837 166.333V168.193" stroke="white" stroke-opacity="0.32" stroke-width="1.83333" stroke-linecap="round" stroke-linejoin="round"/>
<path d="M72.926 169.96L73.094 167.818L71.358 169.036L70.868 168.182L72.814 167.328L70.882 166.488L71.344 165.662L73.108 166.88L72.912 164.738H73.864L73.654 166.88L75.404 165.662L75.852 166.474L73.92 167.342L75.866 168.196L75.404 169.022L73.654 167.818L73.85 169.96H72.926ZM79.6526 169.96L79.8206 167.818L78.0846 169.036L77.5946 168.182L79.5406 167.328L77.6086 166.488L78.0706 165.662L79.8346 166.88L79.6386 164.738H80.5906L80.3806 166.88L82.1306 165.662L82.5786 166.474L80.6466 167.342L82.5926 168.196L82.1306 169.022L80.3806 167.818L80.5766 169.96H79.6526ZM86.3791 169.96L86.5471 167.818L84.8111 169.036L84.3211 168.182L86.2671 167.328L84.3351 166.488L84.7971 165.662L86.5611 166.88L86.3651 164.738H87.3171L87.1071 166.88L88.8571 165.662L89.3051 166.474L87.3731 167.342L89.3191 168.196L88.8571 169.022L87.1071 167.818L87.3031 169.96H86.3791ZM93.1057 169.96L93.2737 167.818L91.5377 169.036L91.0477 168.182L92.9937 167.328L91.0617 166.488L91.5237 165.662L93.2877 166.88L93.0917 164.738H94.0437L93.8337 166.88L95.5837 165.662L96.0317 166.474L94.0997 167.342L96.0457 168.196L95.5837 169.022L93.8337 167.818L94.0297 169.96H93.1057ZM99.8323 169.96L100 167.818L98.2643 169.036L97.7743 168.182L99.7203 167.328L97.7883 166.488L98.2503 165.662L100.014 166.88L99.8183 164.738H100.77L100.56 166.88L102.31 165.662L102.758 166.474L100.826 167.342L102.772 168.196L102.31 169.022L100.56 167.818L100.756 169.96H99.8323ZM106.559 169.96L106.727 167.818L104.991 169.036L104.501 168.182L106.447 167.328L104.515 166.488L104.977 165.662L106.741 166.88L106.545 164.738H107.497L107.287 166.88L109.037 165.662L109.485 166.474L107.553 167.342L109.499 168.196L109.037 169.022L107.287 167.818L107.483 169.96H106.559ZM113.285 169.96L113.453 167.818L111.717 169.036L111.227 168.182L113.173 167.328L111.241 166.488L111.703 165.662L113.467 166.88L113.271 164.738H114.223L114.013 166.88L115.763 165.662L116.211 166.474L114.279 167.342L116.225 168.196L115.763 169.022L114.013 167.818L114.209 169.96H113.285ZM120.012 169.96L120.18 167.818L118.444 169.036L117.954 168.182L119.9 167.328L117.968 166.488L118.43 165.662L120.194 166.88L119.998 164.738H120.95L120.74 166.88L122.49 165.662L122.938 166.474L121.006 167.342L122.952 168.196L122.49 169.022L120.74 167.818L120.936 169.96H120.012ZM126.739 169.96L126.907 167.818L125.171 169.036L124.681 168.182L126.627 167.328L124.695 166.488L125.157 165.662L126.921 166.88L126.725 164.738H127.677L127.467 166.88L129.217 165.662L129.665 166.474L127.733 167.342L129.679 168.196L129.217 169.022L127.467 167.818L127.663 169.96H126.739ZM133.465 169.96L133.633 167.818L131.897 169.036L131.407 168.182L133.353 167.328L131.421 166.488L131.883 165.662L133.647 166.88L133.451 164.738H134.403L134.193 166.88L135.943 165.662L136.391 166.474L134.459 167.342L136.405 168.196L135.943 169.022L134.193 167.818L134.389 169.96H133.465ZM140.192 169.96L140.36 167.818L138.624 169.036L138.134 168.182L140.08 167.328L138.148 166.488L138.61 165.662L140.374 166.88L140.178 164.738H141.13L140.92 166.88L142.67 165.662L143.118 166.474L141.186 167.342L143.132 168.196L142.67 169.022L140.92 167.818L141.116 169.96H140.192ZM146.918 169.96L147.086 167.818L145.35 169.036L144.86 168.182L146.806 167.328L144.874 166.488L145.336 165.662L147.1 166.88L146.904 164.738H147.856L147.646 166.88L149.396 165.662L149.844 166.474L147.912 167.342L149.858 168.196L149.396 169.022L147.646 167.818L147.842 169.96H146.918Z" fill="white" fill-opacity="0.32"/>
</g>
<defs>
<filter id="filter0_d_65_209" x="16" y="80" width="395.56" height="52" filterUnits="userSpaceOnUse" color-interpolation-filters="sRGB">
<feFlood flood-opacity="0" result="BackgroundImageFix"/>
<feColorMatrix in="SourceAlpha" type="matrix" values="0 0 0 0 0 0 0 0 0 0 0 0 0 0 0 0 0 0 127 0" result="hardAlpha"/>
<feMorphology radius="4" operator="dilate" in="SourceAlpha" result="effect1_dropShadow_65_209"/>
<feOffset/>
<feComposite in2="hardAlpha" operator="out"/>
<feColorMatrix type="matrix" values="0 0 0 0 0.192157 0 0 0 0 0.282353 0 0 0 0 0.72549 0 0 0 0.15 0"/>
<feBlend mode="normal" in2="BackgroundImageFix" result="effect1_dropShadow_65_209"/>
<feBlend mode="normal" in="SourceGraphic" in2="effect1_dropShadow_65_209" result="shape"/>
</filter>
<filter id="filter1_d_65_209" x="16" y="144" width="395.56" height="52" filterUnits="userSpaceOnUse" color-interpolation-filters="sRGB">
<feFlood flood-opacity="0" result="BackgroundImageFix"/>
<feColorMatrix in="SourceAlpha" type="matrix" values="0 0 0 0 0 0 0 0 0 0 0 0 0 0 0 0 0 0 127 0" result="hardAlpha"/>
<feMorphology radius="4" operator="dilate" in="SourceAlpha" result="effect1_dropShadow_65_209"/>
<feOffset/>
<feComposite in2="hardAlpha" operator="out"/>
<feColorMatrix type="matrix" values="0 0 0 0 0.192157 0 0 0 0 0.282353 0 0 0 0 0.72549 0 0 0 0.15 0"/>
<feBlend mode="normal" in2="BackgroundImageFix" result="effect1_dropShadow_65_209"/>
<feBlend mode="normal" in="SourceGraphic" in2="effect1_dropShadow_65_209" result="shape"/>
</filter>
</defs>
</svg>
