<svg width="303" height="20" viewBox="0 0 303 20" fill="none" xmlns="http://www.w3.org/2000/svg">
<path d="M-9.7543e-05 14.6V0.399975H5.9599C6.5999 0.399975 7.18657 0.533308 7.7199 0.799974C8.25324 1.06664 8.7199 1.41998 9.1199 1.85998C9.5199 2.29997 9.82657 2.79331 10.0399 3.33998C10.2532 3.88664 10.3599 4.44664 10.3599 5.01997C10.3599 5.80664 10.1799 6.55998 9.8199 7.27998C9.47324 7.98664 8.97324 8.55998 8.3199 8.99998C7.6799 9.43998 6.93324 9.65998 6.0799 9.65998H2.2399V14.6H-9.7543e-05ZM2.2399 7.67998H5.9399C6.36657 7.67998 6.7399 7.56664 7.0599 7.33998C7.3799 7.09998 7.62657 6.77998 7.7999 6.37998C7.98657 5.97998 8.0799 5.52664 8.0799 5.01997C8.0799 4.49998 7.97324 4.03998 7.7599 3.63997C7.54657 3.23998 7.26657 2.93331 6.9199 2.71997C6.58657 2.49331 6.2199 2.37998 5.8199 2.37998H2.2399V7.67998ZM20.0855 14.8C19.2589 14.8 18.5189 14.66 17.8655 14.38C17.2122 14.0866 16.6455 13.6866 16.1655 13.18C15.6989 12.6733 15.3389 12.1 15.0855 11.46C14.8322 10.8066 14.7055 10.1133 14.7055 9.37998C14.7055 8.64664 14.8322 7.95331 15.0855 7.29998C15.3389 6.64664 15.6989 6.07331 16.1655 5.57997C16.6455 5.07331 17.2122 4.67997 17.8655 4.39997C18.5322 4.10664 19.2722 3.95998 20.0855 3.95998C20.8989 3.95998 21.6322 4.10664 22.2855 4.39997C22.9522 4.67997 23.5189 5.07331 23.9855 5.57997C24.4655 6.07331 24.8322 6.64664 25.0855 7.29998C25.3389 7.95331 25.4655 8.64664 25.4655 9.37998C25.4655 10.1133 25.3389 10.8066 25.0855 11.46C24.8322 12.1 24.4655 12.6733 23.9855 13.18C23.5189 13.6866 22.9522 14.0866 22.2855 14.38C21.6322 14.66 20.8989 14.8 20.0855 14.8ZM16.9655 9.39998C16.9655 10.0666 17.1055 10.6666 17.3855 11.2C17.6655 11.7333 18.0389 12.1533 18.5055 12.46C18.9722 12.7666 19.4989 12.92 20.0855 12.92C20.6589 12.92 21.1789 12.7666 21.6455 12.46C22.1255 12.14 22.5055 11.7133 22.7855 11.18C23.0655 10.6333 23.2055 10.0333 23.2055 9.37998C23.2055 8.71331 23.0655 8.11331 22.7855 7.57998C22.5055 7.04664 22.1255 6.62664 21.6455 6.31997C21.1789 5.99998 20.6589 5.83998 20.0855 5.83998C19.4989 5.83998 18.9722 5.99998 18.5055 6.31997C18.0389 6.63998 17.6655 7.06664 17.3855 7.59998C17.1055 8.11998 16.9655 8.71998 16.9655 9.39998ZM43.5052 4.13998H45.6052L41.2052 14.6H39.3252L37.4452 9.87998L35.5652 14.6H33.6852L29.2652 4.13998H31.3652L34.7252 12.46L36.2052 8.59998L34.4052 4.15998H36.2652L37.4452 7.41998L38.6052 4.15998H40.4652L38.6852 8.59998L40.1652 12.46L43.5052 4.13998ZM54.8552 14.8C54.0419 14.8 53.3019 14.66 52.6352 14.38C51.9819 14.0866 51.4152 13.6933 50.9352 13.2C50.4552 12.6933 50.0819 12.12 49.8152 11.48C49.5619 10.8266 49.4352 10.1333 49.4352 9.39998C49.4352 8.41331 49.6619 7.51331 50.1152 6.69998C50.5685 5.87331 51.2019 5.21331 52.0152 4.71998C52.8285 4.21331 53.7819 3.95998 54.8752 3.95998C55.9685 3.95998 56.9085 4.21331 57.6952 4.71998C58.4952 5.21331 59.1152 5.86664 59.5552 6.67998C59.9952 7.49331 60.2152 8.36664 60.2152 9.29998C60.2152 9.45998 60.2085 9.61331 60.1952 9.75998C60.1819 9.89331 60.1685 10.0066 60.1552 10.1H51.7752C51.8152 10.7133 51.9819 11.2533 52.2752 11.72C52.5819 12.1733 52.9685 12.5333 53.4352 12.8C53.9019 13.0533 54.4019 13.18 54.9352 13.18C55.5219 13.18 56.0752 13.0333 56.5952 12.74C57.1285 12.4466 57.4885 12.06 57.6752 11.58L59.5552 12.12C59.3285 12.6266 58.9819 13.0866 58.5152 13.5C58.0619 13.9 57.5219 14.22 56.8952 14.46C56.2685 14.6866 55.5885 14.8 54.8552 14.8ZM51.7152 8.63998H58.0352C57.9952 8.03998 57.8219 7.51331 57.5152 7.05998C57.2219 6.59331 56.8419 6.23331 56.3752 5.97998C55.9219 5.71331 55.4152 5.57997 54.8552 5.57997C54.3085 5.57997 53.8019 5.71331 53.3352 5.97998C52.8819 6.23331 52.5085 6.59331 52.2152 7.05998C51.9219 7.51331 51.7552 8.03998 51.7152 8.63998ZM71.2897 6.03997C70.4364 6.05331 69.6764 6.24664 69.0097 6.61998C68.3564 6.99331 67.8897 7.51998 67.6097 8.19998V14.6H65.4097V4.13998H67.4497V6.47998C67.8097 5.75998 68.2831 5.18664 68.8697 4.75998C69.4564 4.31998 70.0764 4.07998 70.7297 4.03998C70.8631 4.03998 70.9697 4.03998 71.0497 4.03998C71.1431 4.03998 71.2231 4.04664 71.2897 4.05998V6.03997ZM80.8349 14.8C80.0216 14.8 79.2816 14.66 78.6149 14.38C77.9616 14.0866 77.3949 13.6933 76.9149 13.2C76.4349 12.6933 76.0616 12.12 75.7949 11.48C75.5416 10.8266 75.4149 10.1333 75.4149 9.39998C75.4149 8.41331 75.6416 7.51331 76.0949 6.69998C76.5482 5.87331 77.1816 5.21331 77.9949 4.71998C78.8082 4.21331 79.7616 3.95998 80.8549 3.95998C81.9482 3.95998 82.8882 4.21331 83.6749 4.71998C84.4749 5.21331 85.0949 5.86664 85.5349 6.67998C85.9749 7.49331 86.1949 8.36664 86.1949 9.29998C86.1949 9.45998 86.1882 9.61331 86.1749 9.75998C86.1616 9.89331 86.1482 10.0066 86.1349 10.1H77.7549C77.7949 10.7133 77.9616 11.2533 78.2549 11.72C78.5616 12.1733 78.9482 12.5333 79.4149 12.8C79.8816 13.0533 80.3816 13.18 80.9149 13.18C81.5016 13.18 82.0549 13.0333 82.5749 12.74C83.1082 12.4466 83.4682 12.06 83.6549 11.58L85.5349 12.12C85.3082 12.6266 84.9616 13.0866 84.4949 13.5C84.0416 13.9 83.5016 14.22 82.8749 14.46C82.2482 14.6866 81.5682 14.8 80.8349 14.8ZM77.6949 8.63998H84.0149C83.9749 8.03998 83.8016 7.51331 83.4949 7.05998C83.2016 6.59331 82.8216 6.23331 82.3549 5.97998C81.9016 5.71331 81.3949 5.57997 80.8349 5.57997C80.2882 5.57997 79.7816 5.71331 79.3149 5.97998C78.8616 6.23331 78.4882 6.59331 78.1949 7.05998C77.9016 7.51331 77.7349 8.03998 77.6949 8.63998ZM90.7294 9.37998C90.7294 8.37998 90.9294 7.47331 91.3294 6.65998C91.7428 5.83331 92.3028 5.17998 93.0094 4.69997C93.7161 4.20664 94.5294 3.95998 95.4494 3.95998C96.2494 3.95998 96.9694 4.16664 97.6094 4.57997C98.2628 4.99331 98.7694 5.50664 99.1294 6.11998V-2.47955e-05H101.329V12.12C101.329 12.3733 101.376 12.5533 101.469 12.66C101.563 12.7666 101.716 12.8266 101.929 12.84V14.6C101.516 14.6666 101.196 14.7 100.969 14.7C100.556 14.7 100.203 14.58 99.9094 14.34C99.6294 14.1 99.4828 13.8133 99.4694 13.48L99.4494 12.7C99.0494 13.3666 98.5094 13.8866 97.8294 14.26C97.1494 14.62 96.4428 14.8 95.7094 14.8C94.9894 14.8 94.3228 14.66 93.7094 14.38C93.1094 14.1 92.5828 13.7066 92.1294 13.2C91.6894 12.6933 91.3428 12.1133 91.0894 11.46C90.8494 10.8066 90.7294 10.1133 90.7294 9.37998ZM99.1294 10.84V8.09998C98.9828 7.67331 98.7428 7.29331 98.4094 6.95998C98.0894 6.61331 97.7228 6.33998 97.3094 6.13998C96.9094 5.93998 96.5094 5.83998 96.1094 5.83998C95.6428 5.83998 95.2161 5.93998 94.8294 6.13998C94.4561 6.33998 94.1294 6.60664 93.8494 6.93998C93.5828 7.27331 93.3761 7.65331 93.2294 8.07998C93.0828 8.50664 93.0094 8.95331 93.0094 9.41998C93.0094 9.89998 93.0894 10.3533 93.2494 10.78C93.4094 11.1933 93.6361 11.5666 93.9294 11.9C94.2361 12.22 94.5828 12.4733 94.9694 12.66C95.3694 12.8333 95.8028 12.92 96.2694 12.92C96.5628 12.92 96.8561 12.8666 97.1494 12.76C97.4561 12.6533 97.7428 12.5066 98.0094 12.32C98.2894 12.1333 98.5228 11.9133 98.7094 11.66C98.9094 11.4066 99.0494 11.1333 99.1294 10.84ZM121.505 14.8C120.705 14.8 119.979 14.6133 119.325 14.24C118.685 13.8533 118.179 13.34 117.805 12.7V14.6H115.865V-2.47955e-05H118.065V6.11998C118.479 5.45331 118.992 4.92664 119.605 4.53998C120.232 4.15331 120.965 3.95998 121.805 3.95998C122.499 3.95998 123.132 4.10664 123.705 4.39997C124.279 4.69331 124.765 5.09331 125.165 5.59998C125.579 6.10664 125.892 6.68664 126.105 7.33998C126.332 7.99331 126.445 8.68664 126.445 9.41998C126.445 10.1533 126.319 10.8466 126.065 11.5C125.825 12.1533 125.479 12.7266 125.025 13.22C124.572 13.7133 124.045 14.1 123.445 14.38C122.859 14.66 122.212 14.8 121.505 14.8ZM120.925 12.92C121.405 12.92 121.845 12.8266 122.245 12.64C122.645 12.44 122.992 12.18 123.285 11.86C123.579 11.54 123.799 11.1666 123.945 10.74C124.105 10.3133 124.185 9.87331 124.185 9.41998C124.185 8.79331 124.052 8.20664 123.785 7.65998C123.532 7.11331 123.172 6.67331 122.705 6.33998C122.239 6.00664 121.699 5.83998 121.085 5.83998C120.645 5.83998 120.232 5.94664 119.845 6.15998C119.459 6.35998 119.112 6.63331 118.805 6.97998C118.512 7.31331 118.265 7.68664 118.065 8.09998V10.86C118.145 11.1666 118.285 11.4466 118.485 11.7C118.685 11.94 118.919 12.1533 119.185 12.34C119.452 12.5133 119.739 12.6533 120.045 12.76C120.352 12.8666 120.645 12.92 120.925 12.92ZM131.832 17.06C132.032 17.0866 132.226 17.1133 132.412 17.14C132.612 17.18 132.772 17.2 132.892 17.2C133.119 17.2 133.312 17.1266 133.472 16.98C133.646 16.8466 133.819 16.5933 133.992 16.22C134.166 15.8466 134.379 15.3066 134.632 14.6L130.332 4.13998H132.632L135.832 12.36L138.672 4.13998H140.792L136.052 17.02C135.906 17.4066 135.692 17.76 135.412 18.08C135.132 18.4133 134.786 18.6733 134.372 18.86C133.959 19.0466 133.472 19.14 132.912 19.14C132.752 19.14 132.586 19.1266 132.412 19.1C132.239 19.0733 132.046 19.0333 131.832 18.98V17.06ZM165.064 10.94C165.064 11.7 164.864 12.3533 164.464 12.9C164.077 13.4466 163.55 13.8666 162.884 14.16C162.217 14.4533 161.484 14.6 160.684 14.6H153.904V0.399975H161.224C161.89 0.399975 162.464 0.579975 162.944 0.939975C163.437 1.28664 163.81 1.73998 164.064 2.29998C164.33 2.84664 164.464 3.41998 164.464 4.01997C164.464 4.71331 164.284 5.36664 163.924 5.97998C163.577 6.57998 163.077 7.02664 162.424 7.31998C163.237 7.55998 163.877 7.99998 164.344 8.63998C164.824 9.26664 165.064 10.0333 165.064 10.94ZM162.764 10.52C162.764 10.12 162.677 9.75998 162.504 9.43998C162.344 9.10664 162.117 8.83998 161.824 8.63998C161.544 8.42664 161.21 8.31998 160.824 8.31998H156.144V12.66H160.684C161.084 12.66 161.437 12.5666 161.744 12.38C162.064 12.18 162.31 11.92 162.484 11.6C162.67 11.2666 162.764 10.9066 162.764 10.52ZM156.144 2.33997V6.51998H160.264C160.637 6.51998 160.97 6.43331 161.264 6.25998C161.557 6.07331 161.79 5.82664 161.964 5.51998C162.137 5.19998 162.224 4.83998 162.224 4.43998C162.224 4.02664 162.144 3.66664 161.984 3.35997C161.824 3.03998 161.604 2.79331 161.324 2.61997C161.057 2.43331 160.744 2.33997 160.384 2.33997H156.144ZM170.8 14.6V0.399975H173.04V12.62H180.66V14.6H170.8ZM191.37 14.7C190.237 14.7 189.277 14.5066 188.49 14.12C187.717 13.7333 187.09 13.2066 186.61 12.54C186.143 11.8733 185.797 11.1133 185.57 10.26C185.357 9.40664 185.25 8.51998 185.25 7.59998V0.399975H187.49V7.59998C187.49 8.25331 187.557 8.88664 187.69 9.49998C187.823 10.1 188.037 10.64 188.33 11.12C188.623 11.6 189.017 11.98 189.51 12.26C190.017 12.54 190.637 12.68 191.37 12.68C192.117 12.68 192.737 12.54 193.23 12.26C193.737 11.9666 194.13 11.58 194.41 11.1C194.703 10.6066 194.917 10.06 195.05 9.45998C195.183 8.85998 195.25 8.23998 195.25 7.59998V0.399975H197.51V7.59998C197.51 8.57331 197.39 9.49331 197.15 10.36C196.923 11.2133 196.563 11.9666 196.07 12.62C195.59 13.26 194.963 13.7666 194.19 14.14C193.417 14.5133 192.477 14.7 191.37 14.7ZM213.629 12.62V14.6H203.889V0.399975H213.449V2.37998H206.129V6.41998H212.469V8.27998H206.129V12.62H213.629ZM227.74 3.73997C227.606 3.59331 227.413 3.43998 227.16 3.27997C226.906 3.10664 226.606 2.94664 226.26 2.79997C225.913 2.65331 225.54 2.53331 225.14 2.43997C224.74 2.34664 224.326 2.29998 223.9 2.29998C222.966 2.29998 222.273 2.47331 221.82 2.81997C221.366 3.16664 221.14 3.64664 221.14 4.25998C221.14 4.71331 221.266 5.07331 221.52 5.33997C221.773 5.59331 222.16 5.80664 222.68 5.97998C223.2 6.15331 223.853 6.33998 224.64 6.53998C225.6 6.76664 226.433 7.03998 227.14 7.35998C227.846 7.66664 228.386 8.07998 228.76 8.59998C229.133 9.11998 229.32 9.80664 229.32 10.66C229.32 11.38 229.186 12 228.92 12.52C228.653 13.04 228.28 13.4666 227.8 13.8C227.32 14.12 226.766 14.36 226.14 14.52C225.513 14.6666 224.84 14.74 224.12 14.74C223.413 14.74 222.706 14.6666 222 14.52C221.306 14.3733 220.64 14.16 220 13.88C219.373 13.5866 218.793 13.2333 218.26 12.82L219.28 10.9C219.453 11.0733 219.7 11.2666 220.02 11.48C220.353 11.68 220.733 11.8733 221.16 12.06C221.6 12.2466 222.073 12.4066 222.58 12.54C223.1 12.66 223.626 12.72 224.16 12.72C225.053 12.72 225.733 12.5666 226.2 12.26C226.68 11.94 226.92 11.4866 226.92 10.9C226.92 10.42 226.766 10.04 226.46 9.75998C226.153 9.46664 225.706 9.21998 225.12 9.01998C224.533 8.81998 223.833 8.61998 223.02 8.41998C222.086 8.16664 221.306 7.89331 220.68 7.59998C220.053 7.29331 219.58 6.90664 219.26 6.43998C218.953 5.95997 218.8 5.35331 218.8 4.61998C218.8 3.68664 219.026 2.89998 219.48 2.25997C219.933 1.60664 220.546 1.11998 221.32 0.799974C222.106 0.466641 222.986 0.299975 223.96 0.299975C224.6 0.299975 225.206 0.373308 225.78 0.519974C226.353 0.653308 226.886 0.839975 227.38 1.07997C227.886 1.31997 228.346 1.59331 228.76 1.89997L227.74 3.73997ZM245.386 2.37998H240.666V14.6H238.406V2.37998H233.666V0.399975H245.386V2.37998ZM253.462 0.399975H255.582L261.102 14.6H258.742L257.242 10.74H251.762L250.282 14.6H247.902L253.462 0.399975ZM256.802 9.07998L254.522 2.85998L252.162 9.07998H256.802ZM266.259 14.6V0.399975H272.439C273.079 0.399975 273.665 0.533308 274.199 0.799974C274.732 1.06664 275.192 1.41998 275.579 1.85998C275.979 2.29997 276.285 2.79331 276.499 3.33998C276.725 3.88664 276.839 4.44664 276.839 5.01997C276.839 5.64664 276.725 6.24664 276.499 6.81998C276.272 7.39331 275.945 7.88664 275.519 8.29998C275.105 8.71331 274.619 9.01331 274.059 9.19998L277.399 14.6H274.879L271.799 9.65998H268.499V14.6H266.259ZM268.499 7.67998H272.419C272.832 7.67998 273.199 7.55998 273.519 7.31998C273.839 7.07998 274.092 6.75997 274.279 6.35997C274.465 5.94664 274.559 5.49998 274.559 5.01997C274.559 4.52664 274.452 4.08664 274.239 3.69998C274.025 3.29997 273.745 2.97997 273.399 2.73997C273.065 2.49998 272.699 2.37998 272.299 2.37998H268.499V7.67998ZM286.981 0.399975H289.101L294.621 14.6H292.261L290.761 10.74H285.281L283.801 14.6H281.421L286.981 0.399975ZM290.321 9.07998L288.041 2.85998L285.681 9.07998H290.321ZM299.777 14.6V0.399975H302.017V14.6H299.777Z" fill="white"/>
</svg>
