<svg width="585" height="182" viewBox="0 0 585 182" fill="none" xmlns="http://www.w3.org/2000/svg">
<path d="M39.7325 17.9761C39.0605 17.1921 38.1645 16.4361 37.0445 15.7081C35.9245 14.9801 34.6645 14.3361 33.2645 13.7761C31.8645 13.1601 30.3245 12.6841 28.6445 12.3481C27.0205 11.9561 25.3125 11.7601 23.5205 11.7601C18.9285 11.7601 15.5405 12.6281 13.3565 14.3641C11.1725 16.1001 10.0805 18.4801 10.0805 21.5041C10.0805 23.6321 10.6405 25.3121 11.7605 26.5441C12.8805 27.7761 14.5885 28.7841 16.8845 29.5681C19.2365 30.3521 22.2045 31.1641 25.7885 32.0041C29.9325 32.9001 33.5165 33.9921 36.5405 35.2801C39.5645 36.5681 41.8885 38.3041 43.5125 40.4881C45.1365 42.6161 45.9485 45.4721 45.9485 49.0561C45.9485 51.9121 45.3885 54.4041 44.2685 56.5321C43.2045 58.6041 41.6925 60.3401 39.7325 61.7401C37.7725 63.0841 35.4765 64.0921 32.8445 64.7641C30.2125 65.3801 27.3565 65.6881 24.2765 65.6881C21.2525 65.6881 18.2845 65.3801 15.3725 64.7641C12.5165 64.0921 9.80045 63.1401 7.22445 61.9081C4.64845 60.6761 2.24045 59.1361 0.000453211 57.2881L3.61245 50.9041C4.50845 51.8561 5.65645 52.8081 7.05645 53.7601C8.51245 54.6561 10.1365 55.4961 11.9285 56.2801C13.7765 57.0641 15.7645 57.7081 17.8925 58.2121C20.0205 58.6601 22.2045 58.8841 24.4445 58.8841C28.7005 58.8841 32.0045 58.1281 34.3565 56.6161C36.7085 55.0481 37.8845 52.7801 37.8845 49.8121C37.8845 47.5721 37.2125 45.7801 35.8685 44.4361C34.5805 43.0921 32.6485 41.9721 30.0725 41.0761C27.4965 40.1801 24.3605 39.2841 20.6645 38.3881C16.6325 37.3801 13.2445 36.2881 10.5005 35.1121C7.75645 33.8801 5.68445 32.2841 4.28445 30.3241C2.94045 28.3641 2.26845 25.8161 2.26845 22.6801C2.26845 18.8721 3.19245 15.6521 5.04045 13.0201C6.88845 10.3881 9.43645 8.40009 12.6845 7.05609C15.9325 5.71209 19.6005 5.04009 23.6885 5.04009C26.3765 5.04009 28.8685 5.32009 31.1645 5.88009C33.5165 6.44009 35.7005 7.22409 37.7165 8.23209C39.7325 9.24009 41.5805 10.4441 43.2605 11.8441L39.7325 17.9761ZM78.32 65.9401C74.736 65.9401 71.544 65.0441 68.744 63.2521C65.944 61.4601 63.732 59.1921 62.108 56.4481V82.9921H54.716V21.2521H61.268V29.4841C63.004 26.7961 65.272 24.6401 68.072 23.0161C70.872 21.3361 73.924 20.4961 77.228 20.4961C80.252 20.4961 83.024 21.1121 85.544 22.3441C88.064 23.5761 90.248 25.2561 92.096 27.3841C93.944 29.5121 95.372 31.9481 96.38 34.6921C97.444 37.3801 97.976 40.2081 97.976 43.1761C97.976 47.3201 97.136 51.1281 95.456 54.6001C93.832 58.0721 91.536 60.8441 88.568 62.9161C85.6 64.9321 82.184 65.9401 78.32 65.9401ZM76.052 59.5561C78.236 59.5561 80.196 59.1081 81.932 58.2121C83.724 57.2601 85.236 56.0281 86.468 54.5161C87.756 52.9481 88.736 51.1841 89.408 49.2241C90.08 47.2641 90.416 45.2481 90.416 43.1761C90.416 40.9921 90.024 38.9201 89.24 36.9601C88.512 35.0001 87.448 33.2641 86.048 31.7521C84.704 30.2401 83.108 29.0641 81.26 28.2241C79.468 27.3281 77.508 26.8801 75.38 26.8801C74.036 26.8801 72.636 27.1321 71.18 27.6361C69.78 28.1401 68.436 28.8681 67.148 29.8201C65.86 30.7161 64.768 31.7521 63.872 32.9281C62.976 34.1041 62.388 35.3641 62.108 36.7081V49.2241C62.948 51.1281 64.068 52.8641 65.468 54.4321C66.868 56.0001 68.492 57.2601 70.34 58.2121C72.188 59.1081 74.092 59.5561 76.052 59.5561ZM107.22 3.7801H114.612V53.7601C114.612 56.1681 114.948 57.6521 115.62 58.2121C116.292 58.7721 117.104 59.0521 118.056 59.0521C119.232 59.0521 120.352 58.9401 121.416 58.7161C122.48 58.4361 123.376 58.1561 124.104 57.8761L125.28 63.9241C124.048 64.4281 122.592 64.8481 120.912 65.1841C119.232 65.5201 117.748 65.6881 116.46 65.6881C113.604 65.6881 111.336 64.8761 109.656 63.2521C108.032 61.6281 107.22 59.3601 107.22 56.4481V3.7801ZM127.643 52.4161C127.643 49.6161 128.427 47.2081 129.995 45.1921C131.619 43.1201 133.831 41.5241 136.631 40.4041C139.431 39.2841 142.679 38.7241 146.375 38.7241C148.335 38.7241 150.407 38.8921 152.591 39.2281C154.775 39.5081 156.707 39.9561 158.387 40.5721V37.3801C158.387 34.0201 157.379 31.3881 155.363 29.4841C153.347 27.5241 150.491 26.5441 146.795 26.5441C144.387 26.5441 142.063 26.9921 139.823 27.8881C137.639 28.7281 135.315 29.9601 132.851 31.5841L130.163 26.3761C133.019 24.4161 135.875 22.9601 138.731 22.0081C141.587 21.0001 144.555 20.4961 147.635 20.4961C153.235 20.4961 157.659 22.0641 160.907 25.2001C164.155 28.2801 165.779 32.5921 165.779 38.1361V56.7001C165.779 57.5961 165.947 58.2681 166.283 58.7161C166.675 59.1081 167.291 59.3321 168.131 59.3881V65.1001C167.403 65.2121 166.759 65.2961 166.199 65.3521C165.695 65.4081 165.275 65.4361 164.939 65.4361C163.203 65.4361 161.887 64.9601 160.991 64.0081C160.151 63.0561 159.675 62.0481 159.563 60.9841L159.395 58.2121C157.491 60.6761 154.999 62.5801 151.919 63.9241C148.839 65.2681 145.787 65.9401 142.763 65.9401C139.851 65.9401 137.247 65.3521 134.951 64.1761C132.655 62.9441 130.863 61.3201 129.575 59.3041C128.287 57.2321 127.643 54.9361 127.643 52.4161ZM156.203 55.5241C156.875 54.7401 157.407 53.9561 157.799 53.1721C158.191 52.3321 158.387 51.6321 158.387 51.0721V45.6121C156.651 44.9401 154.831 44.4361 152.927 44.1001C151.023 43.7081 149.147 43.5121 147.299 43.5121C143.547 43.5121 140.495 44.2681 138.143 45.7801C135.847 47.2361 134.699 49.2521 134.699 51.8281C134.699 53.2281 135.063 54.6001 135.791 55.9441C136.575 57.2321 137.695 58.2961 139.151 59.1361C140.663 59.9761 142.511 60.3961 144.695 60.3961C146.991 60.3961 149.175 59.9481 151.247 59.0521C153.319 58.1001 154.971 56.9241 156.203 55.5241ZM192.635 65.9401C188.995 65.9401 185.579 65.3521 182.387 64.1761C179.195 62.9441 176.451 61.1241 174.155 58.7161L177.011 53.5081C179.531 55.8601 182.051 57.5401 184.571 58.5481C187.091 59.5561 189.667 60.0601 192.299 60.0601C195.323 60.0601 197.787 59.5001 199.691 58.3801C201.595 57.2041 202.547 55.4961 202.547 53.2561C202.547 51.6321 202.043 50.4281 201.035 49.6441C200.083 48.8601 198.711 48.2161 196.919 47.7121C195.127 47.1521 192.999 46.5361 190.535 45.8641C187.511 44.9681 184.963 44.0161 182.891 43.0081C180.819 42.0001 179.251 40.7401 178.187 39.2281C177.123 37.7161 176.591 35.8121 176.591 33.5161C176.591 30.7161 177.319 28.3641 178.775 26.4601C180.231 24.5001 182.219 23.0161 184.739 22.0081C187.315 21.0001 190.227 20.4961 193.475 20.4961C196.723 20.4961 199.663 21.0001 202.295 22.0081C204.927 23.0161 207.195 24.5001 209.099 26.4601L205.739 31.5841C204.003 29.7921 202.099 28.4761 200.027 27.6361C197.955 26.7401 195.631 26.2921 193.055 26.2921C191.543 26.2921 190.059 26.4881 188.603 26.8801C187.147 27.2161 185.943 27.8601 184.991 28.8121C184.039 29.7081 183.563 30.9961 183.563 32.6761C183.563 34.0761 183.927 35.1961 184.655 36.0361C185.439 36.8201 186.559 37.4921 188.015 38.0521C189.527 38.6121 191.347 39.2281 193.475 39.9001C196.779 40.8521 199.635 41.8041 202.043 42.7561C204.507 43.7081 206.411 44.9401 207.755 46.4521C209.099 47.9641 209.771 50.0641 209.771 52.7521C209.771 56.8961 208.203 60.1441 205.067 62.4961C201.931 64.7921 197.787 65.9401 192.635 65.9401ZM256.666 65.1001H249.274V40.5721C249.274 36.0921 248.462 32.7321 246.838 30.4921C245.27 28.2521 243.002 27.1321 240.034 27.1321C238.13 27.1321 236.198 27.6361 234.238 28.6441C232.334 29.6521 230.654 31.0241 229.198 32.7601C227.742 34.4401 226.678 36.4001 226.006 38.6401V65.1001H218.614V3.7801H226.006V30.6601C227.742 27.5241 230.094 25.0601 233.062 23.2681C236.086 21.4201 239.334 20.4961 242.806 20.4961C245.438 20.4961 247.622 20.9721 249.358 21.9241C251.15 22.8201 252.578 24.1081 253.642 25.7881C254.706 27.4681 255.462 29.4281 255.91 31.6681C256.414 33.8521 256.666 36.2601 256.666 38.8921V65.1001ZM290.331 76.0201V9.46522e-05H296.715V76.0201H290.331ZM332.009 65.1001V5.46009H339.569V58.3801H372.833V65.1001H332.009ZM398.384 65.9401C395.08 65.9401 392.084 65.3521 389.396 64.1761C386.708 62.9441 384.384 61.2921 382.424 59.2201C380.464 57.0921 378.952 54.6561 377.888 51.9121C376.824 49.1681 376.292 46.2841 376.292 43.2601C376.292 40.1801 376.824 37.2681 377.888 34.5241C378.952 31.7801 380.464 29.3721 382.424 27.3001C384.384 25.1721 386.708 23.5201 389.396 22.3441C392.14 21.1121 395.136 20.4961 398.384 20.4961C401.688 20.4961 404.684 21.1121 407.372 22.3441C410.06 23.5201 412.384 25.1721 414.344 27.3001C416.36 29.3721 417.9 31.7801 418.964 34.5241C420.028 37.2681 420.56 40.1801 420.56 43.2601C420.56 46.2841 420.028 49.1681 418.964 51.9121C417.9 54.6561 416.388 57.0921 414.428 59.2201C412.468 61.2921 410.116 62.9441 407.372 64.1761C404.684 65.3521 401.688 65.9401 398.384 65.9401ZM383.852 43.3441C383.852 46.3681 384.496 49.1121 385.784 51.5761C387.128 54.0401 388.892 56.0001 391.076 57.4561C393.26 58.8561 395.696 59.5561 398.384 59.5561C401.072 59.5561 403.508 58.8281 405.692 57.3721C407.932 55.9161 409.696 53.9561 410.984 51.4921C412.328 48.9721 413 46.2001 413 43.1761C413 40.1521 412.328 37.4081 410.984 34.9441C409.696 32.4801 407.932 30.5201 405.692 29.0641C403.508 27.6081 401.072 26.8801 398.384 26.8801C395.696 26.8801 393.26 27.6361 391.076 29.1481C388.892 30.6041 387.128 32.5641 385.784 35.0281C384.496 37.4921 383.852 40.2641 383.852 43.3441ZM446.989 65.6041C444.021 65.6041 441.277 65.0161 438.757 63.8401C436.293 62.6081 434.165 60.9561 432.373 58.8841C430.581 56.7561 429.181 54.3481 428.173 51.6601C427.221 48.9721 426.745 46.1721 426.745 43.2601C426.745 40.1801 427.221 37.2681 428.173 34.5241C429.181 31.7801 430.581 29.3721 432.373 27.3001C434.221 25.1721 436.377 23.5201 438.841 22.3441C441.305 21.1121 444.049 20.4961 447.073 20.4961C450.713 20.4961 453.877 21.3921 456.565 23.1841C459.309 24.9761 461.605 27.2441 463.453 29.9881V21.2521H470.005V64.5961C470.005 68.7401 468.997 72.2401 466.981 75.0961C465.021 77.9521 462.333 80.1081 458.917 81.5641C455.557 83.0761 451.805 83.8321 447.661 83.8321C442.733 83.8321 438.701 82.9641 435.565 81.2281C432.429 79.4921 429.825 77.1401 427.753 74.1721L432.037 70.3921C433.773 72.9681 436.013 74.9001 438.757 76.1881C441.557 77.4761 444.525 78.1201 447.661 78.1201C450.349 78.1201 452.813 77.6161 455.053 76.6081C457.349 75.6561 459.169 74.1721 460.513 72.1561C461.913 70.1401 462.613 67.6201 462.613 64.5961V56.8681C460.989 59.5561 458.749 61.6841 455.893 63.2521C453.093 64.8201 450.125 65.6041 446.989 65.6041ZM449.257 59.5561C450.825 59.5561 452.337 59.2761 453.793 58.7161C455.249 58.1561 456.593 57.4281 457.825 56.5321C459.057 55.5801 460.093 54.5161 460.933 53.3401C461.773 52.1641 462.333 50.9601 462.613 49.7281V37.1281C461.829 35.1121 460.709 33.3481 459.253 31.8361C457.797 30.2681 456.145 29.0641 454.297 28.2241C452.449 27.3281 450.545 26.8801 448.585 26.8801C446.345 26.8801 444.329 27.3561 442.537 28.3081C440.801 29.2601 439.317 30.5481 438.085 32.1721C436.853 33.7401 435.901 35.5041 435.229 37.4641C434.557 39.4241 434.221 41.4121 434.221 43.4281C434.221 45.6121 434.613 47.6841 435.397 49.6441C436.181 51.5481 437.245 53.2561 438.589 54.7681C439.933 56.2801 441.529 57.4561 443.377 58.2961C445.225 59.1361 447.185 59.5561 449.257 59.5561ZM503.181 65.1001V21.2521H510.573V65.1001H503.181ZM503.181 13.0201V3.7801H510.573V13.0201H503.181ZM560.592 65.1001H553.2V40.5721C553.2 35.9241 552.472 32.5361 551.016 30.4081C549.616 28.2241 547.46 27.1321 544.548 27.1321C542.532 27.1321 540.516 27.6361 538.5 28.6441C536.54 29.6521 534.776 31.0241 533.208 32.7601C531.696 34.4401 530.604 36.4001 529.932 38.6401V65.1001H522.54V21.2521H529.26V30.6601C530.436 28.5881 531.948 26.7961 533.796 25.2841C535.644 23.7721 537.744 22.5961 540.096 21.7561C542.448 20.9161 544.912 20.4961 547.488 20.4961C550.008 20.4961 552.108 20.9721 553.788 21.9241C555.524 22.8201 556.868 24.1081 557.82 25.7881C558.828 27.4121 559.528 29.3441 559.92 31.5841C560.368 33.8241 560.592 36.2601 560.592 38.8921V65.1001ZM84.0201 133.86C84.0201 130.22 84.6361 126.664 85.8681 123.192C87.1561 119.664 89.0041 116.472 91.4121 113.616C93.8761 110.704 96.8721 108.408 100.4 106.728C103.928 104.992 107.932 104.124 112.412 104.124C117.732 104.124 122.296 105.356 126.104 107.82C129.912 110.228 132.74 113.336 134.588 117.144L128.624 121.008C127.448 118.488 125.936 116.5 124.088 115.044C122.296 113.532 120.336 112.468 118.208 111.852C116.136 111.236 114.092 110.928 112.076 110.928C108.772 110.928 105.832 111.6 103.256 112.944C100.736 114.288 98.6081 116.08 96.8721 118.32C95.1361 120.56 93.8201 123.08 92.9241 125.88C92.0841 128.624 91.6641 131.396 91.6641 134.196C91.6641 137.276 92.1681 140.244 93.1761 143.1C94.2401 145.956 95.6961 148.476 97.5441 150.66C99.3921 152.844 101.576 154.58 104.096 155.868C106.616 157.156 109.36 157.8 112.328 157.8C114.4 157.8 116.528 157.436 118.712 156.708C120.896 155.98 122.94 154.86 124.844 153.348C126.748 151.78 128.26 149.764 129.38 147.3L135.68 150.744C134.448 153.712 132.544 156.232 129.968 158.304C127.392 160.376 124.508 161.944 121.316 163.008C118.18 164.072 115.072 164.604 111.992 164.604C107.904 164.604 104.152 163.736 100.736 162C97.3201 160.208 94.3521 157.856 91.8321 154.944C89.3681 151.976 87.4361 148.672 86.0361 145.032C84.6921 141.336 84.0201 137.612 84.0201 133.86ZM163.118 164.94C159.814 164.94 156.818 164.352 154.13 163.176C151.442 161.944 149.118 160.292 147.158 158.22C145.198 156.092 143.686 153.656 142.622 150.912C141.558 148.168 141.026 145.284 141.026 142.26C141.026 139.18 141.558 136.268 142.622 133.524C143.686 130.78 145.198 128.372 147.158 126.3C149.118 124.172 151.442 122.52 154.13 121.344C156.874 120.112 159.87 119.496 163.118 119.496C166.422 119.496 169.418 120.112 172.106 121.344C174.794 122.52 177.118 124.172 179.078 126.3C181.094 128.372 182.634 130.78 183.698 133.524C184.762 136.268 185.294 139.18 185.294 142.26C185.294 145.284 184.762 148.168 183.698 150.912C182.634 153.656 181.122 156.092 179.162 158.22C177.202 160.292 174.85 161.944 172.106 163.176C169.418 164.352 166.422 164.94 163.118 164.94ZM148.586 142.344C148.586 145.368 149.23 148.112 150.518 150.576C151.862 153.04 153.626 155 155.81 156.456C157.994 157.856 160.43 158.556 163.118 158.556C165.806 158.556 168.242 157.828 170.426 156.372C172.666 154.916 174.43 152.956 175.718 150.492C177.062 147.972 177.734 145.2 177.734 142.176C177.734 139.152 177.062 136.408 175.718 133.944C174.43 131.48 172.666 129.52 170.426 128.064C168.242 126.608 165.806 125.88 163.118 125.88C160.43 125.88 157.994 126.636 155.81 128.148C153.626 129.604 151.862 131.564 150.518 134.028C149.23 136.492 148.586 139.264 148.586 142.344ZM260.359 164.1H252.967V139.572C252.967 134.98 252.211 131.592 250.699 129.408C249.243 127.224 247.059 126.132 244.147 126.132C241.179 126.132 238.491 127.224 236.083 129.408C233.675 131.536 231.967 134.308 230.959 137.724V164.1H223.567V139.572C223.567 134.924 222.839 131.536 221.383 129.408C219.927 127.224 217.743 126.132 214.831 126.132C211.919 126.132 209.231 127.196 206.767 129.324C204.359 131.396 202.651 134.168 201.643 137.64V164.1H194.251V120.252H200.971V129.66C202.763 126.412 205.087 123.92 207.943 122.184C210.799 120.392 214.019 119.496 217.603 119.496C221.243 119.496 224.155 120.504 226.339 122.52C228.523 124.48 229.867 127.028 230.371 130.164C232.331 126.692 234.711 124.06 237.511 122.268C240.311 120.42 243.503 119.496 247.087 119.496C249.607 119.496 251.707 119.972 253.387 120.924C255.123 121.82 256.495 123.108 257.503 124.788C258.511 126.412 259.239 128.344 259.687 130.584C260.135 132.824 260.359 135.26 260.359 137.892V164.1ZM295.457 164.94C291.873 164.94 288.681 164.044 285.881 162.252C283.081 160.46 280.869 158.192 279.245 155.448V181.992H271.853V120.252H278.405V128.484C280.141 125.796 282.409 123.64 285.209 122.016C288.009 120.336 291.061 119.496 294.365 119.496C297.389 119.496 300.161 120.112 302.681 121.344C305.201 122.576 307.385 124.256 309.233 126.384C311.081 128.512 312.509 130.948 313.517 133.692C314.581 136.38 315.113 139.208 315.113 142.176C315.113 146.32 314.273 150.128 312.593 153.6C310.969 157.072 308.673 159.844 305.705 161.916C302.737 163.932 299.321 164.94 295.457 164.94ZM293.189 158.556C295.373 158.556 297.333 158.108 299.069 157.212C300.861 156.26 302.373 155.028 303.605 153.516C304.893 151.948 305.873 150.184 306.545 148.224C307.217 146.264 307.553 144.248 307.553 142.176C307.553 139.992 307.161 137.92 306.377 135.96C305.649 134 304.585 132.264 303.185 130.752C301.841 129.24 300.245 128.064 298.397 127.224C296.605 126.328 294.645 125.88 292.517 125.88C291.173 125.88 289.773 126.132 288.317 126.636C286.917 127.14 285.573 127.868 284.285 128.82C282.997 129.716 281.905 130.752 281.009 131.928C280.113 133.104 279.525 134.364 279.245 135.708V148.224C280.085 150.128 281.205 151.864 282.605 153.432C284.005 155 285.629 156.26 287.477 157.212C289.325 158.108 291.229 158.556 293.189 158.556ZM343.341 164.94C340.037 164.94 337.041 164.352 334.353 163.176C331.665 161.944 329.341 160.292 327.381 158.22C325.421 156.092 323.909 153.656 322.845 150.912C321.781 148.168 321.249 145.284 321.249 142.26C321.249 139.18 321.781 136.268 322.845 133.524C323.909 130.78 325.421 128.372 327.381 126.3C329.341 124.172 331.665 122.52 334.353 121.344C337.097 120.112 340.093 119.496 343.341 119.496C346.645 119.496 349.641 120.112 352.329 121.344C355.017 122.52 357.341 124.172 359.301 126.3C361.317 128.372 362.857 130.78 363.921 133.524C364.985 136.268 365.517 139.18 365.517 142.26C365.517 145.284 364.985 148.168 363.921 150.912C362.857 153.656 361.345 156.092 359.385 158.22C357.425 160.292 355.073 161.944 352.329 163.176C349.641 164.352 346.645 164.94 343.341 164.94ZM328.809 142.344C328.809 145.368 329.453 148.112 330.741 150.576C332.085 153.04 333.849 155 336.033 156.456C338.217 157.856 340.653 158.556 343.341 158.556C346.029 158.556 348.465 157.828 350.649 156.372C352.889 154.916 354.653 152.956 355.941 150.492C357.285 147.972 357.957 145.2 357.957 142.176C357.957 139.152 357.285 136.408 355.941 133.944C354.653 131.48 352.889 129.52 350.649 128.064C348.465 126.608 346.029 125.88 343.341 125.88C340.653 125.88 338.217 126.636 336.033 128.148C333.849 129.604 332.085 131.564 330.741 134.028C329.453 136.492 328.809 139.264 328.809 142.344ZM412.526 164.1H405.134V139.572C405.134 134.924 404.406 131.536 402.95 129.408C401.55 127.224 399.394 126.132 396.482 126.132C394.466 126.132 392.45 126.636 390.434 127.644C388.474 128.652 386.71 130.024 385.142 131.76C383.63 133.44 382.538 135.4 381.866 137.64V164.1H374.474V120.252H381.194V129.66C382.37 127.588 383.882 125.796 385.73 124.284C387.578 122.772 389.678 121.596 392.03 120.756C394.382 119.916 396.846 119.496 399.422 119.496C401.942 119.496 404.042 119.972 405.722 120.924C407.458 121.82 408.802 123.108 409.754 124.788C410.762 126.412 411.462 128.344 411.854 130.584C412.302 132.824 412.526 135.26 412.526 137.892V164.1ZM443.425 164.94C440.121 164.94 437.097 164.352 434.353 163.176C431.665 161.944 429.313 160.292 427.297 158.22C425.337 156.092 423.797 153.656 422.677 150.912C421.613 148.168 421.081 145.256 421.081 142.176C421.081 138.032 422.033 134.252 423.937 130.836C425.841 127.42 428.473 124.676 431.833 122.604C435.249 120.532 439.141 119.496 443.509 119.496C447.933 119.496 451.769 120.56 455.017 122.688C458.321 124.76 460.869 127.504 462.661 130.92C464.509 134.28 465.433 137.92 465.433 141.84C465.433 142.4 465.405 142.96 465.349 143.52C465.349 144.024 465.321 144.416 465.265 144.696H428.893C429.117 147.552 429.901 150.1 431.245 152.34C432.645 154.524 434.437 156.26 436.621 157.548C438.805 158.78 441.157 159.396 443.677 159.396C446.365 159.396 448.885 158.724 451.237 157.38C453.645 156.036 455.297 154.272 456.193 152.088L462.577 153.852C461.625 155.98 460.197 157.884 458.293 159.564C456.445 161.244 454.233 162.56 451.657 163.512C449.137 164.464 446.393 164.94 443.425 164.94ZM428.641 139.572H458.545C458.321 136.716 457.509 134.196 456.109 132.012C454.709 129.828 452.917 128.12 450.733 126.888C448.549 125.656 446.141 125.04 443.509 125.04C440.933 125.04 438.553 125.656 436.369 126.888C434.185 128.12 432.393 129.828 430.993 132.012C429.649 134.196 428.865 136.716 428.641 139.572ZM511.702 164.1H504.31V139.572C504.31 134.924 503.582 131.536 502.126 129.408C500.726 127.224 498.57 126.132 495.658 126.132C493.642 126.132 491.626 126.636 489.61 127.644C487.65 128.652 485.886 130.024 484.318 131.76C482.806 133.44 481.714 135.4 481.042 137.64V164.1H473.65V120.252H480.37V129.66C481.546 127.588 483.058 125.796 484.906 124.284C486.754 122.772 488.854 121.596 491.206 120.756C493.558 119.916 496.022 119.496 498.598 119.496C501.118 119.496 503.218 119.972 504.898 120.924C506.634 121.82 507.978 123.108 508.93 124.788C509.938 126.412 510.638 128.344 511.03 130.584C511.478 132.824 511.702 135.26 511.702 137.892V164.1ZM545.466 161.916C544.85 162.196 544.01 162.56 542.946 163.008C541.882 163.456 540.65 163.848 539.25 164.184C537.85 164.52 536.366 164.688 534.798 164.688C533.006 164.688 531.354 164.38 529.842 163.764C528.33 163.092 527.126 162.084 526.23 160.74C525.334 159.34 524.886 157.604 524.886 155.532V126.048H518.922V120.252H524.886V105.636H532.278V120.252H542.106V126.048H532.278V153.264C532.39 154.832 532.922 156.008 533.874 156.792C534.826 157.52 535.946 157.884 537.234 157.884C538.69 157.884 540.034 157.632 541.266 157.128C542.498 156.624 543.31 156.26 543.702 156.036L545.466 161.916ZM567.354 164.94C563.714 164.94 560.298 164.352 557.106 163.176C553.914 161.944 551.17 160.124 548.874 157.716L551.73 152.508C554.25 154.86 556.77 156.54 559.29 157.548C561.81 158.556 564.386 159.06 567.018 159.06C570.042 159.06 572.506 158.5 574.41 157.38C576.314 156.204 577.266 154.496 577.266 152.256C577.266 150.632 576.762 149.428 575.754 148.644C574.802 147.86 573.43 147.216 571.638 146.712C569.846 146.152 567.718 145.536 565.254 144.864C562.23 143.968 559.682 143.016 557.61 142.008C555.538 141 553.97 139.74 552.906 138.228C551.842 136.716 551.31 134.812 551.31 132.516C551.31 129.716 552.038 127.364 553.494 125.46C554.95 123.5 556.938 122.016 559.458 121.008C562.034 120 564.946 119.496 568.194 119.496C571.442 119.496 574.382 120 577.014 121.008C579.646 122.016 581.914 123.5 583.818 125.46L580.458 130.584C578.722 128.792 576.818 127.476 574.746 126.636C572.674 125.74 570.35 125.292 567.774 125.292C566.262 125.292 564.778 125.488 563.322 125.88C561.866 126.216 560.662 126.86 559.71 127.812C558.758 128.708 558.282 129.996 558.282 131.676C558.282 133.076 558.646 134.196 559.374 135.036C560.158 135.82 561.278 136.492 562.734 137.052C564.246 137.612 566.066 138.228 568.194 138.9C571.498 139.852 574.354 140.804 576.762 141.756C579.226 142.708 581.13 143.94 582.474 145.452C583.818 146.964 584.49 149.064 584.49 151.752C584.49 155.896 582.922 159.144 579.786 161.496C576.65 163.792 572.506 164.94 567.354 164.94Z" fill="white"/>
</svg>
