<svg width="582" height="165" viewBox="0 0 582 165" fill="none" xmlns="http://www.w3.org/2000/svg">
<path d="M39.732 17.9761C39.06 17.1921 38.164 16.4361 37.044 15.7081C35.924 14.9801 34.664 14.3361 33.264 13.7761C31.864 13.1601 30.324 12.6841 28.644 12.3481C27.02 11.9561 25.312 11.7601 23.52 11.7601C18.928 11.7601 15.54 12.6281 13.356 14.3641C11.172 16.1001 10.08 18.4801 10.08 21.5041C10.08 23.6321 10.64 25.3121 11.76 26.5441C12.88 27.7761 14.588 28.7841 16.884 29.5681C19.236 30.3521 22.204 31.1641 25.788 32.0041C29.932 32.9001 33.516 33.9921 36.54 35.2801C39.564 36.5681 41.888 38.3041 43.512 40.4881C45.136 42.6161 45.948 45.4721 45.948 49.0561C45.948 51.9121 45.388 54.4041 44.268 56.5321C43.204 58.6041 41.692 60.3401 39.732 61.7401C37.772 63.0841 35.476 64.0921 32.844 64.7641C30.212 65.3801 27.356 65.6881 24.276 65.6881C21.252 65.6881 18.284 65.3801 15.372 64.7641C12.516 64.0921 9.79997 63.1401 7.22397 61.9081C4.64797 60.6761 2.23997 59.1361 -3.50699e-05 57.2881L3.61197 50.9041C4.50797 51.8561 5.65597 52.8081 7.05597 53.7601C8.51197 54.6561 10.136 55.4961 11.928 56.2801C13.776 57.0641 15.764 57.7081 17.892 58.2121C20.02 58.6601 22.204 58.8841 24.444 58.8841C28.7 58.8841 32.004 58.1281 34.356 56.6161C36.708 55.0481 37.884 52.7801 37.884 49.8121C37.884 47.5721 37.212 45.7801 35.868 44.4361C34.58 43.0921 32.648 41.9721 30.072 41.0761C27.496 40.1801 24.36 39.2841 20.664 38.3881C16.632 37.3801 13.244 36.2881 10.5 35.1121C7.75597 33.8801 5.68397 32.2841 4.28397 30.3241C2.93997 28.3641 2.26796 25.8161 2.26796 22.6801C2.26796 18.8721 3.19196 15.6521 5.03996 13.0201C6.88797 10.3881 9.43597 8.40009 12.684 7.05609C15.932 5.71209 19.6 5.04009 23.688 5.04009C26.376 5.04009 28.868 5.32009 31.164 5.88009C33.516 6.44009 35.7 7.22409 37.716 8.23209C39.732 9.24009 41.58 10.4441 43.26 11.8441L39.732 17.9761ZM78.3195 65.9401C74.7355 65.9401 71.5435 65.0441 68.7435 63.2521C65.9435 61.4601 63.7315 59.1921 62.1075 56.4481V82.9921H54.7155V21.2521H61.2675V29.4841C63.0035 26.7961 65.2715 24.6401 68.0715 23.0161C70.8715 21.3361 73.9235 20.4961 77.2275 20.4961C80.2515 20.4961 83.0235 21.1121 85.5435 22.3441C88.0635 23.5761 90.2475 25.2561 92.0955 27.3841C93.9435 29.5121 95.3715 31.9481 96.3795 34.6921C97.4435 37.3801 97.9755 40.2081 97.9755 43.1761C97.9755 47.3201 97.1355 51.1281 95.4555 54.6001C93.8315 58.0721 91.5355 60.8441 88.5675 62.9161C85.5995 64.9321 82.1835 65.9401 78.3195 65.9401ZM76.0515 59.5561C78.2355 59.5561 80.1955 59.1081 81.9315 58.2121C83.7235 57.2601 85.2355 56.0281 86.4675 54.5161C87.7555 52.9481 88.7355 51.1841 89.4075 49.2241C90.0795 47.2641 90.4155 45.2481 90.4155 43.1761C90.4155 40.9921 90.0235 38.9201 89.2395 36.9601C88.5115 35.0001 87.4475 33.2641 86.0475 31.7521C84.7035 30.2401 83.1075 29.0641 81.2595 28.2241C79.4675 27.3281 77.5075 26.8801 75.3795 26.8801C74.0355 26.8801 72.6355 27.1321 71.1795 27.6361C69.7795 28.1401 68.4355 28.8681 67.1475 29.8201C65.8595 30.7161 64.7675 31.7521 63.8715 32.9281C62.9755 34.1041 62.3875 35.3641 62.1075 36.7081V49.2241C62.9475 51.1281 64.0675 52.8641 65.4675 54.4321C66.8675 56.0001 68.4915 57.2601 70.3395 58.2121C72.1875 59.1081 74.0915 59.5561 76.0515 59.5561ZM107.219 3.7801H114.611V53.7601C114.611 56.1681 114.947 57.6521 115.619 58.2121C116.291 58.7721 117.103 59.0521 118.055 59.0521C119.231 59.0521 120.351 58.9401 121.415 58.7161C122.479 58.4361 123.375 58.1561 124.103 57.8761L125.279 63.9241C124.047 64.4281 122.591 64.8481 120.911 65.1841C119.231 65.5201 117.747 65.6881 116.459 65.6881C113.603 65.6881 111.335 64.8761 109.655 63.2521C108.031 61.6281 107.219 59.3601 107.219 56.4481V3.7801ZM127.643 52.4161C127.643 49.6161 128.427 47.2081 129.995 45.1921C131.619 43.1201 133.831 41.5241 136.631 40.4041C139.431 39.2841 142.679 38.7241 146.375 38.7241C148.335 38.7241 150.407 38.8921 152.591 39.2281C154.775 39.5081 156.707 39.9561 158.387 40.5721V37.3801C158.387 34.0201 157.379 31.3881 155.363 29.4841C153.347 27.5241 150.491 26.5441 146.795 26.5441C144.387 26.5441 142.063 26.9921 139.823 27.8881C137.639 28.7281 135.315 29.9601 132.851 31.5841L130.163 26.3761C133.019 24.4161 135.875 22.9601 138.731 22.0081C141.587 21.0001 144.555 20.4961 147.635 20.4961C153.235 20.4961 157.659 22.0641 160.907 25.2001C164.155 28.2801 165.779 32.5921 165.779 38.1361V56.7001C165.779 57.5961 165.947 58.2681 166.283 58.7161C166.675 59.1081 167.291 59.3321 168.131 59.3881V65.1001C167.403 65.2121 166.759 65.2961 166.199 65.3521C165.695 65.4081 165.275 65.4361 164.939 65.4361C163.203 65.4361 161.887 64.9601 160.991 64.0081C160.151 63.0561 159.675 62.0481 159.563 60.9841L159.395 58.2121C157.491 60.6761 154.999 62.5801 151.919 63.9241C148.839 65.2681 145.787 65.9401 142.763 65.9401C139.851 65.9401 137.247 65.3521 134.951 64.1761C132.655 62.9441 130.863 61.3201 129.575 59.3041C128.287 57.2321 127.643 54.9361 127.643 52.4161ZM156.203 55.5241C156.875 54.7401 157.407 53.9561 157.799 53.1721C158.191 52.3321 158.387 51.6321 158.387 51.0721V45.6121C156.651 44.9401 154.831 44.4361 152.927 44.1001C151.023 43.7081 149.147 43.5121 147.299 43.5121C143.547 43.5121 140.495 44.2681 138.143 45.7801C135.847 47.2361 134.699 49.2521 134.699 51.8281C134.699 53.2281 135.063 54.6001 135.791 55.9441C136.575 57.2321 137.695 58.2961 139.151 59.1361C140.663 59.9761 142.511 60.3961 144.695 60.3961C146.991 60.3961 149.175 59.9481 151.247 59.0521C153.319 58.1001 154.971 56.9241 156.203 55.5241ZM192.634 65.9401C188.994 65.9401 185.578 65.3521 182.386 64.1761C179.194 62.9441 176.45 61.1241 174.154 58.7161L177.01 53.5081C179.53 55.8601 182.05 57.5401 184.57 58.5481C187.09 59.5561 189.666 60.0601 192.298 60.0601C195.322 60.0601 197.786 59.5001 199.69 58.3801C201.594 57.2041 202.546 55.4961 202.546 53.2561C202.546 51.6321 202.042 50.4281 201.034 49.6441C200.082 48.8601 198.71 48.2161 196.918 47.7121C195.126 47.1521 192.998 46.5361 190.534 45.8641C187.51 44.9681 184.962 44.0161 182.89 43.0081C180.818 42.0001 179.25 40.7401 178.186 39.2281C177.122 37.7161 176.59 35.8121 176.59 33.5161C176.59 30.7161 177.318 28.3641 178.774 26.4601C180.23 24.5001 182.218 23.0161 184.738 22.0081C187.314 21.0001 190.226 20.4961 193.474 20.4961C196.722 20.4961 199.662 21.0001 202.294 22.0081C204.926 23.0161 207.194 24.5001 209.098 26.4601L205.738 31.5841C204.002 29.7921 202.098 28.4761 200.026 27.6361C197.954 26.7401 195.63 26.2921 193.054 26.2921C191.542 26.2921 190.058 26.4881 188.602 26.8801C187.146 27.2161 185.942 27.8601 184.99 28.8121C184.038 29.7081 183.562 30.9961 183.562 32.6761C183.562 34.0761 183.926 35.1961 184.654 36.0361C185.438 36.8201 186.558 37.4921 188.014 38.0521C189.526 38.6121 191.346 39.2281 193.474 39.9001C196.778 40.8521 199.634 41.8041 202.042 42.7561C204.506 43.7081 206.41 44.9401 207.754 46.4521C209.098 47.9641 209.77 50.0641 209.77 52.7521C209.77 56.8961 208.202 60.1441 205.066 62.4961C201.93 64.7921 197.786 65.9401 192.634 65.9401ZM256.666 65.1001H249.274V40.5721C249.274 36.0921 248.462 32.7321 246.838 30.4921C245.27 28.2521 243.002 27.1321 240.034 27.1321C238.13 27.1321 236.198 27.6361 234.238 28.6441C232.334 29.6521 230.654 31.0241 229.198 32.7601C227.742 34.4401 226.678 36.4001 226.006 38.6401V65.1001H218.614V3.7801H226.006V30.6601C227.742 27.5241 230.094 25.0601 233.062 23.2681C236.086 21.4201 239.334 20.4961 242.806 20.4961C245.438 20.4961 247.622 20.9721 249.358 21.9241C251.15 22.8201 252.578 24.1081 253.642 25.7881C254.706 27.4681 255.462 29.4281 255.91 31.6681C256.414 33.8521 256.666 36.2601 256.666 38.8921V65.1001ZM290.331 76.0201V9.46522e-05H296.715V76.0201H290.331ZM332.009 65.1001V5.46009H339.569V58.3801H372.833V65.1001H332.009ZM398.383 65.9401C395.079 65.9401 392.083 65.3521 389.395 64.1761C386.707 62.9441 384.383 61.2921 382.423 59.2201C380.463 57.0921 378.951 54.6561 377.887 51.9121C376.823 49.1681 376.291 46.2841 376.291 43.2601C376.291 40.1801 376.823 37.2681 377.887 34.5241C378.951 31.7801 380.463 29.3721 382.423 27.3001C384.383 25.1721 386.707 23.5201 389.395 22.3441C392.139 21.1121 395.135 20.4961 398.383 20.4961C401.687 20.4961 404.683 21.1121 407.371 22.3441C410.059 23.5201 412.383 25.1721 414.343 27.3001C416.359 29.3721 417.899 31.7801 418.963 34.5241C420.027 37.2681 420.559 40.1801 420.559 43.2601C420.559 46.2841 420.027 49.1681 418.963 51.9121C417.899 54.6561 416.387 57.0921 414.427 59.2201C412.467 61.2921 410.115 62.9441 407.371 64.1761C404.683 65.3521 401.687 65.9401 398.383 65.9401ZM383.851 43.3441C383.851 46.3681 384.495 49.1121 385.783 51.5761C387.127 54.0401 388.891 56.0001 391.075 57.4561C393.259 58.8561 395.695 59.5561 398.383 59.5561C401.071 59.5561 403.507 58.8281 405.691 57.3721C407.931 55.9161 409.695 53.9561 410.983 51.4921C412.327 48.9721 412.999 46.2001 412.999 43.1761C412.999 40.1521 412.327 37.4081 410.983 34.9441C409.695 32.4801 407.931 30.5201 405.691 29.0641C403.507 27.6081 401.071 26.8801 398.383 26.8801C395.695 26.8801 393.259 27.6361 391.075 29.1481C388.891 30.6041 387.127 32.5641 385.783 35.0281C384.495 37.4921 383.851 40.2641 383.851 43.3441ZM446.988 65.6041C444.02 65.6041 441.276 65.0161 438.756 63.8401C436.292 62.6081 434.164 60.9561 432.372 58.8841C430.58 56.7561 429.18 54.3481 428.172 51.6601C427.22 48.9721 426.744 46.1721 426.744 43.2601C426.744 40.1801 427.22 37.2681 428.172 34.5241C429.18 31.7801 430.58 29.3721 432.372 27.3001C434.22 25.1721 436.376 23.5201 438.84 22.3441C441.304 21.1121 444.048 20.4961 447.072 20.4961C450.712 20.4961 453.876 21.3921 456.564 23.1841C459.308 24.9761 461.604 27.2441 463.452 29.9881V21.2521H470.004V64.5961C470.004 68.7401 468.996 72.2401 466.98 75.0961C465.02 77.9521 462.332 80.1081 458.916 81.5641C455.556 83.0761 451.804 83.8321 447.66 83.8321C442.732 83.8321 438.7 82.9641 435.564 81.2281C432.428 79.4921 429.824 77.1401 427.752 74.1721L432.036 70.3921C433.772 72.9681 436.012 74.9001 438.756 76.1881C441.556 77.4761 444.524 78.1201 447.66 78.1201C450.348 78.1201 452.812 77.6161 455.052 76.6081C457.348 75.6561 459.168 74.1721 460.512 72.1561C461.912 70.1401 462.612 67.6201 462.612 64.5961V56.8681C460.988 59.5561 458.748 61.6841 455.892 63.2521C453.092 64.8201 450.124 65.6041 446.988 65.6041ZM449.256 59.5561C450.824 59.5561 452.336 59.2761 453.792 58.7161C455.248 58.1561 456.592 57.4281 457.824 56.5321C459.056 55.5801 460.092 54.5161 460.932 53.3401C461.772 52.1641 462.332 50.9601 462.612 49.7281V37.1281C461.828 35.1121 460.708 33.3481 459.252 31.8361C457.796 30.2681 456.144 29.0641 454.296 28.2241C452.448 27.3281 450.544 26.8801 448.584 26.8801C446.344 26.8801 444.328 27.3561 442.536 28.3081C440.8 29.2601 439.316 30.5481 438.084 32.1721C436.852 33.7401 435.9 35.5041 435.228 37.4641C434.556 39.4241 434.22 41.4121 434.22 43.4281C434.22 45.6121 434.612 47.6841 435.396 49.6441C436.18 51.5481 437.244 53.2561 438.588 54.7681C439.932 56.2801 441.528 57.4561 443.376 58.2961C445.224 59.1361 447.184 59.5561 449.256 59.5561ZM503.18 65.1001V21.2521H510.572V65.1001H503.18ZM503.18 13.0201V3.7801H510.572V13.0201H503.18ZM560.592 65.1001H553.2V40.5721C553.2 35.9241 552.472 32.5361 551.016 30.4081C549.616 28.2241 547.46 27.1321 544.548 27.1321C542.532 27.1321 540.516 27.6361 538.5 28.6441C536.54 29.6521 534.776 31.0241 533.208 32.7601C531.696 34.4401 530.604 36.4001 529.932 38.6401V65.1001H522.54V21.2521H529.26V30.6601C530.436 28.5881 531.948 26.7961 533.796 25.2841C535.644 23.7721 537.744 22.5961 540.096 21.7561C542.448 20.9161 544.912 20.4961 547.488 20.4961C550.008 20.4961 552.108 20.9721 553.788 21.9241C555.524 22.8201 556.868 24.1081 557.82 25.7881C558.828 27.4121 559.528 29.3441 559.92 31.5841C560.368 33.8241 560.592 36.2601 560.592 38.8921V65.1001ZM214.391 104.46H220.775L245.135 164.1H237.071L230.015 146.628H204.983L198.011 164.1H189.947L214.391 104.46ZM228.335 140.748L217.583 113.196L206.495 140.748H228.335ZM289.971 164.1H282.579V139.572C282.579 134.924 281.851 131.536 280.395 129.408C278.995 127.224 276.839 126.132 273.927 126.132C271.911 126.132 269.895 126.636 267.879 127.644C265.919 128.652 264.155 130.024 262.587 131.76C261.075 133.44 259.983 135.4 259.311 137.64V164.1H251.919V120.252H258.639V129.66C259.815 127.588 261.327 125.796 263.175 124.284C265.023 122.772 267.123 121.596 269.475 120.756C271.827 119.916 274.291 119.496 276.867 119.496C279.387 119.496 281.487 119.972 283.167 120.924C284.903 121.82 286.247 123.108 287.199 124.788C288.207 126.412 288.907 128.344 289.299 130.584C289.747 132.824 289.971 135.26 289.971 137.892V164.1ZM301.465 164.1V120.252H308.857V164.1H301.465ZM301.465 112.02V102.78H308.857V112.02H301.465ZM386.933 164.1H379.541V139.572C379.541 134.98 378.785 131.592 377.273 129.408C375.817 127.224 373.633 126.132 370.721 126.132C367.753 126.132 365.065 127.224 362.657 129.408C360.249 131.536 358.541 134.308 357.533 137.724V164.1H350.141V139.572C350.141 134.924 349.413 131.536 347.957 129.408C346.501 127.224 344.317 126.132 341.405 126.132C338.493 126.132 335.805 127.196 333.341 129.324C330.933 131.396 329.225 134.168 328.217 137.64V164.1H320.825V120.252H327.545V129.66C329.337 126.412 331.661 123.92 334.517 122.184C337.373 120.392 340.593 119.496 344.177 119.496C347.817 119.496 350.729 120.504 352.913 122.52C355.097 124.48 356.441 127.028 356.945 130.164C358.905 126.692 361.285 124.06 364.085 122.268C366.885 120.42 370.077 119.496 373.661 119.496C376.181 119.496 378.281 119.972 379.961 120.924C381.697 121.82 383.069 123.108 384.077 124.788C385.085 126.412 385.813 128.344 386.261 130.584C386.709 132.824 386.933 135.26 386.933 137.892V164.1ZM394.982 151.416C394.982 148.616 395.766 146.208 397.334 144.192C398.958 142.12 401.17 140.524 403.97 139.404C406.77 138.284 410.018 137.724 413.714 137.724C415.674 137.724 417.746 137.892 419.93 138.228C422.114 138.508 424.046 138.956 425.726 139.572V136.38C425.726 133.02 424.718 130.388 422.702 128.484C420.686 126.524 417.83 125.544 414.134 125.544C411.726 125.544 409.402 125.992 407.162 126.888C404.978 127.728 402.654 128.96 400.19 130.584L397.502 125.376C400.358 123.416 403.214 121.96 406.07 121.008C408.926 120 411.894 119.496 414.974 119.496C420.574 119.496 424.998 121.064 428.246 124.2C431.494 127.28 433.118 131.592 433.118 137.136V155.7C433.118 156.596 433.286 157.268 433.622 157.716C434.014 158.108 434.63 158.332 435.47 158.388V164.1C434.742 164.212 434.098 164.296 433.538 164.352C433.034 164.408 432.614 164.436 432.278 164.436C430.542 164.436 429.226 163.96 428.33 163.008C427.49 162.056 427.014 161.048 426.902 159.984L426.734 157.212C424.83 159.676 422.338 161.58 419.258 162.924C416.178 164.268 413.126 164.94 410.102 164.94C407.19 164.94 404.586 164.352 402.29 163.176C399.994 161.944 398.202 160.32 396.914 158.304C395.626 156.232 394.982 153.936 394.982 151.416ZM423.542 154.524C424.214 153.74 424.746 152.956 425.138 152.172C425.53 151.332 425.726 150.632 425.726 150.072V144.612C423.99 143.94 422.17 143.436 420.266 143.1C418.362 142.708 416.486 142.512 414.638 142.512C410.886 142.512 407.834 143.268 405.482 144.78C403.186 146.236 402.038 148.252 402.038 150.828C402.038 152.228 402.402 153.6 403.13 154.944C403.914 156.232 405.034 157.296 406.49 158.136C408.002 158.976 409.85 159.396 412.034 159.396C414.33 159.396 416.514 158.948 418.586 158.052C420.658 157.1 422.31 155.924 423.542 154.524ZM467.29 161.916C466.674 162.196 465.834 162.56 464.77 163.008C463.706 163.456 462.474 163.848 461.074 164.184C459.674 164.52 458.19 164.688 456.622 164.688C454.83 164.688 453.178 164.38 451.666 163.764C450.154 163.092 448.95 162.084 448.054 160.74C447.158 159.34 446.71 157.604 446.71 155.532V126.048H440.746V120.252H446.71V105.636H454.102V120.252H463.93V126.048H454.102V153.264C454.214 154.832 454.746 156.008 455.698 156.792C456.65 157.52 457.77 157.884 459.058 157.884C460.514 157.884 461.858 157.632 463.09 157.128C464.322 156.624 465.134 156.26 465.526 156.036L467.29 161.916ZM474.141 164.1V120.252H481.533V164.1H474.141ZM474.141 112.02V102.78H481.533V112.02H474.141ZM512.653 164.94C509.349 164.94 506.353 164.352 503.665 163.176C500.977 161.944 498.653 160.292 496.693 158.22C494.733 156.092 493.221 153.656 492.157 150.912C491.093 148.168 490.561 145.284 490.561 142.26C490.561 139.18 491.093 136.268 492.157 133.524C493.221 130.78 494.733 128.372 496.693 126.3C498.653 124.172 500.977 122.52 503.665 121.344C506.409 120.112 509.405 119.496 512.653 119.496C515.957 119.496 518.953 120.112 521.641 121.344C524.329 122.52 526.653 124.172 528.613 126.3C530.629 128.372 532.169 130.78 533.233 133.524C534.297 136.268 534.829 139.18 534.829 142.26C534.829 145.284 534.297 148.168 533.233 150.912C532.169 153.656 530.657 156.092 528.697 158.22C526.737 160.292 524.385 161.944 521.641 163.176C518.953 164.352 515.957 164.94 512.653 164.94ZM498.121 142.344C498.121 145.368 498.765 148.112 500.053 150.576C501.397 153.04 503.161 155 505.345 156.456C507.529 157.856 509.965 158.556 512.653 158.556C515.341 158.556 517.777 157.828 519.961 156.372C522.201 154.916 523.965 152.956 525.253 150.492C526.597 147.972 527.269 145.2 527.269 142.176C527.269 139.152 526.597 136.408 525.253 133.944C523.965 131.48 522.201 129.52 519.961 128.064C517.777 126.608 515.341 125.88 512.653 125.88C509.965 125.88 507.529 126.636 505.345 128.148C503.161 129.604 501.397 131.564 500.053 134.028C498.765 136.492 498.121 139.264 498.121 142.344ZM581.838 164.1H574.446V139.572C574.446 134.924 573.718 131.536 572.262 129.408C570.862 127.224 568.706 126.132 565.794 126.132C563.778 126.132 561.762 126.636 559.746 127.644C557.786 128.652 556.022 130.024 554.454 131.76C552.942 133.44 551.85 135.4 551.178 137.64V164.1H543.786V120.252H550.506V129.66C551.682 127.588 553.194 125.796 555.042 124.284C556.89 122.772 558.99 121.596 561.342 120.756C563.694 119.916 566.158 119.496 568.734 119.496C571.254 119.496 573.354 119.972 575.034 120.924C576.77 121.82 578.114 123.108 579.066 124.788C580.074 126.412 580.774 128.344 581.166 130.584C581.614 132.824 581.838 135.26 581.838 137.892V164.1Z" fill="white"/>
</svg>
