<svg width="1440" height="820" viewBox="0 0 1440 820" fill="none" xmlns="http://www.w3.org/2000/svg">
<g clip-path="url(#clip0_63_59)">
<rect width="1440" height="820" fill="#020409"/>
<g clip-path="url(#clip1_63_59)">
<rect width="1440" height="820" fill="url(#paint0_linear_63_59)"/>
<g filter="url(#filter0_f_63_59)" style="mix-blend-mode:color-dodge">
<path d="M-69 497C-69 497 211.359 789.625 703.554 789.625C1195.75 789.625 1509 497 1509 497L1395.06 815H89.5831L-69 497Z" fill="#3148B9"/>
</g>
<path d="M484.806 691.22H487.326L492.024 704H489.468L488.28 700.814H483.816L482.646 704H480.09L484.806 691.22ZM487.83 699.068L486.066 693.794L484.23 699.068H487.83ZM496.486 704V691.22H498.97V704H496.486ZM504.408 700.148V697.97H509.862V700.148H504.408ZM515.28 704V691.22H520.698C521.286 691.22 521.826 691.34 522.318 691.58C522.81 691.82 523.236 692.144 523.596 692.552C523.968 692.96 524.256 693.416 524.46 693.92C524.664 694.424 524.766 694.94 524.766 695.468C524.766 696.188 524.598 696.872 524.262 697.52C523.926 698.168 523.464 698.696 522.876 699.104C522.288 699.512 521.592 699.716 520.788 699.716H517.764V704H515.28ZM517.764 697.538H520.644C520.944 697.538 521.214 697.454 521.454 697.286C521.694 697.118 521.886 696.878 522.03 696.566C522.174 696.242 522.246 695.876 522.246 695.468C522.246 695.024 522.162 694.646 521.994 694.334C521.838 694.022 521.628 693.788 521.364 693.632C521.112 693.476 520.836 693.398 520.536 693.398H517.764V697.538ZM533.483 704.18C532.715 704.18 532.025 704.054 531.413 703.802C530.801 703.538 530.279 703.178 529.847 702.722C529.427 702.266 529.103 701.744 528.875 701.156C528.647 700.568 528.533 699.95 528.533 699.302C528.533 698.642 528.647 698.018 528.875 697.43C529.103 696.842 529.427 696.32 529.847 695.864C530.279 695.408 530.801 695.054 531.413 694.802C532.025 694.538 532.715 694.406 533.483 694.406C534.251 694.406 534.935 694.538 535.535 694.802C536.147 695.054 536.669 695.408 537.101 695.864C537.533 696.32 537.857 696.842 538.073 697.43C538.301 698.018 538.415 698.642 538.415 699.302C538.415 699.95 538.301 700.568 538.073 701.156C537.857 701.744 537.533 702.266 537.101 702.722C536.681 703.178 536.165 703.538 535.553 703.802C534.941 704.054 534.251 704.18 533.483 704.18ZM531.017 699.302C531.017 699.854 531.125 700.346 531.341 700.778C531.557 701.198 531.851 701.528 532.223 701.768C532.595 702.008 533.015 702.128 533.483 702.128C533.939 702.128 534.353 702.008 534.725 701.768C535.097 701.516 535.391 701.18 535.607 700.76C535.835 700.328 535.949 699.836 535.949 699.284C535.949 698.744 535.835 698.258 535.607 697.826C535.391 697.394 535.097 697.058 534.725 696.818C534.353 696.578 533.939 696.458 533.483 696.458C533.015 696.458 532.595 696.584 532.223 696.836C531.851 697.076 531.557 697.412 531.341 697.844C531.125 698.264 531.017 698.75 531.017 699.302ZM554.487 694.568H556.773L552.831 704H550.815L549.231 699.95L547.683 704H545.649L541.725 694.568H543.993L546.801 701.696L547.899 698.618L546.261 694.586H548.259L549.231 697.466L550.221 694.586H552.219L550.581 698.618L551.697 701.696L554.487 694.568ZM565.004 704.18C564.248 704.18 563.564 704.054 562.952 703.802C562.34 703.538 561.818 703.184 561.386 702.74C560.954 702.284 560.618 701.768 560.378 701.192C560.15 700.604 560.036 699.986 560.036 699.338C560.036 698.438 560.234 697.616 560.63 696.872C561.038 696.128 561.614 695.534 562.358 695.09C563.114 694.634 564.002 694.406 565.022 694.406C566.054 694.406 566.936 694.634 567.668 695.09C568.4 695.534 568.958 696.128 569.342 696.872C569.738 697.604 569.936 698.396 569.936 699.248C569.936 699.392 569.93 699.542 569.918 699.698C569.906 699.842 569.894 699.962 569.882 700.058H562.592C562.64 700.538 562.778 700.958 563.006 701.318C563.246 701.678 563.546 701.954 563.906 702.146C564.278 702.326 564.674 702.416 565.094 702.416C565.574 702.416 566.024 702.302 566.444 702.074C566.876 701.834 567.17 701.522 567.326 701.138L569.396 701.714C569.168 702.194 568.838 702.62 568.406 702.992C567.986 703.364 567.488 703.658 566.912 703.874C566.336 704.078 565.7 704.18 565.004 704.18ZM562.538 698.528H567.47C567.422 698.048 567.284 697.634 567.056 697.286C566.84 696.926 566.552 696.65 566.192 696.458C565.832 696.254 565.43 696.152 564.986 696.152C564.554 696.152 564.158 696.254 563.798 696.458C563.45 696.65 563.162 696.926 562.934 697.286C562.718 697.634 562.586 698.048 562.538 698.528ZM580.081 696.656C579.349 696.656 578.695 696.8 578.119 697.088C577.543 697.364 577.129 697.766 576.877 698.294V704H574.465V694.568H576.679V696.584C577.015 695.936 577.441 695.426 577.957 695.054C578.473 694.682 579.019 694.478 579.595 694.442C579.727 694.442 579.829 694.442 579.901 694.442C579.973 694.442 580.033 694.448 580.081 694.46V696.656ZM588.737 704.18C587.981 704.18 587.297 704.054 586.685 703.802C586.073 703.538 585.551 703.184 585.119 702.74C584.687 702.284 584.351 701.768 584.111 701.192C583.883 700.604 583.769 699.986 583.769 699.338C583.769 698.438 583.967 697.616 584.363 696.872C584.771 696.128 585.347 695.534 586.091 695.09C586.847 694.634 587.735 694.406 588.755 694.406C589.787 694.406 590.669 694.634 591.401 695.09C592.133 695.534 592.691 696.128 593.075 696.872C593.471 697.604 593.669 698.396 593.669 699.248C593.669 699.392 593.663 699.542 593.651 699.698C593.639 699.842 593.627 699.962 593.615 700.058H586.325C586.373 700.538 586.511 700.958 586.739 701.318C586.979 701.678 587.279 701.954 587.639 702.146C588.011 702.326 588.407 702.416 588.827 702.416C589.307 702.416 589.757 702.302 590.177 702.074C590.609 701.834 590.903 701.522 591.059 701.138L593.129 701.714C592.901 702.194 592.571 702.62 592.139 702.992C591.719 703.364 591.221 703.658 590.645 703.874C590.069 704.078 589.433 704.18 588.737 704.18ZM586.271 698.528H591.203C591.155 698.048 591.017 697.634 590.789 697.286C590.573 696.926 590.285 696.65 589.925 696.458C589.565 696.254 589.163 696.152 588.719 696.152C588.287 696.152 587.891 696.254 587.531 696.458C587.183 696.65 586.895 696.926 586.667 697.286C586.451 697.634 586.319 698.048 586.271 698.528ZM597.623 699.284C597.623 698.372 597.803 697.55 598.163 696.818C598.523 696.074 599.021 695.486 599.657 695.054C600.293 694.622 601.019 694.406 601.835 694.406C602.531 694.406 603.155 694.58 603.707 694.928C604.271 695.264 604.709 695.696 605.021 696.224V690.86H607.433V701.3C607.433 701.552 607.475 701.732 607.559 701.84C607.643 701.948 607.787 702.014 607.991 702.038V704C607.571 704.084 607.229 704.126 606.965 704.126C606.533 704.126 606.173 704.018 605.885 703.802C605.609 703.586 605.453 703.304 605.417 702.956L605.381 702.362C605.033 702.95 604.559 703.4 603.959 703.712C603.371 704.024 602.753 704.18 602.105 704.18C601.457 704.18 600.857 704.054 600.305 703.802C599.765 703.55 599.291 703.202 598.883 702.758C598.487 702.314 598.175 701.798 597.947 701.21C597.731 700.61 597.623 699.968 597.623 699.284ZM605.021 700.544V698.294C604.901 697.946 604.709 697.634 604.445 697.358C604.181 697.082 603.887 696.866 603.563 696.71C603.239 696.542 602.915 696.458 602.591 696.458C602.219 696.458 601.883 696.536 601.583 696.692C601.283 696.848 601.019 697.058 600.791 697.322C600.575 697.586 600.407 697.892 600.287 698.24C600.179 698.588 600.125 698.954 600.125 699.338C600.125 699.722 600.185 700.088 600.305 700.436C600.437 700.772 600.623 701.066 600.863 701.318C601.103 701.57 601.379 701.768 601.691 701.912C602.015 702.056 602.363 702.128 602.735 702.128C602.963 702.128 603.191 702.092 603.419 702.02C603.659 701.936 603.881 701.828 604.085 701.696C604.301 701.552 604.487 701.384 604.643 701.192C604.811 700.988 604.937 700.772 605.021 700.544ZM620.478 704V691.22H622.962V701.822H629.478V704H620.478ZM638.12 704.18C637.364 704.18 636.68 704.054 636.068 703.802C635.456 703.538 634.934 703.184 634.502 702.74C634.07 702.284 633.734 701.768 633.494 701.192C633.266 700.604 633.152 699.986 633.152 699.338C633.152 698.438 633.35 697.616 633.746 696.872C634.154 696.128 634.73 695.534 635.474 695.09C636.23 694.634 637.118 694.406 638.138 694.406C639.17 694.406 640.052 694.634 640.784 695.09C641.516 695.534 642.074 696.128 642.458 696.872C642.854 697.604 643.052 698.396 643.052 699.248C643.052 699.392 643.046 699.542 643.034 699.698C643.022 699.842 643.01 699.962 642.998 700.058H635.708C635.756 700.538 635.894 700.958 636.122 701.318C636.362 701.678 636.662 701.954 637.022 702.146C637.394 702.326 637.79 702.416 638.21 702.416C638.69 702.416 639.14 702.302 639.56 702.074C639.992 701.834 640.286 701.522 640.442 701.138L642.512 701.714C642.284 702.194 641.954 702.62 641.522 702.992C641.102 703.364 640.604 703.658 640.028 703.874C639.452 704.078 638.816 704.18 638.12 704.18ZM635.654 698.528H640.586C640.538 698.048 640.4 697.634 640.172 697.286C639.956 696.926 639.668 696.65 639.308 696.458C638.948 696.254 638.546 696.152 638.102 696.152C637.67 696.152 637.274 696.254 636.914 696.458C636.566 696.65 636.278 696.926 636.05 697.286C635.834 697.634 635.702 698.048 635.654 698.528ZM646.933 701.21C646.933 700.598 647.101 700.064 647.437 699.608C647.785 699.14 648.265 698.78 648.877 698.528C649.489 698.276 650.191 698.15 650.983 698.15C651.379 698.15 651.781 698.18 652.189 698.24C652.597 698.3 652.951 698.396 653.251 698.528V698.024C653.251 697.424 653.071 696.962 652.711 696.638C652.363 696.314 651.841 696.152 651.145 696.152C650.629 696.152 650.137 696.242 649.669 696.422C649.201 696.602 648.709 696.866 648.193 697.214L647.419 695.63C648.043 695.222 648.679 694.916 649.327 694.712C649.987 694.508 650.677 694.406 651.397 694.406C652.741 694.406 653.785 694.742 654.529 695.414C655.285 696.086 655.663 697.046 655.663 698.294V701.3C655.663 701.552 655.705 701.732 655.789 701.84C655.885 701.948 656.035 702.014 656.239 702.038V704C656.023 704.036 655.825 704.066 655.645 704.09C655.477 704.114 655.333 704.126 655.213 704.126C654.733 704.126 654.367 704.018 654.115 703.802C653.875 703.586 653.725 703.322 653.665 703.01L653.611 702.524C653.203 703.052 652.693 703.46 652.081 703.748C651.469 704.036 650.845 704.18 650.209 704.18C649.585 704.18 649.021 704.054 648.517 703.802C648.025 703.538 647.635 703.184 647.347 702.74C647.071 702.284 646.933 701.774 646.933 701.21ZM652.801 701.696C652.933 701.552 653.041 701.408 653.125 701.264C653.209 701.12 653.251 700.988 653.251 700.868V699.914C652.963 699.794 652.651 699.704 652.315 699.644C651.979 699.572 651.661 699.536 651.361 699.536C650.737 699.536 650.221 699.674 649.813 699.95C649.417 700.214 649.219 700.568 649.219 701.012C649.219 701.252 649.285 701.48 649.417 701.696C649.549 701.912 649.741 702.086 649.993 702.218C650.245 702.35 650.545 702.416 650.893 702.416C651.253 702.416 651.607 702.35 651.955 702.218C652.303 702.074 652.585 701.9 652.801 701.696ZM660.401 699.284C660.401 698.372 660.581 697.55 660.941 696.818C661.301 696.074 661.799 695.486 662.435 695.054C663.071 694.622 663.797 694.406 664.613 694.406C665.309 694.406 665.933 694.58 666.485 694.928C667.049 695.264 667.487 695.696 667.799 696.224V690.86H670.211V701.3C670.211 701.552 670.253 701.732 670.337 701.84C670.421 701.948 670.565 702.014 670.769 702.038V704C670.349 704.084 670.007 704.126 669.743 704.126C669.311 704.126 668.951 704.018 668.663 703.802C668.387 703.586 668.231 703.304 668.195 702.956L668.159 702.362C667.811 702.95 667.337 703.4 666.737 703.712C666.149 704.024 665.531 704.18 664.883 704.18C664.235 704.18 663.635 704.054 663.083 703.802C662.543 703.55 662.069 703.202 661.661 702.758C661.265 702.314 660.953 701.798 660.725 701.21C660.509 700.61 660.401 699.968 660.401 699.284ZM667.799 700.544V698.294C667.679 697.946 667.487 697.634 667.223 697.358C666.959 697.082 666.665 696.866 666.341 696.71C666.017 696.542 665.693 696.458 665.369 696.458C664.997 696.458 664.661 696.536 664.361 696.692C664.061 696.848 663.797 697.058 663.569 697.322C663.353 697.586 663.185 697.892 663.065 698.24C662.957 698.588 662.903 698.954 662.903 699.338C662.903 699.722 662.963 700.088 663.083 700.436C663.215 700.772 663.401 701.066 663.641 701.318C663.881 701.57 664.157 701.768 664.469 701.912C664.793 702.056 665.141 702.128 665.513 702.128C665.741 702.128 665.969 702.092 666.197 702.02C666.437 701.936 666.659 701.828 666.863 701.696C667.079 701.552 667.265 701.384 667.421 701.192C667.589 700.988 667.715 700.772 667.799 700.544ZM693.679 704V695.612L690.403 701.858H689.017L685.741 695.612V704H683.257V691.22H685.921L689.701 698.492L693.517 691.22H696.163V704H693.679ZM700.904 701.21C700.904 700.598 701.072 700.064 701.408 699.608C701.756 699.14 702.236 698.78 702.848 698.528C703.46 698.276 704.162 698.15 704.954 698.15C705.35 698.15 705.752 698.18 706.16 698.24C706.568 698.3 706.922 698.396 707.222 698.528V698.024C707.222 697.424 707.042 696.962 706.682 696.638C706.334 696.314 705.812 696.152 705.116 696.152C704.6 696.152 704.108 696.242 703.64 696.422C703.172 696.602 702.68 696.866 702.164 697.214L701.39 695.63C702.014 695.222 702.65 694.916 703.298 694.712C703.958 694.508 704.648 694.406 705.368 694.406C706.712 694.406 707.756 694.742 708.5 695.414C709.256 696.086 709.634 697.046 709.634 698.294V701.3C709.634 701.552 709.676 701.732 709.76 701.84C709.856 701.948 710.006 702.014 710.21 702.038V704C709.994 704.036 709.796 704.066 709.616 704.09C709.448 704.114 709.304 704.126 709.184 704.126C708.704 704.126 708.338 704.018 708.086 703.802C707.846 703.586 707.696 703.322 707.636 703.01L707.582 702.524C707.174 703.052 706.664 703.46 706.052 703.748C705.44 704.036 704.816 704.18 704.18 704.18C703.556 704.18 702.992 704.054 702.488 703.802C701.996 703.538 701.606 703.184 701.318 702.74C701.042 702.284 700.904 701.774 700.904 701.21ZM706.772 701.696C706.904 701.552 707.012 701.408 707.096 701.264C707.18 701.12 707.222 700.988 707.222 700.868V699.914C706.934 699.794 706.622 699.704 706.286 699.644C705.95 699.572 705.632 699.536 705.332 699.536C704.708 699.536 704.192 699.674 703.784 699.95C703.388 700.214 703.19 700.568 703.19 701.012C703.19 701.252 703.256 701.48 703.388 701.696C703.52 701.912 703.712 702.086 703.964 702.218C704.216 702.35 704.516 702.416 704.864 702.416C705.224 702.416 705.578 702.35 705.926 702.218C706.274 702.074 706.556 701.9 706.772 701.696ZM723.714 704H721.302V698.708C721.302 697.952 721.17 697.4 720.906 697.052C720.642 696.704 720.276 696.53 719.808 696.53C719.484 696.53 719.154 696.614 718.818 696.782C718.494 696.95 718.2 697.184 717.936 697.484C717.672 697.772 717.48 698.108 717.36 698.492V704H714.948V694.568H717.126V696.314C717.366 695.906 717.672 695.564 718.044 695.288C718.416 695 718.842 694.784 719.322 694.64C719.814 694.484 720.33 694.406 720.87 694.406C721.458 694.406 721.938 694.514 722.31 694.73C722.694 694.934 722.982 695.216 723.174 695.576C723.378 695.924 723.516 696.32 723.588 696.764C723.672 697.208 723.714 697.658 723.714 698.114V704ZM728.223 701.21C728.223 700.598 728.391 700.064 728.727 699.608C729.075 699.14 729.555 698.78 730.167 698.528C730.779 698.276 731.481 698.15 732.273 698.15C732.669 698.15 733.071 698.18 733.479 698.24C733.887 698.3 734.241 698.396 734.541 698.528V698.024C734.541 697.424 734.361 696.962 734.001 696.638C733.653 696.314 733.131 696.152 732.435 696.152C731.919 696.152 731.427 696.242 730.959 696.422C730.491 696.602 729.999 696.866 729.483 697.214L728.709 695.63C729.333 695.222 729.969 694.916 730.617 694.712C731.277 694.508 731.967 694.406 732.687 694.406C734.031 694.406 735.075 694.742 735.819 695.414C736.575 696.086 736.953 697.046 736.953 698.294V701.3C736.953 701.552 736.995 701.732 737.079 701.84C737.175 701.948 737.325 702.014 737.529 702.038V704C737.313 704.036 737.115 704.066 736.935 704.09C736.767 704.114 736.623 704.126 736.503 704.126C736.023 704.126 735.657 704.018 735.405 703.802C735.165 703.586 735.015 703.322 734.955 703.01L734.901 702.524C734.493 703.052 733.983 703.46 733.371 703.748C732.759 704.036 732.135 704.18 731.499 704.18C730.875 704.18 730.311 704.054 729.807 703.802C729.315 703.538 728.925 703.184 728.637 702.74C728.361 702.284 728.223 701.774 728.223 701.21ZM734.091 701.696C734.223 701.552 734.331 701.408 734.415 701.264C734.499 701.12 734.541 700.988 734.541 700.868V699.914C734.253 699.794 733.941 699.704 733.605 699.644C733.269 699.572 732.951 699.536 732.651 699.536C732.027 699.536 731.511 699.674 731.103 699.95C730.707 700.214 730.509 700.568 730.509 701.012C730.509 701.252 730.575 701.48 730.707 701.696C730.839 701.912 731.031 702.086 731.283 702.218C731.535 702.35 731.835 702.416 732.183 702.416C732.543 702.416 732.897 702.35 733.245 702.218C733.593 702.074 733.875 701.9 734.091 701.696ZM745.957 704.054C745.333 704.054 744.757 703.934 744.229 703.694C743.713 703.442 743.263 703.094 742.879 702.65C742.507 702.206 742.219 701.696 742.015 701.12C741.811 700.544 741.709 699.932 741.709 699.284C741.709 698.6 741.817 697.964 742.033 697.376C742.249 696.788 742.549 696.272 742.933 695.828C743.329 695.372 743.791 695.024 744.319 694.784C744.859 694.532 745.453 694.406 746.101 694.406C746.833 694.406 747.475 694.574 748.027 694.91C748.579 695.234 749.035 695.672 749.395 696.224V694.568H751.501V703.55C751.501 704.486 751.273 705.284 750.817 705.944C750.373 706.616 749.755 707.126 748.963 707.474C748.171 707.834 747.271 708.014 746.263 708.014C745.243 708.014 744.379 707.84 743.671 707.492C742.963 707.156 742.357 706.676 741.853 706.052L743.167 704.774C743.527 705.218 743.977 705.566 744.517 705.818C745.069 706.07 745.651 706.196 746.263 706.196C746.779 706.196 747.247 706.1 747.667 705.908C748.099 705.728 748.441 705.44 748.693 705.044C748.957 704.66 749.089 704.162 749.089 703.55V702.362C748.777 702.902 748.333 703.322 747.757 703.622C747.193 703.91 746.593 704.054 745.957 704.054ZM746.767 702.128C747.031 702.128 747.283 702.086 747.523 702.002C747.763 701.918 747.985 701.804 748.189 701.66C748.393 701.516 748.573 701.348 748.729 701.156C748.885 700.952 749.005 700.748 749.089 700.544V698.294C748.945 697.922 748.741 697.598 748.477 697.322C748.225 697.046 747.937 696.836 747.613 696.692C747.301 696.536 746.971 696.458 746.623 696.458C746.251 696.458 745.915 696.536 745.615 696.692C745.315 696.848 745.057 697.07 744.841 697.358C744.625 697.634 744.457 697.946 744.337 698.294C744.229 698.63 744.175 698.984 744.175 699.356C744.175 699.74 744.241 700.1 744.373 700.436C744.505 700.772 744.685 701.066 744.913 701.318C745.153 701.57 745.429 701.768 745.741 701.912C746.065 702.056 746.407 702.128 746.767 702.128ZM761.109 704.18C760.353 704.18 759.669 704.054 759.057 703.802C758.445 703.538 757.923 703.184 757.491 702.74C757.059 702.284 756.723 701.768 756.483 701.192C756.255 700.604 756.141 699.986 756.141 699.338C756.141 698.438 756.339 697.616 756.735 696.872C757.143 696.128 757.719 695.534 758.463 695.09C759.219 694.634 760.107 694.406 761.127 694.406C762.159 694.406 763.041 694.634 763.773 695.09C764.505 695.534 765.063 696.128 765.447 696.872C765.843 697.604 766.041 698.396 766.041 699.248C766.041 699.392 766.035 699.542 766.023 699.698C766.011 699.842 765.999 699.962 765.987 700.058H758.697C758.745 700.538 758.883 700.958 759.111 701.318C759.351 701.678 759.651 701.954 760.011 702.146C760.383 702.326 760.779 702.416 761.199 702.416C761.679 702.416 762.129 702.302 762.549 702.074C762.981 701.834 763.275 701.522 763.431 701.138L765.501 701.714C765.273 702.194 764.943 702.62 764.511 702.992C764.091 703.364 763.593 703.658 763.017 703.874C762.441 704.078 761.805 704.18 761.109 704.18ZM758.643 698.528H763.575C763.527 698.048 763.389 697.634 763.161 697.286C762.945 696.926 762.657 696.65 762.297 696.458C761.937 696.254 761.535 696.152 761.091 696.152C760.659 696.152 760.263 696.254 759.903 696.458C759.555 696.65 759.267 696.926 759.039 697.286C758.823 697.634 758.691 698.048 758.643 698.528ZM785.222 704H782.81V698.708C782.81 697.964 782.678 697.418 782.414 697.07C782.162 696.71 781.808 696.53 781.352 696.53C780.884 696.53 780.434 696.716 780.002 697.088C779.582 697.448 779.282 697.922 779.102 698.51V704H776.69V698.708C776.69 697.952 776.558 697.4 776.294 697.052C776.042 696.704 775.688 696.53 775.232 696.53C774.764 696.53 774.314 696.71 773.882 697.07C773.462 697.43 773.162 697.904 772.982 698.492V704H770.57V694.568H772.748V696.314C773.108 695.702 773.588 695.234 774.188 694.91C774.788 694.574 775.478 694.406 776.258 694.406C777.038 694.406 777.644 694.598 778.076 694.982C778.52 695.366 778.802 695.84 778.922 696.404C779.306 695.756 779.792 695.264 780.38 694.928C780.98 694.58 781.652 694.406 782.396 694.406C782.984 694.406 783.458 694.514 783.818 694.73C784.19 694.934 784.478 695.216 784.682 695.576C784.886 695.924 785.024 696.32 785.096 696.764C785.18 697.208 785.222 697.658 785.222 698.114V704ZM794.756 704.18C794 704.18 793.316 704.054 792.704 703.802C792.092 703.538 791.57 703.184 791.138 702.74C790.706 702.284 790.37 701.768 790.13 701.192C789.902 700.604 789.788 699.986 789.788 699.338C789.788 698.438 789.986 697.616 790.382 696.872C790.79 696.128 791.366 695.534 792.11 695.09C792.866 694.634 793.754 694.406 794.774 694.406C795.806 694.406 796.688 694.634 797.42 695.09C798.152 695.534 798.71 696.128 799.094 696.872C799.49 697.604 799.688 698.396 799.688 699.248C799.688 699.392 799.682 699.542 799.67 699.698C799.658 699.842 799.646 699.962 799.634 700.058H792.344C792.392 700.538 792.53 700.958 792.758 701.318C792.998 701.678 793.298 701.954 793.658 702.146C794.03 702.326 794.426 702.416 794.846 702.416C795.326 702.416 795.776 702.302 796.196 702.074C796.628 701.834 796.922 701.522 797.078 701.138L799.148 701.714C798.92 702.194 798.59 702.62 798.158 702.992C797.738 703.364 797.24 703.658 796.664 703.874C796.088 704.078 795.452 704.18 794.756 704.18ZM792.29 698.528H797.222C797.174 698.048 797.036 697.634 796.808 697.286C796.592 696.926 796.304 696.65 795.944 696.458C795.584 696.254 795.182 696.152 794.738 696.152C794.306 696.152 793.91 696.254 793.55 696.458C793.202 696.65 792.914 696.926 792.686 697.286C792.47 697.634 792.338 698.048 792.29 698.528ZM812.984 704H810.572V698.708C810.572 697.952 810.44 697.4 810.176 697.052C809.912 696.704 809.546 696.53 809.078 696.53C808.754 696.53 808.424 696.614 808.088 696.782C807.764 696.95 807.47 697.184 807.206 697.484C806.942 697.772 806.75 698.108 806.63 698.492V704H804.218V694.568H806.396V696.314C806.636 695.906 806.942 695.564 807.314 695.288C807.686 695 808.112 694.784 808.592 694.64C809.084 694.484 809.6 694.406 810.14 694.406C810.728 694.406 811.208 694.514 811.58 694.73C811.964 694.934 812.252 695.216 812.444 695.576C812.648 695.924 812.786 696.32 812.858 696.764C812.942 697.208 812.984 697.658 812.984 698.114V704ZM823.74 703.514C823.536 703.598 823.29 703.694 823.002 703.802C822.714 703.91 822.402 703.994 822.066 704.054C821.742 704.126 821.412 704.162 821.076 704.162C820.632 704.162 820.224 704.084 819.852 703.928C819.48 703.772 819.18 703.526 818.952 703.19C818.736 702.842 818.628 702.392 818.628 701.84V696.422H817.386V694.568H818.628V691.508H821.04V694.568H823.02V696.422H821.04V701.03C821.052 701.354 821.142 701.588 821.31 701.732C821.478 701.876 821.688 701.948 821.94 701.948C822.192 701.948 822.438 701.906 822.678 701.822C822.918 701.738 823.11 701.666 823.254 701.606L823.74 703.514ZM843.991 704L837.979 697.628C837.475 697.088 837.067 696.626 836.755 696.242C836.455 695.846 836.239 695.486 836.107 695.162C835.975 694.838 835.909 694.49 835.909 694.118C835.909 693.506 836.059 692.972 836.359 692.516C836.671 692.048 837.091 691.688 837.619 691.436C838.159 691.184 838.759 691.058 839.419 691.058C840.019 691.058 840.571 691.166 841.075 691.382C841.591 691.586 842.011 691.898 842.335 692.318C842.659 692.738 842.821 693.26 842.821 693.884C842.821 694.448 842.677 694.958 842.389 695.414C842.113 695.87 841.741 696.29 841.273 696.674C840.805 697.058 840.277 697.43 839.689 697.79C839.257 698.066 838.861 698.336 838.501 698.6C838.153 698.864 837.877 699.146 837.673 699.446C837.481 699.734 837.385 700.052 837.385 700.4C837.385 700.736 837.481 701.048 837.673 701.336C837.865 701.624 838.129 701.858 838.465 702.038C838.813 702.206 839.197 702.29 839.617 702.29C840.133 702.29 840.631 702.164 841.111 701.912C841.603 701.66 842.041 701.306 842.425 700.85C842.809 700.382 843.109 699.824 843.325 699.176C843.553 698.528 843.667 697.802 843.667 696.998H845.629C845.629 698.138 845.455 699.152 845.107 700.04C844.759 700.916 844.291 701.666 843.703 702.29C843.115 702.902 842.449 703.37 841.705 703.694C840.961 704.018 840.187 704.18 839.383 704.18C838.507 704.18 837.745 704.006 837.097 703.658C836.449 703.298 835.945 702.83 835.585 702.254C835.237 701.678 835.063 701.054 835.063 700.382C835.063 699.71 835.219 699.122 835.531 698.618C835.843 698.114 836.239 697.67 836.719 697.286C837.199 696.89 837.679 696.542 838.159 696.242C838.687 695.906 839.131 695.624 839.491 695.396C839.851 695.156 840.127 694.922 840.319 694.694C840.511 694.454 840.607 694.196 840.607 693.92C840.607 693.596 840.493 693.338 840.265 693.146C840.049 692.942 839.767 692.84 839.419 692.84C839.155 692.84 838.921 692.894 838.717 693.002C838.525 693.11 838.375 693.254 838.267 693.434C838.159 693.614 838.105 693.818 838.105 694.046C838.105 694.214 838.153 694.382 838.249 694.55C838.357 694.718 838.537 694.94 838.789 695.216C839.053 695.48 839.413 695.858 839.869 696.35L847.159 704H843.991ZM861.845 691.22H864.365L869.063 704H866.507L865.319 700.814H860.855L859.685 704H857.129L861.845 691.22ZM864.869 699.068L863.105 693.794L861.269 699.068H864.869ZM882.057 704H879.645V698.708C879.645 697.952 879.513 697.4 879.249 697.052C878.985 696.704 878.619 696.53 878.151 696.53C877.827 696.53 877.497 696.614 877.161 696.782C876.837 696.95 876.543 697.184 876.279 697.484C876.015 697.772 875.823 698.108 875.703 698.492V704H873.291V694.568H875.469V696.314C875.709 695.906 876.015 695.564 876.387 695.288C876.759 695 877.185 694.784 877.665 694.64C878.157 694.484 878.673 694.406 879.213 694.406C879.801 694.406 880.281 694.514 880.653 694.73C881.037 694.934 881.325 695.216 881.517 695.576C881.721 695.924 881.859 696.32 881.931 696.764C882.015 697.208 882.057 697.658 882.057 698.114V704ZM886.566 701.21C886.566 700.598 886.734 700.064 887.07 699.608C887.418 699.14 887.898 698.78 888.51 698.528C889.122 698.276 889.824 698.15 890.616 698.15C891.012 698.15 891.414 698.18 891.822 698.24C892.23 698.3 892.584 698.396 892.884 698.528V698.024C892.884 697.424 892.704 696.962 892.344 696.638C891.996 696.314 891.474 696.152 890.778 696.152C890.262 696.152 889.77 696.242 889.302 696.422C888.834 696.602 888.342 696.866 887.826 697.214L887.052 695.63C887.676 695.222 888.312 694.916 888.96 694.712C889.62 694.508 890.31 694.406 891.03 694.406C892.374 694.406 893.418 694.742 894.162 695.414C894.918 696.086 895.296 697.046 895.296 698.294V701.3C895.296 701.552 895.338 701.732 895.422 701.84C895.518 701.948 895.668 702.014 895.872 702.038V704C895.656 704.036 895.458 704.066 895.278 704.09C895.11 704.114 894.966 704.126 894.846 704.126C894.366 704.126 894 704.018 893.748 703.802C893.508 703.586 893.358 703.322 893.298 703.01L893.244 702.524C892.836 703.052 892.326 703.46 891.714 703.748C891.102 704.036 890.478 704.18 889.842 704.18C889.218 704.18 888.654 704.054 888.15 703.802C887.658 703.538 887.268 703.184 886.98 702.74C886.704 702.284 886.566 701.774 886.566 701.21ZM892.434 701.696C892.566 701.552 892.674 701.408 892.758 701.264C892.842 701.12 892.884 700.988 892.884 700.868V699.914C892.596 699.794 892.284 699.704 891.948 699.644C891.612 699.572 891.294 699.536 890.994 699.536C890.37 699.536 889.854 699.674 889.446 699.95C889.05 700.214 888.852 700.568 888.852 701.012C888.852 701.252 888.918 701.48 889.05 701.696C889.182 701.912 889.374 702.086 889.626 702.218C889.878 702.35 890.178 702.416 890.526 702.416C890.886 702.416 891.24 702.35 891.588 702.218C891.936 702.074 892.218 701.9 892.434 701.696ZM900.592 690.86H903.004V700.976C903.004 701.408 903.076 701.702 903.22 701.858C903.364 702.002 903.562 702.074 903.814 702.074C904.006 702.074 904.204 702.05 904.408 702.002C904.612 701.954 904.792 701.894 904.948 701.822L905.272 703.658C904.948 703.814 904.57 703.934 904.138 704.018C903.706 704.102 903.316 704.144 902.968 704.144C902.212 704.144 901.624 703.946 901.204 703.55C900.796 703.142 900.592 702.566 900.592 701.822V690.86ZM909.124 705.836C909.34 705.884 909.538 705.926 909.718 705.962C909.91 705.998 910.072 706.016 910.204 706.016C910.432 706.016 910.618 705.956 910.762 705.836C910.918 705.728 911.068 705.524 911.212 705.224C911.356 704.936 911.506 704.528 911.662 704L907.936 694.568H910.438L912.976 701.534L915.208 694.568H917.512L913.552 705.872C913.408 706.292 913.186 706.67 912.886 707.006C912.598 707.354 912.232 707.624 911.788 707.816C911.356 708.02 910.87 708.122 910.33 708.122C910.138 708.122 909.946 708.104 909.754 708.068C909.562 708.044 909.352 707.996 909.124 707.924V705.836ZM927.534 703.514C927.33 703.598 927.084 703.694 926.796 703.802C926.508 703.91 926.196 703.994 925.86 704.054C925.536 704.126 925.206 704.162 924.87 704.162C924.426 704.162 924.018 704.084 923.646 703.928C923.274 703.772 922.974 703.526 922.746 703.19C922.53 702.842 922.422 702.392 922.422 701.84V696.422H921.18V694.568H922.422V691.508H924.834V694.568H926.814V696.422H924.834V701.03C924.846 701.354 924.936 701.588 925.104 701.732C925.272 701.876 925.482 701.948 925.734 701.948C925.986 701.948 926.232 701.906 926.472 701.822C926.712 701.738 926.904 701.666 927.048 701.606L927.534 703.514ZM931.85 704V694.568H934.262V704H931.85ZM931.85 693.254V690.86H934.262V693.254H931.85ZM943.89 704.18C943.122 704.18 942.432 704.054 941.82 703.802C941.208 703.538 940.686 703.178 940.254 702.722C939.822 702.254 939.486 701.726 939.246 701.138C939.018 700.55 938.904 699.932 938.904 699.284C938.904 698.396 939.102 697.586 939.498 696.854C939.906 696.11 940.482 695.516 941.226 695.072C941.97 694.628 942.852 694.406 943.872 694.406C944.892 694.406 945.768 694.628 946.5 695.072C947.232 695.516 947.778 696.098 948.138 696.818L945.78 697.538C945.576 697.19 945.306 696.926 944.97 696.746C944.634 696.554 944.262 696.458 943.854 696.458C943.398 696.458 942.978 696.578 942.594 696.818C942.222 697.046 941.928 697.376 941.712 697.808C941.496 698.228 941.388 698.72 941.388 699.284C941.388 699.836 941.496 700.328 941.712 700.76C941.94 701.18 942.24 701.516 942.612 701.768C942.984 702.008 943.398 702.128 943.854 702.128C944.142 702.128 944.412 702.08 944.664 701.984C944.928 701.888 945.162 701.756 945.366 701.588C945.57 701.42 945.72 701.228 945.816 701.012L948.174 701.732C947.958 702.2 947.64 702.62 947.22 702.992C946.812 703.364 946.326 703.658 945.762 703.874C945.21 704.078 944.586 704.18 943.89 704.18ZM956.192 704.18C955.388 704.18 954.62 704.048 953.888 703.784C953.156 703.52 952.526 703.13 951.998 702.614L952.862 701.048C953.426 701.504 953.978 701.84 954.518 702.056C955.07 702.272 955.598 702.38 956.102 702.38C956.57 702.38 956.942 702.296 957.218 702.128C957.506 701.96 957.65 701.708 957.65 701.372C957.65 701.144 957.572 700.97 957.416 700.85C957.26 700.718 957.032 700.604 956.732 700.508C956.444 700.412 956.09 700.304 955.67 700.184C954.974 699.956 954.392 699.734 953.924 699.518C953.456 699.302 953.102 699.032 952.862 698.708C952.634 698.372 952.52 697.946 952.52 697.43C952.52 696.806 952.676 696.272 952.988 695.828C953.312 695.372 953.756 695.018 954.32 694.766C954.896 694.514 955.568 694.388 956.336 694.388C957.008 694.388 957.644 694.496 958.244 694.712C958.844 694.916 959.39 695.252 959.882 695.72L958.91 697.25C958.43 696.878 957.974 696.608 957.542 696.44C957.11 696.26 956.672 696.17 956.228 696.17C955.976 696.17 955.736 696.2 955.508 696.26C955.292 696.32 955.112 696.422 954.968 696.566C954.836 696.698 954.77 696.89 954.77 697.142C954.77 697.37 954.83 697.55 954.95 697.682C955.082 697.802 955.274 697.91 955.526 698.006C955.79 698.102 956.108 698.21 956.48 698.33C957.236 698.546 957.872 698.768 958.388 698.996C958.916 699.224 959.312 699.506 959.576 699.842C959.84 700.166 959.972 700.616 959.972 701.192C959.972 702.128 959.63 702.86 958.946 703.388C958.262 703.916 957.344 704.18 956.192 704.18Z" fill="#A3B5F2"/>
<path opacity="0.71" d="M618.576 783.077C617.997 783.077 617.458 782.978 616.959 782.78C616.468 782.582 616.039 782.303 615.672 781.944C615.305 781.585 615.019 781.163 614.814 780.679C614.616 780.195 614.517 779.667 614.517 779.095C614.517 778.53 614.616 778.006 614.814 777.522C615.019 777.038 615.305 776.62 615.672 776.268C616.039 775.909 616.468 775.63 616.959 775.432C617.458 775.234 617.997 775.135 618.576 775.135C619.163 775.135 619.705 775.234 620.204 775.432C620.703 775.63 621.135 775.909 621.502 776.268C621.876 776.62 622.166 777.038 622.371 777.522C622.576 778.006 622.679 778.53 622.679 779.095C622.679 779.667 622.576 780.195 622.371 780.679C622.166 781.163 621.876 781.585 621.502 781.944C621.135 782.303 620.703 782.582 620.204 782.78C619.705 782.978 619.163 783.077 618.576 783.077ZM618.576 782.593C619.082 782.593 619.551 782.509 619.984 782.34C620.417 782.171 620.794 781.933 621.117 781.625C621.447 781.317 621.704 780.95 621.887 780.525C622.07 780.1 622.162 779.63 622.162 779.117C622.162 778.618 622.07 778.156 621.887 777.731C621.711 777.306 621.462 776.935 621.139 776.62C620.816 776.305 620.435 776.059 619.995 775.883C619.562 775.707 619.089 775.619 618.576 775.619C618.07 775.619 617.601 775.707 617.168 775.883C616.735 776.059 616.358 776.305 616.035 776.62C615.72 776.935 615.47 777.306 615.287 777.731C615.111 778.149 615.023 778.607 615.023 779.106C615.023 779.597 615.111 780.056 615.287 780.481C615.463 780.899 615.712 781.269 616.035 781.592C616.358 781.907 616.735 782.153 617.168 782.329C617.601 782.505 618.07 782.593 618.576 782.593ZM618.664 781.669C618.305 781.669 617.967 781.607 617.652 781.482C617.337 781.357 617.058 781.181 616.816 780.954C616.574 780.727 616.383 780.455 616.244 780.14C616.105 779.825 616.035 779.476 616.035 779.095C616.035 778.78 616.086 778.468 616.189 778.16C616.299 777.852 616.46 777.573 616.673 777.324C616.886 777.075 617.153 776.877 617.476 776.73C617.799 776.583 618.176 776.51 618.609 776.51C619.122 776.51 619.573 776.62 619.962 776.84C620.358 777.06 620.644 777.375 620.82 777.786L619.885 778.083C619.797 777.885 619.676 777.735 619.522 777.632C619.375 777.522 619.221 777.449 619.06 777.412C618.899 777.368 618.748 777.346 618.609 777.346C618.345 777.346 618.114 777.397 617.916 777.5C617.718 777.595 617.553 777.727 617.421 777.896C617.289 778.065 617.19 778.252 617.124 778.457C617.058 778.662 617.025 778.875 617.025 779.095C617.025 779.374 617.073 779.623 617.168 779.843C617.263 780.056 617.388 780.235 617.542 780.382C617.703 780.529 617.879 780.642 618.07 780.723C618.261 780.796 618.448 780.833 618.631 780.833C618.8 780.833 618.968 780.804 619.137 780.745C619.313 780.679 619.474 780.591 619.621 780.481C619.768 780.364 619.878 780.224 619.951 780.063L620.886 780.349C620.805 780.547 620.662 780.749 620.457 780.954C620.259 781.152 620.006 781.321 619.698 781.46C619.397 781.599 619.053 781.669 618.664 781.669ZM626.451 783C626.451 782.707 626.473 782.432 626.517 782.175C626.568 781.918 626.656 781.673 626.781 781.438C626.913 781.203 627.096 780.98 627.331 780.767C627.565 780.547 627.87 780.334 628.244 780.129C628.464 780.004 628.684 779.887 628.904 779.777C629.131 779.667 629.34 779.55 629.531 779.425C629.729 779.3 629.886 779.165 630.004 779.018C630.121 778.864 630.18 778.688 630.18 778.49C630.18 778.321 630.128 778.16 630.026 778.006C629.93 777.845 629.784 777.716 629.586 777.621C629.395 777.518 629.157 777.467 628.871 777.467C628.651 777.467 628.449 777.496 628.266 777.555C628.09 777.614 627.928 777.691 627.782 777.786C627.642 777.874 627.518 777.969 627.408 778.072C627.305 778.167 627.217 778.255 627.144 778.336L626.539 777.654C626.597 777.588 626.696 777.5 626.836 777.39C626.975 777.273 627.151 777.155 627.364 777.038C627.576 776.921 627.822 776.822 628.101 776.741C628.387 776.653 628.698 776.609 629.036 776.609C629.49 776.609 629.879 776.69 630.202 776.851C630.532 777.005 630.785 777.218 630.961 777.489C631.137 777.753 631.225 778.05 631.225 778.38C631.225 778.666 631.162 778.915 631.038 779.128C630.92 779.341 630.766 779.528 630.576 779.689C630.392 779.85 630.198 779.99 629.993 780.107C629.795 780.217 629.615 780.312 629.454 780.393C629.124 780.554 628.841 780.701 628.607 780.833C628.372 780.965 628.178 781.097 628.024 781.229C627.877 781.354 627.756 781.486 627.661 781.625C627.573 781.764 627.507 781.929 627.463 782.12H631.346V783H626.451ZM638.024 779.777C638.024 780.422 637.903 780.998 637.661 781.504C637.419 782.003 637.089 782.395 636.671 782.681C636.253 782.967 635.777 783.11 635.241 783.11C634.706 783.11 634.229 782.967 633.811 782.681C633.393 782.395 633.063 782.003 632.821 781.504C632.579 780.998 632.458 780.422 632.458 779.777C632.458 779.132 632.579 778.56 632.821 778.061C633.063 777.555 633.393 777.159 633.811 776.873C634.229 776.58 634.706 776.433 635.241 776.433C635.777 776.433 636.253 776.58 636.671 776.873C637.089 777.159 637.419 777.555 637.661 778.061C637.903 778.56 638.024 779.132 638.024 779.777ZM637.045 779.777C637.045 779.293 636.968 778.868 636.814 778.501C636.66 778.134 636.448 777.848 636.176 777.643C635.905 777.438 635.593 777.335 635.241 777.335C634.882 777.335 634.567 777.438 634.295 777.643C634.024 777.848 633.811 778.134 633.657 778.501C633.503 778.868 633.426 779.293 633.426 779.777C633.426 780.261 633.503 780.686 633.657 781.053C633.811 781.412 634.024 781.695 634.295 781.9C634.567 782.105 634.882 782.208 635.241 782.208C635.593 782.208 635.905 782.105 636.176 781.9C636.448 781.695 636.66 781.412 636.814 781.053C636.968 780.686 637.045 780.261 637.045 779.777ZM639.094 783C639.094 782.707 639.116 782.432 639.16 782.175C639.211 781.918 639.299 781.673 639.424 781.438C639.556 781.203 639.739 780.98 639.974 780.767C640.209 780.547 640.513 780.334 640.887 780.129C641.107 780.004 641.327 779.887 641.547 779.777C641.774 779.667 641.983 779.55 642.174 779.425C642.372 779.3 642.53 779.165 642.647 779.018C642.764 778.864 642.823 778.688 642.823 778.49C642.823 778.321 642.772 778.16 642.669 778.006C642.574 777.845 642.427 777.716 642.229 777.621C642.038 777.518 641.8 777.467 641.514 777.467C641.294 777.467 641.092 777.496 640.909 777.555C640.733 777.614 640.572 777.691 640.425 777.786C640.286 777.874 640.161 777.969 640.051 778.072C639.948 778.167 639.86 778.255 639.787 778.336L639.182 777.654C639.241 777.588 639.34 777.5 639.479 777.39C639.618 777.273 639.794 777.155 640.007 777.038C640.22 776.921 640.465 776.822 640.744 776.741C641.03 776.653 641.342 776.609 641.679 776.609C642.134 776.609 642.522 776.69 642.845 776.851C643.175 777.005 643.428 777.218 643.604 777.489C643.78 777.753 643.868 778.05 643.868 778.38C643.868 778.666 643.806 778.915 643.681 779.128C643.564 779.341 643.41 779.528 643.219 779.689C643.036 779.85 642.841 779.99 642.636 780.107C642.438 780.217 642.258 780.312 642.097 780.393C641.767 780.554 641.485 780.701 641.25 780.833C641.015 780.965 640.821 781.097 640.667 781.229C640.52 781.354 640.399 781.486 640.304 781.625C640.216 781.764 640.15 781.929 640.106 782.12H643.989V783H639.094ZM650.69 780.415C650.69 780.914 650.565 781.368 650.316 781.779C650.074 782.182 649.74 782.505 649.315 782.747C648.897 782.989 648.424 783.11 647.896 783.11C647.338 783.11 646.847 782.978 646.422 782.714C645.996 782.443 645.663 782.054 645.421 781.548C645.186 781.042 645.069 780.441 645.069 779.744C645.069 778.717 645.19 777.863 645.432 777.181C645.674 776.499 646.015 775.989 646.455 775.652C646.895 775.307 647.408 775.135 647.995 775.135C648.501 775.135 648.959 775.26 649.37 775.509C649.788 775.751 650.114 776.088 650.349 776.521L649.755 777.104C649.593 776.759 649.355 776.488 649.04 776.29C648.724 776.085 648.372 775.982 647.984 775.982C647.588 775.982 647.239 776.103 646.939 776.345C646.638 776.587 646.403 776.935 646.235 777.39C646.073 777.845 645.989 778.395 645.982 779.04C646.092 778.783 646.246 778.563 646.444 778.38C646.642 778.189 646.873 778.043 647.137 777.94C647.408 777.837 647.694 777.786 647.995 777.786C648.501 777.786 648.955 777.903 649.359 778.138C649.769 778.373 650.092 778.688 650.327 779.084C650.569 779.48 650.69 779.924 650.69 780.415ZM647.907 782.274C648.244 782.274 648.552 782.19 648.831 782.021C649.117 781.852 649.344 781.629 649.513 781.35C649.681 781.064 649.766 780.752 649.766 780.415C649.766 780.078 649.681 779.77 649.513 779.491C649.344 779.212 649.117 778.989 648.831 778.82C648.552 778.651 648.244 778.567 647.907 778.567C647.569 778.567 647.258 778.651 646.972 778.82C646.693 778.989 646.469 779.212 646.301 779.491C646.132 779.77 646.048 780.078 646.048 780.415C646.048 780.752 646.132 781.064 646.301 781.35C646.469 781.629 646.693 781.852 646.972 782.021C647.258 782.19 647.569 782.274 647.907 782.274ZM660.891 780.987C660.891 781.39 660.788 781.742 660.583 782.043C660.378 782.344 660.099 782.578 659.747 782.747C659.402 782.916 659.021 783 658.603 783H654.896V775.19H658.779C659.146 775.19 659.461 775.289 659.725 775.487C659.996 775.678 660.202 775.927 660.341 776.235C660.488 776.536 660.561 776.851 660.561 777.181C660.561 777.562 660.462 777.922 660.264 778.259C660.073 778.589 659.798 778.835 659.439 778.996C659.886 779.128 660.238 779.374 660.495 779.733C660.759 780.085 660.891 780.503 660.891 780.987ZM659.89 780.811C659.89 780.569 659.835 780.345 659.725 780.14C659.622 779.935 659.479 779.77 659.296 779.645C659.12 779.52 658.915 779.458 658.68 779.458H655.886V782.142H658.603C658.845 782.142 659.061 782.08 659.252 781.955C659.45 781.83 659.604 781.669 659.714 781.471C659.831 781.266 659.89 781.046 659.89 780.811ZM655.886 776.048V778.655H658.372C658.607 778.655 658.812 778.596 658.988 778.479C659.171 778.362 659.314 778.204 659.417 778.006C659.527 777.808 659.582 777.592 659.582 777.357C659.582 777.108 659.531 776.888 659.428 776.697C659.333 776.499 659.197 776.341 659.021 776.224C658.852 776.107 658.658 776.048 658.438 776.048H655.886ZM662.276 783V775.19H663.266V782.12H667.622V783H662.276ZM671.643 783.055C671.02 783.055 670.496 782.949 670.07 782.736C669.645 782.516 669.304 782.223 669.047 781.856C668.791 781.482 668.604 781.06 668.486 780.591C668.369 780.122 668.31 779.638 668.31 779.139V775.19H669.3V779.139C669.3 779.52 669.337 779.894 669.41 780.261C669.491 780.62 669.619 780.943 669.795 781.229C669.971 781.515 670.21 781.742 670.51 781.911C670.811 782.08 671.185 782.164 671.632 782.164C672.087 782.164 672.465 782.08 672.765 781.911C673.066 781.735 673.304 781.504 673.48 781.218C673.656 780.925 673.781 780.598 673.854 780.239C673.935 779.88 673.975 779.513 673.975 779.139V775.19H674.965V779.139C674.965 779.667 674.903 780.169 674.778 780.646C674.661 781.115 674.47 781.53 674.206 781.889C673.942 782.248 673.598 782.534 673.172 782.747C672.754 782.952 672.245 783.055 671.643 783.055ZM682.026 782.12V783H676.724V775.19H681.927V776.07H677.714V778.6H681.377V779.425H677.714V782.12H682.026ZM687.971 776.829C687.883 776.726 687.766 776.627 687.619 776.532C687.473 776.437 687.308 776.352 687.124 776.279C686.941 776.198 686.739 776.136 686.519 776.092C686.307 776.041 686.083 776.015 685.848 776.015C685.247 776.015 684.803 776.129 684.517 776.356C684.231 776.583 684.088 776.895 684.088 777.291C684.088 777.57 684.162 777.79 684.308 777.951C684.455 778.112 684.679 778.244 684.979 778.347C685.287 778.45 685.676 778.556 686.145 778.666C686.688 778.783 687.157 778.926 687.553 779.095C687.949 779.264 688.254 779.491 688.466 779.777C688.679 780.056 688.785 780.43 688.785 780.899C688.785 781.273 688.712 781.599 688.565 781.878C688.426 782.149 688.228 782.377 687.971 782.56C687.715 782.736 687.414 782.868 687.069 782.956C686.725 783.037 686.351 783.077 685.947 783.077C685.551 783.077 685.163 783.037 684.781 782.956C684.407 782.868 684.052 782.743 683.714 782.582C683.377 782.421 683.062 782.219 682.768 781.977L683.241 781.141C683.359 781.266 683.509 781.39 683.692 781.515C683.883 781.632 684.096 781.742 684.33 781.845C684.572 781.948 684.833 782.032 685.111 782.098C685.39 782.157 685.676 782.186 685.969 782.186C686.527 782.186 686.959 782.087 687.267 781.889C687.575 781.684 687.729 781.387 687.729 780.998C687.729 780.705 687.641 780.47 687.465 780.294C687.297 780.118 687.044 779.971 686.706 779.854C686.369 779.737 685.958 779.619 685.474 779.502C684.946 779.37 684.503 779.227 684.143 779.073C683.784 778.912 683.513 778.703 683.329 778.446C683.153 778.189 683.065 777.856 683.065 777.445C683.065 776.946 683.186 776.525 683.428 776.18C683.67 775.835 684.004 775.575 684.429 775.399C684.855 775.223 685.335 775.135 685.87 775.135C686.222 775.135 686.549 775.172 686.849 775.245C687.157 775.318 687.443 775.421 687.707 775.553C687.971 775.685 688.213 775.843 688.433 776.026L687.971 776.829ZM695.719 776.07H693.024V783H692.034V776.07H689.339V775.19H695.719V776.07ZM698.479 775.19H699.315L702.505 783H701.449L700.525 780.712H697.247L696.334 783H695.278L698.479 775.19ZM700.305 779.942L698.897 776.334L697.445 779.942H700.305ZM703.547 783V775.19H706.891C707.236 775.19 707.551 775.263 707.837 775.41C708.123 775.549 708.373 775.74 708.585 775.982C708.798 776.217 708.963 776.484 709.08 776.785C709.198 777.078 709.256 777.379 709.256 777.687C709.256 778.046 709.187 778.387 709.047 778.71C708.915 779.033 708.725 779.308 708.475 779.535C708.233 779.762 707.947 779.92 707.617 780.008L709.509 783H708.387L706.605 780.195H704.537V783H703.547ZM704.537 779.315H706.902C707.174 779.315 707.408 779.242 707.606 779.095C707.812 778.941 707.969 778.739 708.079 778.49C708.197 778.241 708.255 777.973 708.255 777.687C708.255 777.394 708.189 777.126 708.057 776.884C707.925 776.635 707.753 776.437 707.54 776.29C707.328 776.143 707.093 776.07 706.836 776.07H704.537V779.315ZM713.153 775.19H713.989L717.179 783H716.123L715.199 780.712H711.921L711.008 783H709.952L713.153 775.19ZM714.979 779.942L713.571 776.334L712.119 779.942H714.979ZM718.221 783V775.19H719.211V783H718.221ZM720.848 783V781.768H721.662V783H720.848ZM728.117 775.19H728.953L732.143 783H731.087L730.163 780.712H726.885L725.972 783H724.916L728.117 775.19ZM729.943 779.942L728.535 776.334L727.083 779.942H729.943ZM733.053 774.97H734.021V781.515C734.021 781.83 734.065 782.025 734.153 782.098C734.241 782.171 734.347 782.208 734.472 782.208C734.626 782.208 734.773 782.193 734.912 782.164C735.051 782.127 735.169 782.091 735.264 782.054L735.418 782.846C735.257 782.912 735.066 782.967 734.846 783.011C734.626 783.055 734.432 783.077 734.263 783.077C733.889 783.077 733.592 782.971 733.372 782.758C733.159 782.545 733.053 782.248 733.053 781.867V774.97ZM736.2 774.97H737.168V781.515C737.168 781.83 737.212 782.025 737.3 782.098C737.388 782.171 737.495 782.208 737.619 782.208C737.773 782.208 737.92 782.193 738.059 782.164C738.199 782.127 738.316 782.091 738.411 782.054L738.565 782.846C738.404 782.912 738.213 782.967 737.993 783.011C737.773 783.055 737.579 783.077 737.41 783.077C737.036 783.077 736.739 782.971 736.519 782.758C736.307 782.545 736.2 782.248 736.2 781.867V774.97ZM741.929 783V775.19H745.273C745.618 775.19 745.933 775.263 746.219 775.41C746.505 775.549 746.754 775.74 746.967 775.982C747.18 776.217 747.345 776.484 747.462 776.785C747.579 777.078 747.638 777.379 747.638 777.687C747.638 778.046 747.568 778.387 747.429 778.71C747.297 779.033 747.106 779.308 746.857 779.535C746.615 779.762 746.329 779.92 745.999 780.008L747.891 783H746.769L744.987 780.195H742.919V783H741.929ZM742.919 779.315H745.284C745.555 779.315 745.79 779.242 745.988 779.095C746.193 778.941 746.351 778.739 746.461 778.49C746.578 778.241 746.637 777.973 746.637 777.687C746.637 777.394 746.571 777.126 746.439 776.884C746.307 776.635 746.135 776.437 745.922 776.29C745.709 776.143 745.475 776.07 745.218 776.07H742.919V779.315ZM748.951 783V777.258H749.919V783H748.951ZM748.951 776.18V774.97H749.919V776.18H748.951ZM753.774 783.066C753.385 783.066 753.026 782.989 752.696 782.835C752.373 782.674 752.095 782.457 751.86 782.186C751.625 781.907 751.442 781.592 751.31 781.24C751.185 780.888 751.123 780.521 751.123 780.14C751.123 779.737 751.185 779.355 751.31 778.996C751.442 778.637 751.625 778.321 751.86 778.05C752.102 777.771 752.384 777.555 752.707 777.401C753.03 777.24 753.389 777.159 753.785 777.159C754.262 777.159 754.676 777.276 755.028 777.511C755.387 777.746 755.688 778.043 755.93 778.402V777.258H756.788V782.934C756.788 783.477 756.656 783.935 756.392 784.309C756.135 784.683 755.783 784.965 755.336 785.156C754.896 785.354 754.405 785.453 753.862 785.453C753.217 785.453 752.689 785.339 752.278 785.112C751.867 784.885 751.526 784.577 751.255 784.188L751.816 783.693C752.043 784.03 752.337 784.283 752.696 784.452C753.063 784.621 753.451 784.705 753.862 784.705C754.214 784.705 754.537 784.639 754.83 784.507C755.131 784.382 755.369 784.188 755.545 783.924C755.728 783.66 755.82 783.33 755.82 782.934V781.922C755.607 782.274 755.314 782.553 754.94 782.758C754.573 782.963 754.185 783.066 753.774 783.066ZM754.071 782.274C754.276 782.274 754.474 782.237 754.665 782.164C754.856 782.091 755.032 781.995 755.193 781.878C755.354 781.753 755.49 781.614 755.6 781.46C755.71 781.306 755.783 781.148 755.82 780.987V779.337C755.717 779.073 755.571 778.842 755.38 778.644C755.189 778.439 754.973 778.281 754.731 778.171C754.489 778.054 754.24 777.995 753.983 777.995C753.69 777.995 753.426 778.057 753.191 778.182C752.964 778.307 752.769 778.475 752.608 778.688C752.447 778.893 752.322 779.124 752.234 779.381C752.146 779.638 752.102 779.898 752.102 780.162C752.102 780.448 752.153 780.719 752.256 780.976C752.359 781.225 752.498 781.449 752.674 781.647C752.85 781.845 753.059 781.999 753.301 782.109C753.543 782.219 753.8 782.274 754.071 782.274ZM763.333 783H762.365V779.788C762.365 779.201 762.259 778.761 762.046 778.468C761.841 778.175 761.544 778.028 761.155 778.028C760.906 778.028 760.653 778.094 760.396 778.226C760.147 778.358 759.927 778.538 759.736 778.765C759.546 778.985 759.406 779.242 759.318 779.535V783H758.35V774.97H759.318V778.49C759.546 778.079 759.854 777.757 760.242 777.522C760.638 777.28 761.064 777.159 761.518 777.159C761.863 777.159 762.149 777.221 762.376 777.346C762.611 777.463 762.798 777.632 762.937 777.852C763.077 778.072 763.176 778.329 763.234 778.622C763.3 778.908 763.333 779.223 763.333 779.568V783ZM767.755 782.714C767.674 782.751 767.564 782.798 767.425 782.857C767.286 782.916 767.124 782.967 766.941 783.011C766.758 783.055 766.563 783.077 766.358 783.077C766.123 783.077 765.907 783.037 765.709 782.956C765.511 782.868 765.353 782.736 765.236 782.56C765.119 782.377 765.06 782.149 765.06 781.878V778.017H764.279V777.258H765.06V775.344H766.028V777.258H767.315V778.017H766.028V781.581C766.043 781.786 766.112 781.94 766.237 782.043C766.362 782.138 766.508 782.186 766.677 782.186C766.868 782.186 767.044 782.153 767.205 782.087C767.366 782.021 767.473 781.973 767.524 781.944L767.755 782.714ZM770.621 783.11C770.144 783.11 769.697 783.033 769.279 782.879C768.861 782.718 768.502 782.479 768.201 782.164L768.575 781.482C768.905 781.79 769.235 782.01 769.565 782.142C769.895 782.274 770.232 782.34 770.577 782.34C770.973 782.34 771.296 782.267 771.545 782.12C771.794 781.966 771.919 781.742 771.919 781.449C771.919 781.236 771.853 781.079 771.721 780.976C771.596 780.873 771.417 780.789 771.182 780.723C770.947 780.65 770.669 780.569 770.346 780.481C769.95 780.364 769.616 780.239 769.345 780.107C769.074 779.975 768.868 779.81 768.729 779.612C768.59 779.414 768.52 779.165 768.52 778.864C768.52 778.497 768.615 778.189 768.806 777.94C768.997 777.683 769.257 777.489 769.587 777.357C769.924 777.225 770.306 777.159 770.731 777.159C771.156 777.159 771.541 777.225 771.886 777.357C772.231 777.489 772.528 777.683 772.777 777.94L772.337 778.611C772.11 778.376 771.86 778.204 771.589 778.094C771.318 777.977 771.013 777.918 770.676 777.918C770.478 777.918 770.284 777.944 770.093 777.995C769.902 778.039 769.745 778.123 769.62 778.248C769.495 778.365 769.433 778.534 769.433 778.754C769.433 778.937 769.481 779.084 769.576 779.194C769.679 779.297 769.825 779.385 770.016 779.458C770.214 779.531 770.452 779.612 770.731 779.7C771.164 779.825 771.538 779.949 771.853 780.074C772.176 780.199 772.425 780.36 772.601 780.558C772.777 780.756 772.865 781.031 772.865 781.383C772.865 781.926 772.66 782.351 772.249 782.659C771.838 782.96 771.296 783.11 770.621 783.11ZM776.959 783V775.19H780.303C780.648 775.19 780.963 775.263 781.249 775.41C781.535 775.549 781.785 775.74 781.997 775.982C782.21 776.217 782.375 776.484 782.492 776.785C782.61 777.078 782.668 777.379 782.668 777.687C782.668 778.046 782.599 778.387 782.459 778.71C782.327 779.033 782.137 779.308 781.887 779.535C781.645 779.762 781.359 779.92 781.029 780.008L782.921 783H781.799L780.017 780.195H777.949V783H776.959ZM777.949 779.315H780.314C780.586 779.315 780.82 779.242 781.018 779.095C781.224 778.941 781.381 778.739 781.491 778.49C781.609 778.241 781.667 777.973 781.667 777.687C781.667 777.394 781.601 777.126 781.469 776.884C781.337 776.635 781.165 776.437 780.952 776.29C780.74 776.143 780.505 776.07 780.248 776.07H777.949V779.315ZM786.393 783.11C785.961 783.11 785.565 783.033 785.205 782.879C784.853 782.718 784.545 782.501 784.281 782.23C784.025 781.951 783.823 781.632 783.676 781.273C783.537 780.914 783.467 780.532 783.467 780.129C783.467 779.586 783.592 779.091 783.841 778.644C784.091 778.197 784.435 777.837 784.875 777.566C785.323 777.295 785.832 777.159 786.404 777.159C786.984 777.159 787.486 777.298 787.911 777.577C788.344 777.848 788.678 778.208 788.912 778.655C789.154 779.095 789.275 779.572 789.275 780.085C789.275 780.158 789.272 780.232 789.264 780.305C789.264 780.371 789.261 780.422 789.253 780.459H784.49C784.52 780.833 784.622 781.167 784.798 781.46C784.982 781.746 785.216 781.973 785.502 782.142C785.788 782.303 786.096 782.384 786.426 782.384C786.778 782.384 787.108 782.296 787.416 782.12C787.732 781.944 787.948 781.713 788.065 781.427L788.901 781.658C788.777 781.937 788.59 782.186 788.34 782.406C788.098 782.626 787.809 782.798 787.471 782.923C787.141 783.048 786.782 783.11 786.393 783.11ZM784.457 779.788H788.373C788.344 779.414 788.238 779.084 788.054 778.798C787.871 778.512 787.636 778.288 787.35 778.127C787.064 777.966 786.749 777.885 786.404 777.885C786.067 777.885 785.755 777.966 785.469 778.127C785.183 778.288 784.949 778.512 784.765 778.798C784.589 779.084 784.487 779.414 784.457 779.788ZM792.32 783.11C791.844 783.11 791.396 783.033 790.978 782.879C790.56 782.718 790.201 782.479 789.9 782.164L790.274 781.482C790.604 781.79 790.934 782.01 791.264 782.142C791.594 782.274 791.932 782.34 792.276 782.34C792.672 782.34 792.995 782.267 793.244 782.12C793.494 781.966 793.618 781.742 793.618 781.449C793.618 781.236 793.552 781.079 793.42 780.976C793.296 780.873 793.116 780.789 792.881 780.723C792.647 780.65 792.368 780.569 792.045 780.481C791.649 780.364 791.316 780.239 791.044 780.107C790.773 779.975 790.568 779.81 790.428 779.612C790.289 779.414 790.219 779.165 790.219 778.864C790.219 778.497 790.315 778.189 790.505 777.94C790.696 777.683 790.956 777.489 791.286 777.357C791.624 777.225 792.005 777.159 792.43 777.159C792.856 777.159 793.241 777.225 793.585 777.357C793.93 777.489 794.227 777.683 794.476 777.94L794.036 778.611C793.809 778.376 793.56 778.204 793.288 778.094C793.017 777.977 792.713 777.918 792.375 777.918C792.177 777.918 791.983 777.944 791.792 777.995C791.602 778.039 791.444 778.123 791.319 778.248C791.195 778.365 791.132 778.534 791.132 778.754C791.132 778.937 791.18 779.084 791.275 779.194C791.378 779.297 791.525 779.385 791.715 779.458C791.913 779.531 792.152 779.612 792.43 779.7C792.863 779.825 793.237 779.949 793.552 780.074C793.875 780.199 794.124 780.36 794.3 780.558C794.476 780.756 794.564 781.031 794.564 781.383C794.564 781.926 794.359 782.351 793.948 782.659C793.538 782.96 792.995 783.11 792.32 783.11ZM798.263 783.11C797.831 783.11 797.435 783.033 797.075 782.879C796.723 782.718 796.415 782.501 796.151 782.23C795.895 781.951 795.693 781.632 795.546 781.273C795.407 780.914 795.337 780.532 795.337 780.129C795.337 779.586 795.462 779.091 795.711 778.644C795.961 778.197 796.305 777.837 796.745 777.566C797.193 777.295 797.702 777.159 798.274 777.159C798.854 777.159 799.356 777.298 799.781 777.577C800.214 777.848 800.548 778.208 800.782 778.655C801.024 779.095 801.145 779.572 801.145 780.085C801.145 780.158 801.142 780.232 801.134 780.305C801.134 780.371 801.131 780.422 801.123 780.459H796.36C796.39 780.833 796.492 781.167 796.668 781.46C796.852 781.746 797.086 781.973 797.372 782.142C797.658 782.303 797.966 782.384 798.296 782.384C798.648 782.384 798.978 782.296 799.286 782.12C799.602 781.944 799.818 781.713 799.935 781.427L800.771 781.658C800.647 781.937 800.46 782.186 800.21 782.406C799.968 782.626 799.679 782.798 799.341 782.923C799.011 783.048 798.652 783.11 798.263 783.11ZM796.327 779.788H800.243C800.214 779.414 800.108 779.084 799.924 778.798C799.741 778.512 799.506 778.288 799.22 778.127C798.934 777.966 798.619 777.885 798.274 777.885C797.937 777.885 797.625 777.966 797.339 778.127C797.053 778.288 796.819 778.512 796.635 778.798C796.459 779.084 796.357 779.414 796.327 779.788ZM805.257 778.105C804.773 778.112 804.344 778.237 803.97 778.479C803.604 778.714 803.343 779.04 803.189 779.458V783H802.221V777.258H803.123V778.589C803.321 778.193 803.582 777.874 803.904 777.632C804.234 777.383 804.579 777.243 804.938 777.214C805.012 777.214 805.074 777.214 805.125 777.214C805.177 777.214 805.221 777.218 805.257 777.225V778.105ZM807.868 783L805.613 777.258H806.625L808.429 782.076L810.233 777.258H811.179L808.924 783H807.868ZM814.495 783.11C814.062 783.11 813.666 783.033 813.307 782.879C812.955 782.718 812.647 782.501 812.383 782.23C812.126 781.951 811.925 781.632 811.778 781.273C811.639 780.914 811.569 780.532 811.569 780.129C811.569 779.586 811.694 779.091 811.943 778.644C812.192 778.197 812.537 777.837 812.977 777.566C813.424 777.295 813.934 777.159 814.506 777.159C815.085 777.159 815.588 777.298 816.013 777.577C816.446 777.848 816.779 778.208 817.014 778.655C817.256 779.095 817.377 779.572 817.377 780.085C817.377 780.158 817.373 780.232 817.366 780.305C817.366 780.371 817.362 780.422 817.355 780.459H812.592C812.621 780.833 812.724 781.167 812.9 781.46C813.083 781.746 813.318 781.973 813.604 782.142C813.89 782.303 814.198 782.384 814.528 782.384C814.88 782.384 815.21 782.296 815.518 782.12C815.833 781.944 816.05 781.713 816.167 781.427L817.003 781.658C816.878 781.937 816.691 782.186 816.442 782.406C816.2 782.626 815.91 782.798 815.573 782.923C815.243 783.048 814.884 783.11 814.495 783.11ZM812.559 779.788H816.475C816.446 779.414 816.339 779.084 816.156 778.798C815.973 778.512 815.738 778.288 815.452 778.127C815.166 777.966 814.851 777.885 814.506 777.885C814.169 777.885 813.857 777.966 813.571 778.127C813.285 778.288 813.05 778.512 812.867 778.798C812.691 779.084 812.588 779.414 812.559 779.788ZM818.079 780.14C818.079 779.597 818.189 779.102 818.409 778.655C818.636 778.2 818.944 777.837 819.333 777.566C819.729 777.295 820.18 777.159 820.686 777.159C821.148 777.159 821.562 777.28 821.929 777.522C822.296 777.764 822.582 778.057 822.787 778.402V774.97H823.755V781.9C823.755 782.017 823.777 782.105 823.821 782.164C823.872 782.215 823.953 782.245 824.063 782.252V783C823.88 783.029 823.737 783.044 823.634 783.044C823.443 783.044 823.275 782.978 823.128 782.846C822.989 782.714 822.919 782.567 822.919 782.406V781.922C822.692 782.289 822.387 782.578 822.006 782.791C821.625 783.004 821.229 783.11 820.818 783.11C820.422 783.11 820.055 783.033 819.718 782.879C819.388 782.718 819.098 782.498 818.849 782.219C818.607 781.94 818.416 781.625 818.277 781.273C818.145 780.914 818.079 780.536 818.079 780.14ZM822.787 780.987V779.337C822.699 779.088 822.556 778.864 822.358 778.666C822.16 778.461 821.936 778.299 821.687 778.182C821.445 778.057 821.203 777.995 820.961 777.995C820.675 777.995 820.415 778.057 820.18 778.182C819.953 778.299 819.755 778.461 819.586 778.666C819.425 778.864 819.3 779.091 819.212 779.348C819.124 779.605 819.08 779.872 819.08 780.151C819.08 780.437 819.128 780.708 819.223 780.965C819.326 781.222 819.465 781.449 819.641 781.647C819.824 781.845 820.033 781.999 820.268 782.109C820.51 782.219 820.77 782.274 821.049 782.274C821.225 782.274 821.405 782.241 821.588 782.175C821.779 782.109 821.958 782.017 822.127 781.9C822.296 781.783 822.439 781.647 822.556 781.493C822.673 781.332 822.75 781.163 822.787 780.987ZM825.294 783V781.768H826.108V783H825.294Z" fill="#EFEFEF"/>
</g>
<g filter="url(#filter1_d_63_59)">
<path d="M512.553 382.722C519.242 385.812 525.799 388.854 532.4 391.796C533.828 392.433 535.4 392.781 536.936 393.121C537.473 393.24 538.371 393.119 538.616 392.768C538.856 392.423 538.672 391.48 538.337 391.085C536.201 388.56 534.134 385.943 531.739 383.679C527.482 379.659 523.009 375.868 518.658 371.794C519.262 372.076 519.918 372.282 520.46 372.653C532.176 380.676 543.772 388.871 554.161 398.603C556.391 400.692 558.321 403.186 560.008 405.745C561.72 408.344 560.709 410.062 557.606 410.426C553.242 410.938 549.102 409.761 544.994 408.57C533.898 405.352 523.319 400.776 512.826 396.016C504.696 392.327 496.656 388.439 488.45 384.581C485.458 388.604 483.225 393.208 481.44 398.051C477.822 407.869 475.916 418.096 474.329 428.383C473.102 436.334 472.115 444.323 470.81 452.375C470.559 450.658 470.327 448.938 470.054 447.225C468.173 435.422 466.541 423.57 464.315 411.832C462.533 402.434 459.445 393.401 453.991 385.364C448.381 377.097 440.44 371.958 431.275 368.497C420.708 364.507 409.658 362.53 398.547 360.874C391.048 359.756 383.524 358.804 376 357.68C392.764 355.403 409.615 353.637 426.199 348.723C421.62 345.446 417.261 342.403 412.983 339.249C404.088 332.69 395.234 326.059 387.492 318.126C385.315 315.895 383.393 313.317 381.806 310.632C379.85 307.324 381.292 305.104 385.121 304.951C390.39 304.741 395.348 306.296 400.247 307.878C415.248 312.724 429.585 319.211 443.839 325.882C444.104 326.006 444.335 326.199 444.582 326.36C444.523 326.507 444.464 326.655 444.405 326.802C443.106 326.33 441.806 325.864 440.511 325.385C431.13 321.915 421.822 318.212 411.955 316.274C410.727 316.033 409.451 315.887 408.207 315.94C407.433 315.973 406.677 316.462 405.913 316.746C405.82 316.99 405.727 317.234 405.634 317.478C407.339 319.178 408.886 321.084 410.776 322.545C420.427 330.008 431.041 335.945 441.661 341.802C451.273 335.874 456.961 327.066 460.633 316.745C464.27 306.524 466.224 295.913 467.766 285.221C468.799 278.058 469.659 270.871 470.603 263.695C470.634 263.46 470.744 263.235 471.098 263C471.487 266.227 471.837 269.459 472.27 272.68C473.925 284.982 475.594 297.286 478.86 309.296C481.055 317.366 483.984 325.126 489.143 331.847C494.818 339.24 502.402 343.921 511.018 347.112C520.411 350.59 530.177 352.531 540.035 354.035C548.594 355.34 557.181 356.464 565.792 357.843C561.914 358.34 558.035 358.825 554.158 359.335C541.784 360.962 529.431 362.721 517.409 366.216C511.157 368.033 505.111 370.357 499.62 373.942C499.251 374.183 498.889 374.434 498.539 374.701C498.457 374.763 498.439 374.909 498.294 375.235C502.999 377.698 507.718 380.168 512.553 382.722ZM467.618 322.819C466.143 328.075 465.078 333.49 463.103 338.55C459.606 347.512 451.834 351.664 443.208 354.194C437.803 355.78 432.165 356.576 426.684 357.715C426.984 357.791 427.385 357.904 427.792 357.995C433.265 359.22 438.802 360.217 444.196 361.722C450.937 363.603 456.998 366.738 460.986 372.879C463.917 377.394 465.74 382.391 466.606 387.625C468.02 396.17 469.045 404.78 470.213 413.366C470.42 414.886 470.523 416.421 470.675 417.949C471.681 412.667 472.001 407.395 472.852 402.209C474.013 395.13 475.227 388.025 477.066 381.102C479.055 373.614 483.505 367.63 490.779 364.41C494.785 362.636 499.045 361.368 503.282 360.203C507.086 359.158 511.015 358.566 514.889 357.773C509.386 356.513 503.907 355.395 498.505 353.981C493.217 352.597 488.271 350.407 484.22 346.566C479.941 342.509 477.728 337.32 476.198 331.781C473.182 320.862 472.366 309.613 471.261 298.409C471.225 298.045 471.097 297.691 471.013 297.332C470.257 301.517 469.896 305.669 469.406 309.806C468.903 314.044 468.274 318.267 467.618 322.819Z" fill="#FCFCFC"/>
<path d="M467.177 353.753C470.056 350.135 469.99 345.721 470.887 341.33C471.489 344.328 471.953 346.99 472.569 349.616C473.458 353.41 476.055 355.499 479.739 356.307C482.046 356.814 484.386 357.171 486.742 357.822C485.341 358.067 483.937 358.3 482.538 358.563C481.487 358.761 480.439 358.977 479.398 359.22C475.501 360.132 473.14 362.568 472.352 366.48C471.857 368.938 471.457 371.415 470.916 374.43C470.498 371.973 470.165 370.029 469.835 368.084C468.857 362.312 466.647 360.004 460.916 358.862C458.852 358.451 456.767 358.142 454.256 357.711C458.929 356.762 463.493 356.868 467.177 353.753Z" fill="#F7F7F7"/>
<path d="M616.152 369.953V320.488H619.705V366.748H649.245V369.953H616.152ZM689.588 366.748V369.953H656.634V320.488H688.961V323.693H660.187V343.13H685.338V346.196H660.187V366.748H689.588ZM714.829 320.488H717.895L738.795 369.953H735.033L728.136 353.65H704.518L697.621 369.953H693.789L714.829 320.488ZM727.161 350.724L716.362 324.807L705.354 350.724H727.161ZM746.306 369.953V320.488H762.748C767.996 320.488 772.339 321.603 775.776 323.832C779.26 326.015 781.861 328.988 783.579 332.75C785.344 336.465 786.227 340.599 786.227 345.151C786.227 350.167 785.274 354.533 783.37 358.249C781.466 361.964 778.749 364.844 775.219 366.888C771.689 368.931 767.532 369.953 762.748 369.953H746.306ZM782.673 345.151C782.673 341.017 781.884 337.325 780.305 334.073C778.772 330.822 776.519 328.291 773.547 326.479C770.621 324.622 767.021 323.693 762.748 323.693H749.859V366.748H762.748C767.068 366.748 770.714 365.796 773.686 363.892C776.659 361.988 778.888 359.41 780.374 356.159C781.907 352.861 782.673 349.192 782.673 345.151ZM815.271 370.301C812.02 370.301 808.978 369.628 806.144 368.281C803.311 366.934 800.826 365.076 798.69 362.708C796.6 360.339 794.951 357.645 793.743 354.626C792.582 351.607 792.002 348.402 792.002 345.012C792.002 341.621 792.582 338.439 793.743 335.467C794.951 332.494 796.6 329.847 798.69 327.524C800.826 325.202 803.311 323.391 806.144 322.09C809.024 320.79 812.159 320.14 815.55 320.14C820.241 320.14 824.189 321.138 827.394 323.135C830.645 325.086 833.083 327.687 834.709 330.938L828.717 335.258C827.417 332.564 825.559 330.544 823.144 329.197C820.775 327.85 818.174 327.176 815.341 327.176C813.018 327.176 810.905 327.664 809.001 328.639C807.097 329.615 805.448 330.962 804.054 332.68C802.707 334.352 801.686 336.28 800.989 338.463C800.292 340.599 799.944 342.852 799.944 345.221C799.944 347.729 800.339 350.074 801.128 352.257C801.918 354.44 803.033 356.368 804.472 358.04C805.912 359.665 807.607 360.943 809.558 361.871C811.509 362.8 813.622 363.265 815.898 363.265C818.592 363.265 821.147 362.591 823.562 361.244C826.023 359.851 828.322 357.784 830.459 355.044V362.986C826.14 367.863 821.077 370.301 815.271 370.301ZM829.693 350.724H819.312V344.942H836.242V369.953H829.693V350.724ZM879.071 363.056V369.953H845.142V320.488H878.444V327.385H852.945V341.458H875.03V347.938H852.945V363.056H879.071ZM894.923 334.979V369.953H887.12V320.488H893.53L921.537 356.228V320.558H929.41V369.953H922.582L894.923 334.979ZM957.742 369.953V320.488H978.504C980.733 320.488 982.777 320.952 984.635 321.881C986.492 322.81 988.118 324.041 989.511 325.574C990.905 327.106 991.973 328.825 992.716 330.729C993.459 332.634 993.831 334.584 993.831 336.582C993.831 339.322 993.204 341.946 991.95 344.454C990.742 346.916 989 348.913 986.725 350.446C984.495 351.978 981.894 352.745 978.922 352.745H965.545V369.953H957.742ZM965.545 345.848H978.434C979.92 345.848 981.221 345.453 982.335 344.663C983.45 343.827 984.309 342.712 984.913 341.319C985.563 339.926 985.889 338.346 985.889 336.582C985.889 334.77 985.517 333.168 984.774 331.774C984.031 330.381 983.055 329.313 981.848 328.57C980.687 327.78 979.409 327.385 978.016 327.385H965.545V345.848ZM1020.66 340.135C1017.68 340.181 1015.04 340.855 1012.71 342.155C1010.44 343.456 1008.81 345.29 1007.84 347.659V369.953H1000.17V333.516H1007.28V341.667C1008.53 339.159 1010.18 337.162 1012.23 335.676C1014.27 334.143 1016.43 333.307 1018.71 333.168C1019.17 333.168 1019.54 333.168 1019.82 333.168C1020.15 333.168 1020.42 333.191 1020.66 333.237V340.135ZM1041.92 370.65C1039.04 370.65 1036.47 370.162 1034.19 369.187C1031.91 368.165 1029.94 366.772 1028.27 365.007C1026.64 363.242 1025.39 361.244 1024.51 359.015C1023.62 356.739 1023.18 354.324 1023.18 351.769C1023.18 349.215 1023.62 346.8 1024.51 344.524C1025.39 342.248 1026.64 340.251 1028.27 338.532C1029.94 336.767 1031.91 335.397 1034.19 334.422C1036.51 333.4 1039.09 332.889 1041.92 332.889C1044.76 332.889 1047.31 333.4 1049.59 334.422C1051.91 335.397 1053.88 336.767 1055.51 338.532C1057.18 340.251 1058.46 342.248 1059.34 344.524C1060.22 346.8 1060.67 349.215 1060.67 351.769C1060.67 354.324 1060.22 356.739 1059.34 359.015C1058.46 361.244 1057.18 363.242 1055.51 365.007C1053.88 366.772 1051.91 368.165 1049.59 369.187C1047.31 370.162 1044.76 370.65 1041.92 370.65ZM1031.06 351.839C1031.06 354.161 1031.54 356.251 1032.52 358.109C1033.49 359.967 1034.79 361.43 1036.42 362.499C1038.05 363.567 1039.88 364.101 1041.92 364.101C1043.92 364.101 1045.73 363.567 1047.36 362.499C1049.03 361.384 1050.35 359.898 1051.33 358.04C1052.3 356.135 1052.79 354.045 1052.79 351.769C1052.79 349.447 1052.3 347.357 1051.33 345.499C1050.35 343.641 1049.03 342.178 1047.36 341.11C1045.73 339.995 1043.92 339.438 1041.92 339.438C1039.88 339.438 1038.05 339.995 1036.42 341.11C1034.79 342.225 1033.49 343.711 1032.52 345.569C1031.54 347.38 1031.06 349.47 1031.06 351.839Z" fill="white"/>
<path d="M614.974 408.553V391.449H622.153C622.924 391.449 623.63 391.61 624.273 391.931C624.915 392.252 625.477 392.678 625.959 393.208C626.441 393.738 626.81 394.332 627.067 394.991C627.324 395.649 627.453 396.324 627.453 397.014C627.453 397.962 627.236 398.869 626.802 399.736C626.385 400.587 625.782 401.278 624.996 401.808C624.225 402.338 623.325 402.603 622.297 402.603H617.672V408.553H614.974ZM617.672 400.218H622.129C622.643 400.218 623.092 400.082 623.478 399.809C623.863 399.519 624.16 399.134 624.369 398.652C624.594 398.17 624.706 397.624 624.706 397.014C624.706 396.388 624.578 395.834 624.321 395.352C624.064 394.87 623.727 394.501 623.309 394.244C622.908 393.971 622.466 393.834 621.984 393.834H617.672V400.218ZM639.167 408.794C638.172 408.794 637.28 408.625 636.493 408.288C635.706 407.935 635.024 407.453 634.446 406.843C633.883 406.233 633.45 405.542 633.145 404.771C632.84 403.984 632.687 403.149 632.687 402.266C632.687 401.382 632.84 400.547 633.145 399.76C633.45 398.973 633.883 398.283 634.446 397.689C635.024 397.078 635.706 396.605 636.493 396.267C637.296 395.914 638.188 395.737 639.167 395.737C640.147 395.737 641.03 395.914 641.817 396.267C642.62 396.605 643.303 397.078 643.865 397.689C644.443 398.283 644.885 398.973 645.19 399.76C645.495 400.547 645.647 401.382 645.647 402.266C645.647 403.149 645.495 403.984 645.19 404.771C644.885 405.542 644.443 406.233 643.865 406.843C643.303 407.453 642.62 407.935 641.817 408.288C641.03 408.625 640.147 408.794 639.167 408.794ZM635.409 402.29C635.409 403.093 635.578 403.816 635.915 404.458C636.252 405.1 636.702 405.606 637.264 405.976C637.826 406.345 638.461 406.53 639.167 406.53C639.858 406.53 640.484 406.345 641.046 405.976C641.624 405.59 642.082 405.076 642.419 404.434C642.757 403.775 642.925 403.053 642.925 402.266C642.925 401.463 642.757 400.74 642.419 400.098C642.082 399.455 641.624 398.949 641.046 398.58C640.484 398.195 639.858 398.002 639.167 398.002C638.461 398.002 637.826 398.195 637.264 398.58C636.702 398.965 636.252 399.479 635.915 400.122C635.578 400.748 635.409 401.471 635.409 402.29ZM667.376 395.954H669.906L664.606 408.553H662.341L660.077 402.868L657.813 408.553H655.548L650.224 395.954H652.754L656.801 405.976L658.583 401.326L656.415 395.978H658.656L660.077 399.905L661.474 395.978H663.715L661.571 401.326L663.353 405.976L667.376 395.954ZM681.047 408.794C680.068 408.794 679.176 408.625 678.373 408.288C677.586 407.935 676.904 407.461 676.326 406.867C675.748 406.257 675.298 405.566 674.977 404.795C674.672 404.008 674.519 403.173 674.519 402.29C674.519 401.101 674.792 400.017 675.338 399.038C675.884 398.042 676.647 397.247 677.627 396.653C678.606 396.042 679.755 395.737 681.071 395.737C682.388 395.737 683.521 396.042 684.468 396.653C685.432 397.247 686.179 398.034 686.709 399.014C687.239 399.993 687.504 401.045 687.504 402.169C687.504 402.362 687.495 402.547 687.479 402.723C687.463 402.884 687.447 403.021 687.431 403.133H677.338C677.386 403.872 677.586 404.522 677.94 405.084C678.309 405.63 678.775 406.064 679.337 406.385C679.899 406.69 680.501 406.843 681.144 406.843C681.85 406.843 682.517 406.666 683.143 406.313C683.786 405.96 684.219 405.494 684.444 404.916L686.709 405.566C686.436 406.176 686.018 406.73 685.456 407.228C684.91 407.71 684.259 408.096 683.505 408.385C682.75 408.658 681.931 408.794 681.047 408.794ZM677.265 401.374H684.878C684.83 400.652 684.621 400.017 684.251 399.471C683.898 398.909 683.44 398.476 682.878 398.17C682.332 397.849 681.722 397.689 681.047 397.689C680.389 397.689 679.779 397.849 679.217 398.17C678.67 398.476 678.221 398.909 677.867 399.471C677.514 400.017 677.313 400.652 677.265 401.374ZM700.843 398.243C699.815 398.259 698.9 398.492 698.097 398.941C697.31 399.391 696.747 400.025 696.41 400.844V408.553H693.76V395.954H696.218V398.773C696.651 397.905 697.221 397.215 697.928 396.701C698.635 396.171 699.381 395.882 700.168 395.834C700.329 395.834 700.457 395.834 700.554 395.834C700.666 395.834 700.762 395.842 700.843 395.858V398.243ZM712.34 408.794C711.36 408.794 710.469 408.625 709.666 408.288C708.879 407.935 708.196 407.461 707.618 406.867C707.04 406.257 706.59 405.566 706.269 404.795C705.964 404.008 705.812 403.173 705.812 402.29C705.812 401.101 706.085 400.017 706.631 399.038C707.177 398.042 707.939 397.247 708.919 396.653C709.899 396.042 711.047 395.737 712.364 395.737C713.681 395.737 714.813 396.042 715.761 396.653C716.724 397.247 717.471 398.034 718.001 399.014C718.531 399.993 718.796 401.045 718.796 402.169C718.796 402.362 718.788 402.547 718.772 402.723C718.756 402.884 718.74 403.021 718.724 403.133H708.63C708.678 403.872 708.879 404.522 709.232 405.084C709.602 405.63 710.067 406.064 710.63 406.385C711.192 406.69 711.794 406.843 712.436 406.843C713.143 406.843 713.809 406.666 714.436 406.313C715.078 405.96 715.512 405.494 715.737 404.916L718.001 405.566C717.728 406.176 717.311 406.73 716.748 407.228C716.202 407.71 715.552 408.096 714.797 408.385C714.042 408.658 713.223 408.794 712.34 408.794ZM708.558 401.374H716.17C716.122 400.652 715.913 400.017 715.544 399.471C715.191 398.909 714.733 398.476 714.171 398.17C713.625 397.849 713.014 397.689 712.34 397.689C711.681 397.689 711.071 397.849 710.509 398.17C709.963 398.476 709.513 398.909 709.16 399.471C708.807 400.017 708.606 400.652 708.558 401.374ZM724.258 402.266C724.258 401.061 724.499 399.969 724.981 398.989C725.478 397.994 726.153 397.207 727.004 396.629C727.855 396.034 728.835 395.737 729.943 395.737C730.907 395.737 731.774 395.986 732.545 396.484C733.332 396.982 733.942 397.6 734.376 398.339V390.968H737.026V405.566C737.026 405.871 737.082 406.088 737.194 406.216C737.307 406.345 737.491 406.417 737.748 406.433V408.553C737.25 408.634 736.865 408.674 736.592 408.674C736.094 408.674 735.669 408.529 735.315 408.24C734.978 407.951 734.801 407.606 734.785 407.204L734.761 406.265C734.279 407.068 733.629 407.694 732.81 408.144C731.991 408.577 731.14 408.794 730.256 408.794C729.389 408.794 728.586 408.625 727.847 408.288C727.125 407.951 726.49 407.477 725.944 406.867C725.414 406.257 724.997 405.558 724.692 404.771C724.402 403.984 724.258 403.149 724.258 402.266ZM734.376 404.024V400.724C734.199 400.21 733.91 399.752 733.508 399.351C733.123 398.933 732.681 398.604 732.184 398.363C731.702 398.122 731.22 398.002 730.738 398.002C730.176 398.002 729.662 398.122 729.196 398.363C728.747 398.604 728.353 398.925 728.016 399.327C727.695 399.728 727.446 400.186 727.269 400.7C727.093 401.214 727.004 401.752 727.004 402.314C727.004 402.892 727.101 403.438 727.293 403.952C727.486 404.45 727.759 404.9 728.112 405.301C728.482 405.687 728.899 405.992 729.365 406.216C729.847 406.425 730.369 406.53 730.931 406.53C731.284 406.53 731.638 406.465 731.991 406.337C732.36 406.208 732.705 406.032 733.027 405.807C733.364 405.582 733.645 405.317 733.87 405.012C734.111 404.707 734.279 404.378 734.376 404.024ZM761.327 408.794C760.364 408.794 759.489 408.569 758.702 408.12C757.931 407.654 757.32 407.036 756.871 406.265V408.553H754.534V390.968H757.184V398.339C757.682 397.536 758.3 396.902 759.039 396.436C759.794 395.97 760.677 395.737 761.689 395.737C762.524 395.737 763.287 395.914 763.977 396.267C764.668 396.621 765.254 397.102 765.736 397.713C766.234 398.323 766.611 399.022 766.868 399.809C767.141 400.595 767.278 401.431 767.278 402.314C767.278 403.197 767.125 404.032 766.82 404.819C766.531 405.606 766.113 406.297 765.567 406.891C765.021 407.485 764.387 407.951 763.664 408.288C762.957 408.625 762.179 408.794 761.327 408.794ZM760.629 406.53C761.207 406.53 761.737 406.417 762.219 406.192C762.701 405.951 763.118 405.638 763.471 405.253C763.825 404.867 764.09 404.418 764.266 403.904C764.459 403.39 764.555 402.86 764.555 402.314C764.555 401.559 764.395 400.852 764.074 400.194C763.769 399.536 763.335 399.006 762.773 398.604C762.211 398.203 761.56 398.002 760.822 398.002C760.292 398.002 759.794 398.13 759.328 398.387C758.862 398.628 758.445 398.957 758.075 399.375C757.722 399.776 757.425 400.226 757.184 400.724V404.048C757.28 404.418 757.449 404.755 757.69 405.06C757.931 405.349 758.212 405.606 758.533 405.831C758.854 406.04 759.199 406.208 759.569 406.337C759.938 406.465 760.292 406.53 760.629 406.53ZM773.766 411.516C774.007 411.548 774.24 411.581 774.465 411.613C774.706 411.661 774.899 411.685 775.043 411.685C775.316 411.685 775.549 411.597 775.742 411.42C775.95 411.259 776.159 410.954 776.368 410.505C776.577 410.055 776.834 409.404 777.139 408.553L771.96 395.954H774.73L778.584 405.855L782.005 395.954H784.559L778.849 411.468C778.673 411.934 778.416 412.359 778.078 412.745C777.741 413.146 777.324 413.46 776.826 413.684C776.328 413.909 775.742 414.022 775.067 414.022C774.874 414.022 774.674 414.006 774.465 413.973C774.256 413.941 774.023 413.893 773.766 413.829V411.516ZM813.794 404.145C813.794 405.06 813.553 405.847 813.071 406.506C812.605 407.164 811.971 407.67 811.168 408.023C810.365 408.377 809.482 408.553 808.518 408.553H800.352V391.449H809.168C809.971 391.449 810.662 391.666 811.24 392.1C811.834 392.517 812.284 393.063 812.589 393.738C812.91 394.396 813.071 395.087 813.071 395.81C813.071 396.645 812.854 397.432 812.421 398.17C812.003 398.893 811.401 399.431 810.614 399.784C811.594 400.074 812.364 400.604 812.927 401.374C813.505 402.129 813.794 403.053 813.794 404.145ZM811.023 403.639C811.023 403.157 810.919 402.723 810.71 402.338C810.518 401.936 810.245 401.615 809.891 401.374C809.554 401.117 809.152 400.989 808.687 400.989H803.05V406.216H808.518C809 406.216 809.425 406.104 809.795 405.879C810.18 405.638 810.477 405.325 810.686 404.94C810.911 404.538 811.023 404.105 811.023 403.639ZM803.05 393.786V398.821H808.012C808.462 398.821 808.863 398.716 809.217 398.508C809.57 398.283 809.851 397.986 810.06 397.616C810.269 397.231 810.373 396.797 810.373 396.315C810.373 395.818 810.277 395.384 810.084 395.015C809.891 394.629 809.626 394.332 809.289 394.123C808.968 393.898 808.59 393.786 808.157 393.786H803.05ZM820.703 408.553V391.449H823.401V406.168H832.579V408.553H820.703ZM845.479 408.674C844.114 408.674 842.958 408.441 842.011 407.975C841.079 407.509 840.324 406.875 839.746 406.072C839.184 405.269 838.766 404.354 838.493 403.326C838.236 402.298 838.108 401.23 838.108 400.122V391.449H840.806V400.122C840.806 400.909 840.886 401.672 841.047 402.41C841.208 403.133 841.464 403.783 841.818 404.362C842.171 404.94 842.645 405.397 843.239 405.735C843.849 406.072 844.596 406.241 845.479 406.241C846.379 406.241 847.126 406.072 847.72 405.735C848.33 405.381 848.804 404.916 849.141 404.337C849.495 403.743 849.751 403.085 849.912 402.362C850.073 401.639 850.153 400.893 850.153 400.122V391.449H852.875V400.122C852.875 401.294 852.731 402.402 852.442 403.446C852.168 404.474 851.735 405.381 851.141 406.168C850.562 406.939 849.808 407.549 848.876 407.999C847.945 408.449 846.812 408.674 845.479 408.674ZM872.291 406.168V408.553H860.559V391.449H872.074V393.834H863.257V398.7H870.893V400.941H863.257V406.168H872.291ZM889.287 395.472C889.126 395.296 888.894 395.111 888.588 394.918C888.283 394.709 887.922 394.517 887.504 394.34C887.087 394.163 886.637 394.019 886.155 393.906C885.674 393.794 885.176 393.738 884.662 393.738C883.538 393.738 882.702 393.947 882.156 394.364C881.61 394.782 881.337 395.36 881.337 396.099C881.337 396.645 881.49 397.078 881.795 397.4C882.1 397.705 882.566 397.962 883.192 398.17C883.819 398.379 884.606 398.604 885.553 398.845C886.709 399.118 887.713 399.447 888.564 399.833C889.415 400.202 890.066 400.7 890.516 401.326C890.965 401.953 891.19 402.78 891.19 403.807C891.19 404.675 891.03 405.422 890.708 406.048C890.387 406.674 889.937 407.188 889.359 407.59C888.781 407.975 888.115 408.264 887.36 408.457C886.605 408.634 885.794 408.722 884.927 408.722C884.076 408.722 883.224 408.634 882.373 408.457C881.538 408.28 880.735 408.023 879.964 407.686C879.209 407.333 878.511 406.907 877.868 406.409L879.097 404.097C879.306 404.305 879.603 404.538 879.988 404.795C880.39 405.036 880.847 405.269 881.361 405.494C881.891 405.719 882.462 405.911 883.072 406.072C883.698 406.216 884.333 406.289 884.975 406.289C886.051 406.289 886.87 406.104 887.432 405.735C888.01 405.349 888.299 404.803 888.299 404.097C888.299 403.518 888.115 403.061 887.745 402.723C887.376 402.37 886.838 402.073 886.131 401.832C885.425 401.591 884.581 401.35 883.602 401.109C882.478 400.804 881.538 400.475 880.783 400.122C880.028 399.752 879.458 399.287 879.073 398.724C878.703 398.146 878.519 397.416 878.519 396.532C878.519 395.408 878.792 394.461 879.338 393.69C879.884 392.903 880.623 392.317 881.554 391.931C882.502 391.53 883.562 391.329 884.734 391.329C885.505 391.329 886.236 391.417 886.926 391.594C887.617 391.754 888.259 391.979 888.853 392.268C889.464 392.557 890.018 392.887 890.516 393.256L889.287 395.472ZM910.542 393.834H904.857V408.553H902.135V393.834H896.426V391.449H910.542V393.834ZM920.27 391.449H922.824L929.472 408.553H926.63L924.823 403.904H918.222L916.44 408.553H913.573L920.27 391.449ZM924.293 401.904L921.547 394.412L918.704 401.904H924.293ZM935.683 408.553V391.449H943.127C943.898 391.449 944.604 391.61 945.247 391.931C945.889 392.252 946.443 392.678 946.909 393.208C947.391 393.738 947.76 394.332 948.017 394.991C948.29 395.649 948.427 396.324 948.427 397.014C948.427 397.769 948.29 398.492 948.017 399.182C947.744 399.873 947.351 400.467 946.837 400.965C946.339 401.463 945.753 401.824 945.078 402.049L949.101 408.553H946.066L942.356 402.603H938.381V408.553H935.683ZM938.381 400.218H943.103C943.6 400.218 944.042 400.074 944.428 399.784C944.813 399.495 945.118 399.11 945.343 398.628C945.568 398.13 945.68 397.592 945.68 397.014C945.68 396.42 945.552 395.89 945.295 395.424C945.038 394.942 944.701 394.557 944.283 394.268C943.882 393.979 943.44 393.834 942.958 393.834H938.381V400.218ZM960.643 391.449H963.197L969.846 408.553H967.003L965.196 403.904H958.596L956.813 408.553H953.946L960.643 391.449ZM964.666 401.904L961.92 394.412L959.078 401.904H964.666ZM976.056 408.553V391.449H978.754V408.553H976.056Z" fill="white"/>
</g>
</g>
<defs>
<filter id="filter0_f_63_59" x="-185.338" y="380.662" width="1810.68" height="550.677" filterUnits="userSpaceOnUse" color-interpolation-filters="sRGB">
<feFlood flood-opacity="0" result="BackgroundImageFix"/>
<feBlend mode="normal" in="SourceGraphic" in2="BackgroundImageFix" result="shape"/>
<feGaussianBlur stdDeviation="58.1692" result="effect1_foregroundBlur_63_59"/>
</filter>
<filter id="filter1_d_63_59" x="314.088" y="201.957" width="808.488" height="313.198" filterUnits="userSpaceOnUse" color-interpolation-filters="sRGB">
<feFlood flood-opacity="0" result="BackgroundImageFix"/>
<feColorMatrix in="SourceAlpha" type="matrix" values="0 0 0 0 0 0 0 0 0 0 0 0 0 0 0 0 0 0 127 0" result="hardAlpha"/>
<feMorphology radius="48" operator="dilate" in="SourceAlpha" result="effect1_dropShadow_63_59"/>
<feOffset dy="0.868692"/>
<feGaussianBlur stdDeviation="6.95585"/>
<feComposite in2="hardAlpha" operator="out"/>
<feColorMatrix type="matrix" values="0 0 0 0 0.192157 0 0 0 0 0.282353 0 0 0 0 0.72549 0 0 0 0.83 0"/>
<feBlend mode="normal" in2="BackgroundImageFix" result="effect1_dropShadow_63_59"/>
<feBlend mode="normal" in="SourceGraphic" in2="effect1_dropShadow_63_59" result="shape"/>
</filter>
<linearGradient id="paint0_linear_63_59" x1="720" y1="-390.916" x2="720" y2="1224.18" gradientUnits="userSpaceOnUse">
<stop offset="0.183763" stop-opacity="0"/>
<stop offset="0.370875" stop-color="#090D20"/>
<stop offset="0.510086" stop-color="#111940"/>
<stop offset="0.560981" stop-color="#182359"/>
<stop offset="0.610378" stop-color="#1F2E76"/>
<stop offset="0.699421" stop-color="#3148B9"/>
<stop offset="0.757363" stop-color="#788BE8"/>
</linearGradient>
<clipPath id="clip0_63_59">
<rect width="1440" height="820" fill="white"/>
</clipPath>
<clipPath id="clip1_63_59">
<rect width="1440" height="820" fill="white"/>
</clipPath>
</defs>
</svg>
