<svg width="427" height="212" viewBox="0 0 427 212" fill="none" xmlns="http://www.w3.org/2000/svg">
<rect x="0.5" y="0.5" width="426" height="211" rx="4.5" stroke="#9747FF" stroke-dasharray="10 5"/>
<rect x="20" y="20" width="387.56" height="44" rx="6" fill="white" fill-opacity="0.08"/>
<rect x="20.5" y="20.5" width="386.56" height="43" rx="5.5" stroke="white" stroke-opacity="0.06"/>
<path d="M40.4306 48.1988C40.9375 47.0044 42.1211 46.1667 43.5003 46.1667H48.5003C49.8796 46.1667 51.0631 47.0044 51.5701 48.1988M49.3337 39.9167C49.3337 41.7577 47.8413 43.2501 46.0003 43.2501C44.1594 43.2501 42.667 41.7577 42.667 39.9167C42.667 38.0758 44.1594 36.5834 46.0003 36.5834C47.8413 36.5834 49.3337 38.0758 49.3337 39.9167ZM54.3337 42.0001C54.3337 46.6025 50.6027 50.3334 46.0003 50.3334C41.398 50.3334 37.667 46.6025 37.667 42.0001C37.667 37.3977 41.398 33.6667 46.0003 33.6667C50.6027 33.6667 54.3337 37.3977 54.3337 42.0001Z" stroke="white" stroke-opacity="0.32" stroke-width="1.2" stroke-linecap="round" stroke-linejoin="round"/>
<path d="M67.622 50.08V49.072H68.168C68.5227 49.072 68.7747 48.9973 68.924 48.848C69.0733 48.708 69.148 48.4653 69.148 48.12V39.944H70.324V48.148C70.324 48.596 70.2493 48.96 70.1 49.24C69.9507 49.5293 69.7267 49.7393 69.428 49.87C69.1387 50.01 68.7793 50.08 68.35 50.08H67.622ZM69.75 38.446C69.5167 38.446 69.3207 38.3713 69.162 38.222C69.0127 38.0633 68.938 37.8673 68.938 37.634C68.938 37.4007 69.0127 37.214 69.162 37.074C69.3207 36.9247 69.5167 36.85 69.75 36.85C69.974 36.85 70.1607 36.9247 70.31 37.074C70.4687 37.214 70.548 37.4007 70.548 37.634C70.548 37.8673 70.4687 38.0633 70.31 38.222C70.1607 38.3713 69.974 38.446 69.75 38.446ZM75.5343 47.168C74.881 47.168 74.293 47.0187 73.7703 46.72C73.2476 46.412 72.837 45.9827 72.5383 45.432C72.2396 44.872 72.0903 44.2233 72.0903 43.486C72.0903 42.73 72.2396 42.0767 72.5383 41.526C72.8463 40.966 73.2616 40.5367 73.7843 40.238C74.3163 39.93 74.909 39.776 75.5623 39.776C76.2343 39.776 76.827 39.93 77.3403 40.238C77.863 40.5367 78.2736 40.966 78.5723 41.526C78.8803 42.0767 79.0343 42.7253 79.0343 43.472C79.0343 44.2187 78.8803 44.872 78.5723 45.432C78.2643 45.9827 77.849 46.412 77.3263 46.72C76.8036 47.0187 76.2063 47.168 75.5343 47.168ZM75.5483 46.16C75.9496 46.16 76.323 46.062 76.6683 45.866C77.0136 45.6607 77.2936 45.3573 77.5083 44.956C77.723 44.5547 77.8303 44.06 77.8303 43.472C77.8303 42.8747 77.723 42.38 77.5083 41.988C77.303 41.5867 77.0276 41.288 76.6823 41.092C76.3463 40.8867 75.973 40.784 75.5623 40.784C75.1703 40.784 74.797 40.8867 74.4423 41.092C74.097 41.288 73.817 41.5867 73.6023 41.988C73.397 42.38 73.2943 42.8747 73.2943 43.472C73.2943 44.06 73.397 44.5547 73.6023 44.956C73.817 45.3573 74.0923 45.6607 74.4283 45.866C74.7736 46.062 75.147 46.16 75.5483 46.16ZM80.6831 47V36.92H81.8591V41.134C82.0925 40.714 82.4191 40.3827 82.8391 40.14C83.2685 39.8973 83.7351 39.776 84.2391 39.776C84.7805 39.776 85.2518 39.888 85.6531 40.112C86.0545 40.3267 86.3625 40.658 86.5771 41.106C86.7918 41.554 86.8991 42.1187 86.8991 42.8V47H85.7371V42.926C85.7371 42.2167 85.5878 41.6847 85.2891 41.33C84.9905 40.966 84.5565 40.784 83.9871 40.784C83.5858 40.784 83.2218 40.882 82.8951 41.078C82.5778 41.274 82.3258 41.554 82.1391 41.918C81.9525 42.282 81.8591 42.73 81.8591 43.262V47H80.6831ZM88.7359 47V39.944H89.7999L89.8559 41.176C90.0799 40.7373 90.3972 40.3967 90.8079 40.154C91.2279 39.902 91.7039 39.776 92.2359 39.776C92.7865 39.776 93.2625 39.888 93.6639 40.112C94.0652 40.3267 94.3779 40.658 94.6019 41.106C94.8259 41.5447 94.9379 42.1047 94.9379 42.786V47H93.7619V42.912C93.7619 42.2027 93.6032 41.6707 93.2859 41.316C92.9779 40.9613 92.5392 40.784 91.9699 40.784C91.5779 40.784 91.2279 40.882 90.9199 41.078C90.6119 41.2647 90.3645 41.54 90.1779 41.904C90.0005 42.2587 89.9119 42.702 89.9119 43.234V47H88.7359ZM97.1949 47.07C96.9616 47.07 96.7656 46.9953 96.6069 46.846C96.4576 46.6873 96.3829 46.496 96.3829 46.272C96.3829 46.048 96.4576 45.8613 96.6069 45.712C96.7656 45.5533 96.9616 45.474 97.1949 45.474C97.4283 45.474 97.6196 45.5533 97.7689 45.712C97.9183 45.8613 97.9929 46.048 97.9929 46.272C97.9929 46.496 97.9183 46.6873 97.7689 46.846C97.6196 46.9953 97.4283 47.07 97.1949 47.07ZM102.21 47.168C101.622 47.168 101.109 47.07 100.67 46.874C100.241 46.678 99.8956 46.4073 99.6343 46.062C99.3823 45.7073 99.2283 45.292 99.1723 44.816H100.376C100.423 45.0587 100.521 45.2827 100.67 45.488C100.82 45.6933 101.02 45.8613 101.272 45.992C101.534 46.1133 101.851 46.174 102.224 46.174C102.551 46.174 102.822 46.1273 103.036 46.034C103.251 45.9313 103.41 45.796 103.512 45.628C103.624 45.46 103.68 45.278 103.68 45.082C103.68 44.7927 103.61 44.5733 103.47 44.424C103.34 44.2747 103.144 44.158 102.882 44.074C102.621 43.9807 102.304 43.9013 101.93 43.836C101.622 43.78 101.319 43.7053 101.02 43.612C100.722 43.5187 100.456 43.3973 100.222 43.248C99.989 43.0893 99.8023 42.898 99.6623 42.674C99.5316 42.45 99.4663 42.1747 99.4663 41.848C99.4663 41.4467 99.569 41.092 99.7743 40.784C99.9796 40.4667 100.274 40.2193 100.656 40.042C101.048 39.8647 101.501 39.776 102.014 39.776C102.77 39.776 103.382 39.958 103.848 40.322C104.315 40.686 104.59 41.2133 104.674 41.904H103.512C103.466 41.5493 103.312 41.274 103.05 41.078C102.798 40.8727 102.448 40.77 102 40.77C101.562 40.77 101.226 40.8587 100.992 41.036C100.768 41.2133 100.656 41.4467 100.656 41.736C100.656 41.9227 100.717 42.0907 100.838 42.24C100.969 42.38 101.156 42.5013 101.398 42.604C101.65 42.7067 101.958 42.7907 102.322 42.856C102.789 42.94 103.214 43.052 103.596 43.192C103.979 43.332 104.287 43.542 104.52 43.822C104.763 44.0927 104.884 44.48 104.884 44.984C104.884 45.4227 104.772 45.8053 104.548 46.132C104.334 46.4587 104.026 46.7153 103.624 46.902C103.223 47.0793 102.752 47.168 102.21 47.168ZM106.578 47V39.944H107.642L107.712 40.952C107.936 40.588 108.234 40.3033 108.608 40.098C108.99 39.8833 109.406 39.776 109.854 39.776C110.218 39.776 110.544 39.8273 110.834 39.93C111.132 40.0233 111.394 40.1727 111.618 40.378C111.842 40.574 112.024 40.826 112.164 41.134C112.406 40.7047 112.738 40.3733 113.158 40.14C113.587 39.8973 114.044 39.776 114.53 39.776C115.071 39.776 115.542 39.888 115.944 40.112C116.354 40.3267 116.667 40.658 116.882 41.106C117.106 41.5447 117.218 42.1047 117.218 42.786V47H116.056V42.912C116.056 42.2027 115.911 41.6707 115.622 41.316C115.332 40.9613 114.926 40.784 114.404 40.784C114.04 40.784 113.713 40.882 113.424 41.078C113.134 41.2647 112.906 41.54 112.738 41.904C112.57 42.268 112.486 42.716 112.486 43.248V47H111.31V42.912C111.31 42.2027 111.165 41.6707 110.876 41.316C110.586 40.9613 110.176 40.784 109.644 40.784C109.289 40.784 108.967 40.882 108.678 41.078C108.398 41.2647 108.174 41.54 108.006 41.904C107.838 42.268 107.754 42.716 107.754 43.248V47H106.578ZM119.158 47V39.944H120.334V47H119.158ZM119.746 38.446C119.513 38.446 119.317 38.3713 119.158 38.222C119.009 38.0633 118.934 37.8673 118.934 37.634C118.934 37.4007 119.009 37.214 119.158 37.074C119.317 36.9247 119.513 36.85 119.746 36.85C119.97 36.85 120.162 36.9247 120.32 37.074C120.479 37.214 120.558 37.4007 120.558 37.634C120.558 37.8673 120.479 38.0633 120.32 38.222C120.162 38.3713 119.97 38.446 119.746 38.446ZM125.182 47C124.762 47 124.398 46.9347 124.09 46.804C123.782 46.6733 123.544 46.454 123.376 46.146C123.217 45.8287 123.138 45.404 123.138 44.872V40.938H121.906V39.944H123.138L123.292 38.236H124.314V39.944H126.358V40.938H124.314V44.872C124.314 45.3107 124.402 45.6093 124.58 45.768C124.757 45.9173 125.07 45.992 125.518 45.992H126.274V47H125.182ZM127.892 47V36.92H129.068V41.134C129.301 40.714 129.628 40.3827 130.048 40.14C130.477 39.8973 130.944 39.776 131.448 39.776C131.989 39.776 132.461 39.888 132.862 40.112C133.263 40.3267 133.571 40.658 133.786 41.106C134.001 41.554 134.108 42.1187 134.108 42.8V47H132.946V42.926C132.946 42.2167 132.797 41.6847 132.498 41.33C132.199 40.966 131.765 40.784 131.196 40.784C130.795 40.784 130.431 40.882 130.104 41.078C129.787 41.274 129.535 41.554 129.348 41.918C129.161 42.282 129.068 42.73 129.068 43.262V47H127.892ZM140.985 49.786C140.005 49.786 139.142 49.59 138.395 49.198C137.648 48.8153 137.065 48.2647 136.645 47.546C136.234 46.8367 136.029 45.9967 136.029 45.026C136.029 44.0367 136.192 43.122 136.519 42.282C136.855 41.4327 137.326 40.6907 137.933 40.056C138.54 39.4213 139.263 38.9267 140.103 38.572C140.943 38.2173 141.872 38.04 142.889 38.04C143.916 38.04 144.807 38.2407 145.563 38.642C146.328 39.034 146.921 39.5847 147.341 40.294C147.761 41.0033 147.971 41.8247 147.971 42.758C147.971 43.2993 147.906 43.8267 147.775 44.34C147.654 44.8533 147.467 45.3153 147.215 45.726C146.963 46.1367 146.655 46.468 146.291 46.72C145.927 46.9627 145.507 47.084 145.031 47.084C144.471 47.084 144.065 46.9113 143.813 46.566C143.57 46.2207 143.482 45.7773 143.547 45.236L143.589 44.76L143.827 45.18C143.594 45.768 143.225 46.2347 142.721 46.58C142.217 46.916 141.666 47.084 141.069 47.084C140.369 47.084 139.823 46.8693 139.431 46.44C139.039 46.0107 138.843 45.4273 138.843 44.69C138.843 44.1767 138.922 43.6867 139.081 43.22C139.24 42.7533 139.464 42.338 139.753 41.974C140.052 41.6007 140.402 41.3067 140.803 41.092C141.214 40.8773 141.671 40.77 142.175 40.77C142.744 40.77 143.197 40.924 143.533 41.232C143.869 41.5307 144.065 41.974 144.121 42.562L143.841 42.744L144.163 40.924H145.157L144.457 44.942C144.392 45.334 144.41 45.656 144.513 45.908C144.625 46.1507 144.854 46.272 145.199 46.272C145.498 46.272 145.759 46.1647 145.983 45.95C146.216 45.7353 146.408 45.4553 146.557 45.11C146.716 44.7647 146.832 44.3913 146.907 43.99C146.982 43.5887 147.019 43.1967 147.019 42.814C147.019 41.9833 146.846 41.2787 146.501 40.7C146.156 40.112 145.661 39.6593 145.017 39.342C144.382 39.0247 143.626 38.866 142.749 38.866C141.9 38.866 141.12 39.02 140.411 39.328C139.711 39.636 139.104 40.07 138.591 40.63C138.078 41.1807 137.681 41.8247 137.401 42.562C137.121 43.29 136.981 44.0787 136.981 44.928C136.981 45.7867 137.149 46.5147 137.485 47.112C137.83 47.7093 138.32 48.162 138.955 48.47C139.59 48.7873 140.341 48.946 141.209 48.946C141.61 48.946 142.007 48.904 142.399 48.82C142.8 48.7453 143.174 48.6287 143.519 48.47L143.715 49.268C143.295 49.4453 142.856 49.576 142.399 49.66C141.942 49.744 141.47 49.786 140.985 49.786ZM141.405 46.188C141.806 46.188 142.17 46.0807 142.497 45.866C142.824 45.6513 143.094 45.3573 143.309 44.984C143.524 44.6013 143.654 44.158 143.701 43.654C143.748 43.29 143.72 42.9587 143.617 42.66C143.514 42.3613 143.346 42.1233 143.113 41.946C142.88 41.7593 142.576 41.666 142.203 41.666C141.839 41.666 141.517 41.75 141.237 41.918C140.957 42.0767 140.719 42.2913 140.523 42.562C140.327 42.8327 140.178 43.136 140.075 43.472C139.972 43.808 139.921 44.1533 139.921 44.508C139.921 45.012 140.047 45.418 140.299 45.726C140.551 46.034 140.92 46.188 141.405 46.188ZM152.799 50.248C152.165 50.248 151.6 50.164 151.105 49.996C150.62 49.8373 150.242 49.59 149.971 49.254C149.701 48.918 149.565 48.5027 149.565 48.008C149.565 47.7933 149.607 47.5647 149.691 47.322C149.785 47.0793 149.939 46.8413 150.153 46.608C150.377 46.3747 150.69 46.1647 151.091 45.978L151.903 46.454C151.409 46.6593 151.087 46.8927 150.937 47.154C150.788 47.4247 150.713 47.672 150.713 47.896C150.713 48.204 150.802 48.4607 150.979 48.666C151.157 48.8713 151.404 49.0253 151.721 49.128C152.039 49.2307 152.398 49.282 152.799 49.282C153.201 49.282 153.546 49.226 153.835 49.114C154.125 49.002 154.349 48.8433 154.507 48.638C154.666 48.4327 154.745 48.19 154.745 47.91C154.745 47.5833 154.624 47.308 154.381 47.084C154.139 46.8693 153.677 46.7433 152.995 46.706C152.445 46.6687 151.983 46.6173 151.609 46.552C151.236 46.4867 150.928 46.412 150.685 46.328C150.443 46.2347 150.237 46.132 150.069 46.02C149.911 45.908 149.766 45.7913 149.635 45.67V45.348L150.993 44.004L152.015 44.368L150.615 45.628L150.797 45.138C150.9 45.2127 150.998 45.2827 151.091 45.348C151.185 45.4133 151.311 45.4693 151.469 45.516C151.628 45.5627 151.847 45.6047 152.127 45.642C152.417 45.6793 152.795 45.7167 153.261 45.754C153.905 45.8007 154.419 45.9127 154.801 46.09C155.193 46.2673 155.473 46.5053 155.641 46.804C155.819 47.1027 155.907 47.4573 155.907 47.868C155.907 48.2693 155.795 48.6473 155.571 49.002C155.357 49.366 155.021 49.6647 154.563 49.898C154.106 50.1313 153.518 50.248 152.799 50.248ZM152.785 44.788C152.197 44.788 151.693 44.676 151.273 44.452C150.863 44.228 150.55 43.9293 150.335 43.556C150.121 43.1733 150.013 42.7487 150.013 42.282C150.013 41.8153 150.121 41.3953 150.335 41.022C150.559 40.6487 150.877 40.35 151.287 40.126C151.698 39.8927 152.197 39.776 152.785 39.776C153.373 39.776 153.873 39.8927 154.283 40.126C154.694 40.35 155.007 40.6487 155.221 41.022C155.436 41.3953 155.543 41.8153 155.543 42.282C155.543 42.7487 155.436 43.1733 155.221 43.556C155.007 43.9293 154.694 44.228 154.283 44.452C153.873 44.676 153.373 44.788 152.785 44.788ZM152.785 43.822C153.289 43.822 153.686 43.6913 153.975 43.43C154.265 43.1687 154.409 42.786 154.409 42.282C154.409 41.7873 154.265 41.4093 153.975 41.148C153.686 40.8867 153.289 40.756 152.785 40.756C152.291 40.756 151.889 40.8867 151.581 41.148C151.283 41.4093 151.133 41.7873 151.133 42.282C151.133 42.786 151.283 43.1687 151.581 43.43C151.88 43.6913 152.281 43.822 152.785 43.822ZM153.933 40.938L153.583 39.944H156.467V40.826L153.933 40.938ZM157.82 47V39.944H158.884L158.954 40.952C159.178 40.588 159.477 40.3033 159.85 40.098C160.233 39.8833 160.648 39.776 161.096 39.776C161.46 39.776 161.787 39.8273 162.076 39.93C162.375 40.0233 162.636 40.1727 162.86 40.378C163.084 40.574 163.266 40.826 163.406 41.134C163.649 40.7047 163.98 40.3733 164.4 40.14C164.829 39.8973 165.287 39.776 165.772 39.776C166.313 39.776 166.785 39.888 167.186 40.112C167.597 40.3267 167.909 40.658 168.124 41.106C168.348 41.5447 168.46 42.1047 168.46 42.786V47H167.298V42.912C167.298 42.2027 167.153 41.6707 166.864 41.316C166.575 40.9613 166.169 40.784 165.646 40.784C165.282 40.784 164.955 40.882 164.666 41.078C164.377 41.2647 164.148 41.54 163.98 41.904C163.812 42.268 163.728 42.716 163.728 43.248V47H162.552V42.912C162.552 42.2027 162.407 41.6707 162.118 41.316C161.829 40.9613 161.418 40.784 160.886 40.784C160.531 40.784 160.209 40.882 159.92 41.078C159.64 41.2647 159.416 41.54 159.248 41.904C159.08 42.268 158.996 42.716 158.996 43.248V47H157.82ZM172.585 47.168C172.015 47.168 171.539 47.07 171.157 46.874C170.774 46.6687 170.489 46.4027 170.303 46.076C170.116 45.74 170.023 45.376 170.023 44.984C170.023 44.508 170.144 44.1067 170.387 43.78C170.639 43.444 170.989 43.192 171.437 43.024C171.894 42.8467 172.431 42.758 173.047 42.758H174.909C174.909 42.3193 174.839 41.9553 174.699 41.666C174.568 41.3673 174.372 41.1433 174.111 40.994C173.859 40.8447 173.541 40.77 173.159 40.77C172.711 40.77 172.323 40.882 171.997 41.106C171.67 41.33 171.469 41.6613 171.395 42.1H170.191C170.247 41.596 170.415 41.176 170.695 40.84C170.984 40.4947 171.348 40.2333 171.787 40.056C172.225 39.8693 172.683 39.776 173.159 39.776C173.812 39.776 174.353 39.8973 174.783 40.14C175.221 40.3733 175.548 40.7047 175.763 41.134C175.977 41.554 176.085 42.0533 176.085 42.632V47H175.035L174.965 45.754C174.871 45.95 174.75 46.1367 174.601 46.314C174.461 46.482 174.293 46.6313 174.097 46.762C173.901 46.8833 173.677 46.9813 173.425 47.056C173.182 47.1307 172.902 47.168 172.585 47.168ZM172.767 46.174C173.093 46.174 173.387 46.1087 173.649 45.978C173.919 45.838 174.148 45.6513 174.335 45.418C174.521 45.1753 174.661 44.9093 174.755 44.62C174.857 44.3307 174.909 44.0273 174.909 43.71V43.668H173.145C172.687 43.668 172.319 43.724 172.039 43.836C171.759 43.9387 171.558 44.088 171.437 44.284C171.315 44.4707 171.255 44.6853 171.255 44.928C171.255 45.18 171.311 45.3993 171.423 45.586C171.544 45.7727 171.717 45.9173 171.941 46.02C172.174 46.1227 172.449 46.174 172.767 46.174ZM178.016 47V39.944H179.192V47H178.016ZM178.604 38.446C178.37 38.446 178.174 38.3713 178.016 38.222C177.866 38.0633 177.792 37.8673 177.792 37.634C177.792 37.4007 177.866 37.214 178.016 37.074C178.174 36.9247 178.37 36.85 178.604 36.85C178.828 36.85 179.019 36.9247 179.178 37.074C179.336 37.214 179.416 37.4007 179.416 37.634C179.416 37.8673 179.336 38.0633 179.178 38.222C179.019 38.3713 178.828 38.446 178.604 38.446ZM181.267 47V36.92H182.443V47H181.267ZM184.804 47.07C184.571 47.07 184.375 46.9953 184.216 46.846C184.067 46.6873 183.992 46.496 183.992 46.272C183.992 46.048 184.067 45.8613 184.216 45.712C184.375 45.5533 184.571 45.474 184.804 45.474C185.038 45.474 185.229 45.5533 185.378 45.712C185.528 45.8613 185.602 46.048 185.602 46.272C185.602 46.496 185.528 46.6873 185.378 46.846C185.229 46.9953 185.038 47.07 184.804 47.07ZM190.338 47.168C189.675 47.168 189.078 47.014 188.546 46.706C188.023 46.398 187.612 45.9687 187.314 45.418C187.015 44.858 186.866 44.214 186.866 43.486C186.866 42.7393 187.015 42.0907 187.314 41.54C187.612 40.9893 188.023 40.56 188.546 40.252C189.078 39.9347 189.675 39.776 190.338 39.776C191.178 39.776 191.878 39.9953 192.438 40.434C192.998 40.8633 193.352 41.442 193.502 42.17H192.298C192.204 41.7313 191.976 41.3907 191.612 41.148C191.248 40.9053 190.818 40.784 190.324 40.784C189.922 40.784 189.549 40.8867 189.204 41.092C188.858 41.288 188.583 41.5867 188.378 41.988C188.172 42.3893 188.07 42.884 188.07 43.472C188.07 43.9107 188.13 44.3027 188.252 44.648C188.373 44.984 188.536 45.264 188.742 45.488C188.947 45.712 189.185 45.8847 189.456 46.006C189.736 46.118 190.025 46.174 190.324 46.174C190.66 46.174 190.963 46.1227 191.234 46.02C191.504 45.908 191.733 45.7447 191.92 45.53C192.106 45.3153 192.232 45.0633 192.298 44.774H193.502C193.352 45.4833 192.993 46.062 192.424 46.51C191.864 46.9487 191.168 47.168 190.338 47.168ZM198.321 47.168C197.668 47.168 197.08 47.0187 196.557 46.72C196.035 46.412 195.624 45.9827 195.325 45.432C195.027 44.872 194.877 44.2233 194.877 43.486C194.877 42.73 195.027 42.0767 195.325 41.526C195.633 40.966 196.049 40.5367 196.571 40.238C197.103 39.93 197.696 39.776 198.349 39.776C199.021 39.776 199.614 39.93 200.127 40.238C200.65 40.5367 201.061 40.966 201.359 41.526C201.667 42.0767 201.821 42.7253 201.821 43.472C201.821 44.2187 201.667 44.872 201.359 45.432C201.051 45.9827 200.636 46.412 200.113 46.72C199.591 47.0187 198.993 47.168 198.321 47.168ZM198.335 46.16C198.737 46.16 199.11 46.062 199.455 45.866C199.801 45.6607 200.081 45.3573 200.295 44.956C200.51 44.5547 200.617 44.06 200.617 43.472C200.617 42.8747 200.51 42.38 200.295 41.988C200.09 41.5867 199.815 41.288 199.469 41.092C199.133 40.8867 198.76 40.784 198.349 40.784C197.957 40.784 197.584 40.8867 197.229 41.092C196.884 41.288 196.604 41.5867 196.389 41.988C196.184 42.38 196.081 42.8747 196.081 43.472C196.081 44.06 196.184 44.5547 196.389 44.956C196.604 45.3573 196.879 45.6607 197.215 45.866C197.561 46.062 197.934 46.16 198.335 46.16ZM203.47 47V39.944H204.534L204.604 40.952C204.828 40.588 205.127 40.3033 205.5 40.098C205.883 39.8833 206.298 39.776 206.746 39.776C207.11 39.776 207.437 39.8273 207.726 39.93C208.025 40.0233 208.286 40.1727 208.51 40.378C208.734 40.574 208.916 40.826 209.056 41.134C209.299 40.7047 209.63 40.3733 210.05 40.14C210.48 39.8973 210.937 39.776 211.422 39.776C211.964 39.776 212.435 39.888 212.836 40.112C213.247 40.3267 213.56 40.658 213.774 41.106C213.998 41.5447 214.11 42.1047 214.11 42.786V47H212.948V42.912C212.948 42.2027 212.804 41.6707 212.514 41.316C212.225 40.9613 211.819 40.784 211.296 40.784C210.932 40.784 210.606 40.882 210.316 41.078C210.027 41.2647 209.798 41.54 209.63 41.904C209.462 42.268 209.378 42.716 209.378 43.248V47H208.202V42.912C208.202 42.2027 208.058 41.6707 207.768 41.316C207.479 40.9613 207.068 40.784 206.536 40.784C206.182 40.784 205.86 40.882 205.57 41.078C205.29 41.2647 205.066 41.54 204.898 41.904C204.73 42.268 204.646 42.716 204.646 43.248V47H203.47Z" fill="white" fill-opacity="0.32"/>
<g filter="url(#filter0_d_65_155)">
<rect x="20" y="84" width="387.56" height="44" rx="6" fill="white" fill-opacity="0.2" shape-rendering="crispEdges"/>
<rect x="19.5" y="83.5" width="388.56" height="45" rx="6.5" stroke="#3148B9" shape-rendering="crispEdges"/>
<path d="M40.4306 112.199C40.9375 111.004 42.1211 110.167 43.5003 110.167H48.5003C49.8796 110.167 51.0631 111.004 51.5701 112.199M49.3337 103.917C49.3337 105.758 47.8413 107.25 46.0003 107.25C44.1594 107.25 42.667 105.758 42.667 103.917C42.667 102.076 44.1594 100.583 46.0003 100.583C47.8413 100.583 49.3337 102.076 49.3337 103.917ZM54.3337 106C54.3337 110.602 50.6027 114.333 46.0003 114.333C41.398 114.333 37.667 110.602 37.667 106C37.667 101.398 41.398 97.6667 46.0003 97.6667C50.6027 97.6667 54.3337 101.398 54.3337 106Z" stroke="white" stroke-opacity="0.88" stroke-width="1.2" stroke-linecap="round" stroke-linejoin="round"/>
<path d="M67.622 114.08V113.072H68.168C68.5227 113.072 68.7747 112.997 68.924 112.848C69.0733 112.708 69.148 112.465 69.148 112.12V103.944H70.324V112.148C70.324 112.596 70.2493 112.96 70.1 113.24C69.9507 113.529 69.7267 113.739 69.428 113.87C69.1387 114.01 68.7793 114.08 68.35 114.08H67.622ZM69.75 102.446C69.5167 102.446 69.3207 102.371 69.162 102.222C69.0127 102.063 68.938 101.867 68.938 101.634C68.938 101.401 69.0127 101.214 69.162 101.074C69.3207 100.925 69.5167 100.85 69.75 100.85C69.974 100.85 70.1607 100.925 70.31 101.074C70.4687 101.214 70.548 101.401 70.548 101.634C70.548 101.867 70.4687 102.063 70.31 102.222C70.1607 102.371 69.974 102.446 69.75 102.446ZM75.5343 111.168C74.881 111.168 74.293 111.019 73.7703 110.72C73.2476 110.412 72.837 109.983 72.5383 109.432C72.2396 108.872 72.0903 108.223 72.0903 107.486C72.0903 106.73 72.2396 106.077 72.5383 105.526C72.8463 104.966 73.2616 104.537 73.7843 104.238C74.3163 103.93 74.909 103.776 75.5623 103.776C76.2343 103.776 76.827 103.93 77.3403 104.238C77.863 104.537 78.2736 104.966 78.5723 105.526C78.8803 106.077 79.0343 106.725 79.0343 107.472C79.0343 108.219 78.8803 108.872 78.5723 109.432C78.2643 109.983 77.849 110.412 77.3263 110.72C76.8036 111.019 76.2063 111.168 75.5343 111.168ZM75.5483 110.16C75.9496 110.16 76.323 110.062 76.6683 109.866C77.0136 109.661 77.2936 109.357 77.5083 108.956C77.723 108.555 77.8303 108.06 77.8303 107.472C77.8303 106.875 77.723 106.38 77.5083 105.988C77.303 105.587 77.0276 105.288 76.6823 105.092C76.3463 104.887 75.973 104.784 75.5623 104.784C75.1703 104.784 74.797 104.887 74.4423 105.092C74.097 105.288 73.817 105.587 73.6023 105.988C73.397 106.38 73.2943 106.875 73.2943 107.472C73.2943 108.06 73.397 108.555 73.6023 108.956C73.817 109.357 74.0923 109.661 74.4283 109.866C74.7736 110.062 75.147 110.16 75.5483 110.16ZM80.6831 111V100.92H81.8591V105.134C82.0925 104.714 82.4191 104.383 82.8391 104.14C83.2685 103.897 83.7351 103.776 84.2391 103.776C84.7805 103.776 85.2518 103.888 85.6531 104.112C86.0545 104.327 86.3625 104.658 86.5771 105.106C86.7918 105.554 86.8991 106.119 86.8991 106.8V111H85.7371V106.926C85.7371 106.217 85.5878 105.685 85.2891 105.33C84.9905 104.966 84.5565 104.784 83.9871 104.784C83.5858 104.784 83.2218 104.882 82.8951 105.078C82.5778 105.274 82.3258 105.554 82.1391 105.918C81.9525 106.282 81.8591 106.73 81.8591 107.262V111H80.6831ZM88.7359 111V103.944H89.7999L89.8559 105.176C90.0799 104.737 90.3972 104.397 90.8079 104.154C91.2279 103.902 91.7039 103.776 92.2359 103.776C92.7865 103.776 93.2625 103.888 93.6639 104.112C94.0652 104.327 94.3779 104.658 94.6019 105.106C94.8259 105.545 94.9379 106.105 94.9379 106.786V111H93.7619V106.912C93.7619 106.203 93.6032 105.671 93.2859 105.316C92.9779 104.961 92.5392 104.784 91.9699 104.784C91.5779 104.784 91.2279 104.882 90.9199 105.078C90.6119 105.265 90.3645 105.54 90.1779 105.904C90.0005 106.259 89.9119 106.702 89.9119 107.234V111H88.7359ZM97.1949 111.07C96.9616 111.07 96.7656 110.995 96.6069 110.846C96.4576 110.687 96.3829 110.496 96.3829 110.272C96.3829 110.048 96.4576 109.861 96.6069 109.712C96.7656 109.553 96.9616 109.474 97.1949 109.474C97.4283 109.474 97.6196 109.553 97.7689 109.712C97.9183 109.861 97.9929 110.048 97.9929 110.272C97.9929 110.496 97.9183 110.687 97.7689 110.846C97.6196 110.995 97.4283 111.07 97.1949 111.07ZM102.21 111.168C101.622 111.168 101.109 111.07 100.67 110.874C100.241 110.678 99.8956 110.407 99.6343 110.062C99.3823 109.707 99.2283 109.292 99.1723 108.816H100.376C100.423 109.059 100.521 109.283 100.67 109.488C100.82 109.693 101.02 109.861 101.272 109.992C101.534 110.113 101.851 110.174 102.224 110.174C102.551 110.174 102.822 110.127 103.036 110.034C103.251 109.931 103.41 109.796 103.512 109.628C103.624 109.46 103.68 109.278 103.68 109.082C103.68 108.793 103.61 108.573 103.47 108.424C103.34 108.275 103.144 108.158 102.882 108.074C102.621 107.981 102.304 107.901 101.93 107.836C101.622 107.78 101.319 107.705 101.02 107.612C100.722 107.519 100.456 107.397 100.222 107.248C99.989 107.089 99.8023 106.898 99.6623 106.674C99.5316 106.45 99.4663 106.175 99.4663 105.848C99.4663 105.447 99.569 105.092 99.7743 104.784C99.9796 104.467 100.274 104.219 100.656 104.042C101.048 103.865 101.501 103.776 102.014 103.776C102.77 103.776 103.382 103.958 103.848 104.322C104.315 104.686 104.59 105.213 104.674 105.904H103.512C103.466 105.549 103.312 105.274 103.05 105.078C102.798 104.873 102.448 104.77 102 104.77C101.562 104.77 101.226 104.859 100.992 105.036C100.768 105.213 100.656 105.447 100.656 105.736C100.656 105.923 100.717 106.091 100.838 106.24C100.969 106.38 101.156 106.501 101.398 106.604C101.65 106.707 101.958 106.791 102.322 106.856C102.789 106.94 103.214 107.052 103.596 107.192C103.979 107.332 104.287 107.542 104.52 107.822C104.763 108.093 104.884 108.48 104.884 108.984C104.884 109.423 104.772 109.805 104.548 110.132C104.334 110.459 104.026 110.715 103.624 110.902C103.223 111.079 102.752 111.168 102.21 111.168ZM106.578 111V103.944H107.642L107.712 104.952C107.936 104.588 108.234 104.303 108.608 104.098C108.99 103.883 109.406 103.776 109.854 103.776C110.218 103.776 110.544 103.827 110.834 103.93C111.132 104.023 111.394 104.173 111.618 104.378C111.842 104.574 112.024 104.826 112.164 105.134C112.406 104.705 112.738 104.373 113.158 104.14C113.587 103.897 114.044 103.776 114.53 103.776C115.071 103.776 115.542 103.888 115.944 104.112C116.354 104.327 116.667 104.658 116.882 105.106C117.106 105.545 117.218 106.105 117.218 106.786V111H116.056V106.912C116.056 106.203 115.911 105.671 115.622 105.316C115.332 104.961 114.926 104.784 114.404 104.784C114.04 104.784 113.713 104.882 113.424 105.078C113.134 105.265 112.906 105.54 112.738 105.904C112.57 106.268 112.486 106.716 112.486 107.248V111H111.31V106.912C111.31 106.203 111.165 105.671 110.876 105.316C110.586 104.961 110.176 104.784 109.644 104.784C109.289 104.784 108.967 104.882 108.678 105.078C108.398 105.265 108.174 105.54 108.006 105.904C107.838 106.268 107.754 106.716 107.754 107.248V111H106.578ZM119.158 111V103.944H120.334V111H119.158ZM119.746 102.446C119.513 102.446 119.317 102.371 119.158 102.222C119.009 102.063 118.934 101.867 118.934 101.634C118.934 101.401 119.009 101.214 119.158 101.074C119.317 100.925 119.513 100.85 119.746 100.85C119.97 100.85 120.162 100.925 120.32 101.074C120.479 101.214 120.558 101.401 120.558 101.634C120.558 101.867 120.479 102.063 120.32 102.222C120.162 102.371 119.97 102.446 119.746 102.446ZM125.182 111C124.762 111 124.398 110.935 124.09 110.804C123.782 110.673 123.544 110.454 123.376 110.146C123.217 109.829 123.138 109.404 123.138 108.872V104.938H121.906V103.944H123.138L123.292 102.236H124.314V103.944H126.358V104.938H124.314V108.872C124.314 109.311 124.402 109.609 124.58 109.768C124.757 109.917 125.07 109.992 125.518 109.992H126.274V111H125.182ZM127.892 111V100.92H129.068V105.134C129.301 104.714 129.628 104.383 130.048 104.14C130.477 103.897 130.944 103.776 131.448 103.776C131.989 103.776 132.461 103.888 132.862 104.112C133.263 104.327 133.571 104.658 133.786 105.106C134.001 105.554 134.108 106.119 134.108 106.8V111H132.946V106.926C132.946 106.217 132.797 105.685 132.498 105.33C132.199 104.966 131.765 104.784 131.196 104.784C130.795 104.784 130.431 104.882 130.104 105.078C129.787 105.274 129.535 105.554 129.348 105.918C129.161 106.282 129.068 106.73 129.068 107.262V111H127.892ZM140.985 113.786C140.005 113.786 139.142 113.59 138.395 113.198C137.648 112.815 137.065 112.265 136.645 111.546C136.234 110.837 136.029 109.997 136.029 109.026C136.029 108.037 136.192 107.122 136.519 106.282C136.855 105.433 137.326 104.691 137.933 104.056C138.54 103.421 139.263 102.927 140.103 102.572C140.943 102.217 141.872 102.04 142.889 102.04C143.916 102.04 144.807 102.241 145.563 102.642C146.328 103.034 146.921 103.585 147.341 104.294C147.761 105.003 147.971 105.825 147.971 106.758C147.971 107.299 147.906 107.827 147.775 108.34C147.654 108.853 147.467 109.315 147.215 109.726C146.963 110.137 146.655 110.468 146.291 110.72C145.927 110.963 145.507 111.084 145.031 111.084C144.471 111.084 144.065 110.911 143.813 110.566C143.57 110.221 143.482 109.777 143.547 109.236L143.589 108.76L143.827 109.18C143.594 109.768 143.225 110.235 142.721 110.58C142.217 110.916 141.666 111.084 141.069 111.084C140.369 111.084 139.823 110.869 139.431 110.44C139.039 110.011 138.843 109.427 138.843 108.69C138.843 108.177 138.922 107.687 139.081 107.22C139.24 106.753 139.464 106.338 139.753 105.974C140.052 105.601 140.402 105.307 140.803 105.092C141.214 104.877 141.671 104.77 142.175 104.77C142.744 104.77 143.197 104.924 143.533 105.232C143.869 105.531 144.065 105.974 144.121 106.562L143.841 106.744L144.163 104.924H145.157L144.457 108.942C144.392 109.334 144.41 109.656 144.513 109.908C144.625 110.151 144.854 110.272 145.199 110.272C145.498 110.272 145.759 110.165 145.983 109.95C146.216 109.735 146.408 109.455 146.557 109.11C146.716 108.765 146.832 108.391 146.907 107.99C146.982 107.589 147.019 107.197 147.019 106.814C147.019 105.983 146.846 105.279 146.501 104.7C146.156 104.112 145.661 103.659 145.017 103.342C144.382 103.025 143.626 102.866 142.749 102.866C141.9 102.866 141.12 103.02 140.411 103.328C139.711 103.636 139.104 104.07 138.591 104.63C138.078 105.181 137.681 105.825 137.401 106.562C137.121 107.29 136.981 108.079 136.981 108.928C136.981 109.787 137.149 110.515 137.485 111.112C137.83 111.709 138.32 112.162 138.955 112.47C139.59 112.787 140.341 112.946 141.209 112.946C141.61 112.946 142.007 112.904 142.399 112.82C142.8 112.745 143.174 112.629 143.519 112.47L143.715 113.268C143.295 113.445 142.856 113.576 142.399 113.66C141.942 113.744 141.47 113.786 140.985 113.786ZM141.405 110.188C141.806 110.188 142.17 110.081 142.497 109.866C142.824 109.651 143.094 109.357 143.309 108.984C143.524 108.601 143.654 108.158 143.701 107.654C143.748 107.29 143.72 106.959 143.617 106.66C143.514 106.361 143.346 106.123 143.113 105.946C142.88 105.759 142.576 105.666 142.203 105.666C141.839 105.666 141.517 105.75 141.237 105.918C140.957 106.077 140.719 106.291 140.523 106.562C140.327 106.833 140.178 107.136 140.075 107.472C139.972 107.808 139.921 108.153 139.921 108.508C139.921 109.012 140.047 109.418 140.299 109.726C140.551 110.034 140.92 110.188 141.405 110.188ZM152.799 114.248C152.165 114.248 151.6 114.164 151.105 113.996C150.62 113.837 150.242 113.59 149.971 113.254C149.701 112.918 149.565 112.503 149.565 112.008C149.565 111.793 149.607 111.565 149.691 111.322C149.785 111.079 149.939 110.841 150.153 110.608C150.377 110.375 150.69 110.165 151.091 109.978L151.903 110.454C151.409 110.659 151.087 110.893 150.937 111.154C150.788 111.425 150.713 111.672 150.713 111.896C150.713 112.204 150.802 112.461 150.979 112.666C151.157 112.871 151.404 113.025 151.721 113.128C152.039 113.231 152.398 113.282 152.799 113.282C153.201 113.282 153.546 113.226 153.835 113.114C154.125 113.002 154.349 112.843 154.507 112.638C154.666 112.433 154.745 112.19 154.745 111.91C154.745 111.583 154.624 111.308 154.381 111.084C154.139 110.869 153.677 110.743 152.995 110.706C152.445 110.669 151.983 110.617 151.609 110.552C151.236 110.487 150.928 110.412 150.685 110.328C150.443 110.235 150.237 110.132 150.069 110.02C149.911 109.908 149.766 109.791 149.635 109.67V109.348L150.993 108.004L152.015 108.368L150.615 109.628L150.797 109.138C150.9 109.213 150.998 109.283 151.091 109.348C151.185 109.413 151.311 109.469 151.469 109.516C151.628 109.563 151.847 109.605 152.127 109.642C152.417 109.679 152.795 109.717 153.261 109.754C153.905 109.801 154.419 109.913 154.801 110.09C155.193 110.267 155.473 110.505 155.641 110.804C155.819 111.103 155.907 111.457 155.907 111.868C155.907 112.269 155.795 112.647 155.571 113.002C155.357 113.366 155.021 113.665 154.563 113.898C154.106 114.131 153.518 114.248 152.799 114.248ZM152.785 108.788C152.197 108.788 151.693 108.676 151.273 108.452C150.863 108.228 150.55 107.929 150.335 107.556C150.121 107.173 150.013 106.749 150.013 106.282C150.013 105.815 150.121 105.395 150.335 105.022C150.559 104.649 150.877 104.35 151.287 104.126C151.698 103.893 152.197 103.776 152.785 103.776C153.373 103.776 153.873 103.893 154.283 104.126C154.694 104.35 155.007 104.649 155.221 105.022C155.436 105.395 155.543 105.815 155.543 106.282C155.543 106.749 155.436 107.173 155.221 107.556C155.007 107.929 154.694 108.228 154.283 108.452C153.873 108.676 153.373 108.788 152.785 108.788ZM152.785 107.822C153.289 107.822 153.686 107.691 153.975 107.43C154.265 107.169 154.409 106.786 154.409 106.282C154.409 105.787 154.265 105.409 153.975 105.148C153.686 104.887 153.289 104.756 152.785 104.756C152.291 104.756 151.889 104.887 151.581 105.148C151.283 105.409 151.133 105.787 151.133 106.282C151.133 106.786 151.283 107.169 151.581 107.43C151.88 107.691 152.281 107.822 152.785 107.822ZM153.933 104.938L153.583 103.944H156.467V104.826L153.933 104.938ZM157.82 111V103.944H158.884L158.954 104.952C159.178 104.588 159.477 104.303 159.85 104.098C160.233 103.883 160.648 103.776 161.096 103.776C161.46 103.776 161.787 103.827 162.076 103.93C162.375 104.023 162.636 104.173 162.86 104.378C163.084 104.574 163.266 104.826 163.406 105.134C163.649 104.705 163.98 104.373 164.4 104.14C164.829 103.897 165.287 103.776 165.772 103.776C166.313 103.776 166.785 103.888 167.186 104.112C167.597 104.327 167.909 104.658 168.124 105.106C168.348 105.545 168.46 106.105 168.46 106.786V111H167.298V106.912C167.298 106.203 167.153 105.671 166.864 105.316C166.575 104.961 166.169 104.784 165.646 104.784C165.282 104.784 164.955 104.882 164.666 105.078C164.377 105.265 164.148 105.54 163.98 105.904C163.812 106.268 163.728 106.716 163.728 107.248V111H162.552V106.912C162.552 106.203 162.407 105.671 162.118 105.316C161.829 104.961 161.418 104.784 160.886 104.784C160.531 104.784 160.209 104.882 159.92 105.078C159.64 105.265 159.416 105.54 159.248 105.904C159.08 106.268 158.996 106.716 158.996 107.248V111H157.82ZM172.585 111.168C172.015 111.168 171.539 111.07 171.157 110.874C170.774 110.669 170.489 110.403 170.303 110.076C170.116 109.74 170.023 109.376 170.023 108.984C170.023 108.508 170.144 108.107 170.387 107.78C170.639 107.444 170.989 107.192 171.437 107.024C171.894 106.847 172.431 106.758 173.047 106.758H174.909C174.909 106.319 174.839 105.955 174.699 105.666C174.568 105.367 174.372 105.143 174.111 104.994C173.859 104.845 173.541 104.77 173.159 104.77C172.711 104.77 172.323 104.882 171.997 105.106C171.67 105.33 171.469 105.661 171.395 106.1H170.191C170.247 105.596 170.415 105.176 170.695 104.84C170.984 104.495 171.348 104.233 171.787 104.056C172.225 103.869 172.683 103.776 173.159 103.776C173.812 103.776 174.353 103.897 174.783 104.14C175.221 104.373 175.548 104.705 175.763 105.134C175.977 105.554 176.085 106.053 176.085 106.632V111H175.035L174.965 109.754C174.871 109.95 174.75 110.137 174.601 110.314C174.461 110.482 174.293 110.631 174.097 110.762C173.901 110.883 173.677 110.981 173.425 111.056C173.182 111.131 172.902 111.168 172.585 111.168ZM172.767 110.174C173.093 110.174 173.387 110.109 173.649 109.978C173.919 109.838 174.148 109.651 174.335 109.418C174.521 109.175 174.661 108.909 174.755 108.62C174.857 108.331 174.909 108.027 174.909 107.71V107.668H173.145C172.687 107.668 172.319 107.724 172.039 107.836C171.759 107.939 171.558 108.088 171.437 108.284C171.315 108.471 171.255 108.685 171.255 108.928C171.255 109.18 171.311 109.399 171.423 109.586C171.544 109.773 171.717 109.917 171.941 110.02C172.174 110.123 172.449 110.174 172.767 110.174ZM178.016 111V103.944H179.192V111H178.016ZM178.604 102.446C178.37 102.446 178.174 102.371 178.016 102.222C177.866 102.063 177.792 101.867 177.792 101.634C177.792 101.401 177.866 101.214 178.016 101.074C178.174 100.925 178.37 100.85 178.604 100.85C178.828 100.85 179.019 100.925 179.178 101.074C179.336 101.214 179.416 101.401 179.416 101.634C179.416 101.867 179.336 102.063 179.178 102.222C179.019 102.371 178.828 102.446 178.604 102.446ZM181.267 111V100.92H182.443V111H181.267ZM184.804 111.07C184.571 111.07 184.375 110.995 184.216 110.846C184.067 110.687 183.992 110.496 183.992 110.272C183.992 110.048 184.067 109.861 184.216 109.712C184.375 109.553 184.571 109.474 184.804 109.474C185.038 109.474 185.229 109.553 185.378 109.712C185.528 109.861 185.602 110.048 185.602 110.272C185.602 110.496 185.528 110.687 185.378 110.846C185.229 110.995 185.038 111.07 184.804 111.07ZM190.338 111.168C189.675 111.168 189.078 111.014 188.546 110.706C188.023 110.398 187.612 109.969 187.314 109.418C187.015 108.858 186.866 108.214 186.866 107.486C186.866 106.739 187.015 106.091 187.314 105.54C187.612 104.989 188.023 104.56 188.546 104.252C189.078 103.935 189.675 103.776 190.338 103.776C191.178 103.776 191.878 103.995 192.438 104.434C192.998 104.863 193.352 105.442 193.502 106.17H192.298C192.204 105.731 191.976 105.391 191.612 105.148C191.248 104.905 190.818 104.784 190.324 104.784C189.922 104.784 189.549 104.887 189.204 105.092C188.858 105.288 188.583 105.587 188.378 105.988C188.172 106.389 188.07 106.884 188.07 107.472C188.07 107.911 188.13 108.303 188.252 108.648C188.373 108.984 188.536 109.264 188.742 109.488C188.947 109.712 189.185 109.885 189.456 110.006C189.736 110.118 190.025 110.174 190.324 110.174C190.66 110.174 190.963 110.123 191.234 110.02C191.504 109.908 191.733 109.745 191.92 109.53C192.106 109.315 192.232 109.063 192.298 108.774H193.502C193.352 109.483 192.993 110.062 192.424 110.51C191.864 110.949 191.168 111.168 190.338 111.168ZM198.321 111.168C197.668 111.168 197.08 111.019 196.557 110.72C196.035 110.412 195.624 109.983 195.325 109.432C195.027 108.872 194.877 108.223 194.877 107.486C194.877 106.73 195.027 106.077 195.325 105.526C195.633 104.966 196.049 104.537 196.571 104.238C197.103 103.93 197.696 103.776 198.349 103.776C199.021 103.776 199.614 103.93 200.127 104.238C200.65 104.537 201.061 104.966 201.359 105.526C201.667 106.077 201.821 106.725 201.821 107.472C201.821 108.219 201.667 108.872 201.359 109.432C201.051 109.983 200.636 110.412 200.113 110.72C199.591 111.019 198.993 111.168 198.321 111.168ZM198.335 110.16C198.737 110.16 199.11 110.062 199.455 109.866C199.801 109.661 200.081 109.357 200.295 108.956C200.51 108.555 200.617 108.06 200.617 107.472C200.617 106.875 200.51 106.38 200.295 105.988C200.09 105.587 199.815 105.288 199.469 105.092C199.133 104.887 198.76 104.784 198.349 104.784C197.957 104.784 197.584 104.887 197.229 105.092C196.884 105.288 196.604 105.587 196.389 105.988C196.184 106.38 196.081 106.875 196.081 107.472C196.081 108.06 196.184 108.555 196.389 108.956C196.604 109.357 196.879 109.661 197.215 109.866C197.561 110.062 197.934 110.16 198.335 110.16ZM203.47 111V103.944H204.534L204.604 104.952C204.828 104.588 205.127 104.303 205.5 104.098C205.883 103.883 206.298 103.776 206.746 103.776C207.11 103.776 207.437 103.827 207.726 103.93C208.025 104.023 208.286 104.173 208.51 104.378C208.734 104.574 208.916 104.826 209.056 105.134C209.299 104.705 209.63 104.373 210.05 104.14C210.48 103.897 210.937 103.776 211.422 103.776C211.964 103.776 212.435 103.888 212.836 104.112C213.247 104.327 213.56 104.658 213.774 105.106C213.998 105.545 214.11 106.105 214.11 106.786V111H212.948V106.912C212.948 106.203 212.804 105.671 212.514 105.316C212.225 104.961 211.819 104.784 211.296 104.784C210.932 104.784 210.606 104.882 210.316 105.078C210.027 105.265 209.798 105.54 209.63 105.904C209.462 106.268 209.378 106.716 209.378 107.248V111H208.202V106.912C208.202 106.203 208.058 105.671 207.768 105.316C207.479 104.961 207.068 104.784 206.536 104.784C206.182 104.784 205.86 104.882 205.57 105.078C205.29 105.265 205.066 105.54 204.898 105.904C204.73 106.268 204.646 106.716 204.646 107.248V111H203.47Z" fill="white" fill-opacity="0.47"/>
</g>
<g filter="url(#filter1_d_65_155)">
<rect x="20" y="148" width="387.56" height="44" rx="6" fill="white" fill-opacity="0.08" shape-rendering="crispEdges"/>
<rect x="19.5" y="147.5" width="388.56" height="45" rx="6.5" stroke="#3148B9" shape-rendering="crispEdges"/>
<path d="M40.4306 176.199C40.9375 175.004 42.1211 174.167 43.5003 174.167H48.5003C49.8796 174.167 51.0631 175.004 51.5701 176.199M49.3337 167.917C49.3337 169.758 47.8413 171.25 46.0003 171.25C44.1594 171.25 42.667 169.758 42.667 167.917C42.667 166.076 44.1594 164.583 46.0003 164.583C47.8413 164.583 49.3337 166.076 49.3337 167.917ZM54.3337 170C54.3337 174.602 50.6027 178.333 46.0003 178.333C41.398 178.333 37.667 174.602 37.667 170C37.667 165.398 41.398 161.667 46.0003 161.667C50.6027 161.667 54.3337 165.398 54.3337 170Z" stroke="white" stroke-opacity="0.32" stroke-width="1.2" stroke-linecap="round" stroke-linejoin="round"/>
<path d="M67.622 178.08V177.072H68.168C68.5227 177.072 68.7747 176.997 68.924 176.848C69.0733 176.708 69.148 176.465 69.148 176.12V167.944H70.324V176.148C70.324 176.596 70.2493 176.96 70.1 177.24C69.9507 177.529 69.7267 177.739 69.428 177.87C69.1387 178.01 68.7793 178.08 68.35 178.08H67.622ZM69.75 166.446C69.5167 166.446 69.3207 166.371 69.162 166.222C69.0127 166.063 68.938 165.867 68.938 165.634C68.938 165.401 69.0127 165.214 69.162 165.074C69.3207 164.925 69.5167 164.85 69.75 164.85C69.974 164.85 70.1607 164.925 70.31 165.074C70.4687 165.214 70.548 165.401 70.548 165.634C70.548 165.867 70.4687 166.063 70.31 166.222C70.1607 166.371 69.974 166.446 69.75 166.446ZM75.5343 175.168C74.881 175.168 74.293 175.019 73.7703 174.72C73.2476 174.412 72.837 173.983 72.5383 173.432C72.2396 172.872 72.0903 172.223 72.0903 171.486C72.0903 170.73 72.2396 170.077 72.5383 169.526C72.8463 168.966 73.2616 168.537 73.7843 168.238C74.3163 167.93 74.909 167.776 75.5623 167.776C76.2343 167.776 76.827 167.93 77.3403 168.238C77.863 168.537 78.2736 168.966 78.5723 169.526C78.8803 170.077 79.0343 170.725 79.0343 171.472C79.0343 172.219 78.8803 172.872 78.5723 173.432C78.2643 173.983 77.849 174.412 77.3263 174.72C76.8036 175.019 76.2063 175.168 75.5343 175.168ZM75.5483 174.16C75.9496 174.16 76.323 174.062 76.6683 173.866C77.0136 173.661 77.2936 173.357 77.5083 172.956C77.723 172.555 77.8303 172.06 77.8303 171.472C77.8303 170.875 77.723 170.38 77.5083 169.988C77.303 169.587 77.0276 169.288 76.6823 169.092C76.3463 168.887 75.973 168.784 75.5623 168.784C75.1703 168.784 74.797 168.887 74.4423 169.092C74.097 169.288 73.817 169.587 73.6023 169.988C73.397 170.38 73.2943 170.875 73.2943 171.472C73.2943 172.06 73.397 172.555 73.6023 172.956C73.817 173.357 74.0923 173.661 74.4283 173.866C74.7736 174.062 75.147 174.16 75.5483 174.16ZM80.6831 175V164.92H81.8591V169.134C82.0925 168.714 82.4191 168.383 82.8391 168.14C83.2685 167.897 83.7351 167.776 84.2391 167.776C84.7805 167.776 85.2518 167.888 85.6531 168.112C86.0545 168.327 86.3625 168.658 86.5771 169.106C86.7918 169.554 86.8991 170.119 86.8991 170.8V175H85.7371V170.926C85.7371 170.217 85.5878 169.685 85.2891 169.33C84.9905 168.966 84.5565 168.784 83.9871 168.784C83.5858 168.784 83.2218 168.882 82.8951 169.078C82.5778 169.274 82.3258 169.554 82.1391 169.918C81.9525 170.282 81.8591 170.73 81.8591 171.262V175H80.6831ZM88.7359 175V167.944H89.7999L89.8559 169.176C90.0799 168.737 90.3972 168.397 90.8079 168.154C91.2279 167.902 91.7039 167.776 92.2359 167.776C92.7865 167.776 93.2625 167.888 93.6639 168.112C94.0652 168.327 94.3779 168.658 94.6019 169.106C94.8259 169.545 94.9379 170.105 94.9379 170.786V175H93.7619V170.912C93.7619 170.203 93.6032 169.671 93.2859 169.316C92.9779 168.961 92.5392 168.784 91.9699 168.784C91.5779 168.784 91.2279 168.882 90.9199 169.078C90.6119 169.265 90.3645 169.54 90.1779 169.904C90.0005 170.259 89.9119 170.702 89.9119 171.234V175H88.7359ZM97.1949 175.07C96.9616 175.07 96.7656 174.995 96.6069 174.846C96.4576 174.687 96.3829 174.496 96.3829 174.272C96.3829 174.048 96.4576 173.861 96.6069 173.712C96.7656 173.553 96.9616 173.474 97.1949 173.474C97.4283 173.474 97.6196 173.553 97.7689 173.712C97.9183 173.861 97.9929 174.048 97.9929 174.272C97.9929 174.496 97.9183 174.687 97.7689 174.846C97.6196 174.995 97.4283 175.07 97.1949 175.07ZM102.21 175.168C101.622 175.168 101.109 175.07 100.67 174.874C100.241 174.678 99.8956 174.407 99.6343 174.062C99.3823 173.707 99.2283 173.292 99.1723 172.816H100.376C100.423 173.059 100.521 173.283 100.67 173.488C100.82 173.693 101.02 173.861 101.272 173.992C101.534 174.113 101.851 174.174 102.224 174.174C102.551 174.174 102.822 174.127 103.036 174.034C103.251 173.931 103.41 173.796 103.512 173.628C103.624 173.46 103.68 173.278 103.68 173.082C103.68 172.793 103.61 172.573 103.47 172.424C103.34 172.275 103.144 172.158 102.882 172.074C102.621 171.981 102.304 171.901 101.93 171.836C101.622 171.78 101.319 171.705 101.02 171.612C100.722 171.519 100.456 171.397 100.222 171.248C99.989 171.089 99.8023 170.898 99.6623 170.674C99.5316 170.45 99.4663 170.175 99.4663 169.848C99.4663 169.447 99.569 169.092 99.7743 168.784C99.9796 168.467 100.274 168.219 100.656 168.042C101.048 167.865 101.501 167.776 102.014 167.776C102.77 167.776 103.382 167.958 103.848 168.322C104.315 168.686 104.59 169.213 104.674 169.904H103.512C103.466 169.549 103.312 169.274 103.05 169.078C102.798 168.873 102.448 168.77 102 168.77C101.562 168.77 101.226 168.859 100.992 169.036C100.768 169.213 100.656 169.447 100.656 169.736C100.656 169.923 100.717 170.091 100.838 170.24C100.969 170.38 101.156 170.501 101.398 170.604C101.65 170.707 101.958 170.791 102.322 170.856C102.789 170.94 103.214 171.052 103.596 171.192C103.979 171.332 104.287 171.542 104.52 171.822C104.763 172.093 104.884 172.48 104.884 172.984C104.884 173.423 104.772 173.805 104.548 174.132C104.334 174.459 104.026 174.715 103.624 174.902C103.223 175.079 102.752 175.168 102.21 175.168ZM106.578 175V167.944H107.642L107.712 168.952C107.936 168.588 108.234 168.303 108.608 168.098C108.99 167.883 109.406 167.776 109.854 167.776C110.218 167.776 110.544 167.827 110.834 167.93C111.132 168.023 111.394 168.173 111.618 168.378C111.842 168.574 112.024 168.826 112.164 169.134C112.406 168.705 112.738 168.373 113.158 168.14C113.587 167.897 114.044 167.776 114.53 167.776C115.071 167.776 115.542 167.888 115.944 168.112C116.354 168.327 116.667 168.658 116.882 169.106C117.106 169.545 117.218 170.105 117.218 170.786V175H116.056V170.912C116.056 170.203 115.911 169.671 115.622 169.316C115.332 168.961 114.926 168.784 114.404 168.784C114.04 168.784 113.713 168.882 113.424 169.078C113.134 169.265 112.906 169.54 112.738 169.904C112.57 170.268 112.486 170.716 112.486 171.248V175H111.31V170.912C111.31 170.203 111.165 169.671 110.876 169.316C110.586 168.961 110.176 168.784 109.644 168.784C109.289 168.784 108.967 168.882 108.678 169.078C108.398 169.265 108.174 169.54 108.006 169.904C107.838 170.268 107.754 170.716 107.754 171.248V175H106.578ZM119.158 175V167.944H120.334V175H119.158ZM119.746 166.446C119.513 166.446 119.317 166.371 119.158 166.222C119.009 166.063 118.934 165.867 118.934 165.634C118.934 165.401 119.009 165.214 119.158 165.074C119.317 164.925 119.513 164.85 119.746 164.85C119.97 164.85 120.162 164.925 120.32 165.074C120.479 165.214 120.558 165.401 120.558 165.634C120.558 165.867 120.479 166.063 120.32 166.222C120.162 166.371 119.97 166.446 119.746 166.446ZM125.182 175C124.762 175 124.398 174.935 124.09 174.804C123.782 174.673 123.544 174.454 123.376 174.146C123.217 173.829 123.138 173.404 123.138 172.872V168.938H121.906V167.944H123.138L123.292 166.236H124.314V167.944H126.358V168.938H124.314V172.872C124.314 173.311 124.402 173.609 124.58 173.768C124.757 173.917 125.07 173.992 125.518 173.992H126.274V175H125.182ZM127.892 175V164.92H129.068V169.134C129.301 168.714 129.628 168.383 130.048 168.14C130.477 167.897 130.944 167.776 131.448 167.776C131.989 167.776 132.461 167.888 132.862 168.112C133.263 168.327 133.571 168.658 133.786 169.106C134.001 169.554 134.108 170.119 134.108 170.8V175H132.946V170.926C132.946 170.217 132.797 169.685 132.498 169.33C132.199 168.966 131.765 168.784 131.196 168.784C130.795 168.784 130.431 168.882 130.104 169.078C129.787 169.274 129.535 169.554 129.348 169.918C129.161 170.282 129.068 170.73 129.068 171.262V175H127.892ZM140.985 177.786C140.005 177.786 139.142 177.59 138.395 177.198C137.648 176.815 137.065 176.265 136.645 175.546C136.234 174.837 136.029 173.997 136.029 173.026C136.029 172.037 136.192 171.122 136.519 170.282C136.855 169.433 137.326 168.691 137.933 168.056C138.54 167.421 139.263 166.927 140.103 166.572C140.943 166.217 141.872 166.04 142.889 166.04C143.916 166.04 144.807 166.241 145.563 166.642C146.328 167.034 146.921 167.585 147.341 168.294C147.761 169.003 147.971 169.825 147.971 170.758C147.971 171.299 147.906 171.827 147.775 172.34C147.654 172.853 147.467 173.315 147.215 173.726C146.963 174.137 146.655 174.468 146.291 174.72C145.927 174.963 145.507 175.084 145.031 175.084C144.471 175.084 144.065 174.911 143.813 174.566C143.57 174.221 143.482 173.777 143.547 173.236L143.589 172.76L143.827 173.18C143.594 173.768 143.225 174.235 142.721 174.58C142.217 174.916 141.666 175.084 141.069 175.084C140.369 175.084 139.823 174.869 139.431 174.44C139.039 174.011 138.843 173.427 138.843 172.69C138.843 172.177 138.922 171.687 139.081 171.22C139.24 170.753 139.464 170.338 139.753 169.974C140.052 169.601 140.402 169.307 140.803 169.092C141.214 168.877 141.671 168.77 142.175 168.77C142.744 168.77 143.197 168.924 143.533 169.232C143.869 169.531 144.065 169.974 144.121 170.562L143.841 170.744L144.163 168.924H145.157L144.457 172.942C144.392 173.334 144.41 173.656 144.513 173.908C144.625 174.151 144.854 174.272 145.199 174.272C145.498 174.272 145.759 174.165 145.983 173.95C146.216 173.735 146.408 173.455 146.557 173.11C146.716 172.765 146.832 172.391 146.907 171.99C146.982 171.589 147.019 171.197 147.019 170.814C147.019 169.983 146.846 169.279 146.501 168.7C146.156 168.112 145.661 167.659 145.017 167.342C144.382 167.025 143.626 166.866 142.749 166.866C141.9 166.866 141.12 167.02 140.411 167.328C139.711 167.636 139.104 168.07 138.591 168.63C138.078 169.181 137.681 169.825 137.401 170.562C137.121 171.29 136.981 172.079 136.981 172.928C136.981 173.787 137.149 174.515 137.485 175.112C137.83 175.709 138.32 176.162 138.955 176.47C139.59 176.787 140.341 176.946 141.209 176.946C141.61 176.946 142.007 176.904 142.399 176.82C142.8 176.745 143.174 176.629 143.519 176.47L143.715 177.268C143.295 177.445 142.856 177.576 142.399 177.66C141.942 177.744 141.47 177.786 140.985 177.786ZM141.405 174.188C141.806 174.188 142.17 174.081 142.497 173.866C142.824 173.651 143.094 173.357 143.309 172.984C143.524 172.601 143.654 172.158 143.701 171.654C143.748 171.29 143.72 170.959 143.617 170.66C143.514 170.361 143.346 170.123 143.113 169.946C142.88 169.759 142.576 169.666 142.203 169.666C141.839 169.666 141.517 169.75 141.237 169.918C140.957 170.077 140.719 170.291 140.523 170.562C140.327 170.833 140.178 171.136 140.075 171.472C139.972 171.808 139.921 172.153 139.921 172.508C139.921 173.012 140.047 173.418 140.299 173.726C140.551 174.034 140.92 174.188 141.405 174.188ZM152.799 178.248C152.165 178.248 151.6 178.164 151.105 177.996C150.62 177.837 150.242 177.59 149.971 177.254C149.701 176.918 149.565 176.503 149.565 176.008C149.565 175.793 149.607 175.565 149.691 175.322C149.785 175.079 149.939 174.841 150.153 174.608C150.377 174.375 150.69 174.165 151.091 173.978L151.903 174.454C151.409 174.659 151.087 174.893 150.937 175.154C150.788 175.425 150.713 175.672 150.713 175.896C150.713 176.204 150.802 176.461 150.979 176.666C151.157 176.871 151.404 177.025 151.721 177.128C152.039 177.231 152.398 177.282 152.799 177.282C153.201 177.282 153.546 177.226 153.835 177.114C154.125 177.002 154.349 176.843 154.507 176.638C154.666 176.433 154.745 176.19 154.745 175.91C154.745 175.583 154.624 175.308 154.381 175.084C154.139 174.869 153.677 174.743 152.995 174.706C152.445 174.669 151.983 174.617 151.609 174.552C151.236 174.487 150.928 174.412 150.685 174.328C150.443 174.235 150.237 174.132 150.069 174.02C149.911 173.908 149.766 173.791 149.635 173.67V173.348L150.993 172.004L152.015 172.368L150.615 173.628L150.797 173.138C150.9 173.213 150.998 173.283 151.091 173.348C151.185 173.413 151.311 173.469 151.469 173.516C151.628 173.563 151.847 173.605 152.127 173.642C152.417 173.679 152.795 173.717 153.261 173.754C153.905 173.801 154.419 173.913 154.801 174.09C155.193 174.267 155.473 174.505 155.641 174.804C155.819 175.103 155.907 175.457 155.907 175.868C155.907 176.269 155.795 176.647 155.571 177.002C155.357 177.366 155.021 177.665 154.563 177.898C154.106 178.131 153.518 178.248 152.799 178.248ZM152.785 172.788C152.197 172.788 151.693 172.676 151.273 172.452C150.863 172.228 150.55 171.929 150.335 171.556C150.121 171.173 150.013 170.749 150.013 170.282C150.013 169.815 150.121 169.395 150.335 169.022C150.559 168.649 150.877 168.35 151.287 168.126C151.698 167.893 152.197 167.776 152.785 167.776C153.373 167.776 153.873 167.893 154.283 168.126C154.694 168.35 155.007 168.649 155.221 169.022C155.436 169.395 155.543 169.815 155.543 170.282C155.543 170.749 155.436 171.173 155.221 171.556C155.007 171.929 154.694 172.228 154.283 172.452C153.873 172.676 153.373 172.788 152.785 172.788ZM152.785 171.822C153.289 171.822 153.686 171.691 153.975 171.43C154.265 171.169 154.409 170.786 154.409 170.282C154.409 169.787 154.265 169.409 153.975 169.148C153.686 168.887 153.289 168.756 152.785 168.756C152.291 168.756 151.889 168.887 151.581 169.148C151.283 169.409 151.133 169.787 151.133 170.282C151.133 170.786 151.283 171.169 151.581 171.43C151.88 171.691 152.281 171.822 152.785 171.822ZM153.933 168.938L153.583 167.944H156.467V168.826L153.933 168.938ZM157.82 175V167.944H158.884L158.954 168.952C159.178 168.588 159.477 168.303 159.85 168.098C160.233 167.883 160.648 167.776 161.096 167.776C161.46 167.776 161.787 167.827 162.076 167.93C162.375 168.023 162.636 168.173 162.86 168.378C163.084 168.574 163.266 168.826 163.406 169.134C163.649 168.705 163.98 168.373 164.4 168.14C164.829 167.897 165.287 167.776 165.772 167.776C166.313 167.776 166.785 167.888 167.186 168.112C167.597 168.327 167.909 168.658 168.124 169.106C168.348 169.545 168.46 170.105 168.46 170.786V175H167.298V170.912C167.298 170.203 167.153 169.671 166.864 169.316C166.575 168.961 166.169 168.784 165.646 168.784C165.282 168.784 164.955 168.882 164.666 169.078C164.377 169.265 164.148 169.54 163.98 169.904C163.812 170.268 163.728 170.716 163.728 171.248V175H162.552V170.912C162.552 170.203 162.407 169.671 162.118 169.316C161.829 168.961 161.418 168.784 160.886 168.784C160.531 168.784 160.209 168.882 159.92 169.078C159.64 169.265 159.416 169.54 159.248 169.904C159.08 170.268 158.996 170.716 158.996 171.248V175H157.82ZM172.585 175.168C172.015 175.168 171.539 175.07 171.157 174.874C170.774 174.669 170.489 174.403 170.303 174.076C170.116 173.74 170.023 173.376 170.023 172.984C170.023 172.508 170.144 172.107 170.387 171.78C170.639 171.444 170.989 171.192 171.437 171.024C171.894 170.847 172.431 170.758 173.047 170.758H174.909C174.909 170.319 174.839 169.955 174.699 169.666C174.568 169.367 174.372 169.143 174.111 168.994C173.859 168.845 173.541 168.77 173.159 168.77C172.711 168.77 172.323 168.882 171.997 169.106C171.67 169.33 171.469 169.661 171.395 170.1H170.191C170.247 169.596 170.415 169.176 170.695 168.84C170.984 168.495 171.348 168.233 171.787 168.056C172.225 167.869 172.683 167.776 173.159 167.776C173.812 167.776 174.353 167.897 174.783 168.14C175.221 168.373 175.548 168.705 175.763 169.134C175.977 169.554 176.085 170.053 176.085 170.632V175H175.035L174.965 173.754C174.871 173.95 174.75 174.137 174.601 174.314C174.461 174.482 174.293 174.631 174.097 174.762C173.901 174.883 173.677 174.981 173.425 175.056C173.182 175.131 172.902 175.168 172.585 175.168ZM172.767 174.174C173.093 174.174 173.387 174.109 173.649 173.978C173.919 173.838 174.148 173.651 174.335 173.418C174.521 173.175 174.661 172.909 174.755 172.62C174.857 172.331 174.909 172.027 174.909 171.71V171.668H173.145C172.687 171.668 172.319 171.724 172.039 171.836C171.759 171.939 171.558 172.088 171.437 172.284C171.315 172.471 171.255 172.685 171.255 172.928C171.255 173.18 171.311 173.399 171.423 173.586C171.544 173.773 171.717 173.917 171.941 174.02C172.174 174.123 172.449 174.174 172.767 174.174ZM178.016 175V167.944H179.192V175H178.016ZM178.604 166.446C178.37 166.446 178.174 166.371 178.016 166.222C177.866 166.063 177.792 165.867 177.792 165.634C177.792 165.401 177.866 165.214 178.016 165.074C178.174 164.925 178.37 164.85 178.604 164.85C178.828 164.85 179.019 164.925 179.178 165.074C179.336 165.214 179.416 165.401 179.416 165.634C179.416 165.867 179.336 166.063 179.178 166.222C179.019 166.371 178.828 166.446 178.604 166.446ZM181.267 175V164.92H182.443V175H181.267ZM184.804 175.07C184.571 175.07 184.375 174.995 184.216 174.846C184.067 174.687 183.992 174.496 183.992 174.272C183.992 174.048 184.067 173.861 184.216 173.712C184.375 173.553 184.571 173.474 184.804 173.474C185.038 173.474 185.229 173.553 185.378 173.712C185.528 173.861 185.602 174.048 185.602 174.272C185.602 174.496 185.528 174.687 185.378 174.846C185.229 174.995 185.038 175.07 184.804 175.07ZM190.338 175.168C189.675 175.168 189.078 175.014 188.546 174.706C188.023 174.398 187.612 173.969 187.314 173.418C187.015 172.858 186.866 172.214 186.866 171.486C186.866 170.739 187.015 170.091 187.314 169.54C187.612 168.989 188.023 168.56 188.546 168.252C189.078 167.935 189.675 167.776 190.338 167.776C191.178 167.776 191.878 167.995 192.438 168.434C192.998 168.863 193.352 169.442 193.502 170.17H192.298C192.204 169.731 191.976 169.391 191.612 169.148C191.248 168.905 190.818 168.784 190.324 168.784C189.922 168.784 189.549 168.887 189.204 169.092C188.858 169.288 188.583 169.587 188.378 169.988C188.172 170.389 188.07 170.884 188.07 171.472C188.07 171.911 188.13 172.303 188.252 172.648C188.373 172.984 188.536 173.264 188.742 173.488C188.947 173.712 189.185 173.885 189.456 174.006C189.736 174.118 190.025 174.174 190.324 174.174C190.66 174.174 190.963 174.123 191.234 174.02C191.504 173.908 191.733 173.745 191.92 173.53C192.106 173.315 192.232 173.063 192.298 172.774H193.502C193.352 173.483 192.993 174.062 192.424 174.51C191.864 174.949 191.168 175.168 190.338 175.168ZM198.321 175.168C197.668 175.168 197.08 175.019 196.557 174.72C196.035 174.412 195.624 173.983 195.325 173.432C195.027 172.872 194.877 172.223 194.877 171.486C194.877 170.73 195.027 170.077 195.325 169.526C195.633 168.966 196.049 168.537 196.571 168.238C197.103 167.93 197.696 167.776 198.349 167.776C199.021 167.776 199.614 167.93 200.127 168.238C200.65 168.537 201.061 168.966 201.359 169.526C201.667 170.077 201.821 170.725 201.821 171.472C201.821 172.219 201.667 172.872 201.359 173.432C201.051 173.983 200.636 174.412 200.113 174.72C199.591 175.019 198.993 175.168 198.321 175.168ZM198.335 174.16C198.737 174.16 199.11 174.062 199.455 173.866C199.801 173.661 200.081 173.357 200.295 172.956C200.51 172.555 200.617 172.06 200.617 171.472C200.617 170.875 200.51 170.38 200.295 169.988C200.09 169.587 199.815 169.288 199.469 169.092C199.133 168.887 198.76 168.784 198.349 168.784C197.957 168.784 197.584 168.887 197.229 169.092C196.884 169.288 196.604 169.587 196.389 169.988C196.184 170.38 196.081 170.875 196.081 171.472C196.081 172.06 196.184 172.555 196.389 172.956C196.604 173.357 196.879 173.661 197.215 173.866C197.561 174.062 197.934 174.16 198.335 174.16ZM203.47 175V167.944H204.534L204.604 168.952C204.828 168.588 205.127 168.303 205.5 168.098C205.883 167.883 206.298 167.776 206.746 167.776C207.11 167.776 207.437 167.827 207.726 167.93C208.025 168.023 208.286 168.173 208.51 168.378C208.734 168.574 208.916 168.826 209.056 169.134C209.299 168.705 209.63 168.373 210.05 168.14C210.48 167.897 210.937 167.776 211.422 167.776C211.964 167.776 212.435 167.888 212.836 168.112C213.247 168.327 213.56 168.658 213.774 169.106C213.998 169.545 214.11 170.105 214.11 170.786V175H212.948V170.912C212.948 170.203 212.804 169.671 212.514 169.316C212.225 168.961 211.819 168.784 211.296 168.784C210.932 168.784 210.606 168.882 210.316 169.078C210.027 169.265 209.798 169.54 209.63 169.904C209.462 170.268 209.378 170.716 209.378 171.248V175H208.202V170.912C208.202 170.203 208.058 169.671 207.768 169.316C207.479 168.961 207.068 168.784 206.536 168.784C206.182 168.784 205.86 168.882 205.57 169.078C205.29 169.265 205.066 169.54 204.898 169.904C204.73 170.268 204.646 170.716 204.646 171.248V175H203.47Z" fill="white" fill-opacity="0.32"/>
</g>
<defs>
<filter id="filter0_d_65_155" x="15" y="79" width="397.56" height="54" filterUnits="userSpaceOnUse" color-interpolation-filters="sRGB">
<feFlood flood-opacity="0" result="BackgroundImageFix"/>
<feColorMatrix in="SourceAlpha" type="matrix" values="0 0 0 0 0 0 0 0 0 0 0 0 0 0 0 0 0 0 127 0" result="hardAlpha"/>
<feMorphology radius="4" operator="dilate" in="SourceAlpha" result="effect1_dropShadow_65_155"/>
<feOffset/>
<feComposite in2="hardAlpha" operator="out"/>
<feColorMatrix type="matrix" values="0 0 0 0 0.192157 0 0 0 0 0.282353 0 0 0 0 0.72549 0 0 0 0.15 0"/>
<feBlend mode="normal" in2="BackgroundImageFix" result="effect1_dropShadow_65_155"/>
<feBlend mode="normal" in="SourceGraphic" in2="effect1_dropShadow_65_155" result="shape"/>
</filter>
<filter id="filter1_d_65_155" x="15" y="143" width="397.56" height="54" filterUnits="userSpaceOnUse" color-interpolation-filters="sRGB">
<feFlood flood-opacity="0" result="BackgroundImageFix"/>
<feColorMatrix in="SourceAlpha" type="matrix" values="0 0 0 0 0 0 0 0 0 0 0 0 0 0 0 0 0 0 127 0" result="hardAlpha"/>
<feMorphology radius="4" operator="dilate" in="SourceAlpha" result="effect1_dropShadow_65_155"/>
<feOffset/>
<feComposite in2="hardAlpha" operator="out"/>
<feColorMatrix type="matrix" values="0 0 0 0 0.192157 0 0 0 0 0.282353 0 0 0 0 0.72549 0 0 0 0.15 0"/>
<feBlend mode="normal" in2="BackgroundImageFix" result="effect1_dropShadow_65_155"/>
<feBlend mode="normal" in="SourceGraphic" in2="effect1_dropShadow_65_155" result="shape"/>
</filter>
</defs>
</svg>
